<?xml version="1.0" encoding="UTF-8"?><svg id="Layer_1" xmlns="http://www.w3.org/2000/svg" viewBox="0 0 1200 371"><defs><style>.cls-1,.cls-2,.cls-3{fill:none;}.cls-1,.cls-4,.cls-5,.cls-6,.cls-7,.cls-8{stroke-width:0px;}.cls-2{stroke:#333;}.cls-2,.cls-3{stroke-miterlimit:10;}.cls-2,.cls-3,.cls-9,.cls-10{opacity:.5;}.cls-3{stroke:#000;}.cls-4{opacity:0;}.cls-9{font-size:10px;}.cls-9,.cls-10,.cls-11,.cls-12{font-family:Karrik-Regular, Karrik;}.cls-10,.cls-12{font-size:12px;}.cls-11{font-size:20px;}.cls-5{fill:#605b6d;}.cls-6{fill:#605c6d;}.cls-7{fill:#c0b5da;}.cls-8{fill:#c1b6db;}</style></defs><line class="cls-2" x1="636.15" y1="54.5" x2="636.15" y2="300.5"/><line class="cls-3" x1="1172.15" y1="300.5" x2="636.15" y2="300.5"/><path class="cls-4" d="m637.65,159h-1v-1h500c.55,0,1-.45,1-1v-64c0-.55-.45-1-1-1h-500v-1h1v68Zm-2,0h0v-69h501v1-1c1.66,0,3,1.34,3,3h-1,1v64h-1,1c0,1.66-1.34,3-3,3v-1,1h-501v-1"/><rect class="cls-5" x="636.65" y="91" width="502" height="68"/><path class="cls-4" d="m637.65,264h-1v-1h263c.55,0,1-.45,1-1v-64c0-.55-.45-1-1-1h-263v-1h1v68Zm-2,0h0v-69h264v1-1c1.66,0,3,1.34,3,3h-1,1v64h-1,1c0,1.66-1.34,3-3,3v-1,1h-264v-1"/><rect class="cls-8" x="636.65" y="196" width="265" height="68"/><text class="cls-12" transform="translate(611.2 129.44)"><tspan x="0" y="0">Yes</tspan></text><text class="cls-12" transform="translate(616.2 233.92)"><tspan x="0" y="0">No</tspan></text><text class="cls-10" transform="translate(629.2 317.45)"><tspan x="0" y="0">0%</tspan></text><text class="cls-10" transform="translate(1158.1 317.45)"><tspan x="0" y="0">100%</tspan></text><rect class="cls-1" x="600" width="600" height="371"/><text class="cls-11" transform="translate(821.48 43.45)"><tspan x="0" y="0">Has been ghosted</tspan></text><text class="cls-12" transform="translate(1141.65 129.57)"><tspan x="0" y="0">65.4%</tspan></text><text class="cls-12" transform="translate(904.15 234.06)"><tspan x="0" y="0">34.6%</tspan></text><text class="cls-9" transform="translate(328.54 340.02)"><tspan x="0" y="0" xml:space="preserve">Data from the paper “From Close to Ghost: Examining the Relationship Between the Need for Closure, Intention to Ghost,  and </tspan><tspan x="0" y="12">Reaction to Being Ghosted” by Christina M. Leckfor, Natasha R. Wood, Richard B. Slatcher and Andrew H. Hales</tspan></text><line class="cls-2" x1="34.4" y1="54.5" x2="34.4" y2="300.5"/><line class="cls-3" x1="570.4" y1="300.5" x2="34.4" y2="300.5"/><path class="cls-4" d="m35.9,159h-1v-1h479c.55,0,1-.45,1-1v-64c0-.55-.45-1-1-1H34.9v-1h1v68Zm-2,0h0v-69h480v1-1c1.66,0,3,1.34,3,3h-1,1v64h-1,1c0,1.66-1.34,3-3,3v-1,1H33.9v-1"/><rect class="cls-6" x="34.9" y="91" width="481" height="68"/><path class="cls-4" d="m35.9,264h-1v-1h284c.55,0,1-.45,1-1v-64c0-.55-.45-1-1-1H34.9v-1h1v68Zm-2,0h0v-69h285v1-1c1.66,0,3,1.34,3,3h-1,1v64h-1,1c0,1.66-1.34,3-3,3v-1,1H33.9v-1"/><rect class="cls-7" x="34.9" y="196" width="286" height="68"/><text class="cls-12" transform="translate(9.45 129.44)"><tspan x="0" y="0">Yes</tspan></text><text class="cls-12" transform="translate(14.45 233.92)"><tspan x="0" y="0">No</tspan></text><text class="cls-10" transform="translate(30.95 317.45)"><tspan x="0" y="0">0%</tspan></text><text class="cls-10" transform="translate(559.85 317.45)"><tspan x="0" y="0">100%</tspan></text><rect class="cls-1" width="600" height="371"/><text class="cls-11" transform="translate(183.04 48.27)"><tspan x="0" y="0">Has ghosted someone else</tspan></text><text class="cls-12" transform="translate(519.9 129.44)"><tspan x="0" y="0">62.7%</tspan></text><text class="cls-12" transform="translate(324.9 234.04)"><tspan x="0" y="0">37.3%</tspan></text></svg>