<?xml version="1.0" encoding="UTF-8"?><svg id="Layer_1" xmlns="http://www.w3.org/2000/svg" viewBox="0 0 1200 371"><defs><style>.cls-1,.cls-2,.cls-3{fill:none;}.cls-1,.cls-4,.cls-5,.cls-6,.cls-7,.cls-8,.cls-9,.cls-10{stroke-width:0px;}.cls-2{stroke:#333;}.cls-2,.cls-3{stroke-miterlimit:10;}.cls-2,.cls-3,.cls-5,.cls-11{opacity:.5;}.cls-3{stroke:#000;}.cls-4{opacity:0;}.cls-7{fill:#605b6d;}.cls-8{fill:#605c6d;}.cls-9{fill:#c0b5da;}.cls-10{fill:#c1b6db;}</style></defs><line class="cls-2" x1="636.15" y1="54.5" x2="636.15" y2="300.5"/><line class="cls-3" x1="1172.15" y1="300.5" x2="636.15" y2="300.5"/><path class="cls-4" d="m637.65,159h-1v-1h500c.55,0,1-.45,1-1v-64c0-.55-.45-1-1-1h-500v-1h1v68Zm-2,0h0v-69h501v1-1c1.66,0,3,1.34,3,3h-1,1v64h-1,1c0,1.66-1.34,3-3,3v-1,1h-501v-1"/><rect class="cls-7" x="636.65" y="91" width="502" height="68"/><path class="cls-4" d="m637.65,264h-1v-1h263c.55,0,1-.45,1-1v-64c0-.55-.45-1-1-1h-263v-1h1v68Zm-2,0h0v-69h264v1-1c1.66,0,3,1.34,3,3h-1,1v64h-1,1c0,1.66-1.34,3-3,3v-1,1h-264v-1"/><rect class="cls-10" x="636.65" y="196" width="265" height="68"/><path class="cls-6" d="m614.09,125.46l-2.89-4.17h1.79l1.83,2.58,1.88-2.58h1.72l-2.9,4.17v3.98h-1.43v-3.98Z"/><path class="cls-6" d="m621.63,123.33c1.68,0,2.72,1.2,2.81,3.43h-4.26c.11,1.04.73,1.49,1.54,1.49.92,0,1.21-.58,1.33-.84h1.32c-.07.82-.84,2.16-2.64,2.16s-2.88-1.44-2.88-3.07,1.1-3.17,2.78-3.17Zm-1.35,2.23h2.75c-.08-.73-.58-1.15-1.34-1.15-.64,0-1.19.35-1.4,1.15Z"/><path class="cls-6" d="m627.61,124.34c-.7,0-.94.31-.94.62,0,1.01,3.55.26,3.55,2.59,0,1.13-.82,2-2.47,2-2.15,0-2.57-1.32-2.57-2.04h1.37c.1.47.41.96,1.31.96.66,0,1.04-.25,1.04-.75,0-1.19-3.55-.3-3.55-2.58,0-.94.62-1.82,2.37-1.82,1.9,0,2.4,1.25,2.4,1.85h-1.37c.02-.54-.43-.83-1.15-.83Z"/><path class="cls-6" d="m617.24,225.77h1.56l2.93,5.31v-5.31h1.38v8.16h-1.56l-2.93-5.31v5.31h-1.38v-8.16Z"/><path class="cls-6" d="m627.49,227.81c1.8,0,2.88,1.55,2.88,3.17,0,1.51-.96,3.07-2.88,3.07s-2.88-1.56-2.88-3.07c0-1.62,1.08-3.17,2.88-3.17Zm0,1.32c-.95,0-1.56.72-1.56,1.8,0,1.15.64,1.8,1.56,1.8s1.56-.65,1.56-1.8c0-1.08-.61-1.8-1.56-1.8Z"/><g class="cls-11"><path class="cls-6" d="m629.8,313.37c0-2.82,1.48-4.2,3.26-4.2s3.29,1.38,3.29,4.2-1.5,4.2-3.29,4.2-3.26-1.38-3.26-4.2Zm5.05,0c0-1.62-.58-2.72-1.79-2.72s-1.77,1.1-1.77,2.72.56,2.72,1.77,2.72,1.79-1.1,1.79-2.72Z"/><path class="cls-6" d="m637.24,311.63c0-1.57.95-2.46,2.1-2.46s2.12.89,2.12,2.46-.97,2.46-2.12,2.46-2.1-.89-2.1-2.46Zm3.13,0c0-.75-.3-1.39-1.03-1.39s-1.02.64-1.02,1.39.29,1.39,1.02,1.39,1.03-.64,1.03-1.39Zm3.73-2.34h1.2l-4.87,8.16h-1.2l4.87-8.16Zm-1.03,5.82c0-1.57.95-2.46,2.1-2.46s2.12.89,2.12,2.46-.97,2.46-2.12,2.46-2.1-.89-2.1-2.46Zm3.13,0c0-.76-.3-1.39-1.03-1.39s-1.02.64-1.02,1.39.29,1.39,1.02,1.39,1.03-.64,1.03-1.39Z"/></g><g class="cls-11"><path class="cls-6" d="m1159.3,316.29h2.25v-4.71h-1.91v-.96c1.76-.12,2.1-.72,2.25-1.32h1.08v6.99h2.08v1.16h-5.76v-1.16Z"/><path class="cls-6" d="m1166.46,313.37c0-2.82,1.48-4.2,3.26-4.2s3.29,1.38,3.29,4.2-1.5,4.2-3.29,4.2-3.26-1.38-3.26-4.2Zm5.05,0c0-1.62-.58-2.72-1.79-2.72s-1.78,1.1-1.78,2.72.56,2.72,1.78,2.72,1.79-1.1,1.79-2.72Z"/><path class="cls-6" d="m1174.21,313.37c0-2.82,1.48-4.2,3.26-4.2s3.29,1.38,3.29,4.2-1.5,4.2-3.29,4.2-3.26-1.38-3.26-4.2Zm5.05,0c0-1.62-.58-2.72-1.79-2.72s-1.78,1.1-1.78,2.72.56,2.72,1.78,2.72,1.79-1.1,1.79-2.72Z"/><path class="cls-6" d="m1181.65,311.63c0-1.57.95-2.46,2.1-2.46s2.12.89,2.12,2.46-.97,2.46-2.12,2.46-2.1-.89-2.1-2.46Zm3.13,0c0-.75-.3-1.39-1.03-1.39s-1.02.64-1.02,1.39.29,1.39,1.02,1.39,1.03-.64,1.03-1.39Zm3.73-2.34h1.2l-4.87,8.16h-1.2l4.87-8.16Zm-1.03,5.82c0-1.57.95-2.46,2.1-2.46s2.12.89,2.12,2.46-.97,2.46-2.12,2.46-2.1-.89-2.1-2.46Zm3.13,0c0-.76-.3-1.39-1.03-1.39s-1.02.64-1.02,1.39.29,1.39,1.02,1.39,1.03-.64,1.03-1.39Z"/></g><rect class="cls-1" x="600" width="600" height="371"/><path class="cls-6" d="m823.2,29.85h2.38v5.4h5.32v-5.4h2.38v13.6h-2.38v-5.84h-5.32v5.84h-2.38v-13.6Z"/><path class="cls-6" d="m845.46,41.37c.26,0,.52-.04.9-.12v2.2c-.7.1-1.06.12-1.42.12-1.22,0-1.8-.26-2.26-1.04-.36.28-1.36,1.12-3.12,1.12-2.24,0-3.92-1.56-3.92-3.32,0-2.28,1.92-3.2,4.68-3.2h1.92v-.48c0-1.08-.84-1.8-2.04-1.8s-1.88.62-1.88,1.8h-2.44c0-2.16,1.92-3.4,4.38-3.4,2.26,0,4.18,1.02,4.18,3.18v4.08c0,.6.4.86,1.02.86Zm-5.58.68c1.64,0,2.36-1.4,2.36-2.2v-1c-3.48-.16-4.12.64-4.12,1.72,0,.8.68,1.48,1.76,1.48Z"/><path class="cls-6" d="m850.8,34.95c-1.16,0-1.56.52-1.56,1.04,0,1.68,5.92.44,5.92,4.32,0,1.88-1.36,3.34-4.12,3.34-3.58,0-4.28-2.2-4.28-3.4h2.28c.16.78.68,1.6,2.18,1.6,1.1,0,1.74-.42,1.74-1.26,0-1.98-5.92-.5-5.92-4.3,0-1.56,1.04-3.04,3.96-3.04,3.16,0,4,2.08,4,3.08h-2.28c.04-.9-.72-1.38-1.92-1.38Z"/><path class="cls-6" d="m861.36,29.85h2.2v4.32c.48-.32,1.32-.92,2.76-.92,2.92,0,4.48,2.4,4.48,5.28,0,2.56-1.64,5.12-4.56,5.12-1.44,0-2.32-.76-2.76-1.08v.88h-2.12v-13.6Zm4.64,5.6c-1.46,0-2.52,1-2.52,3s1.02,3,2.52,3,2.6-1,2.6-3c0-2.12-1.14-3-2.6-3Z"/><path class="cls-6" d="m876.94,33.25c2.8,0,4.54,2,4.68,5.72h-7.1c.18,1.74,1.22,2.48,2.56,2.48,1.54,0,2.02-.96,2.22-1.4h2.2c-.12,1.36-1.4,3.6-4.4,3.6s-4.8-2.4-4.8-5.12,1.84-5.28,4.64-5.28Zm-2.26,3.72h4.58c-.14-1.22-.96-1.92-2.24-1.92-1.06,0-1.98.58-2.34,1.92Z"/><path class="cls-6" d="m887.6,33.25c2.8,0,4.54,2,4.68,5.72h-7.1c.18,1.74,1.22,2.48,2.56,2.48,1.54,0,2.02-.96,2.22-1.4h2.2c-.12,1.36-1.4,3.6-4.4,3.6s-4.8-2.4-4.8-5.12,1.84-5.28,4.64-5.28Zm-2.26,3.72h4.58c-.14-1.22-.96-1.92-2.24-1.92-1.06,0-1.98.58-2.34,1.92Z"/><path class="cls-6" d="m900.14,43.45v-6.6c0-.94-.72-1.5-1.74-1.5-1.62,0-2,1.42-2,2.5v5.6h-2.28v-10h2.2v.8c.82-.64,1.86-1,2.88-1,1.74,0,3.22.92,3.22,3.12v7.08h-2.28Z"/><path class="cls-6" d="m915.74,42.21c-.48.38-1.34.84-2.56.84-2.92,0-4.44-2.2-4.44-4.72,0-2.7,1.76-5.08,4.32-5.08,1.48,0,2.32.56,2.76.92v-.72h2.12v9.8c0,2.56-1.52,4-4.44,4s-4.68-1.24-4.68-3.4h2.28c.24.66.56,1.6,2.36,1.6,1.6,0,2.28-.8,2.28-2v-1.24Zm-2.32-.96c1.46,0,2.4-1,2.4-2.92,0-1.8-.9-2.88-2.4-2.88s-2.48,1.08-2.48,2.88c0,1.92,1.02,2.92,2.48,2.92Z"/><path class="cls-6" d="m926.28,43.45v-6.6c0-1.12-.76-1.72-1.74-1.72-1.62,0-2,1.72-2,2.92v5.4h-2.2v-13.6h2.12v4.4c.36-.36,1.28-1,2.88-1,1.74,0,3.22.92,3.22,3.12v7.08h-2.28Z"/><path class="cls-6" d="m935.28,33.25c3,0,4.8,2.58,4.8,5.28,0,2.52-1.6,5.12-4.8,5.12s-4.8-2.6-4.8-5.12c0-2.7,1.8-5.28,4.8-5.28Zm0,2.2c-1.58,0-2.6,1.2-2.6,3,0,1.92,1.06,3,2.6,3s2.6-1.08,2.6-3c0-1.8-1.02-3-2.6-3Z"/><path class="cls-6" d="m945.52,34.95c-1.16,0-1.56.52-1.56,1.04,0,1.68,5.92.44,5.92,4.32,0,1.88-1.36,3.34-4.12,3.34-3.58,0-4.28-2.2-4.28-3.4h2.28c.16.78.68,1.6,2.18,1.6,1.1,0,1.74-.42,1.74-1.26,0-1.98-5.92-.5-5.92-4.3,0-1.56,1.04-3.04,3.96-3.04,3.16,0,4,2.08,4,3.08h-2.28c.04-.9-.72-1.38-1.92-1.38Z"/><path class="cls-6" d="m954.28,29.85v3.6h1.4v2.2h-1.4v5.16c0,.6.4.76.8.76.36,0,.6-.08.74-.16v2c-.18.06-.66.24-1.58.24-1.52,0-2.16-.92-2.16-1.88v-6.12h-1.2v-2.2h1.2v-3.6h2.2Z"/><path class="cls-6" d="m961.76,33.25c2.8,0,4.54,2,4.68,5.72h-7.1c.18,1.74,1.22,2.48,2.56,2.48,1.54,0,2.02-.96,2.22-1.4h2.2c-.12,1.36-1.4,3.6-4.4,3.6s-4.8-2.4-4.8-5.12,1.84-5.28,4.64-5.28Zm-2.26,3.72h4.58c-.14-1.22-.96-1.92-2.24-1.92-1.06,0-1.98.58-2.34,1.92Z"/><path class="cls-6" d="m975.2,43.45v-.88c-.44.32-1.32,1.08-2.76,1.08-2.92,0-4.56-2.56-4.56-5.12,0-2.88,1.56-5.28,4.48-5.28,1.44,0,2.28.6,2.76.92v-4.32h2.2v13.6h-2.12Zm-2.52-2c1.5,0,2.52-1,2.52-3s-1.06-3-2.52-3-2.6.88-2.6,3c0,2,1.1,3,2.6,3Z"/><path class="cls-6" d="m1145.71,129.69c-1.89,0-3.09-1.62-3.09-4.08,0-2.7,1.35-4.32,3.38-4.32,1.66,0,2.49,1.15,2.49,2.29h-1.44c-.07-.38-.31-.98-1.3-.98-1.04,0-1.71.72-1.79,2.36.47-.55,1.08-.95,2.1-.95,1.52,0,2.5,1.2,2.5,2.79s-1.1,2.88-2.85,2.88Zm-1.32-2.72c0,.84.38,1.55,1.34,1.55s1.34-.71,1.34-1.55-.38-1.55-1.34-1.55-1.34.71-1.34,1.55Z"/><path class="cls-6" d="m1150.57,126.01c.25-1.6.4-2.79.43-4.58h4.92s0,1.43,0,1.43h-3.69l-.14,1.69c.41-.29.92-.46,1.63-.46,1.52,0,2.49,1.13,2.49,2.72s-1.22,2.88-3,2.88c-1.47,0-2.94-1.15-2.64-2.96h1.32c-.1,1.07.48,1.64,1.39,1.64s1.44-.71,1.44-1.55-.41-1.62-1.42-1.62c-.77,0-1.15.48-1.25.8h-1.49Z"/><path class="cls-6" d="m1159.38,127.89v1.68h-1.68v-1.68h1.68Z"/><path class="cls-6" d="m1160.64,126.43l3.56-5.01h1.55v5.01h1.44v1.2h-1.44v1.94h-1.55v-1.94h-3.56v-1.2Zm3.56,0v-3.02l-2.21,3.02h2.21Z"/><path class="cls-6" d="m1167.96,123.76c0-1.57.95-2.46,2.1-2.46s2.12.89,2.12,2.46-.97,2.46-2.12,2.46-2.1-.89-2.1-2.46Zm3.13,0c0-.76-.3-1.39-1.03-1.39s-1.02.64-1.02,1.39.29,1.39,1.02,1.39,1.03-.64,1.03-1.39Zm3.73-2.34h1.2l-4.87,8.16h-1.2l4.87-8.16Zm-1.03,5.82c0-1.57.95-2.46,2.1-2.46s2.12.89,2.12,2.46-.97,2.46-2.12,2.46-2.1-.89-2.1-2.46Zm3.13,0c0-.76-.3-1.39-1.03-1.39s-1.02.64-1.02,1.39.29,1.39,1.02,1.39,1.03-.64,1.03-1.39Z"/><path class="cls-6" d="m907.98,229.25c.73,0,1.24-.49,1.24-1.12,0-.56-.32-1.03-1.27-1.03-1.04,0-1.32.65-1.4,1.57h-1.44c-.12-1.38.95-2.89,2.97-2.89,1.79,0,2.67,1.18,2.67,2.17,0,.75-.3,1.46-1.03,1.81.85.41,1.2.99,1.2,1.77,0,1.38-1.06,2.64-2.96,2.64-2.03,0-3.09-1.51-2.97-2.89h1.44c-.04.84.47,1.57,1.52,1.57.95,0,1.39-.55,1.39-1.32,0-.67-.43-1.21-1.35-1.21h-.67v-1.08h.67Z"/><path class="cls-6" d="m912.63,230.91l3.56-5.01h1.55v5.01h1.44v1.2h-1.44v1.94h-1.55v-1.94h-3.56v-1.2Zm3.56,0v-3.02l-2.21,3.02h2.21Z"/><path class="cls-6" d="m921.88,232.38v1.68h-1.68v-1.68h1.68Z"/><path class="cls-6" d="m926.47,234.18c-1.89,0-3.09-1.62-3.09-4.08,0-2.7,1.35-4.32,3.38-4.32,1.66,0,2.49,1.15,2.49,2.29h-1.44c-.07-.38-.31-.98-1.3-.98-1.04,0-1.71.72-1.79,2.36.47-.55,1.08-.95,2.1-.95,1.52,0,2.5,1.2,2.5,2.79s-1.1,2.88-2.85,2.88Zm-1.32-2.72c0,.84.38,1.55,1.34,1.55s1.34-.71,1.34-1.55-.38-1.55-1.34-1.55-1.34.71-1.34,1.55Z"/><path class="cls-6" d="m930.46,228.24c0-1.57.95-2.46,2.1-2.46s2.12.89,2.12,2.46-.97,2.46-2.12,2.46-2.1-.89-2.1-2.46Zm3.13,0c0-.76-.3-1.39-1.03-1.39s-1.02.64-1.02,1.39.29,1.39,1.02,1.39,1.03-.63,1.03-1.39Zm3.73-2.34h1.2l-4.87,8.16h-1.2l4.87-8.16Zm-1.03,5.82c0-1.57.95-2.46,2.1-2.46s2.12.89,2.12,2.46-.97,2.46-2.12,2.46-2.1-.89-2.1-2.46Zm3.13,0c0-.75-.3-1.39-1.03-1.39s-1.02.64-1.02,1.39.29,1.39,1.02,1.39,1.03-.64,1.03-1.39Z"/><path class="cls-5" d="m329.4,333.22h2.03c2.03,0,3.39,1.29,3.39,3.4s-1.36,3.4-3.39,3.4h-2.03v-6.8Zm4.18,3.4c0-1.51-.8-2.27-2.22-2.27h-.77v4.54h.77c1.42,0,2.22-.76,2.22-2.27Z"/><path class="cls-5" d="m340.54,338.98c.13,0,.26-.02.45-.06v1.1c-.35.05-.53.06-.71.06-.61,0-.9-.13-1.13-.52-.18.14-.68.56-1.56.56-1.12,0-1.96-.78-1.96-1.66,0-1.14.96-1.6,2.34-1.6h.96v-.24c0-.54-.42-.9-1.02-.9s-.94.31-.94.9h-1.22c0-1.08.96-1.7,2.19-1.7,1.13,0,2.09.51,2.09,1.59v2.04c0,.3.2.43.51.43Zm-2.79.34c.82,0,1.18-.7,1.18-1.1v-.5c-1.74-.08-2.06.32-2.06.86,0,.4.34.74.88.74Z"/><path class="cls-5" d="m342.79,333.22v1.8h.7v1.1h-.7v2.58c0,.3.2.38.4.38.18,0,.3-.04.37-.08v1c-.09.03-.33.12-.79.12-.76,0-1.08-.46-1.08-.94v-3.06h-.6v-1.1h.6v-1.8h1.1Z"/><path class="cls-5" d="m349.09,338.98c.13,0,.26-.02.45-.06v1.1c-.35.05-.53.06-.71.06-.61,0-.9-.13-1.13-.52-.18.14-.68.56-1.56.56-1.12,0-1.96-.78-1.96-1.66,0-1.14.96-1.6,2.34-1.6h.96v-.24c0-.54-.42-.9-1.02-.9s-.94.31-.94.9h-1.22c0-1.08.96-1.7,2.19-1.7,1.13,0,2.09.51,2.09,1.59v2.04c0,.3.2.43.51.43Zm-2.79.34c.82,0,1.18-.7,1.18-1.1v-.5c-1.74-.08-2.06.32-2.06.86,0,.4.34.74.88.74Z"/><path class="cls-5" d="m352.44,336.12h-.6v-1.1h.6v-.82c0-.48.32-1.08,1.08-1.08.46,0,.7.05.79.06v1.1c-.07,0-.19-.02-.37-.02-.2,0-.4.08-.4.38v.38h.7v1.1h-.7v3.9h-1.1v-3.9Z"/><path class="cls-5" d="m357.41,336c-.73,0-1.16.3-1.16,1.51v2.51h-1.14v-5h1.1v.56c.28-.34.62-.66,1.26-.66.3,0,.58.06.8.16l-.06,1.1c-.23-.1-.42-.18-.8-.18Z"/><path class="cls-5" d="m361.1,334.92c1.5,0,2.4,1.29,2.4,2.64,0,1.26-.8,2.56-2.4,2.56s-2.4-1.3-2.4-2.56c0-1.35.9-2.64,2.4-2.64Zm0,1.1c-.79,0-1.3.6-1.3,1.5,0,.96.53,1.5,1.3,1.5s1.3-.54,1.3-1.5c0-.9-.51-1.5-1.3-1.5Z"/><path class="cls-5" d="m367.43,340.02v-3.3c0-.47-.34-.75-.83-.75-.81,0-.96.81-.96,1.35v2.7h-1.14v-5h1.1v.4c.18-.14.6-.5,1.4-.5.58,0,1.08.2,1.35.66.22-.22.71-.66,1.58-.66s1.57.46,1.57,1.56v3.54h-1.14v-3.3c0-.47-.34-.75-.83-.75-.81,0-.96.81-.96,1.35v2.7h-1.14Z"/><path class="cls-5" d="m376.16,333.22v1.8h.7v1.1h-.7v2.58c0,.3.2.38.4.38.18,0,.3-.04.37-.08v1c-.09.03-.33.12-.79.12-.76,0-1.08-.46-1.08-.94v-3.06h-.6v-1.1h.6v-1.8h1.1Z"/><path class="cls-5" d="m380.8,340.02v-3.3c0-.56-.38-.86-.87-.86-.81,0-1,.86-1,1.46v2.7h-1.1v-6.8h1.06v2.2c.18-.18.64-.5,1.44-.5.87,0,1.61.46,1.61,1.56v3.54h-1.14Z"/><path class="cls-5" d="m385.17,334.92c1.4,0,2.27,1,2.34,2.86h-3.55c.09.87.61,1.24,1.28,1.24.77,0,1.01-.48,1.11-.7h1.1c-.06.68-.7,1.8-2.2,1.8s-2.4-1.2-2.4-2.56.92-2.64,2.32-2.64Zm-1.13,1.86h2.29c-.07-.61-.48-.96-1.12-.96-.53,0-.99.29-1.17.96Z"/><path class="cls-5" d="m391.69,335.02v.44c.22-.16.66-.54,1.38-.54,1.46,0,2.28,1.28,2.28,2.56,0,1.44-.78,2.64-2.24,2.64-.72,0-1.14-.3-1.38-.46v2.16h-1.1v-6.8h1.06Zm1.26,1c-.75,0-1.26.5-1.26,1.5s.53,1.5,1.26,1.5,1.3-.44,1.3-1.5c0-1-.55-1.5-1.3-1.5Z"/><path class="cls-5" d="m400.98,338.98c.13,0,.26-.02.45-.06v1.1c-.35.05-.53.06-.71.06-.61,0-.9-.13-1.13-.52-.18.14-.68.56-1.56.56-1.12,0-1.96-.78-1.96-1.66,0-1.14.96-1.6,2.34-1.6h.96v-.24c0-.54-.42-.9-1.02-.9s-.94.31-.94.9h-1.22c0-1.08.96-1.7,2.19-1.7,1.13,0,2.09.51,2.09,1.59v2.04c0,.3.2.43.51.43Zm-2.79.34c.82,0,1.18-.7,1.18-1.1v-.5c-1.74-.08-2.06.32-2.06.86,0,.4.34.74.88.74Z"/><path class="cls-5" d="m402.99,335.02v.44c.22-.16.66-.54,1.38-.54,1.46,0,2.28,1.28,2.28,2.56,0,1.44-.78,2.64-2.24,2.64-.72,0-1.14-.3-1.38-.46v2.16h-1.1v-6.8h1.06Zm1.26,1c-.75,0-1.26.5-1.26,1.5s.53,1.5,1.26,1.5,1.3-.44,1.3-1.5c0-1-.55-1.5-1.3-1.5Z"/><path class="cls-5" d="m409.72,334.92c1.4,0,2.27,1,2.34,2.86h-3.55c.09.87.61,1.24,1.28,1.24.77,0,1.01-.48,1.11-.7h1.1c-.06.68-.7,1.8-2.2,1.8s-2.4-1.2-2.4-2.56.92-2.64,2.32-2.64Zm-1.13,1.86h2.29c-.07-.61-.48-.96-1.12-.96-.53,0-.99.29-1.17.96Z"/><path class="cls-5" d="m415.28,336c-.73,0-1.16.3-1.16,1.51v2.51h-1.14v-5h1.1v.56c.28-.34.62-.66,1.26-.66.3,0,.58.06.8.16l-.06,1.1c-.23-.1-.42-.18-.8-.18Z"/><path class="cls-5" d="m418.8,336.02v-1.38c0-1.02.45-1.42,1.41-1.42v.7c-.46,0-.71.3-.71.7h.7v1.4h-1.4Zm2,0v-1.38c0-1.02.45-1.42,1.41-1.42v.7c-.46,0-.71.3-.71.7h.7v1.4h-1.4Z"/><path class="cls-5" d="m423.53,333.22h4.05v1.13h-2.86v1.39h2.59v1.13h-2.59v2.57c0,.24.01.44.06.58h-1.25v-6.8Z"/><path class="cls-5" d="m430.78,336c-.73,0-1.16.3-1.16,1.51v2.51h-1.14v-5h1.1v.56c.28-.34.62-.66,1.26-.66.3,0,.58.06.8.16l-.06,1.1c-.23-.1-.42-.18-.8-.18Z"/><path class="cls-5" d="m434.47,334.92c1.5,0,2.4,1.29,2.4,2.64,0,1.26-.8,2.56-2.4,2.56s-2.4-1.3-2.4-2.56c0-1.35.9-2.64,2.4-2.64Zm0,1.1c-.79,0-1.3.6-1.3,1.5,0,.96.53,1.5,1.3,1.5s1.3-.54,1.3-1.5c0-.9-.51-1.5-1.3-1.5Z"/><path class="cls-5" d="m440.8,340.02v-3.3c0-.47-.34-.75-.83-.75-.81,0-.96.81-.96,1.35v2.7h-1.14v-5h1.1v.4c.18-.14.6-.5,1.4-.5.58,0,1.08.2,1.35.66.22-.22.71-.66,1.58-.66s1.57.46,1.57,1.56v3.54h-1.14v-3.3c0-.47-.34-.75-.83-.75-.81,0-.96.81-.96,1.35v2.7h-1.14Z"/><path class="cls-5" d="m454.07,337.2c-.07,1.77-1.22,2.92-2.93,2.92-1.6,0-3.01-1.18-3.01-3.5s1.33-3.5,3.01-3.5,2.78,1.05,2.93,2.99h-1.34c-.11-1.27-.76-1.8-1.64-1.8-1.04,0-1.72.75-1.72,2.31s.69,2.31,1.72,2.31c.89,0,1.33-.44,1.73-1.73h1.25Z"/><path class="cls-5" d="m456.19,333.22v6.8h-1.14v-6.8h1.14Z"/><path class="cls-5" d="m459.59,334.92c1.5,0,2.4,1.29,2.4,2.64,0,1.26-.8,2.56-2.4,2.56s-2.4-1.3-2.4-2.56c0-1.35.9-2.64,2.4-2.64Zm0,1.1c-.79,0-1.3.6-1.3,1.5,0,.96.53,1.5,1.3,1.5s1.3-.54,1.3-1.5c0-.9-.51-1.5-1.3-1.5Z"/><path class="cls-5" d="m464.71,335.77c-.58,0-.78.26-.78.52,0,.84,2.96.22,2.96,2.16,0,.94-.68,1.67-2.06,1.67-1.79,0-2.14-1.1-2.14-1.7h1.14c.08.39.34.8,1.09.8.55,0,.87-.21.87-.63,0-.99-2.96-.25-2.96-2.15,0-.78.52-1.52,1.98-1.52,1.58,0,2,1.04,2,1.54h-1.14c.02-.45-.36-.69-.96-.69Z"/><path class="cls-5" d="m469.86,334.92c1.4,0,2.27,1,2.34,2.86h-3.55c.09.87.61,1.24,1.28,1.24.77,0,1.01-.48,1.11-.7h1.1c-.06.68-.7,1.8-2.2,1.8s-2.4-1.2-2.4-2.56.92-2.64,2.32-2.64Zm-1.13,1.86h2.29c-.07-.61-.48-.96-1.12-.96-.53,0-.99.29-1.17.96Z"/><path class="cls-5" d="m476.62,333.22v1.8h.7v1.1h-.7v2.58c0,.3.2.38.4.38.18,0,.3-.04.37-.08v1c-.09.03-.33.12-.79.12-.76,0-1.08-.46-1.08-.94v-3.06h-.6v-1.1h.6v-1.8h1.1Z"/><path class="cls-5" d="m480.49,334.92c1.5,0,2.4,1.29,2.4,2.64,0,1.26-.8,2.56-2.4,2.56s-2.4-1.3-2.4-2.56c0-1.35.9-2.64,2.4-2.64Zm0,1.1c-.79,0-1.3.6-1.3,1.5,0,.96.53,1.5,1.3,1.5s1.3-.54,1.3-1.5c0-.9-.51-1.5-1.3-1.5Z"/><path class="cls-5" d="m489.04,336.41h2.8l-.03,3.61h-1.13c0-.15,0-.29-.02-.43-.34.33-.89.53-1.56.53-1.73,0-3.11-1.3-3.11-3.5s1.34-3.5,3.12-3.5c1.32,0,2.46.66,2.67,2.19h-1.4c-.07-.58-.57-1-1.34-1-1.1,0-1.81.86-1.81,2.31s.78,2.31,2.02,2.31c.86,0,1.28-.43,1.4-1.38h-1.61v-1.14Z"/><path class="cls-5" d="m496.03,340.02v-3.3c0-.56-.38-.86-.87-.86-.81,0-1,.86-1,1.46v2.7h-1.1v-6.8h1.06v2.2c.18-.18.64-.5,1.44-.5.87,0,1.61.46,1.61,1.56v3.54h-1.14Z"/><path class="cls-5" d="m500.53,334.92c1.5,0,2.4,1.29,2.4,2.64,0,1.26-.8,2.56-2.4,2.56s-2.4-1.3-2.4-2.56c0-1.35.9-2.64,2.4-2.64Zm0,1.1c-.79,0-1.3.6-1.3,1.5,0,.96.53,1.5,1.3,1.5s1.3-.54,1.3-1.5c0-.9-.51-1.5-1.3-1.5Z"/><path class="cls-5" d="m505.65,335.77c-.58,0-.78.26-.78.52,0,.84,2.96.22,2.96,2.16,0,.94-.68,1.67-2.06,1.67-1.79,0-2.14-1.1-2.14-1.7h1.14c.08.39.34.8,1.09.8.55,0,.87-.21.87-.63,0-.99-2.96-.25-2.96-2.15,0-.78.52-1.52,1.98-1.52,1.58,0,2,1.04,2,1.54h-1.14c.02-.45-.36-.69-.96-.69Z"/><path class="cls-5" d="m510.03,333.22v1.8h.7v1.1h-.7v2.58c0,.3.2.38.4.38.18,0,.3-.04.37-.08v1c-.09.03-.33.12-.79.12-.76,0-1.08-.46-1.08-.94v-3.06h-.6v-1.1h.6v-1.8h1.1Z"/><path class="cls-5" d="m512.95,335.02v1.4h-1.4v-1.4h1.4Zm0,3.6v1.4h-1.4v-1.4h1.4Z"/><path class="cls-5" d="m516.46,333.22h4.16v1.13h-2.97v1.39h2.81v1.13h-2.81v2.02h2.97v1.13h-4.16v-6.8Z"/><path class="cls-5" d="m523.07,337.52l-1.79-2.5h1.26l1.16,1.62,1.16-1.62h1.26l-1.79,2.5,1.79,2.5h-1.26l-1.16-1.62-1.16,1.62h-1.26l1.79-2.5Z"/><path class="cls-5" d="m531.45,338.98c.13,0,.26-.02.45-.06v1.1c-.35.05-.53.06-.71.06-.61,0-.9-.13-1.13-.52-.18.14-.68.56-1.56.56-1.12,0-1.96-.78-1.96-1.66,0-1.14.96-1.6,2.34-1.6h.96v-.24c0-.54-.42-.9-1.02-.9s-.94.31-.94.9h-1.22c0-1.08.96-1.7,2.19-1.7,1.13,0,2.09.51,2.09,1.59v2.04c0,.3.2.43.51.43Zm-2.79.34c.82,0,1.18-.7,1.18-1.1v-.5c-1.74-.08-2.06.32-2.06.86,0,.4.34.74.88.74Z"/><path class="cls-5" d="m535.33,340.02v-3.3c0-.47-.34-.75-.83-.75-.81,0-.96.81-.96,1.35v2.7h-1.14v-5h1.1v.4c.18-.14.6-.5,1.4-.5.58,0,1.08.2,1.35.66.22-.22.71-.66,1.58-.66s1.57.46,1.57,1.56v3.54h-1.14v-3.3c0-.47-.34-.75-.83-.75-.81,0-.96.81-.96,1.35v2.7h-1.14Z"/><path class="cls-5" d="m541.7,333.12v1.2h-1.14v-1.2h1.14Zm0,1.9v5h-1.14v-5h1.14Z"/><path class="cls-5" d="m545.91,340.02v-3.3c0-.47-.36-.75-.87-.75-.81,0-1,.71-1,1.25v2.8h-1.14v-5h1.1v.4c.41-.32.93-.5,1.44-.5.87,0,1.61.46,1.61,1.56v3.54h-1.14Z"/><path class="cls-5" d="m549.35,333.12v1.2h-1.14v-1.2h1.14Zm0,1.9v5h-1.14v-5h1.14Z"/><path class="cls-5" d="m553.56,340.02v-3.3c0-.47-.36-.75-.87-.75-.81,0-1,.71-1,1.25v2.8h-1.14v-5h1.1v.4c.41-.32.93-.5,1.44-.5.87,0,1.61.46,1.61,1.56v3.54h-1.14Z"/><path class="cls-5" d="m559.16,339.4c-.24.19-.67.42-1.28.42-1.46,0-2.22-1.1-2.22-2.36,0-1.35.88-2.54,2.16-2.54.74,0,1.16.28,1.38.46v-.36h1.06v4.9c0,1.28-.76,2-2.22,2s-2.34-.62-2.34-1.7h1.14c.12.33.28.8,1.18.8.8,0,1.14-.4,1.14-1v-.62Zm-1.16-.48c.73,0,1.2-.5,1.2-1.46,0-.9-.45-1.44-1.2-1.44s-1.24.54-1.24,1.44c0,.96.51,1.46,1.24,1.46Z"/><path class="cls-5" d="m564.96,333.22v1.8h.7v1.1h-.7v2.58c0,.3.2.38.4.38.18,0,.3-.04.37-.08v1c-.09.03-.33.12-.79.12-.76,0-1.08-.46-1.08-.94v-3.06h-.6v-1.1h.6v-1.8h1.1Z"/><path class="cls-5" d="m569.6,340.02v-3.3c0-.56-.38-.86-.87-.86-.81,0-1,.86-1,1.46v2.7h-1.1v-6.8h1.06v2.2c.18-.18.64-.5,1.44-.5.87,0,1.61.46,1.61,1.56v3.54h-1.14Z"/><path class="cls-5" d="m573.97,334.92c1.4,0,2.27,1,2.34,2.86h-3.55c.09.87.61,1.24,1.28,1.24.77,0,1.01-.48,1.11-.7h1.1c-.06.68-.7,1.8-2.2,1.8s-2.4-1.2-2.4-2.56.92-2.64,2.32-2.64Zm-1.13,1.86h2.29c-.07-.61-.48-.96-1.12-.96-.53,0-.99.29-1.17.96Z"/><path class="cls-5" d="m579.69,333.22h2.82c1.48,0,2.18.73,2.18,1.94,0,.77-.51,1.27-1.18,1.58.42.2.6.58.67.98l.15.85c.1.57.41,1.13.89,1.45h-1.57c-.36-.16-.49-.59-.58-1.22l-.11-.77c-.08-.54-.3-.93-.9-.93h-1.18v2.92h-1.19v-6.8Zm1.19,1.13v1.62h1.6c.68,0,.97-.29.97-.81s-.35-.81-.94-.81h-1.63Z"/><path class="cls-5" d="m587.74,334.92c1.4,0,2.27,1,2.34,2.86h-3.55c.09.87.61,1.24,1.28,1.24.77,0,1.01-.48,1.11-.7h1.1c-.06.68-.7,1.8-2.2,1.8s-2.4-1.2-2.4-2.56.92-2.64,2.32-2.64Zm-1.13,1.86h2.29c-.07-.61-.48-.96-1.12-.96-.53,0-.99.29-1.17.96Z"/><path class="cls-5" d="m592.14,333.22v6.8h-1.14v-6.8h1.14Z"/><path class="cls-5" d="m597.97,338.98c.13,0,.26-.02.45-.06v1.1c-.35.05-.53.06-.71.06-.61,0-.9-.13-1.13-.52-.18.14-.68.56-1.56.56-1.12,0-1.96-.78-1.96-1.66,0-1.14.96-1.6,2.34-1.6h.96v-.24c0-.54-.42-.9-1.02-.9s-.94.31-.94.9h-1.22c0-1.08.96-1.7,2.19-1.7,1.13,0,2.09.51,2.09,1.59v2.04c0,.3.2.43.51.43Zm-2.79.34c.82,0,1.18-.7,1.18-1.1v-.5c-1.74-.08-2.06.32-2.06.86,0,.4.34.74.88.74Z"/><path class="cls-5" d="m600.22,333.22v1.8h.7v1.1h-.7v2.58c0,.3.2.38.4.38.18,0,.3-.04.37-.08v1c-.09.03-.33.12-.79.12-.76,0-1.08-.46-1.08-.94v-3.06h-.6v-1.1h.6v-1.8h1.1Z"/><path class="cls-5" d="m603.03,333.12v1.2h-1.14v-1.2h1.14Zm0,1.9v5h-1.14v-5h1.14Z"/><path class="cls-5" d="m606.43,334.92c1.5,0,2.4,1.29,2.4,2.64,0,1.26-.8,2.56-2.4,2.56s-2.4-1.3-2.4-2.56c0-1.35.9-2.64,2.4-2.64Zm0,1.1c-.79,0-1.3.6-1.3,1.5,0,.96.53,1.5,1.3,1.5s1.3-.54,1.3-1.5c0-.9-.51-1.5-1.3-1.5Z"/><path class="cls-5" d="m612.84,340.02v-3.3c0-.47-.36-.75-.87-.75-.81,0-1,.71-1,1.25v2.8h-1.14v-5h1.1v.4c.41-.32.93-.5,1.44-.5.87,0,1.61.46,1.61,1.56v3.54h-1.14Z"/><path class="cls-5" d="m616.85,335.77c-.58,0-.78.26-.78.52,0,.84,2.96.22,2.96,2.16,0,.94-.68,1.67-2.06,1.67-1.79,0-2.14-1.1-2.14-1.7h1.14c.08.39.34.8,1.09.8.55,0,.87-.21.87-.63,0-.99-2.96-.25-2.96-2.15,0-.78.52-1.52,1.98-1.52,1.58,0,2,1.04,2,1.54h-1.14c.02-.45-.36-.69-.96-.69Z"/><path class="cls-5" d="m622.9,340.02v-3.3c0-.56-.38-.86-.87-.86-.81,0-1,.86-1,1.46v2.7h-1.1v-6.8h1.06v2.2c.18-.18.64-.5,1.44-.5.87,0,1.61.46,1.61,1.56v3.54h-1.14Z"/><path class="cls-5" d="m626.35,333.12v1.2h-1.14v-1.2h1.14Zm0,1.9v5h-1.14v-5h1.14Z"/><path class="cls-5" d="m628.6,335.02v.44c.22-.16.66-.54,1.38-.54,1.46,0,2.28,1.28,2.28,2.56,0,1.44-.78,2.64-2.24,2.64-.72,0-1.14-.3-1.38-.46v2.16h-1.1v-6.8h1.06Zm1.26,1c-.75,0-1.26.5-1.26,1.5s.53,1.5,1.26,1.5,1.3-.44,1.3-1.5c0-1-.55-1.5-1.3-1.5Z"/><path class="cls-5" d="m635.73,333.22h2.77c1.62,0,2.22.81,2.22,1.78,0,.7-.33,1.16-.76,1.52.72.38.91,1,.91,1.51,0,1.16-.75,1.99-2.32,1.99h-2.82v-6.8Zm1.19,1.13v1.65h1.56c.73,0,1.04-.25,1.04-.84s-.37-.81-1.01-.81h-1.59Zm0,2.78v1.76h1.79c.61,0,.97-.3.97-.86,0-.6-.45-.9-1.2-.9h-1.56Z"/><path class="cls-5" d="m643.94,334.92c1.4,0,2.27,1,2.34,2.86h-3.55c.09.87.61,1.24,1.28,1.24.77,0,1.01-.48,1.11-.7h1.1c-.06.68-.7,1.8-2.2,1.8s-2.4-1.2-2.4-2.56.92-2.64,2.32-2.64Zm-1.13,1.86h2.29c-.07-.61-.48-.96-1.12-.96-.53,0-.99.29-1.17.96Z"/><path class="cls-5" d="m648.5,333.22v1.8h.7v1.1h-.7v2.58c0,.3.2.38.4.38.18,0,.3-.04.37-.08v1c-.09.03-.33.12-.79.12-.76,0-1.08-.46-1.08-.94v-3.06h-.6v-1.1h.6v-1.8h1.1Z"/><path class="cls-5" d="m650.73,335.02l1.07,3.38,1.07-3.38h1.1l1.09,3.44,1.09-3.44h1.16l-1.68,5h-1.14l-1.06-3.28-1.04,3.28h-1.14l-1.68-5h1.16Z"/><path class="cls-5" d="m659.98,334.92c1.4,0,2.27,1,2.34,2.86h-3.55c.09.87.61,1.24,1.28,1.24.77,0,1.01-.48,1.11-.7h1.1c-.06.68-.7,1.8-2.2,1.8s-2.4-1.2-2.4-2.56.92-2.64,2.32-2.64Zm-1.13,1.86h2.29c-.07-.61-.48-.96-1.12-.96-.53,0-.99.29-1.17.96Z"/><path class="cls-5" d="m665.31,334.92c1.4,0,2.27,1,2.34,2.86h-3.55c.09.87.61,1.24,1.28,1.24.77,0,1.01-.48,1.11-.7h1.1c-.06.68-.7,1.8-2.2,1.8s-2.4-1.2-2.4-2.56.92-2.64,2.32-2.64Zm-1.13,1.86h2.29c-.07-.61-.48-.96-1.12-.96-.53,0-.99.29-1.17.96Z"/><path class="cls-5" d="m671.57,340.02v-3.3c0-.47-.36-.75-.87-.75-.81,0-1,.71-1,1.25v2.8h-1.14v-5h1.1v.4c.41-.32.93-.5,1.44-.5.87,0,1.61.46,1.61,1.56v3.54h-1.14Z"/><path class="cls-5" d="m677.38,333.22v1.8h.7v1.1h-.7v2.58c0,.3.2.38.4.38.18,0,.3-.04.37-.08v1c-.09.03-.33.12-.79.12-.76,0-1.08-.46-1.08-.94v-3.06h-.6v-1.1h.6v-1.8h1.1Z"/><path class="cls-5" d="m682.01,340.02v-3.3c0-.56-.38-.86-.87-.86-.81,0-1,.86-1,1.46v2.7h-1.1v-6.8h1.06v2.2c.18-.18.64-.5,1.44-.5.87,0,1.61.46,1.61,1.56v3.54h-1.14Z"/><path class="cls-5" d="m686.38,334.92c1.4,0,2.27,1,2.34,2.86h-3.55c.09.87.61,1.24,1.28,1.24.77,0,1.01-.48,1.11-.7h1.1c-.06.68-.7,1.8-2.2,1.8s-2.4-1.2-2.4-2.56.92-2.64,2.32-2.64Zm-1.13,1.86h2.29c-.07-.61-.48-.96-1.12-.96-.53,0-.99.29-1.17.96Z"/><path class="cls-5" d="m692.1,333.22h1.3l2.44,4.43v-4.43h1.15v6.8h-1.3l-2.44-4.43v4.43h-1.15v-6.8Z"/><path class="cls-5" d="m700.52,334.92c1.4,0,2.27,1,2.34,2.86h-3.55c.09.87.61,1.24,1.28,1.24.77,0,1.01-.48,1.11-.7h1.1c-.06.68-.7,1.8-2.2,1.8s-2.4-1.2-2.4-2.56.92-2.64,2.32-2.64Zm-1.13,1.86h2.29c-.07-.61-.48-.96-1.12-.96-.53,0-.99.29-1.17.96Z"/><path class="cls-5" d="m705.85,334.92c1.4,0,2.27,1,2.34,2.86h-3.55c.09.87.61,1.24,1.28,1.24.77,0,1.01-.48,1.11-.7h1.1c-.06.68-.7,1.8-2.2,1.8s-2.4-1.2-2.4-2.56.92-2.64,2.32-2.64Zm-1.13,1.86h2.29c-.07-.61-.48-.96-1.12-.96-.53,0-.99.29-1.17.96Z"/><path class="cls-5" d="m712.57,340.02v-.44c-.22.16-.66.54-1.38.54-1.46,0-2.28-1.28-2.28-2.56,0-1.44.78-2.64,2.24-2.64.72,0,1.14.3,1.38.46v-2.16h1.1v6.8h-1.06Zm-1.26-1c.75,0,1.26-.5,1.26-1.5s-.53-1.5-1.26-1.5-1.3.44-1.3,1.5c0,1,.55,1.5,1.3,1.5Z"/><path class="cls-5" d="m717.24,336.12h-.6v-1.1h.6v-.82c0-.48.32-1.08,1.08-1.08.46,0,.7.05.79.06v1.1c-.07,0-.19-.02-.37-.02-.2,0-.4.08-.4.38v.38h.7v1.1h-.7v3.9h-1.1v-3.9Z"/><path class="cls-5" d="m722.1,334.92c1.5,0,2.4,1.29,2.4,2.64,0,1.26-.8,2.56-2.4,2.56s-2.4-1.3-2.4-2.56c0-1.35.9-2.64,2.4-2.64Zm0,1.1c-.79,0-1.3.6-1.3,1.5,0,.96.53,1.5,1.3,1.5s1.3-.54,1.3-1.5c0-.9-.51-1.5-1.3-1.5Z"/><path class="cls-5" d="m727.8,336c-.73,0-1.16.3-1.16,1.51v2.51h-1.14v-5h1.1v.56c.28-.34.62-.66,1.26-.66.3,0,.58.06.8.16l-.06,1.1c-.23-.1-.42-.18-.8-.18Z"/><path class="cls-5" d="m737.33,337.2c-.07,1.77-1.22,2.92-2.93,2.92-1.6,0-3.01-1.18-3.01-3.5s1.33-3.5,3.01-3.5,2.78,1.05,2.93,2.99h-1.34c-.11-1.27-.76-1.8-1.64-1.8-1.04,0-1.72.75-1.72,2.31s.69,2.31,1.72,2.31c.89,0,1.33-.44,1.73-1.73h1.25Z"/><path class="cls-5" d="m739.46,333.22v6.8h-1.14v-6.8h1.14Z"/><path class="cls-5" d="m742.85,334.92c1.5,0,2.4,1.29,2.4,2.64,0,1.26-.8,2.56-2.4,2.56s-2.4-1.3-2.4-2.56c0-1.35.9-2.64,2.4-2.64Zm0,1.1c-.79,0-1.3.6-1.3,1.5,0,.96.53,1.5,1.3,1.5s1.3-.54,1.3-1.5c0-.9-.51-1.5-1.3-1.5Z"/><path class="cls-5" d="m747.97,335.77c-.58,0-.78.26-.78.52,0,.84,2.96.22,2.96,2.16,0,.94-.68,1.67-2.06,1.67-1.79,0-2.14-1.1-2.14-1.7h1.14c.08.39.34.8,1.09.8.55,0,.87-.21.87-.63,0-.99-2.96-.25-2.96-2.15,0-.78.52-1.52,1.98-1.52,1.58,0,2,1.04,2,1.54h-1.14c.02-.45-.36-.69-.96-.69Z"/><path class="cls-5" d="m752.15,335.02v3.3c0,.6.39.9.88.9.81,0,.99-.8.99-1.4v-2.8h1.14v5h-1.1v-.4c-.18.14-.63.5-1.43.5-.87,0-1.62-.56-1.62-1.66v-3.44h1.14Z"/><path class="cls-5" d="m758.66,336c-.73,0-1.16.3-1.16,1.51v2.51h-1.14v-5h1.1v.56c.28-.34.62-.66,1.26-.66.3,0,.58.06.8.16l-.06,1.1c-.23-.1-.42-.18-.8-.18Z"/><path class="cls-5" d="m762.22,334.92c1.4,0,2.27,1,2.34,2.86h-3.55c.09.87.61,1.24,1.28,1.24.77,0,1.01-.48,1.11-.7h1.1c-.06.68-.7,1.8-2.2,1.8s-2.4-1.2-2.4-2.56.92-2.64,2.32-2.64Zm-1.13,1.86h2.29c-.07-.61-.48-.96-1.12-.96-.53,0-.99.29-1.17.96Z"/><path class="cls-5" d="m766.73,338.62v1.38c0,1.02-.45,1.42-1.41,1.42v-.7c.46,0,.71-.3.71-.7h-.7v-1.4h1.4Z"/><path class="cls-5" d="m770.24,333.22h1.19v6.8h-1.19v-6.8Z"/><path class="cls-5" d="m775.9,340.02v-3.3c0-.47-.36-.75-.87-.75-.81,0-1,.71-1,1.25v2.8h-1.14v-5h1.1v.4c.41-.32.93-.5,1.44-.5.87,0,1.61.46,1.61,1.56v3.54h-1.14Z"/><path class="cls-5" d="m779.5,333.22v1.8h.7v1.1h-.7v2.58c0,.3.2.38.4.38.18,0,.3-.04.37-.08v1c-.09.03-.33.12-.79.12-.76,0-1.08-.46-1.08-.94v-3.06h-.6v-1.1h.6v-1.8h1.1Z"/><path class="cls-5" d="m783.24,334.92c1.4,0,2.27,1,2.34,2.86h-3.55c.09.87.61,1.24,1.28,1.24.77,0,1.01-.48,1.11-.7h1.1c-.06.68-.7,1.8-2.2,1.8s-2.4-1.2-2.4-2.56.92-2.64,2.32-2.64Zm-1.13,1.86h2.29c-.07-.61-.48-.96-1.12-.96-.53,0-.99.29-1.17.96Z"/><path class="cls-5" d="m789.51,340.02v-3.3c0-.47-.36-.75-.87-.75-.81,0-1,.71-1,1.25v2.8h-1.14v-5h1.1v.4c.41-.32.93-.5,1.44-.5.87,0,1.61.46,1.61,1.56v3.54h-1.14Z"/><path class="cls-5" d="m793.11,333.22v1.8h.7v1.1h-.7v2.58c0,.3.2.38.4.38.18,0,.3-.04.37-.08v1c-.09.03-.33.12-.79.12-.76,0-1.08-.46-1.08-.94v-3.06h-.6v-1.1h.6v-1.8h1.1Z"/><path class="cls-5" d="m795.92,333.12v1.2h-1.14v-1.2h1.14Zm0,1.9v5h-1.14v-5h1.14Z"/><path class="cls-5" d="m799.32,334.92c1.5,0,2.4,1.29,2.4,2.64,0,1.26-.8,2.56-2.4,2.56s-2.4-1.3-2.4-2.56c0-1.35.9-2.64,2.4-2.64Zm0,1.1c-.79,0-1.3.6-1.3,1.5,0,.96.53,1.5,1.3,1.5s1.3-.54,1.3-1.5c0-.9-.51-1.5-1.3-1.5Z"/><path class="cls-5" d="m805.73,340.02v-3.3c0-.47-.36-.75-.87-.75-.81,0-1,.71-1,1.25v2.8h-1.14v-5h1.1v.4c.41-.32.93-.5,1.44-.5.87,0,1.61.46,1.61,1.56v3.54h-1.14Z"/><path class="cls-5" d="m811.53,333.22v1.8h.7v1.1h-.7v2.58c0,.3.2.38.4.38.18,0,.3-.04.37-.08v1c-.09.03-.33.12-.79.12-.76,0-1.08-.46-1.08-.94v-3.06h-.6v-1.1h.6v-1.8h1.1Z"/><path class="cls-5" d="m815.4,334.92c1.5,0,2.4,1.29,2.4,2.64,0,1.26-.8,2.56-2.4,2.56s-2.4-1.3-2.4-2.56c0-1.35.9-2.64,2.4-2.64Zm0,1.1c-.79,0-1.3.6-1.3,1.5,0,.96.53,1.5,1.3,1.5s1.3-.54,1.3-1.5c0-.9-.51-1.5-1.3-1.5Z"/><path class="cls-5" d="m823.95,336.41h2.8l-.03,3.61h-1.13c-.01-.15-.01-.29-.02-.43-.34.33-.89.53-1.56.53-1.73,0-3.11-1.3-3.11-3.5s1.34-3.5,3.12-3.5c1.32,0,2.46.66,2.67,2.19h-1.4c-.07-.58-.57-1-1.34-1-1.1,0-1.81.86-1.81,2.31s.78,2.31,2.02,2.31c.86,0,1.28-.43,1.4-1.38h-1.61v-1.14Z"/><path class="cls-5" d="m830.94,340.02v-3.3c0-.56-.38-.86-.87-.86-.81,0-1,.86-1,1.46v2.7h-1.1v-6.8h1.06v2.2c.18-.18.64-.5,1.44-.5.87,0,1.61.46,1.61,1.56v3.54h-1.14Z"/><path class="cls-5" d="m835.44,334.92c1.5,0,2.4,1.29,2.4,2.64,0,1.26-.8,2.56-2.4,2.56s-2.4-1.3-2.4-2.56c0-1.35.9-2.64,2.4-2.64Zm0,1.1c-.79,0-1.3.6-1.3,1.5,0,.96.53,1.5,1.3,1.5s1.3-.54,1.3-1.5c0-.9-.51-1.5-1.3-1.5Z"/><path class="cls-5" d="m840.56,335.77c-.58,0-.78.26-.78.52,0,.84,2.96.22,2.96,2.16,0,.94-.68,1.67-2.06,1.67-1.79,0-2.14-1.1-2.14-1.7h1.14c.08.39.34.8,1.09.8.55,0,.87-.21.87-.63,0-.99-2.96-.25-2.96-2.15,0-.78.52-1.52,1.98-1.52,1.58,0,2,1.04,2,1.54h-1.14c.02-.45-.36-.69-.96-.69Z"/><path class="cls-5" d="m844.94,333.22v1.8h.7v1.1h-.7v2.58c0,.3.2.38.4.38.18,0,.3-.04.37-.08v1c-.09.03-.33.12-.79.12-.76,0-1.08-.46-1.08-.94v-3.06h-.6v-1.1h.6v-1.8h1.1Z"/><path class="cls-5" d="m847.86,338.62v1.38c0,1.02-.45,1.42-1.41,1.42v-.7c.46,0,.71-.3.71-.7h-.7v-1.4h1.4Z"/><path class="cls-5" d="m857.94,338.98c.13,0,.26-.02.45-.06v1.1c-.35.05-.53.06-.71.06-.61,0-.9-.13-1.13-.52-.18.14-.68.56-1.56.56-1.12,0-1.96-.78-1.96-1.66,0-1.14.96-1.6,2.34-1.6h.96v-.24c0-.54-.42-.9-1.02-.9s-.94.31-.94.9h-1.22c0-1.08.96-1.7,2.19-1.7,1.13,0,2.09.51,2.09,1.59v2.04c0,.3.2.43.51.43Zm-2.79.34c.82,0,1.18-.7,1.18-1.1v-.5c-1.74-.08-2.06.32-2.06.86,0,.4.34.74.88.74Z"/><path class="cls-5" d="m861.9,340.02v-3.3c0-.47-.36-.75-.87-.75-.81,0-1,.71-1,1.25v2.8h-1.14v-5h1.1v.4c.41-.32.93-.5,1.44-.5.87,0,1.61.46,1.61,1.56v3.54h-1.14Z"/><path class="cls-5" d="m867.66,340.02v-.44c-.22.16-.66.54-1.38.54-1.46,0-2.28-1.28-2.28-2.56,0-1.44.78-2.64,2.24-2.64.72,0,1.14.3,1.38.46v-2.16h1.1v6.8h-1.06Zm-1.26-1c.75,0,1.26-.5,1.26-1.5s-.53-1.5-1.26-1.5-1.3.44-1.3,1.5c0,1,.55,1.5,1.3,1.5Z"/><path class="cls-5" d="m329.4,345.22h2.82c1.48,0,2.18.73,2.18,1.94,0,.77-.51,1.27-1.18,1.58.42.2.6.58.67.98l.15.85c.1.57.41,1.13.89,1.45h-1.57c-.36-.16-.49-.59-.58-1.22l-.11-.77c-.08-.54-.3-.93-.9-.93h-1.18v2.92h-1.19v-6.8Zm1.19,1.13v1.62h1.6c.68,0,.97-.29.97-.81s-.35-.81-.94-.81h-1.63Z"/><path class="cls-5" d="m337.45,346.92c1.4,0,2.27,1,2.34,2.86h-3.55c.09.87.61,1.24,1.28,1.24.77,0,1.01-.48,1.11-.7h1.1c-.06.68-.7,1.8-2.2,1.8s-2.4-1.2-2.4-2.56.92-2.64,2.32-2.64Zm-1.13,1.86h2.29c-.07-.61-.48-.96-1.12-.96-.53,0-.99.29-1.17.96Z"/><path class="cls-5" d="m345.34,350.98c.13,0,.26-.02.45-.06v1.1c-.35.05-.53.06-.71.06-.61,0-.9-.13-1.13-.52-.18.14-.68.56-1.56.56-1.12,0-1.96-.78-1.96-1.66,0-1.14.96-1.6,2.34-1.6h.96v-.24c0-.54-.42-.9-1.02-.9s-.94.31-.94.9h-1.22c0-1.08.96-1.7,2.19-1.7,1.13,0,2.09.51,2.09,1.59v2.04c0,.3.2.43.51.43Zm-2.79.34c.82,0,1.18-.7,1.18-1.1v-.5c-1.74-.08-2.06.32-2.06.86,0,.4.34.74.88.74Z"/><path class="cls-5" d="m348.43,346.92c1.74,0,2.14,1.52,2.28,2.2h-1.16c-.1-.62-.41-1.1-1.16-1.1-.65,0-1.2.5-1.2,1.5,0,1.06.61,1.5,1.28,1.5.76,0,1-.54,1.18-1h1.04c0,.84-.74,2.1-2.32,2.1-1.38,0-2.28-1.2-2.28-2.56,0-1.55.98-2.64,2.34-2.64Z"/><path class="cls-5" d="m352.97,345.22v1.8h.7v1.1h-.7v2.58c0,.3.2.38.4.38.18,0,.3-.04.37-.08v1c-.09.03-.33.12-.79.12-.76,0-1.08-.46-1.08-.94v-3.06h-.6v-1.1h.6v-1.8h1.1Z"/><path class="cls-5" d="m355.78,345.12v1.2h-1.14v-1.2h1.14Zm0,1.9v5h-1.14v-5h1.14Z"/><path class="cls-5" d="m359.18,346.92c1.5,0,2.4,1.29,2.4,2.64,0,1.26-.8,2.56-2.4,2.56s-2.4-1.3-2.4-2.56c0-1.35.9-2.64,2.4-2.64Zm0,1.1c-.79,0-1.3.6-1.3,1.5,0,.96.53,1.5,1.3,1.5s1.3-.54,1.3-1.5c0-.9-.51-1.5-1.3-1.5Z"/><path class="cls-5" d="m365.59,352.02v-3.3c0-.47-.36-.75-.87-.75-.81,0-1,.71-1,1.25v2.8h-1.14v-5h1.1v.4c.41-.32.93-.5,1.44-.5.87,0,1.61.46,1.61,1.56v3.54h-1.14Z"/><path class="cls-5" d="m371.39,345.22v1.8h.7v1.1h-.7v2.58c0,.3.2.38.4.38.18,0,.3-.04.37-.08v1c-.09.03-.33.12-.79.12-.76,0-1.08-.46-1.08-.94v-3.06h-.6v-1.1h.6v-1.8h1.1Z"/><path class="cls-5" d="m375.26,346.92c1.5,0,2.4,1.29,2.4,2.64,0,1.26-.8,2.56-2.4,2.56s-2.4-1.3-2.4-2.56c0-1.35.9-2.64,2.4-2.64Zm0,1.1c-.79,0-1.3.6-1.3,1.5,0,.96.53,1.5,1.3,1.5s1.3-.54,1.3-1.5c0-.9-.51-1.5-1.3-1.5Z"/><path class="cls-5" d="m381.12,345.22h2.77c1.62,0,2.22.81,2.22,1.78,0,.7-.33,1.16-.76,1.52.72.38.91,1,.91,1.51,0,1.16-.75,1.99-2.32,1.99h-2.82v-6.8Zm1.19,1.13v1.65h1.56c.73,0,1.04-.25,1.04-.84s-.37-.81-1.01-.81h-1.59Zm0,2.78v1.76h1.79c.61,0,.97-.3.97-.86,0-.6-.45-.9-1.2-.9h-1.56Z"/><path class="cls-5" d="m389.33,346.92c1.4,0,2.27,1,2.34,2.86h-3.55c.09.87.61,1.24,1.28,1.24.77,0,1.01-.48,1.11-.7h1.1c-.06.68-.7,1.8-2.2,1.8s-2.4-1.2-2.4-2.56.92-2.64,2.32-2.64Zm-1.13,1.86h2.29c-.07-.61-.48-.96-1.12-.96-.53,0-.99.29-1.17.96Z"/><path class="cls-5" d="m393.73,345.12v1.2h-1.14v-1.2h1.14Zm0,1.9v5h-1.14v-5h1.14Z"/><path class="cls-5" d="m397.94,352.02v-3.3c0-.47-.36-.75-.87-.75-.81,0-1,.71-1,1.25v2.8h-1.14v-5h1.1v.4c.41-.32.93-.5,1.44-.5.87,0,1.61.46,1.61,1.56v3.54h-1.14Z"/><path class="cls-5" d="m403.54,351.4c-.24.19-.67.42-1.28.42-1.46,0-2.22-1.1-2.22-2.36,0-1.35.88-2.54,2.16-2.54.74,0,1.16.28,1.38.46v-.36h1.06v4.9c0,1.28-.76,2-2.22,2s-2.34-.62-2.34-1.7h1.14c.12.33.28.8,1.18.8.8,0,1.14-.4,1.14-1v-.62Zm-1.16-.48c.73,0,1.2-.5,1.2-1.46,0-.9-.45-1.44-1.2-1.44s-1.24.54-1.24,1.44c0,.96.51,1.46,1.24,1.46Z"/><path class="cls-5" d="m410.99,348.41h2.8l-.03,3.61h-1.13c0-.15,0-.29-.02-.43-.34.33-.89.53-1.56.53-1.73,0-3.11-1.3-3.11-3.5s1.34-3.5,3.12-3.5c1.32,0,2.46.66,2.67,2.19h-1.4c-.07-.58-.57-1-1.34-1-1.1,0-1.81.86-1.81,2.31s.78,2.31,2.02,2.31c.86,0,1.28-.43,1.4-1.38h-1.61v-1.14Z"/><path class="cls-5" d="m417.98,352.02v-3.3c0-.56-.38-.86-.87-.86-.81,0-1,.86-1,1.46v2.7h-1.1v-6.8h1.06v2.2c.18-.18.64-.5,1.44-.5.87,0,1.61.46,1.61,1.56v3.54h-1.14Z"/><path class="cls-5" d="m422.48,346.92c1.5,0,2.4,1.29,2.4,2.64,0,1.26-.8,2.56-2.4,2.56s-2.4-1.3-2.4-2.56c0-1.35.9-2.64,2.4-2.64Zm0,1.1c-.79,0-1.3.6-1.3,1.5,0,.96.53,1.5,1.3,1.5s1.3-.54,1.3-1.5c0-.9-.51-1.5-1.3-1.5Z"/><path class="cls-5" d="m427.6,347.77c-.58,0-.78.26-.78.52,0,.84,2.96.22,2.96,2.16,0,.94-.68,1.67-2.06,1.67-1.79,0-2.14-1.1-2.14-1.7h1.14c.08.39.34.8,1.09.8.55,0,.87-.21.87-.63,0-.99-2.96-.25-2.96-2.15,0-.78.52-1.52,1.98-1.52,1.58,0,2,1.04,2,1.54h-1.14c.02-.45-.36-.69-.96-.69Z"/><path class="cls-5" d="m431.98,345.22v1.8h.7v1.1h-.7v2.58c0,.3.2.38.4.38.18,0,.3-.04.37-.08v1c-.09.03-.33.12-.79.12-.76,0-1.08-.46-1.08-.94v-3.06h-.6v-1.1h.6v-1.8h1.1Z"/><path class="cls-5" d="m435.72,346.92c1.4,0,2.27,1,2.34,2.86h-3.55c.09.87.61,1.24,1.28,1.24.77,0,1.01-.48,1.11-.7h1.1c-.06.68-.7,1.8-2.2,1.8s-2.4-1.2-2.4-2.56.92-2.64,2.32-2.64Zm-1.13,1.86h2.29c-.07-.61-.48-.96-1.12-.96-.53,0-.99.29-1.17.96Z"/><path class="cls-5" d="m442.44,352.02v-.44c-.22.16-.66.54-1.38.54-1.46,0-2.28-1.28-2.28-2.56,0-1.44.78-2.64,2.24-2.64.72,0,1.14.3,1.38.46v-2.16h1.1v6.8h-1.06Zm-1.26-1c.75,0,1.26-.5,1.26-1.5s-.53-1.5-1.26-1.5-1.3.44-1.3,1.5c0,1,.55,1.5,1.3,1.5Z"/><path class="cls-5" d="m445.97,345.22v1.38c0,1.02-.45,1.42-1.41,1.42v-.7c.46,0,.71-.3.71-.7h-.7v-1.4h1.4Zm2,0v1.38c0,1.02-.45,1.42-1.41,1.42v-.7c.46,0,.71-.3.71-.7h-.7v-1.4h1.4Z"/><path class="cls-5" d="m451.2,345.22h1.1v2.16c.24-.16.66-.46,1.38-.46,1.46,0,2.24,1.2,2.24,2.64,0,1.28-.82,2.56-2.28,2.56-.72,0-1.16-.38-1.38-.54v.44h-1.06v-6.8Zm2.32,2.8c-.73,0-1.26.5-1.26,1.5s.51,1.5,1.26,1.5,1.3-.5,1.3-1.5c0-1.06-.57-1.5-1.3-1.5Z"/><path class="cls-5" d="m458.06,352.22c0-.1-.03-.22-.08-.36l-1.66-4.84h1.2l1.15,3.68,1.19-3.68h1.2l-2.1,5.78c-.23.63-.9,1.12-1.64,1.12-.44,0-.72-.02-1-.06v-1.06c.24.04.72.06,1.1.06.3,0,.64-.28.64-.64Z"/><path class="cls-5" d="m469.7,349.2c-.07,1.77-1.22,2.92-2.93,2.92-1.6,0-3.01-1.18-3.01-3.5s1.33-3.5,3.01-3.5,2.78,1.05,2.93,2.99h-1.34c-.11-1.27-.76-1.8-1.64-1.8-1.04,0-1.72.75-1.72,2.31s.69,2.31,1.72,2.31c.89,0,1.33-.44,1.73-1.73h1.25Z"/><path class="cls-5" d="m473.65,352.02v-3.3c0-.56-.38-.86-.87-.86-.81,0-1,.86-1,1.46v2.7h-1.1v-6.8h1.06v2.2c.18-.18.64-.5,1.44-.5.87,0,1.61.46,1.61,1.56v3.54h-1.14Z"/><path class="cls-5" d="m478.25,348c-.73,0-1.16.3-1.16,1.51v2.51h-1.14v-5h1.1v.56c.28-.34.62-.66,1.26-.66.3,0,.58.06.8.16l-.06,1.1c-.23-.1-.42-.18-.8-.18Z"/><path class="cls-5" d="m480.88,345.12v1.2h-1.14v-1.2h1.14Zm0,1.9v5h-1.14v-5h1.14Z"/><path class="cls-5" d="m483.8,347.77c-.58,0-.78.26-.78.52,0,.84,2.96.22,2.96,2.16,0,.94-.68,1.67-2.06,1.67-1.79,0-2.14-1.1-2.14-1.7h1.14c.08.39.34.8,1.09.8.55,0,.87-.21.87-.63,0-.99-2.96-.25-2.96-2.15,0-.78.52-1.52,1.98-1.52,1.58,0,2,1.04,2,1.54h-1.14c.02-.45-.36-.69-.96-.69Z"/><path class="cls-5" d="m488.18,345.22v1.8h.7v1.1h-.7v2.58c0,.3.2.38.4.38.18,0,.3-.04.37-.08v1c-.09.03-.33.12-.79.12-.76,0-1.08-.46-1.08-.94v-3.06h-.6v-1.1h.6v-1.8h1.1Z"/><path class="cls-5" d="m490.99,345.12v1.2h-1.14v-1.2h1.14Zm0,1.9v5h-1.14v-5h1.14Z"/><path class="cls-5" d="m495.2,352.02v-3.3c0-.47-.36-.75-.87-.75-.81,0-1,.71-1,1.25v2.8h-1.14v-5h1.1v.4c.41-.32.93-.5,1.44-.5.87,0,1.61.46,1.61,1.56v3.54h-1.14Z"/><path class="cls-5" d="m502.13,350.98c.13,0,.26-.02.45-.06v1.1c-.35.05-.53.06-.71.06-.61,0-.9-.13-1.13-.52-.18.14-.68.56-1.56.56-1.12,0-1.96-.78-1.96-1.66,0-1.14.96-1.6,2.34-1.6h.96v-.24c0-.54-.42-.9-1.02-.9s-.94.31-.94.9h-1.22c0-1.08.96-1.7,2.19-1.7,1.13,0,2.09.51,2.09,1.59v2.04c0,.3.2.43.51.43Zm-2.79.34c.82,0,1.18-.7,1.18-1.1v-.5c-1.74-.08-2.06.32-2.06.86,0,.4.34.74.88.74Z"/><path class="cls-5" d="m505.54,345.22h2l1.36,4.39,1.43-4.39h2v6.8h-1.14v-5.68l-1.81,5.68h-.97l-1.73-5.62v5.62h-1.14v-6.8Z"/><path class="cls-5" d="m515.04,350.62v1.4h-1.4v-1.4h1.4Z"/><path class="cls-5" d="m518.55,345.22h1.19v5.67h2.7v1.13h-3.89v-6.8Z"/><path class="cls-5" d="m525.6,346.92c1.4,0,2.27,1,2.34,2.86h-3.55c.09.87.61,1.24,1.28,1.24.77,0,1.01-.48,1.11-.7h1.1c-.06.68-.7,1.8-2.2,1.8s-2.4-1.2-2.4-2.56.92-2.64,2.32-2.64Zm-1.13,1.86h2.29c-.07-.61-.48-.96-1.12-.96-.53,0-.99.29-1.17.96Z"/><path class="cls-5" d="m531,346.92c1.74,0,2.14,1.52,2.28,2.2h-1.16c-.1-.62-.41-1.1-1.16-1.1-.65,0-1.2.5-1.2,1.5,0,1.06.61,1.5,1.28,1.5.76,0,1-.54,1.18-1h1.04c0,.84-.74,2.1-2.32,2.1-1.38,0-2.28-1.2-2.28-2.56,0-1.55.98-2.64,2.34-2.64Z"/><path class="cls-5" d="m535.38,345.22v3.53l1.78-1.73h1.38l-1.74,1.65,1.74,3.35h-1.28l-1.26-2.6-.62.58v2.02h-1.14v-6.8h1.14Z"/><path class="cls-5" d="m539.34,348.12h-.6v-1.1h.6v-.82c0-.48.32-1.08,1.08-1.08.46,0,.7.05.79.06v1.1c-.07,0-.19-.02-.37-.02-.2,0-.4.08-.4.38v.38h.7v1.1h-.7v3.9h-1.1v-3.9Z"/><path class="cls-5" d="m544.21,346.92c1.5,0,2.4,1.29,2.4,2.64,0,1.26-.8,2.56-2.4,2.56s-2.4-1.3-2.4-2.56c0-1.35.9-2.64,2.4-2.64Zm0,1.1c-.79,0-1.3.6-1.3,1.5,0,.96.53,1.5,1.3,1.5s1.3-.54,1.3-1.5c0-.9-.51-1.5-1.3-1.5Z"/><path class="cls-5" d="m549.91,348c-.73,0-1.16.3-1.16,1.51v2.51h-1.14v-5h1.1v.56c.28-.34.62-.66,1.26-.66.3,0,.58.06.8.16l-.06,1.1c-.23-.1-.42-.18-.8-.18Z"/><path class="cls-5" d="m552.65,350.62v1.38c0,1.02-.45,1.42-1.41,1.42v-.7c.46,0,.71-.3.71-.7h-.7v-1.4h1.4Z"/><path class="cls-5" d="m556.16,345.22h1.3l2.44,4.43v-4.43h1.15v6.8h-1.3l-2.44-4.43v4.43h-1.15v-6.8Z"/><path class="cls-5" d="m567.13,350.98c.13,0,.26-.02.45-.06v1.1c-.35.05-.53.06-.71.06-.61,0-.9-.13-1.13-.52-.18.14-.68.56-1.56.56-1.12,0-1.96-.78-1.96-1.66,0-1.14.96-1.6,2.34-1.6h.96v-.24c0-.54-.42-.9-1.02-.9s-.94.31-.94.9h-1.22c0-1.08.96-1.7,2.19-1.7,1.13,0,2.09.51,2.09,1.59v2.04c0,.3.2.43.51.43Zm-2.79.34c.82,0,1.18-.7,1.18-1.1v-.5c-1.74-.08-2.06.32-2.06.86,0,.4.34.74.88.74Z"/><path class="cls-5" d="m569.39,345.22v1.8h.7v1.1h-.7v2.58c0,.3.2.38.4.38.18,0,.3-.04.37-.08v1c-.09.03-.33.12-.79.12-.76,0-1.08-.46-1.08-.94v-3.06h-.6v-1.1h.6v-1.8h1.1Z"/><path class="cls-5" d="m575.68,350.98c.13,0,.26-.02.45-.06v1.1c-.35.05-.53.06-.71.06-.61,0-.9-.13-1.13-.52-.18.14-.68.56-1.56.56-1.12,0-1.96-.78-1.96-1.66,0-1.14.96-1.6,2.34-1.6h.96v-.24c0-.54-.42-.9-1.02-.9s-.94.31-.94.9h-1.22c0-1.08.96-1.7,2.19-1.7,1.13,0,2.09.51,2.09,1.59v2.04c0,.3.2.43.51.43Zm-2.79.34c.82,0,1.18-.7,1.18-1.1v-.5c-1.74-.08-2.06.32-2.06.86,0,.4.34.74.88.74Z"/><path class="cls-5" d="m578.36,347.77c-.58,0-.78.26-.78.52,0,.84,2.96.22,2.96,2.16,0,.94-.68,1.67-2.06,1.67-1.79,0-2.14-1.1-2.14-1.7h1.14c.08.39.34.8,1.09.8.55,0,.87-.21.87-.63,0-.99-2.96-.25-2.96-2.15,0-.78.52-1.52,1.98-1.52,1.58,0,2,1.04,2,1.54h-1.14c.02-.45-.36-.69-.96-.69Z"/><path class="cls-5" d="m584.41,352.02v-3.3c0-.56-.38-.86-.87-.86-.81,0-1,.86-1,1.46v2.7h-1.1v-6.8h1.06v2.2c.18-.18.64-.5,1.44-.5.87,0,1.61.46,1.61,1.56v3.54h-1.14Z"/><path class="cls-5" d="m591.33,350.98c.13,0,.26-.02.45-.06v1.1c-.35.05-.53.06-.71.06-.61,0-.9-.13-1.13-.52-.18.14-.68.56-1.56.56-1.12,0-1.96-.78-1.96-1.66,0-1.14.96-1.6,2.34-1.6h.96v-.24c0-.54-.42-.9-1.02-.9s-.94.31-.94.9h-1.22c0-1.08.96-1.7,2.19-1.7,1.13,0,2.09.51,2.09,1.59v2.04c0,.3.2.43.51.43Zm-2.79.34c.82,0,1.18-.7,1.18-1.1v-.5c-1.74-.08-2.06.32-2.06.86,0,.4.34.74.88.74Z"/><path class="cls-5" d="m594.75,345.22h2.82c1.48,0,2.18.73,2.18,1.94,0,.77-.51,1.27-1.18,1.58.42.2.6.58.67.98l.15.85c.1.57.41,1.13.89,1.45h-1.57c-.36-.16-.49-.59-.58-1.22l-.11-.77c-.08-.54-.3-.93-.9-.93h-1.18v2.92h-1.19v-6.8Zm1.19,1.13v1.62h1.6c.68,0,.97-.29.97-.81s-.35-.81-.94-.81h-1.63Z"/><path class="cls-5" d="m601.98,350.62v1.4h-1.4v-1.4h1.4Z"/><path class="cls-5" d="m606.96,350.15l1.03-4.93h1.73l1.01,4.96,1.15-4.96h1.2l-1.65,6.8h-1.44l-1.16-5.36-1.14,5.36h-1.43l-1.67-6.8h1.25l1.12,4.93Z"/><path class="cls-5" d="m615.84,346.92c1.5,0,2.4,1.29,2.4,2.64,0,1.26-.8,2.56-2.4,2.56s-2.4-1.3-2.4-2.56c0-1.35.9-2.64,2.4-2.64Zm0,1.1c-.79,0-1.3.6-1.3,1.5,0,.96.53,1.5,1.3,1.5s1.3-.54,1.3-1.5c0-.9-.51-1.5-1.3-1.5Z"/><path class="cls-5" d="m621.44,346.92c1.5,0,2.4,1.29,2.4,2.64,0,1.26-.8,2.56-2.4,2.56s-2.4-1.3-2.4-2.56c0-1.35.9-2.64,2.4-2.64Zm0,1.1c-.79,0-1.3.6-1.3,1.5,0,.96.53,1.5,1.3,1.5s1.3-.54,1.3-1.5c0-.9-.51-1.5-1.3-1.5Z"/><path class="cls-5" d="m628.29,352.02v-.44c-.22.16-.66.54-1.38.54-1.46,0-2.28-1.28-2.28-2.56,0-1.44.78-2.64,2.24-2.64.72,0,1.14.3,1.38.46v-2.16h1.1v6.8h-1.06Zm-1.26-1c.75,0,1.26-.5,1.26-1.5s-.53-1.5-1.26-1.5-1.3.44-1.3,1.5c0,1,.55,1.5,1.3,1.5Z"/><path class="cls-5" d="m631.81,350.62v1.38c0,1.02-.45,1.42-1.41,1.42v-.7c.46,0,.71-.3.71-.7h-.7v-1.4h1.4Z"/><path class="cls-5" d="m635.32,345.22h2.82c1.48,0,2.18.73,2.18,1.94,0,.77-.51,1.27-1.18,1.58.42.2.6.58.67.98l.15.85c.1.57.41,1.13.89,1.45h-1.57c-.36-.16-.49-.59-.58-1.22l-.11-.77c-.08-.54-.3-.93-.9-.93h-1.18v2.92h-1.19v-6.8Zm1.19,1.13v1.62h1.6c.68,0,.97-.29.97-.81s-.35-.81-.94-.81h-1.63Z"/><path class="cls-5" d="m642.44,345.12v1.2h-1.14v-1.2h1.14Zm0,1.9v5h-1.14v-5h1.14Z"/><path class="cls-5" d="m645.77,346.92c1.74,0,2.14,1.52,2.28,2.2h-1.16c-.1-.62-.41-1.1-1.16-1.1-.65,0-1.2.5-1.2,1.5,0,1.06.61,1.5,1.28,1.5.76,0,1-.54,1.18-1h1.04c0,.84-.74,2.1-2.32,2.1-1.38,0-2.28-1.2-2.28-2.56,0-1.55.98-2.64,2.34-2.64Z"/><path class="cls-5" d="m651.98,352.02v-3.3c0-.56-.38-.86-.87-.86-.81,0-1,.86-1,1.46v2.7h-1.1v-6.8h1.06v2.2c.18-.18.64-.5,1.44-.5.87,0,1.61.46,1.61,1.56v3.54h-1.14Z"/><path class="cls-5" d="m658.91,350.98c.13,0,.26-.02.45-.06v1.1c-.35.05-.53.06-.71.06-.61,0-.9-.13-1.13-.52-.18.14-.68.56-1.56.56-1.12,0-1.96-.78-1.96-1.66,0-1.14.96-1.6,2.34-1.6h.96v-.24c0-.54-.42-.9-1.02-.9s-.94.31-.94.9h-1.22c0-1.08.96-1.7,2.19-1.7,1.13,0,2.09.51,2.09,1.59v2.04c0,.3.2.43.51.43Zm-2.79.34c.82,0,1.18-.7,1.18-1.1v-.5c-1.74-.08-2.06.32-2.06.86,0,.4.34.74.88.74Z"/><path class="cls-5" d="m662.16,348c-.73,0-1.16.3-1.16,1.51v2.51h-1.14v-5h1.1v.56c.28-.34.62-.66,1.26-.66.3,0,.58.06.8.16l-.06,1.1c-.23-.1-.42-.18-.8-.18Z"/><path class="cls-5" d="m667.11,352.02v-.44c-.22.16-.66.54-1.38.54-1.46,0-2.28-1.28-2.28-2.56,0-1.44.78-2.64,2.24-2.64.72,0,1.14.3,1.38.46v-2.16h1.1v6.8h-1.06Zm-1.26-1c.75,0,1.26-.5,1.26-1.5s-.53-1.5-1.26-1.5-1.3.44-1.3,1.5c0,1,.55,1.5,1.3,1.5Z"/><path class="cls-5" d="m671.84,345.22h2.77c1.62,0,2.22.81,2.22,1.78,0,.7-.33,1.16-.76,1.52.72.38.91,1,.91,1.51,0,1.16-.75,1.99-2.32,1.99h-2.82v-6.8Zm1.19,1.13v1.65h1.56c.73,0,1.04-.25,1.04-.84s-.37-.81-1.01-.81h-1.59Zm0,2.78v1.76h1.79c.61,0,.97-.3.97-.86,0-.6-.45-.9-1.2-.9h-1.56Z"/><path class="cls-5" d="m679.23,350.62v1.4h-1.4v-1.4h1.4Z"/><path class="cls-5" d="m686.09,347.37c-.06-.59-.2-1.35-1.29-1.35-.8,0-1.18.4-1.18.94,0,1.64,3.79,0,3.79,2.96,0,1.38-1.07,2.2-2.61,2.2-1.92,0-2.73-1.19-2.57-2.33h1.26c.05.77.15,1.43,1.35,1.43.98,0,1.32-.48,1.32-1,0-1.73-3.8-.13-3.8-3.1,0-1.14.95-2,2.41-2,1.85,0,2.62.96,2.52,2.25h-1.2Z"/><path class="cls-5" d="m689.5,345.22v6.8h-1.14v-6.8h1.14Z"/><path class="cls-5" d="m695.32,350.98c.13,0,.26-.02.45-.06v1.1c-.35.05-.53.06-.71.06-.61,0-.9-.13-1.13-.52-.18.14-.68.56-1.56.56-1.12,0-1.96-.78-1.96-1.66,0-1.14.96-1.6,2.34-1.6h.96v-.24c0-.54-.42-.9-1.02-.9s-.94.31-.94.9h-1.22c0-1.08.96-1.7,2.19-1.7,1.13,0,2.09.51,2.09,1.59v2.04c0,.3.2.43.51.43Zm-2.79.34c.82,0,1.18-.7,1.18-1.1v-.5c-1.74-.08-2.06.32-2.06.86,0,.4.34.74.88.74Z"/><path class="cls-5" d="m697.58,345.22v1.8h.7v1.1h-.7v2.58c0,.3.2.38.4.38.18,0,.3-.04.37-.08v1c-.09.03-.33.12-.79.12-.76,0-1.08-.46-1.08-.94v-3.06h-.6v-1.1h.6v-1.8h1.1Z"/><path class="cls-5" d="m701.38,346.92c1.74,0,2.14,1.52,2.28,2.2h-1.16c-.1-.62-.41-1.1-1.16-1.1-.65,0-1.2.5-1.2,1.5,0,1.06.61,1.5,1.28,1.5.76,0,1-.54,1.18-1h1.04c0,.84-.74,2.1-2.32,2.1-1.38,0-2.28-1.2-2.28-2.56,0-1.55.98-2.64,2.34-2.64Z"/><path class="cls-5" d="m707.59,352.02v-3.3c0-.56-.38-.86-.87-.86-.81,0-1,.86-1,1.46v2.7h-1.1v-6.8h1.06v2.2c.18-.18.64-.5,1.44-.5.87,0,1.61.46,1.61,1.56v3.54h-1.14Z"/><path class="cls-5" d="m711.96,346.92c1.4,0,2.27,1,2.34,2.86h-3.55c.09.87.61,1.24,1.28,1.24.77,0,1.01-.48,1.11-.7h1.1c-.06.68-.7,1.8-2.2,1.8s-2.4-1.2-2.4-2.56.92-2.64,2.32-2.64Zm-1.13,1.86h2.29c-.07-.61-.48-.96-1.12-.96-.53,0-.99.29-1.17.96Z"/><path class="cls-5" d="m717.52,348c-.73,0-1.16.3-1.16,1.51v2.51h-1.14v-5h1.1v.56c.28-.34.62-.66,1.26-.66.3,0,.58.06.8.16l-.06,1.1c-.23-.1-.42-.18-.8-.18Z"/><path class="cls-5" d="m725.84,350.98c.13,0,.26-.02.45-.06v1.1c-.35.05-.53.06-.71.06-.61,0-.9-.13-1.13-.52-.18.14-.68.56-1.56.56-1.12,0-1.96-.78-1.96-1.66,0-1.14.96-1.6,2.34-1.6h.96v-.24c0-.54-.42-.9-1.02-.9s-.94.31-.94.9h-1.22c0-1.08.96-1.7,2.19-1.7,1.13,0,2.09.51,2.09,1.59v2.04c0,.3.2.43.51.43Zm-2.79.34c.82,0,1.18-.7,1.18-1.1v-.5c-1.74-.08-2.06.32-2.06.86,0,.4.34.74.88.74Z"/><path class="cls-5" d="m729.8,352.02v-3.3c0-.47-.36-.75-.87-.75-.81,0-1,.71-1,1.25v2.8h-1.14v-5h1.1v.4c.41-.32.93-.5,1.44-.5.87,0,1.61.46,1.61,1.56v3.54h-1.14Z"/><path class="cls-5" d="m735.56,352.02v-.44c-.22.16-.66.54-1.38.54-1.46,0-2.28-1.28-2.28-2.56,0-1.44.78-2.64,2.24-2.64.72,0,1.14.3,1.38.46v-2.16h1.1v6.8h-1.06Zm-1.26-1c.75,0,1.26-.5,1.26-1.5s-.53-1.5-1.26-1.5-1.3.44-1.3,1.5c0,1,.55,1.5,1.3,1.5Z"/><path class="cls-5" d="m743.62,350.15h-2.24l-.73,1.87h-1.26l2.6-6.8h1.02l2.6,6.8h-1.26l-.73-1.87Zm-.42-1.1l-.7-1.79-.7,1.79h1.4Z"/><path class="cls-5" d="m749.19,352.02v-3.3c0-.47-.36-.75-.87-.75-.81,0-1,.71-1,1.25v2.8h-1.14v-5h1.1v.4c.41-.32.93-.5,1.44-.5.87,0,1.61.46,1.61,1.56v3.54h-1.14Z"/><path class="cls-5" d="m754.95,352.02v-.44c-.22.16-.66.54-1.38.54-1.46,0-2.28-1.28-2.28-2.56,0-1.44.78-2.64,2.24-2.64.72,0,1.14.3,1.38.46v-2.16h1.1v6.8h-1.06Zm-1.26-1c.75,0,1.26-.5,1.26-1.5s-.53-1.5-1.26-1.5-1.3.44-1.3,1.5c0,1,.55,1.5,1.3,1.5Z"/><path class="cls-5" d="m759.51,348c-.73,0-1.16.3-1.16,1.51v2.51h-1.14v-5h1.1v.56c.28-.34.62-.66,1.26-.66.3,0,.58.06.8.16l-.06,1.1c-.23-.1-.42-.18-.8-.18Z"/><path class="cls-5" d="m763.07,346.92c1.4,0,2.27,1,2.34,2.86h-3.55c.09.87.61,1.24,1.28,1.24.77,0,1.01-.48,1.11-.7h1.1c-.06.68-.7,1.8-2.2,1.8s-2.4-1.2-2.4-2.56.92-2.64,2.32-2.64Zm-1.13,1.86h2.29c-.07-.61-.48-.96-1.12-.96-.53,0-.99.29-1.17.96Z"/><path class="cls-5" d="m766.89,347.02l1.07,3.38,1.07-3.38h1.1l1.09,3.44,1.09-3.44h1.16l-1.68,5h-1.14l-1.06-3.28-1.04,3.28h-1.14l-1.68-5h1.16Z"/><path class="cls-5" d="m776.53,345.22h1.19v2.7h2.66v-2.7h1.19v6.8h-1.19v-2.92h-2.66v2.92h-1.19v-6.8Z"/><path class="cls-5" d="m784.28,350.62v1.4h-1.4v-1.4h1.4Z"/><path class="cls-5" d="m787.79,345.22h1.19v2.7h2.66v-2.7h1.19v6.8h-1.19v-2.92h-2.66v2.92h-1.19v-6.8Z"/><path class="cls-5" d="m798.92,350.98c.13,0,.26-.02.45-.06v1.1c-.35.05-.53.06-.71.06-.61,0-.9-.13-1.13-.52-.18.14-.68.56-1.56.56-1.12,0-1.96-.78-1.96-1.66,0-1.14.96-1.6,2.34-1.6h.96v-.24c0-.54-.42-.9-1.02-.9s-.94.31-.94.9h-1.22c0-1.08.96-1.7,2.19-1.7,1.13,0,2.09.51,2.09,1.59v2.04c0,.3.2.43.51.43Zm-2.79.34c.82,0,1.18-.7,1.18-1.1v-.5c-1.74-.08-2.06.32-2.06.86,0,.4.34.74.88.74Z"/><path class="cls-5" d="m801.01,345.22v6.8h-1.14v-6.8h1.14Z"/><path class="cls-5" d="m804.28,346.92c1.4,0,2.27,1,2.34,2.86h-3.55c.09.87.61,1.24,1.28,1.24.77,0,1.01-.48,1.11-.7h1.1c-.06.68-.7,1.8-2.2,1.8s-2.4-1.2-2.4-2.56.92-2.64,2.32-2.64Zm-1.13,1.86h2.29c-.07-.61-.48-.96-1.12-.96-.53,0-.99.29-1.17.96Z"/><path class="cls-5" d="m809.26,347.77c-.58,0-.78.26-.78.52,0,.84,2.96.22,2.96,2.16,0,.94-.68,1.67-2.06,1.67-1.79,0-2.14-1.1-2.14-1.7h1.14c.08.39.34.8,1.09.8.55,0,.87-.21.87-.63,0-.99-2.96-.25-2.96-2.15,0-.78.52-1.52,1.98-1.52,1.58,0,2,1.04,2,1.54h-1.14c.02-.45-.36-.69-.96-.69Z"/><line class="cls-2" x1="34.4" y1="54.5" x2="34.4" y2="300.5"/><line class="cls-3" x1="570.4" y1="300.5" x2="34.4" y2="300.5"/><path class="cls-4" d="m35.9,159h-1v-1h479c.55,0,1-.45,1-1v-64c0-.55-.45-1-1-1H34.9v-1h1v68Zm-2,0h0v-69h480v1-1c1.66,0,3,1.34,3,3h-1,1v64h-1,1c0,1.66-1.34,3-3,3v-1,1H33.9v-1"/><rect class="cls-8" x="34.9" y="91" width="481" height="68"/><path class="cls-4" d="m35.9,264h-1v-1h284c.55,0,1-.45,1-1v-64c0-.55-.45-1-1-1H34.9v-1h1v68Zm-2,0h0v-69h285v1-1c1.66,0,3,1.34,3,3h-1,1v64h-1,1c0,1.66-1.34,3-3,3v-1,1H33.9v-1"/><rect class="cls-9" x="34.9" y="196" width="286" height="68"/><path class="cls-6" d="m12.34,125.46l-2.89-4.17h1.79l1.83,2.58,1.88-2.58h1.72l-2.9,4.17v3.98h-1.43v-3.98Z"/><path class="cls-6" d="m19.88,123.33c1.68,0,2.72,1.2,2.81,3.43h-4.26c.11,1.04.73,1.49,1.54,1.49.92,0,1.21-.58,1.33-.84h1.32c-.07.82-.84,2.16-2.64,2.16s-2.88-1.44-2.88-3.07,1.1-3.17,2.78-3.17Zm-1.35,2.23h2.75c-.08-.73-.58-1.15-1.34-1.15-.64,0-1.19.35-1.4,1.15Z"/><path class="cls-6" d="m25.86,124.34c-.7,0-.94.31-.94.62,0,1.01,3.55.26,3.55,2.59,0,1.13-.82,2-2.47,2-2.15,0-2.57-1.32-2.57-2.04h1.37c.1.47.41.96,1.31.96.66,0,1.04-.25,1.04-.75,0-1.19-3.55-.3-3.55-2.58,0-.94.62-1.82,2.37-1.82,1.9,0,2.4,1.25,2.4,1.85h-1.37c.02-.54-.43-.83-1.15-.83Z"/><path class="cls-6" d="m15.49,225.77h1.56l2.93,5.31v-5.31h1.38v8.16h-1.56l-2.93-5.31v5.31h-1.38v-8.16Z"/><path class="cls-6" d="m25.74,227.81c1.8,0,2.88,1.55,2.88,3.17,0,1.51-.96,3.07-2.88,3.07s-2.88-1.56-2.88-3.07c0-1.62,1.08-3.17,2.88-3.17Zm0,1.32c-.95,0-1.56.72-1.56,1.8,0,1.15.64,1.8,1.56,1.8s1.56-.65,1.56-1.8c0-1.08-.61-1.8-1.56-1.8Z"/><g class="cls-11"><path class="cls-6" d="m31.55,313.37c0-2.82,1.48-4.2,3.26-4.2s3.29,1.38,3.29,4.2-1.5,4.2-3.29,4.2-3.26-1.38-3.26-4.2Zm5.05,0c0-1.62-.58-2.72-1.79-2.72s-1.77,1.1-1.77,2.72.56,2.72,1.77,2.72,1.79-1.1,1.79-2.72Z"/><path class="cls-6" d="m38.99,311.63c0-1.57.95-2.46,2.1-2.46s2.12.89,2.12,2.46-.97,2.46-2.12,2.46-2.1-.89-2.1-2.46Zm3.13,0c0-.75-.3-1.39-1.03-1.39s-1.02.64-1.02,1.39.29,1.39,1.02,1.39,1.03-.64,1.03-1.39Zm3.73-2.34h1.2l-4.87,8.16h-1.2l4.87-8.16Zm-1.03,5.82c0-1.57.95-2.46,2.1-2.46s2.12.89,2.12,2.46-.97,2.46-2.12,2.46-2.1-.89-2.1-2.46Zm3.13,0c0-.76-.3-1.39-1.03-1.39s-1.02.64-1.02,1.39.29,1.39,1.02,1.39,1.03-.64,1.03-1.39Z"/></g><g class="cls-11"><path class="cls-6" d="m561.05,316.29h2.25v-4.71h-1.91v-.96c1.76-.12,2.1-.72,2.25-1.32h1.08v6.99h2.08v1.16h-5.76v-1.16Z"/><path class="cls-6" d="m568.21,313.37c0-2.82,1.48-4.2,3.26-4.2s3.29,1.38,3.29,4.2-1.5,4.2-3.29,4.2-3.26-1.38-3.26-4.2Zm5.05,0c0-1.62-.58-2.72-1.79-2.72s-1.78,1.1-1.78,2.72.56,2.72,1.78,2.72,1.79-1.1,1.79-2.72Z"/><path class="cls-6" d="m575.96,313.37c0-2.82,1.48-4.2,3.26-4.2s3.29,1.38,3.29,4.2-1.5,4.2-3.29,4.2-3.26-1.38-3.26-4.2Zm5.05,0c0-1.62-.58-2.72-1.79-2.72s-1.78,1.1-1.78,2.72.56,2.72,1.78,2.72,1.79-1.1,1.79-2.72Z"/><path class="cls-6" d="m583.4,311.63c0-1.57.95-2.46,2.1-2.46s2.12.89,2.12,2.46-.97,2.46-2.12,2.46-2.1-.89-2.1-2.46Zm3.13,0c0-.75-.3-1.39-1.03-1.39s-1.02.64-1.02,1.39.29,1.39,1.02,1.39,1.03-.64,1.03-1.39Zm3.73-2.34h1.2l-4.87,8.16h-1.2l4.87-8.16Zm-1.03,5.82c0-1.57.95-2.46,2.1-2.46s2.12.89,2.12,2.46-.97,2.46-2.12,2.46-2.1-.89-2.1-2.46Zm3.13,0c0-.76-.3-1.39-1.03-1.39s-1.02.64-1.02,1.39.29,1.39,1.02,1.39,1.03-.64,1.03-1.39Z"/></g><rect class="cls-1" width="600" height="371"/><path class="cls-6" d="m184.76,34.67h2.38v5.4h5.32v-5.4h2.38v13.6h-2.38v-5.84h-5.32v5.84h-2.38v-13.6Z"/><path class="cls-6" d="m207.02,46.19c.26,0,.52-.04.9-.12v2.2c-.7.1-1.06.12-1.42.12-1.22,0-1.8-.26-2.26-1.04-.36.28-1.36,1.12-3.12,1.12-2.24,0-3.92-1.56-3.92-3.32,0-2.28,1.92-3.2,4.68-3.2h1.92v-.48c0-1.08-.84-1.8-2.04-1.8s-1.88.62-1.88,1.8h-2.44c0-2.16,1.92-3.4,4.38-3.4,2.26,0,4.18,1.02,4.18,3.18v4.08c0,.6.4.86,1.02.86Zm-5.58.68c1.64,0,2.36-1.4,2.36-2.2v-1c-3.48-.16-4.12.64-4.12,1.72,0,.8.68,1.48,1.76,1.48Z"/><path class="cls-6" d="m212.36,39.77c-1.16,0-1.56.52-1.56,1.04,0,1.68,5.92.44,5.92,4.32,0,1.88-1.36,3.34-4.12,3.34-3.58,0-4.28-2.2-4.28-3.4h2.28c.16.78.68,1.6,2.18,1.6,1.1,0,1.74-.42,1.74-1.26,0-1.98-5.92-.5-5.92-4.3,0-1.56,1.04-3.04,3.96-3.04,3.16,0,4,2.08,4,3.08h-2.28c.04-.9-.72-1.38-1.92-1.38Z"/><path class="cls-6" d="m229.52,47.03c-.48.38-1.34.84-2.56.84-2.92,0-4.44-2.2-4.44-4.72,0-2.7,1.76-5.08,4.32-5.08,1.48,0,2.32.56,2.76.92v-.72h2.12v9.8c0,2.56-1.52,4-4.44,4s-4.68-1.24-4.68-3.4h2.28c.24.66.56,1.6,2.36,1.6,1.6,0,2.28-.8,2.28-2v-1.24Zm-2.32-.96c1.46,0,2.4-1,2.4-2.92,0-1.8-.9-2.88-2.4-2.88s-2.48,1.08-2.48,2.88c0,1.92,1.02,2.92,2.48,2.92Z"/><path class="cls-6" d="m240.06,48.27v-6.6c0-1.12-.76-1.72-1.74-1.72-1.62,0-2,1.72-2,2.92v5.4h-2.2v-13.6h2.12v4.4c.36-.36,1.28-1,2.88-1,1.74,0,3.22.92,3.22,3.12v7.08h-2.28Z"/><path class="cls-6" d="m249.06,38.07c3,0,4.8,2.58,4.8,5.28,0,2.52-1.6,5.12-4.8,5.12s-4.8-2.6-4.8-5.12c0-2.7,1.8-5.28,4.8-5.28Zm0,2.2c-1.58,0-2.6,1.2-2.6,3,0,1.92,1.06,3,2.6,3s2.6-1.08,2.6-3c0-1.8-1.02-3-2.6-3Z"/><path class="cls-6" d="m259.3,39.77c-1.16,0-1.56.52-1.56,1.04,0,1.68,5.92.44,5.92,4.32,0,1.88-1.36,3.34-4.12,3.34-3.58,0-4.28-2.2-4.28-3.4h2.28c.16.78.68,1.6,2.18,1.6,1.1,0,1.74-.42,1.74-1.26,0-1.98-5.92-.5-5.92-4.3,0-1.56,1.04-3.04,3.96-3.04,3.16,0,4,2.08,4,3.08h-2.28c.04-.9-.72-1.38-1.92-1.38Z"/><path class="cls-6" d="m268.06,34.67v3.6h1.4v2.2h-1.4v5.16c0,.6.4.76.8.76.36,0,.6-.08.74-.16v2c-.18.06-.66.24-1.58.24-1.52,0-2.16-.92-2.16-1.88v-6.12h-1.2v-2.2h1.2v-3.6h2.2Z"/><path class="cls-6" d="m275.54,38.07c2.8,0,4.54,2,4.68,5.72h-7.1c.18,1.74,1.22,2.48,2.56,2.48,1.54,0,2.02-.96,2.22-1.4h2.2c-.12,1.36-1.4,3.6-4.4,3.6s-4.8-2.4-4.8-5.12,1.84-5.28,4.64-5.28Zm-2.26,3.72h4.58c-.14-1.22-.96-1.92-2.24-1.92-1.06,0-1.98.58-2.34,1.92Z"/><path class="cls-6" d="m288.98,48.27v-.88c-.44.32-1.32,1.08-2.76,1.08-2.92,0-4.56-2.56-4.56-5.12,0-2.88,1.56-5.28,4.48-5.28,1.44,0,2.28.6,2.76.92v-4.32h2.2v13.6h-2.12Zm-2.52-2c1.5,0,2.52-1,2.52-3s-1.06-3-2.52-3-2.6.88-2.6,3c0,2,1.1,3,2.6,3Z"/><path class="cls-6" d="m301.34,39.77c-1.16,0-1.56.52-1.56,1.04,0,1.68,5.92.44,5.92,4.32,0,1.88-1.36,3.34-4.12,3.34-3.58,0-4.28-2.2-4.28-3.4h2.28c.16.78.68,1.6,2.18,1.6,1.1,0,1.74-.42,1.74-1.26,0-1.98-5.92-.5-5.92-4.3,0-1.56,1.04-3.04,3.96-3.04,3.16,0,4,2.08,4,3.08h-2.28c.04-.9-.72-1.38-1.92-1.38Z"/><path class="cls-6" d="m311.9,38.07c3,0,4.8,2.58,4.8,5.28,0,2.52-1.6,5.12-4.8,5.12s-4.8-2.6-4.8-5.12c0-2.7,1.8-5.28,4.8-5.28Zm0,2.2c-1.58,0-2.6,1.2-2.6,3,0,1.92,1.06,3,2.6,3s2.6-1.08,2.6-3c0-1.8-1.02-3-2.6-3Z"/><path class="cls-6" d="m324.56,48.27v-6.6c0-.94-.68-1.5-1.66-1.5-1.62,0-1.92,1.62-1.92,2.7v5.4h-2.28v-10h2.2v.8c.36-.28,1.2-1,2.8-1,1.16,0,2.16.4,2.7,1.32.44-.44,1.42-1.32,3.16-1.32s3.14.92,3.14,3.12v7.08h-2.28v-6.6c0-.94-.68-1.5-1.66-1.5-1.62,0-1.92,1.62-1.92,2.7v5.4h-2.28Z"/><path class="cls-6" d="m339.16,38.07c2.8,0,4.54,2,4.68,5.72h-7.1c.18,1.74,1.22,2.48,2.56,2.48,1.54,0,2.02-.96,2.22-1.4h2.2c-.12,1.36-1.4,3.6-4.4,3.6s-4.8-2.4-4.8-5.12,1.84-5.28,4.64-5.28Zm-2.26,3.72h4.58c-.14-1.22-.96-1.92-2.24-1.92-1.06,0-1.98.58-2.34,1.92Z"/><path class="cls-6" d="m350.08,38.07c3,0,4.8,2.58,4.8,5.28,0,2.52-1.6,5.12-4.8,5.12s-4.8-2.6-4.8-5.12c0-2.7,1.8-5.28,4.8-5.28Zm0,2.2c-1.58,0-2.6,1.2-2.6,3,0,1.92,1.06,3,2.6,3s2.6-1.08,2.6-3c0-1.8-1.02-3-2.6-3Z"/><path class="cls-6" d="m362.9,48.27v-6.6c0-.94-.72-1.5-1.74-1.5-1.62,0-2,1.42-2,2.5v5.6h-2.28v-10h2.2v.8c.82-.64,1.86-1,2.88-1,1.74,0,3.22.92,3.22,3.12v7.08h-2.28Z"/><path class="cls-6" d="m371.64,38.07c2.8,0,4.54,2,4.68,5.72h-7.1c.18,1.74,1.22,2.48,2.56,2.48,1.54,0,2.02-.96,2.22-1.4h2.2c-.12,1.36-1.4,3.6-4.4,3.6s-4.8-2.4-4.8-5.12,1.84-5.28,4.64-5.28Zm-2.26,3.72h4.58c-.14-1.22-.96-1.92-2.24-1.92-1.06,0-1.98.58-2.34,1.92Z"/><path class="cls-6" d="m386.7,38.07c2.8,0,4.54,2,4.68,5.72h-7.1c.18,1.74,1.22,2.48,2.56,2.48,1.54,0,2.02-.96,2.22-1.4h2.2c-.12,1.36-1.4,3.6-4.4,3.6s-4.8-2.4-4.8-5.12,1.84-5.28,4.64-5.28Zm-2.26,3.72h4.58c-.14-1.22-.96-1.92-2.24-1.92-1.06,0-1.98.58-2.34,1.92Z"/><path class="cls-6" d="m395.5,34.67v13.6h-2.28v-13.6h2.28Z"/><path class="cls-6" d="m401.34,39.77c-1.16,0-1.56.52-1.56,1.04,0,1.68,5.92.44,5.92,4.32,0,1.88-1.36,3.34-4.12,3.34-3.58,0-4.28-2.2-4.28-3.4h2.28c.16.78.68,1.6,2.18,1.6,1.1,0,1.74-.42,1.74-1.26,0-1.98-5.92-.5-5.92-4.3,0-1.56,1.04-3.04,3.96-3.04,3.16,0,4,2.08,4,3.08h-2.28c.04-.9-.72-1.38-1.92-1.38Z"/><path class="cls-6" d="m411.64,38.07c2.8,0,4.54,2,4.68,5.72h-7.1c.18,1.74,1.22,2.48,2.56,2.48,1.54,0,2.02-.96,2.22-1.4h2.2c-.12,1.36-1.4,3.6-4.4,3.6s-4.8-2.4-4.8-5.12,1.84-5.28,4.64-5.28Zm-2.26,3.72h4.58c-.14-1.22-.96-1.92-2.24-1.92-1.06,0-1.98.58-2.34,1.92Z"/><path class="cls-6" d="m523.96,129.56c-1.89,0-3.09-1.62-3.09-4.08,0-2.7,1.35-4.32,3.38-4.32,1.66,0,2.49,1.15,2.49,2.29h-1.44c-.07-.38-.31-.98-1.3-.98-1.04,0-1.71.72-1.79,2.36.47-.55,1.08-.95,2.1-.95,1.52,0,2.5,1.2,2.5,2.79s-1.1,2.88-2.85,2.88Zm-1.32-2.72c0,.84.38,1.55,1.34,1.55s1.34-.71,1.34-1.55-.38-1.55-1.34-1.55-1.34.71-1.34,1.55Z"/><path class="cls-6" d="m528.68,128.24l2.71-2.41c.91-.8,1.48-1.31,1.48-2.1,0-.65-.44-1.25-1.37-1.25s-1.42.64-1.43,1.81h-1.44c-.12-1.98,1.19-3.13,2.97-3.13s2.72,1.14,2.72,2.4c0,1.34-.75,2.24-1.75,3.05l-1.73,1.39h3.51v1.44h-5.68v-1.2Z"/><path class="cls-6" d="m537.63,127.76v1.68h-1.68v-1.68h1.68Z"/><path class="cls-6" d="m545.22,121.29v.96c-1.56,1.2-2.93,2.75-2.93,7.2h-1.9c0-3.03,1.42-5.49,2.66-6.72h-3.96v-1.44h6.12Z"/><path class="cls-6" d="m546.21,123.62c0-1.57.95-2.46,2.1-2.46s2.12.89,2.12,2.46-.97,2.46-2.12,2.46-2.1-.89-2.1-2.46Zm3.13,0c0-.76-.3-1.39-1.03-1.39s-1.02.64-1.02,1.39.29,1.39,1.02,1.39,1.03-.64,1.03-1.39Zm3.73-2.34h1.2l-4.87,8.16h-1.2l4.87-8.16Zm-1.03,5.82c0-1.57.95-2.46,2.1-2.46s2.12.89,2.12,2.46-.97,2.46-2.12,2.46-2.1-.89-2.1-2.46Zm3.13,0c0-.76-.3-1.39-1.03-1.39s-1.02.64-1.02,1.39.29,1.39,1.02,1.39,1.03-.64,1.03-1.39Z"/><path class="cls-6" d="m328.73,229.24c.73,0,1.24-.49,1.24-1.12,0-.56-.32-1.03-1.27-1.03-1.04,0-1.32.65-1.4,1.57h-1.44c-.12-1.38.95-2.89,2.97-2.89,1.79,0,2.67,1.18,2.67,2.17,0,.76-.3,1.46-1.03,1.81.85.41,1.2,1,1.2,1.77,0,1.38-1.06,2.64-2.96,2.64-2.03,0-3.09-1.51-2.97-2.89h1.44c-.04.84.47,1.57,1.52,1.57.95,0,1.39-.55,1.39-1.32,0-.67-.43-1.21-1.35-1.21h-.67v-1.08h.67Z"/><path class="cls-6" d="m339.71,225.89v.96c-1.56,1.2-2.93,2.75-2.93,7.2h-1.9c0-3.03,1.42-5.49,2.66-6.72h-3.96v-1.44h6.12Z"/><path class="cls-6" d="m342.63,232.37v1.68h-1.68v-1.68h1.68Z"/><path class="cls-6" d="m346.99,229.24c.73,0,1.24-.49,1.24-1.12,0-.56-.32-1.03-1.27-1.03-1.04,0-1.32.65-1.4,1.57h-1.44c-.12-1.38.95-2.89,2.97-2.89,1.79,0,2.67,1.18,2.67,2.17,0,.76-.3,1.46-1.03,1.81.85.41,1.2,1,1.2,1.77,0,1.38-1.06,2.64-2.96,2.64-2.03,0-3.09-1.51-2.97-2.89h1.44c-.04.84.47,1.57,1.52,1.57.95,0,1.39-.55,1.39-1.32,0-.67-.43-1.21-1.35-1.21h-.67v-1.08h.67Z"/><path class="cls-6" d="m351.21,228.23c0-1.57.95-2.46,2.1-2.46s2.12.89,2.12,2.46-.97,2.46-2.12,2.46-2.1-.89-2.1-2.46Zm3.13,0c0-.76-.3-1.39-1.03-1.39s-1.02.64-1.02,1.39.29,1.39,1.02,1.39,1.03-.63,1.03-1.39Zm3.73-2.34h1.2l-4.87,8.16h-1.2l4.87-8.16Zm-1.03,5.82c0-1.57.95-2.46,2.1-2.46s2.12.89,2.12,2.46-.97,2.46-2.12,2.46-2.1-.89-2.1-2.46Zm3.13,0c0-.75-.3-1.39-1.03-1.39s-1.02.64-1.02,1.39.29,1.39,1.02,1.39,1.03-.64,1.03-1.39Z"/></svg>