<?xml version="1.0" encoding="UTF-8"?><svg id="Layer_2" xmlns="http://www.w3.org/2000/svg" viewBox="0 0 361.37 436.8"><defs><style>.cls-1{fill:#fff;}.cls-1,.cls-2{stroke-width:0px;}.cls-2{fill:#020202;}</style></defs><g id="Layer_1-2"><path class="cls-1" d="m16.92,339.24c-.98-.89-1.89-1.72-2.8-2.56-.12-.11-.32-.31-.29-.36.59-.91-.37-1.23-.67-1.81-.7-1.34-1.35-2.7-2.07-4.02-1.12-2.05-2.31-4.06-3.43-6.11-.38-.69-.67-1.44-.95-2.18-1.02-2.69-2.06-5.37-3.01-8.08-.9-2.58-1.7-5.21-2.56-7.81-.26-.8-.73-1.55-.87-2.37-.2-1.21-.13-2.46-.25-3.68-.16-1.62.5-2.96,1.31-4.27.14-.22.13-.58.11-.86-.11-1.53-.32-3.05.35-4.53.24-.53.33-1.12.52-1.79-.5-.04-.83-.06-.94-.07,0-2.46.03-4.84,0-7.22-.05-2.79-.38-5.6-.16-8.36.15-1.91.97-3.78,1.62-5.63.31-.88,1.13-1.62,1.32-2.51.13-.63-.39-1.41-.64-2.11-.1-.28-.39-.54-.41-.81-.08-1.67.15-3.3.94-4.8-.25-.19-.48-.36-.75-.56.14-.2.25-.36.37-.52,1.55-2.02,3.13-4.03,4.63-6.09.32-.44.34-1.1.49-1.67.05-.19,0-.48.12-.58,1.61-1.42,1.37-3.87,3.32-5.27,1.85-1.32,3.16-3.4,4.72-5.14,1.98-2.22,3.95-4.45,5.95-6.65,2.26-2.48,4.48-5,6.88-7.34.96-.93,2.31-1.49,3.53-2.12.74-.38,1.57-.6,2.38-.85.16-.05.38.09.51.12.25-.28.45-.65.77-.82,1.33-.73,2.69-1.43,4.07-2.06.26-.12.69.15,1.15.27.02-.2.04-.48.04-.52.5-.38.84-.74,1.25-.92.67-.3,1.37-.53,2.08-.69,1.66-.37,3.33-.67,4.99-1.01.23-.05.46-.15.69-.17,1.91-.19,3.62-.82,5.33-1.76,1.28-.71,2.89-.82,4.36-1.15,1.09-.25,2.21-.38,3.3-.64.92-.21,1.77-.36,2.17.29.65-.34,1.15-.71,1.72-.88,1.71-.51,3.44-.99,5.18-1.4,1.28-.3,2.58-.51,3.88-.68.44-.06.91.12,1.42.2.01-.13.04-.35.06-.53,1.2.23,2.37.46,3.63.7.02-.2.04-.4.05-.51.8.14,1.58.28,2.5.43.04.12.12.4.13.4,2.53-.14,4.9-.27,7.32-.41.18.31.38.67.57,1,.87-.25,1.44-1.51,2.47-.49.04.04.16.01.23,0,1.73-.26,2.3.04,2.98,1.51.12.26.35.48.56.7.01.02.34-.18.33-.24-.07-.33-.17-.66-.31-.97-.13-.28-.35-.52-.52-.77,2.9-.77,5.59-.3,8.25.31.2.05.31.52.47.8.86-.05,1.96-.85,2.28.37-.17.56-.27.87-.36,1.18.11.04.23.08.34.12.72-.57,1.43-1.14,2.27-1.81-.4-.15-.64-.25-.89-.34.02-.09.05-.18.07-.28.57.16,1.14.45,1.71.44.57,0,1.12-.42,1.69-.46.67-.05,1.36.17,2.04.17.61,0,1.38.57,1.77-.27.75.35,1.49.69,2.48,1.15-.23-.51-.35-.76-.47-1.03.12-.04.25-.11.26-.09.87,1.19,2.28,1.18,3.48,1.37,2.31.36,4.66.42,6.99.63,1.48.13,2.98.24,4.44.5,1.79.31,3.57.73,5.34,1.17.66.16,1.28.49,1.94.76-.6.75-1.05,1.32-1.43,1.8.69.47,1.35.82,1.87,1.31.84.79,1.37.11,2-.28.12.16.24.33.55.77-.05-.55-.07-.78-.09-1.05.76-.13,1.53-.25,2.38-.39-.09-.28-.17-.51-.26-.76,2.48.17,4.9.34,7.31.5l.04.25c-.27.14-.54.29-1.09.58.72.09,1.21.25,1.65.19,1.23-.18,2.44-.59,3.66-.61.52,0,1.09.69,1.56,1.15.64.62,1.01.57,1.23-.14.51.17,1,.38,1.5.5,1.89.45,3.81.79,5.66,1.35.62.19,1.07.92,1.78,1.58-.07-.42-.09-.6-.11-.73,2.73-.69,5.25-.14,7.44,1.7-.05.17-.18.66-.32,1.15.1.04.2.08.29.12.31-.42.61-.84.98-1.34.37.4.64.75.97,1.03.22.19.56.46.78.41,1.5-.38,2.69.74,3.98.82,2.43.15,4.39,1.91,6.95,1.66.77-.07,2.13-.52,2.85.67.07.11.46-.02.68.05.59.17,1.16.39,1.74.58.48.16.96.31,1.44.43.22.05.49-.05.67.04,1.72.83,3.37,1.91,5.44,1.32.08-.02.27.32.41.5,1.41-.97,3.4-.83,4.07.29.08-.16.17-.47.23-.46.76.07,1.54.11,2.27.31,1.99.53,3.96,1.13,5.93,1.72.46.14.93.31,1.31.58.95.68,1.93,0,2.87.15.67.1,1.29.56,1.97.68.71.13,1.41.93,2.22.13.12-.12.54,0,.8.08,1.47.44,3.03.53,4.38,1.52.5.37,1.57.08,2.11.85.16.22.28.47.47.78,1.43-1.11,3.07-.42,4.64-.33,3.43.2,6.66,1.3,9.94,2.24,1.01.29,2.13.15,3.2.24.97.07,1.94.16,2.91.29.11.01.16.39.24.58,1.31-.24,2.54-.46,3.76-.68.08-.01.2-.07.23-.04.99.98,2.23.34,3.35.52,2.01.32,4.01.67,6.02.96.9.13,1.71.31,2.73.03,1.35-.36,2.91.11,4.38.18.75.03,1.5-.06,2.25-.05,2.2.02,4.39.09,6.59.1,1.01,0,2.02-.11,3.02-.1,2.44.03,4.89.03,7.32.18,1.74.11,3.42.81,5.21.35.41-.1.92.26,1.38.25,3.08-.05,6.17-.15,9.25-.2,1.94-.04,3.54,1.16,4.05,3.07.23.85.87,1.12,1.54,1.06,1.3-.11,2.59-.4,3.88-.61.26,1.58-.25,2.29-1.75,2.68-.57.15-1.06.62-1.59.95l.36.19c-.18.56-.31,1.14-.54,1.69-.31.74-.64,1.49-1.04,2.19-.75,1.3-1.01,2.8-2.55,3.77-1.04.65-1.42,2.33-2.16,3.51-1.83,2.96-3.57,5.99-5.6,8.82-1.35,1.88-3.18,3.41-4.71,5.17-.54.62-.72,1.54-1.26,2.15-1.09,1.26-2.33,2.38-3.45,3.61-.76.83-1.8,1.47-1.81,2.85,0,.41-.59.82-.91,1.22.09.08.17.17.26.25.29-.17.58-.33.73-.42,1.55,1.16,3.06,2.28,4.61,3.44.12-.4.21-.73.33-1.12-.2.02-.41.05-.74.09.07-.37.14-.7.19-.97,2.75,1.28,5.36,2.72,8.13,3.67,1.35.46,2.55,1.04,3.75,1.72.25.14.78-.06,1.09-.25.26-.17.39-.55.57-.84.11.04.22.09.32.13-.13.38-.18.81-.41,1.11-.8,1.06-.78,1.15.71,1.59-.08-.18-.12-.33-.19-.46-.1-.18-.21-.35-.31-.52.12-.11.39-.35.72-.65.04.45.07.83.12,1.38,1.2-1.22,2.25-.32,3.2.15,1.01.49,2.01.87,3.07,1.22.65.22,1.03.38,1.58.03.72.75,1.37,1.54,2.14,2.18.24.19.82-.04,1.34-.08,1.14.27,2.43.58,3.6.86.69.37,1.33.96,2.01,1.02,1.39.12,2.81-.08,4.21-.07.33,0,.74.25.99.51.79.81,1.52,1.68,2.37,2.63-.02.03-.21.33-.42.67.91.71,1.77,1.43,2.7,2.06,1.26.86.05,2.09.63,3.03-.12.07-.24.14-.36.21-.43-.59-.86-1.17-1.3-1.77-.16.26-.41.67-.64,1.04.43.28.81.53,1.03.68-.38.37-.68.65-.97.95-.51.54-.99,1.12-1.53,1.62-.73.67-1.47,1.32-2.28,1.89-1.26.9-2.56,1.76-3.88,2.57-1.59.97-3.23,1.88-4.86,2.79-1.06.59-2.2,1.05-3.19,1.74-.62.43-1.03,1.18-1.65,1.94-.04-.01-.36-.19-.7-.25-.26-.04-.62-.03-.82.12-1.32.97-2.01,2.72-3.86,3.04-.22.04-.38.41-.59.59-1.24,1.02-2.42,2.1-3.75,3-.67.45-1.57.57-2.37.79-2.83.78-5.33,2.29-7.95,3.54-.16.07-.24.3-.36.45-.49.6-.98,1.2-1.59,1.94.16.94,1.55,2.2,2.69,2.56,1.78.55,3.48,1.35,5.26,1.92,1.06.34,2.12.72,3.33.58.74-.08,1.54.42,2.23.64.14.75.28,1.47.42,2.18.1.03.2.06.3.09.22-.36.45-.73.67-1.09.15-.25.29-.66.48-.69.27-.04.59.21.97.36.34-.05.93-.31,1.36-.16.8.29,1.29.15,1.73-.93.16,1.98,1.55,1.21,2.4,1.54.44.17,1.03.02,1.42.25.79.46,1.51.81,2.5.58.48-.11,1.07.28,1.75.48-.06.38-.16.99-.27,1.65-.49.1-1.27-1.11-1.5.37.23.07.48.11.71.21.31.13.61.3.92.45.19-.49.48-.98.55-1.49.07-.5-.07-1.03-.11-1.55l.47-.06c.09.57.18,1.14.25,1.6.93-.21,1.94-.44,3.11-.7-.17.78-.31,1.4-.44,2.03.09.08.17.17.26.25.54-2.39,2.26-1.73,3.74-1.74,2.16-.03,4.32-.28,6.46-.12,1.27.09,2.56.67,3.73,1.25,1.46.72,1.49,2.44,2.09,3.72.56,1.19.63,2.62.94,3.94.3,1.25.32,1.24-.33,2.3-1.14,0-2.32-.46-3.48.2,1.06,1.48.73,3.07-.76,4.04-1.01.66-2.19,1.11-3.09,1.88-1.42,1.23-3.48,1.72-4.29,3.66-.16.39-.35.77-.42.91-.65.43-1.11.77-1.6,1.05-.64.36-1.05,1.33-2.06.79-.11-.06-.42.07-.52.2-1.34,1.66-3.29,2.34-5.1,3.25-.88.44-1.59,1.22-2.38,1.84-1.51,1.19-2.95,2.41-4.9,3.01-1.46.45-2.69,1.63-4.14,2.18-1.26.49-2.57.8-3.45,1.91-.24.3-.34.8-.32,1.2.02.74.17,1.47.29,2.38.15.06.51.21,1.1.44-.24-.66-.41-1.11-.62-1.68.35.03.7-.05.85.09,1.76,1.61,4.09,1.5,6.18,2.13,1.25.37,2.5.74,3.75,1.09,2.89.81,5.78,1.61,8.67,2.39,1.01.27,2.28.19,3.02.79,1.51,1.22,3.49,1.22,5,2.35,1.19.89,2.58,1.52,3.91,2.21.48.25,1.07.28,1.56.51,1.8.81,3.54,1.81,5.4,2.44,1.45.49,3.14.31,4.56.84,1.57.59,2.97,1.63,4.43,2.52.62.37,1.15.9,1.78,1.24.87.47,1.7,1.95,1.42,2.88-.09.29-.39.52-.63.81.12.13.28.29.49.51-.44.17-.85.34-1.41.56-.39-.79-.79-1.62-1.31-2.68-.25.46-.56.86-.49.94,1.06,1.22.27,2.85,1.03,4.19.49.87-.71,3.49-1.5,4,.23.11.45.22,1.03.49-.68.25-1.18.63-1.44.5-1.48-.7-2.72-.05-4.15.27-1.3.28-2.01,1.16-3.05,1.63-1.29.58-2.65,1.01-3.98,1.5-1.06.4-2.12.82-3.19,1.19-.39.13-.81.15-1.13.33-.82.4-1.64.8-2.45,1.21-.41.2-.8.44-1.22.61-1.42.55-2.85,1.08-4.27,1.61-.07.02-.19-.04-.23,0-1.45,1.42-3.69,1.32-5.14,2.58-1.15,1-2.34,1.22-3.72,1.23-.18,0-.36.26-.55.38-.34.24-.66.59-1.04.68-1.87.42-3.78.69-5.63,1.18-2.31.61-4.56,1.4-6.85,2.08-.61.18-1.28.18-1.89.37-1.25.4-2.45.96-3.71,1.31-1.43.4-2.91.63-4.36.96-1.95.44-3.94.8-5.84,1.41-1.12.36-2.3.4-3.41.6-.99.18-1.65.83-2.56.98-.5.08-1.07.45-1.46.3-1.64-.64-3.2-.21-4.8.11-.43.09-.92-.09-1.33-.15-1.87.84-3.8,1.48-5.92,1.15-1.11-.17-2.2-.61-3.3-.62-1.29-.01-2.58.31-3.86.49-1.2.16-2.4.45-3.6.45-1.59,0-3.19-.26-4.79-.32-1.14-.04-2.28.06-3.42.12-1.43.08-2.86.15-4.28.3-1.43.15-2.9.25-4.26.67-1.19.36-2.26.81-3.59.71-2.17-.16-4.33.5-6.55-.09-.98-.26-2.23.51-3.22.26-2.21-.56-4.3.33-6.46.17-.51-.04-1.11,0-1.53.25-1.25.74-2.39.14-3.6-.07-2.16-.36-4.33-.62-6.51-.83-.7-.07-1.45.31-2.15.23-.72-.09-1.41-.48-2.11-.75,0-.14,0-.27,0-.41-.37.3-.74.61-1.16.95-.13-.2-.27-.43-.24-.38-1.25-.18-2.29-.27-3.31-.48-1.31-.27-2.59-.69-3.91-.9-.53-.08-1.12.25-1.75.41v-1.11c-.07-.02-.13-.03-.2-.05-.08.34-.16.68-.32,1.37-1.5-.27-3.03-.55-4.55-.83-.12-.02-.29-.06-.32-.14-1.03-2.36-2.94-.79-4.45-1.05-1.18-.2-2.44.73-3.58-.41-.37-.38-1.24-.26-1.89-.36-.12-.02-.27.03-.35-.03-2.16-1.57-4.72-.32-7-1-.25-.07-.54.03-.82.05-.84.06-1.7.48-2.48-.26-.13-.13-.48-.13-.69-.07-1.82.55-3.45-.15-5.15-.65-.99-.29-2.12-.06-3.16-.21-.91-.13-1.8-.45-2.7-.67-.41-.1-.83-.2-1.25-.23-.47-.03-.98.15-1.42.03-2.14-.55-4.25-1.21-6.4-1.74-.93-.23-1.92-.16-2.87-.33-.48-.09-.91-.42-1.5-.7-.54.48-1.26.19-2.06.17-2.59-.06-4.36-2.35-6.94-2.28-.41.01-.81-.54-1.27-.66-.96-.27-1.96-.59-2.94-.58-.87.02-1.28-.49-1.88-.86-.65-.39-1.44-.55-2.14-.86-.8-.34-1.58-.73-2.38-1.1-.92-.42-1.81-.89-2.75-1.25-1.56-.6-3.18-1.05-4.71-1.71-.72-.31-1.31-.95-1.94-1.47-.58-.48-1.11-1.03-1.7-1.51-.17-.14-.48-.12-.72-.17.04.28.05.57.14.83.05.13.27.2.46.33-.19.15-.34.3-.36.28-1.66-1.24-3.76-1.38-5.55-2.26-1.81-.89-3.51-1.99-5.27-2.99-.42-.24-.87-.42-1.3-.63-1-.5-2-1.02-3.01-1.5-1.34-.64-2.68-1.26-4.03-1.89-.11-.05-.28-.04-.34-.12-1.06-1.56-2.97-1.72-4.42-2.62-1.43-.89-3.12-1.36-4.49-2.32-1.45-1.02-3.69-1.11-4.2-3.38-.07-.31-1.14-.76-1.32-.62-1.35,1.11-1.97-.11-2.84-.71-.55-.38-1.18-.65-1.8-.92-.79-.36-1.64-.61-2.41-1.02-2.39-1.28-4.77-2.57-7.12-3.93-2.4-1.39-4.77-2.84-7.1-4.34-.47-.3-.7-.94-1.12-1.36-.25-.26-.61-.42-.95-.56-.89-.38-2.02-.26-2.45-1.54-.14-.41-1.29-.93-1.52-.76-.68.48-.83-.12-1.19-.3-1.2-.62-2.44-1.17-3.6-1.85-.82-.48-1.77-.99-2.24-1.74-.76-1.22-2.11-1.51-3.02-2.41-.57-.57-1.09-1.2-1.64-1.79-.57-.62-1.14-1.24-1.72-1.85-2.38-2.45-4.71-4.94-7.16-7.32-1.65-1.59-3.54-2.93-5.19-4.53-1.9-1.84-4.02-3.54-4.9-6.2-.06-.19-.14-.4-.27-.53-1.44-1.48-2.89-2.94-4.34-4.41-.65-.66-1.38-1.25-1.93-1.98-.96-1.27-1.8-2.63-2.69-3.95-.24-.35-.4-.77-.68-1.08-.65-.74-1.14-1.49-.61-2.38Zm89.16,62.95c-.39.18-.77.37-1.19.56.02.21.06.52.06.5.61.33,1.07.51,1.43.81.45.38.85.47.97-.17.15-.84.11-1.71.17-2.87-.42.64-.66,1.03-.94,1.38-.03.04-.33-.13-.51-.21.01-1.18-.17-2.3-1.01-3.27-.25.55-.51,1.19-.32,1.62.28.63.89,1.11,1.36,1.65Zm237.13.88c-.54-1.28-1.12-1.81-2.25-1.59-.38.07-.84-.08-1.21-.24-.97-.42-1.9-.92-2.86-1.36-.17-.08-.4-.03-.6-.07-.56-.09-1.15-.1-1.67-.3-2.17-.85-4.32-1.79-6.49-2.64-.49-.19-1.08-.11-1.58-.28-.71-.23-1.36-.65-2.08-.86-1.5-.44-3.05-.72-4.53-1.2-1.27-.41-2.44-1.27-3.73-1.46-1.15-.17-2.05-.59-2.94-1.22-.22-.16-.48-.3-.74-.37-2.42-.73-4.9-1.33-7.26-2.22-1.13-.43-2.27-1.14-2.73-2.52-.26-.77-.75-1.47-1.14-2.19-.31-.57-.8-1.11-.9-1.72-.28-1.71-.23-3.45-.52-5.18-.24-1.46-.34-3.52,1.84-4.25.2-.07.32-.35.48-.53.76-.86,1.44-1.81,2.31-2.55,1.12-.95,2.36-1.69,3.96-1.76.6-.03,1.17-.79,1.94-1.36.59.33,1.09-.19,1.71-.89.78-.89,1.71-1.69,2.71-2.34,1.53-1,3.13-1.94,4.79-2.71.72-.33,1.53-.37,1.93-1.21.07-.14.42-.16.64-.21.39-.09.79-.12,1.16-.25.8-.27,1.31-.99,2.02-1.43,1.42-.88,2.37-2.51,4.24-2.76.03,0,.04-.07.07-.1,1.13-1.3,2.25-2.6,3.44-3.97-.3-.17-.41-.28-.55-.32-1.87-.52-3.74-1.07-5.62-1.54-1.25-.31-2.54-.75-3.8-.71-1.41.04-2.61-.51-3.89-.81-2.75-.65-5.49-1.36-8.26-1.93-1.97-.41-4.01-.53-5.97-.97-1.4-.32-2.73-.95-4.1-1.45-1.12-.41-2.24-1.15-3.36-1.16-1.55,0-2.49-.68-3.39-1.73-.76-.88-.99-3.36-.33-4.38-.76-.05-.79-.07-2.18,1.24-.76.71-1.39.8-2.16,0-1.91-2.02-3.65-4.13-4.28-6.69.65-.89,1.14-1.59,1.67-2.28.18-.23.42-.55.67-.58,1.3-.16,2.07-1.11,2.87-1.93.78-.81.97-2.34,2.65-1.86.06.02.16-.18.26-.22.76-.32,1.58-.54,2.26-.97.65-.42,1.27-.98,1.7-1.62.52-.79.41-1.97,1.94-1.95.88.01,1.8-.59,2.63-1.04,2.12-1.14,4.12-2.54,6.33-3.44.93-.38,1.78-.59,2.47-1.41.5-.6,1.3-.95,1.93-1.46.56-.45,1.03-1,1.59-1.44,1.07-.85,1.87-2.02,3.54-2.05.93-.02,1.85-.84,2.78-1.3-.05-.11-.1-.22-.14-.32.39,0,.93.16,1.14-.03.77-.72,1.57-1.21,2.66-1.16.2,0,.45-.21.61-.39.31-.36.56-.79.87-1.15.83-.98.66-1.52-.58-2-3.19-1.22-6.34-2.52-9.55-3.69-2.37-.86-4.8-1.57-7.21-2.31-3.35-1.03-6.84-1.63-9.96-3.4-1.51-.85-3.15-1.56-4.82-2.01-1.17-.32-2.36-.48-3.34-1.24-.39-.3-.59-.94-1-1.08-2.19-.76-4.14-1.74-4.86-4.19-.02-.07-.11-.12-.15-.19-.76-1.34-1.54-2.67-2.26-4.03-.08-.15.17-.54.35-.76.16-.19.44-.27.63-.44,1.94-1.81,3.87-3.62,5.79-5.45.96-.92,2.15-1.74,2.75-2.87,1.18-2.25,3.13-3.74,4.82-5.46,2.16-2.2,4.31-4.36,5.91-7.05,1.04-1.75,2.33-3.41,3.81-4.8.91-.86,1.56-1.71,1.86-2.85.29-1.11-.13-1.37-1.27-1.2-2.65.4-5.32.89-7.98.94-2.64.06-5.28-.39-7.93-.58-1-.07-2-.05-3-.03-2.75.06-5.51.21-8.26.18-2.66-.03-5.32-.24-7.98-.39-3.08-.18-6.22-.11-9.23-.65-2.8-.51-5.58-.48-8.38-.56-1.6-.05-3.2.02-4.79-.15-1.8-.19-3.59-.52-5.35-.93-.66-.15-1.23-.7-1.76-1.02-.57,0-1.24.13-1.85-.02-1.61-.4-3.13-.98-4.86-1.15-3.94-.38-7.78-1.49-11.6-2.59-2.23-.64-4.59-.78-6.87-1.25-3.4-.7-6.79-1.47-10.17-2.27-2.07-.49-4.1-1.3-6.19-1.54-1.6-.18-3.08-.27-4.33-1.41-.17-.16-.62-.22-.81-.11-.64.38-1.15.25-1.84.03-1.74-.56-3.57-.81-5.32-1.33-1.43-.43-2.89-1.66-4.17-1.46-1.85.3-2.94-1.69-4.67-1-.02,0-.07-.04-.11-.05-1.99-.76-3.93-1.83-6-2.22-2.95-.55-5.62-2.25-8.73-2.06-.11,0-.23-.08-.35-.1-2.24-.49-4.48-1.02-6.73-1.45-2.34-.44-4.68-.99-7.04-1.12-2.2-.11-4.12-1.78-6.42-1.01-.06.02-.15-.05-.23-.07-2.12-.52-4.25-1.02-6.37-1.55-.75-.19-1.47-.64-2.22-.69-1.8-.12-3.62-.04-5.13-1.28-1.07.67-2.67.41-3.8-.63-.46.63-3.09.64-3.7.04.51-.3,1.03-.61,1.56-.92q-1.77-2.48-2.13-2.32c.25.58.51,1.16.7,1.6-.3.55-.54.99-.82,1.51-.33,0-.81.05-1.26,0-2.33-.31-4.65-.68-6.98-.96-1.3-.16-2.62-.18-3.94-.27-.92-.07-1.83-.21-2.74-.21-1.08,0-2.18.13-2.67-1.43-.2.52-.31.83-.47,1.25-1.21-.09-2.46-.23-3.7-.25-1.56-.02-3.12.15-4.68.07-1.54-.08-3.08-.37-4.62-.58-.42-.06-.84-.25-1.26-.25-2.45-.04-4.89-.1-7.34-.02-1.6.05-3.19.31-4.77.51-.78.1-1.55.29-2.33.44-1.74.32-3.49.61-5.22.98-1.25.27-2.48.64-3.72.97-2.2.59-4.39,1.19-6.59,1.75-.85.22-1.81.75-2.51-.64.04,1.36-.84,1.51-1.75,1.64-1.03.15-2.1.21-3.08.52-2.22.7-4.41,1.5-6.58,2.33-2.27.87-4.54,1.75-6.76,2.75-1.63.74-3.43,1.4-4.71,2.58-2.06,1.9-4.16,3.79-5.76,6.18-1.56,2.33-3.66,4.22-5.68,6.19-2.25,2.2-4.63,4.42-5.79,7.52-.24.63-.75,1.15-1,1.78-.15.39-.2,1.07.03,1.29.65.64.44,1.21.3,1.97-.22,1.16-.81,2.05-1.45,2.97-.31.45-.7,1.08-.62,1.54.33,1.88-.9,3.2-1.61,4.67-.39.81-.61,1.43-.36,2.31.21.77.22,1.65-.81,1.86.14.96.27,1.86.41,2.79-.33.07-.63.13-1.08.22,1.42.68,1.38.96.22,2.05-.09,1.24-.16,2.12-.22,3,0,.14-.01.38.06.43,1.24.71.58,1.22-.51,2.08.35.11.7.23,1.11.36-.42.4-.73.7-1.09,1.04.28.3.51.56.76.84-.45.7-.73,1.32-.66,2.32.14,2.01.73,4.21-.82,6.05-.15.18-.02.57-.14.81-.54,1.06.59,1.81.38,3.01-.48,2.81,1.08,5.36,1.91,7.98.53,1.67,1.47,3.25,1.7,4.95.2,1.5.74,2.78,1.4,4.05.59,1.13,1.54,2.09,2.01,3.26.81,2.03,1.22,4.21,2.51,6.07,1.1,1.57,2.03,3.26,2.99,4.92.37.64.97,1.34.29,1.77,1.03,1.31,2.24,2.44,2.95,3.84.8,1.57,1.72,2.96,2.97,4.18.85.82,1.72,1.66,2.4,2.61.55.78.74,1.82,1.27,2.63.39.6,1.05,1.02,1.61,1.5.78.66,2.04.72,2.31,2.04.08.36.65.63,1.01.93.64.53,1.67.94,1.86,1.6.6,2.05,2.05,3.32,3.54,4.63.85.74,1.67,1.52,2.48,2.3,1.83,1.78,3.63,3.59,5.46,5.37.51.5,1.09.92,1.61,1.41,1.48,1.41,2.87,2.92,4.42,4.25,2.4,2.05,4.91,3.99,7.38,5.96.18.14.39.26.6.34.96.34,2.03.51,2.89,1.02,2.87,1.71,5.67,3.56,8.51,5.33.9.56,1.86,1.01,2.79,1.51.82.44,1.64.89,2.47,1.3.79.39,1.7.6,2.38,1.12,2.7,2.08,5.63,3.71,8.81,4.95,1.58.62,3.01,1.6,4.52,2.39,1.13.59,2.27,1.15,3.41,1.72.75.37,1.54.66,2.24,1.1,3.2,1.97,6.16,4.37,9.92,5.27.07.02.13.1.2.13,2.61,1.29,5.23,2.58,7.83,3.88,1.45.73,2.92,1.44,4.33,2.24.37.21.53.76.88,1.03.54.42,1.16.75,1.78,1.14.04-.11.15-.42.23-.67.87.33,1.67.65,2.47.93.66.23,1.41.3,2.01.64,2.42,1.37,4.92,2.46,7.67,3,1.5.29,3.01.7,4.44,1.24,1.72.65,3.36,1.52,5.05,2.27,1.12.5,2.22,1.15,3.41,1.39,1.53.32,3.15.24,3.83,2.09.1.27.59.4,1.12.73-.23-.58-.35-.88-.51-1.27,1.03-.19,1.97-.55,2.88-.5,2.28.14,4.55.39,6.81.75,2.52.4,5.01,1.05,7.53,1.4,1.27.17,1.99.52,1.84,2.03.36-1.24,1.12-1.51,2.2-1.36.64.09,1.34.05,1.97-.09,2.25-.5,4.46-.28,6.64.3,1.47.39,2.86,1.1,4.34,1.4,2.67.54,5.37.91,8.07,1.27,1.35.18,2.72.24,4.08.27,1.36.03,2.72-.18,4,.59.67.4,1.49.68,2.26.77,2.91.33,5.83.56,8.75.81,1.1.09,2.21.14,3.31.18.27,0,.55-.11.83-.13,1.39-.1,2.78-.22,4.18-.27,1.23-.04,2.47.03,3.7,0,1.15-.03,2.3-.19,3.45-.22,2.21-.04,4.43-.03,6.64-.04.24,0,.48,0,.72,0,1.93-.02,3.85.32,5.78-.23,1.4-.4,2.87-.62,4.33-.75,1.83-.16,3.67-.18,5.5-.22,1.36-.03,2.72.01,4.07-.02,2.12-.05,4.25-.18,6.37-.2,3.07-.03,6.15.02,9.22,0,.95,0,1.89-.11,2.84-.2,1.21-.12,2.44-.18,3.63-.44,1.9-.41,3.77-.88,5.73-.41.29.07.64,0,.93-.08,2.45-.76,4.89-1.53,7.33-2.33,1.1-.36,2.15-.94,3.27-1.17,1.56-.32,3.18-.29,4.74-.6,2.26-.44,4.56-.52,6.67-1.94,1.01-.68,2.86-1.15,4.45-.25.2-.21.39-.59.68-.7.75-.28,1.57-.38,2.32-.66,2.78-1.05,5.55-2.13,8.32-3.21.55-.22,1.07-.53,1.63-.71,1.01-.31,2.27-.28,3.03-.89,1.64-1.3,3.98-.83,5.44-2.41.11-.12.39-.08.58-.14,1.61-.52,3.22-1.05,4.95-1.62Zm-214.76-189.8c.11,1.44,1,1.4,1.83,1.47.44.04.93.05,1.31.25.89.46,1.73,1.03,2.29,1.37v-2.64q1.05,1.12,1.76.48c-.99-1.18-3.1-1.38-4.62-.55-1.4-.36-2.66-.69-3.98-1.02.13.34.33.89.57,1.53.28-.3.48-.52.83-.89Zm183.86,156.58c-.07-.15-.13-.3-.2-.45-1.1.22-2.22.34-3.26.71-.27.09-.43,1.01-.32,1.47.12.49.59.91.96,1.32.15.17.43.21.65.32.12-.27.37-.55.35-.81-.12-1.07-.02-1.17,1.14-.8.23-.58.46-1.17.69-1.77ZM125.25,212.46c-.49-1.16-1.59-.13-2.37-.45-.29-.12-.83.39-1.39.68.94.6,1.6,1.03,2.21,1.42.52-.55.96-1.03,1.55-1.65Zm-32.26,184.54c.84.24,1.43.5,2.03.54.44.03.91-.22,1.36-.34-.14-.33-.19-.76-.43-.96-.35-.29-.83-.42-1.1-.55-.27.38-.58.83-.88,1.26-.5-.41-.85-.69-1.37-1.11.21.64.34,1.01.39,1.16Zm56.79-178.63c.67-.41,1.2-.75,1.99-1.23-1.13-.32-2.25-.64-3.36-.96-.11.17-.21.33-.32.5.58.58,1.16,1.16,1.69,1.7Zm33.45,6.87c.28.42.5.75.72,1.09.11.18.34.44.29.55-.46.98.31.87.71,1.04.28-.83.53-1.57.78-2.34-.84-.11-1.53-.21-2.5-.34Zm162,175.93c.15-.34.44-.68.41-.97-.05-.36-.37-.69-.7-1.26-.14,1.49-.82,1.69-2.16.88.51.66.74.96,1.02,1.33-.3.2-.55.38-.9.62.46.27.8.48,1.29.77.05-.64.09-1.14.14-1.68.36.13.69.24.91.31Zm-3.93-2.82c.87.21,1.65.39,2.64.62-.48-1.3-1.75-2.03-2.45-1.69-.06.31-.11.62-.19,1.07Zm-187.52,26.12c1.31.42,1.09-.73,1.4-1.36.08-.16-.03-.62-.09-.62-.53-.05-1.07-.03-1.43-.03.05.85.09,1.45.12,2.01Zm162.84-55.63c-.05-.56-.1-1.04-.14-1.5-.5.15-.92.27-1.38.41-.12-.29-.24-.59-.46-1.15.07,2.41.42,2.76,1.98,2.23Zm-245.18,11.78c.1.09.21.18.31.27-.15.54-.35,1.08-.44,1.63-.06.37.05.77.08,1.15.2,0,.4,0,.6,0,.22-1.06.45-2.11.7-3.31-.58.11-.91.18-1.25.24Zm82.42-161.8c.23-.37.41-.65.6-.94.35.31.61.56,1.08.98-.2-1.25-.85-1.58-1.67-1.41-.59.13-1.57-.06-1.53,1.12.53.09,1.03.17,1.54.25Zm19.45,206.7c-1.09,1.24.18,1.85.25,2.81.46-.31.8-.54,1.12-.75-.46-.69-.87-1.31-1.37-2.06Zm-66.87-211.98c-.08.07-.17.13-.25.2.47.6.94,1.19,1.44,1.82.78-.56.75-1.24.19-1.88-.11-.12-.65.16-1.07.27-.04-.05-.17-.23-.3-.41Zm17.05,196.85c.08,0,.15.01.23.02v-3.95c-.5.54-.81.87-.91.97.26,1.15.47,2.06.68,2.96Zm17.37-194.3c.14-1.26-.08-1.89-.76-1.91-.29,0-.59.41-.64.45.29.52.44.78.68,1.21.07.02.39.13.72.24Zm-123.43,105.73c-.11-.7-1.32-1.22-2.31-.97.24.41.46.81.66,1.15.55-.06,1.05-.11,1.65-.18Zm97.74-104.34c.04.05.09.11.13.16.75-.98,1.49-1.96,2.24-2.94-.62.19-1.24.52-1.64,1.03-.37.49-.5,1.16-.73,1.76ZM11.82,320.63c.03-.52.06-1.05.09-1.59-.14-.01-.28-.03-.41-.04-.08.25-.16.5-.24.75-.55.02-1.34-.29-1.15.73.6.06,1.09.1,1.71.16Zm-7.04-17.81c-.14.07-.27.14-.41.21.17.44.23,1.08.54,1.25.31.17.88-.15,1.34-.26,0-.13.02-.27.03-.4l-1.5-.8Zm75.15-91.75h2.06c0-.11,0-.22,0-.33h-1.2c.17-.33.33-.63.53-1-.4-.04-.66-.07-.93-.1-.14.43-.27.8-.48,1.43Zm233.2,159.72c.05.04.1.07.15.11.64-.4,1.29-.81,2.04-1.28-.51-.37-.93-.68-1.63-1.19.23.64.35.95.42,1.15-.36.43-.67.82-.99,1.2ZM63.52,212.15c.42,1.61,1.72.28,2.41.84.16-.23.32-.47.37-.54-1.01-.11-1.88-.2-2.78-.3Zm-36.59,134.7c-.44.49-.86.93-1.26,1.4-.14.16-.21.38-.27.59,0,.02.25.19.38.18.74-.06,1.43-1.71,1.14-2.17Zm151.18-116.31c-.34-.68-.59-1.18-.88-1.77-.38.44-.65.76-.97,1.12.43.23.8.43,1.19.61.1.05.23.02.66.04Zm156.02,161.76c.49-.79.39-.88-1.71-1.43-.02.27-.04.52-.04.46.67.37,1.16.65,1.75.97Zm-214.97,13.83c-.17-.11-.33-.22-.5-.34-.42.53-.84,1.07-1.27,1.6.18.13.35.26.53.39.41-.55.82-1.1,1.24-1.66Zm211.37-15.92c.12-.15.25-.29.37-.44-.57-.47-1.14-.95-1.71-1.42-.1.12-.19.24-.29.35.54.5,1.08,1,1.63,1.5Zm-172.84,31.67c-.09-.09-.19-.17-.28-.26-.42.41-.88.79-1.23,1.25-.07.09.3.5.41.67.41-.61.76-1.14,1.11-1.67Z"/><path class="cls-1" d="m44.48,13.55c.3.35.61.71.95,1.11-.24.26-.49.54-.83.91.4.26.72.46,1.02.66.56-.48,1.06-.9,1.51-1.28-.16-.17-.34-.38-.53-.58.22-.11.45-.2.65-.33.87-.58,1.79-1.11,2.58-1.8.58-.5,1.03-.88,1.76-.35.35.26.72.49.95.64.56-.51,1.06-.97,1.51-1.39-.38-.07-.96-.18-1.53-.28-.03-.13-.06-.26-.09-.39,1.08-.3,2.16-.61,3.24-.91.04.07.08.15.12.22-.33.35-.66.7-1,1.04.04.09.08.17.12.26.27-.09.63-.1.79-.28.35-.4.52-.98.92-1.3.4-.32.98-.42,1.42-.58.26.48.46,1.02.83,1.42.12.12.75-.07.99-.29.12-.12-.11-.61-.2-1.04,1.27,1.24,2.56-.07,3.87-.12.09.16.19.32.28.48-.29.19-.59.38-.85.54.31.41.66.89,1.03,1.38.43-.22.91-.47,1.46-.75-.03-.33-.06-.71-.11-1.19.64.12,1.26.23,1.98.36-.32-1.05,1.73-.86,1.21-2.09-.7.24-1.31.45-2.16.75.25-.64.36-1.04.57-1.39.1-.17.4-.33.6-.31.58.04,1.15.16,1.72.26.62.11,1.24.28,1.86.3.23,0,.47-.36.83-.66,1.93.96,3.94.15,5.77-.73.59.44,1.12.82,1.64,1.21.2-.3.4-.61.61-.93.72.36-.96,2.33,1.17,1.93-.15.22-.26.38-.38.57.14.02.25.06.27.04.32-.38.66-.75.91-1.17.04-.07-.44-.36-.47-.57-.04-.33.09-.69.16-1.09-.04,0-.26-.05-.26-.05.64-.41,1.39-.9,2.31-1.5.44.61.98,1.33,1.57,2.15-.42.06-.65.1-.91.14.07.08.1.14.15.17.81.41,1.61.85,2.44,1.21.24.11.78.08.86-.06.43-.85.77-1.74,1.21-2.77.14-.04.5-.14.93-.27-.1-.35-.19-.63-.38-1.29,1.62,1.78,1.68-.16,2.42-.6,1.06.78,1.62.1,2-.72.96.32,1.85.61,2.81.93.41,1.87.51,2.01,2.46,3.11-.45-1.09.25-1.78.57-2.59.21-.53.47-1.04.74-1.63.36,1.19,1.36,1.62,2.57,1.91.47.11.78.88,1.16,1.34.13-.01.25-.03.38-.04.14-1.39.27-2.78.4-4.12.96-.21,1.87-.43,2.79-.62,2.01-.41,2.34-.19,2.8,1.84.35-.23.68-.45,1.13-.75.18.49.36.95.52,1.39,1.3-1.09,1.5-1.11,2.31.17V.66c.32.04.83.11,1.37.19.05.35.1.78.17,1.27,2.46-2.01,4.91-2.96,7.54-.12-.29-.54-.58-1.08-.87-1.62.12-.05.25-.11.37-.16.06.24.12.49.18.73.21-.11.42-.25.64-.33.21-.09.55-.25.65-.17.75.66,1.52.14,2.28.15.59,0,1.17.34,1.77.46.34.07.7.01,1.05-.28-.33-.17-.66-.34-1.1-.56,1.07.05,2.02.09,3.21.14-.33.37-.48.53-.46.51,1.59.18,3.54-.04,4.98.71,1.23.63,1.54.17,2.21-.42.18-.16.52-.15.79-.2.56-.09,1.13-.17,1.67-.39.39-.14,1.03,1.19,1.21-.35.01-.11.51-.27.74-.22.21.04.45.32.52.55.38,1.25.61,1.24,1.73.88.91-.29,1.9-.81,2.98-.16.44.26,1.41.32,1.71.03.78-.76,1.04-.22,1.37.32.62-.04,1.18-1.06,1.74-.02,1.24-.63,2.54-.22,3.81-.2.39,0,.84.24,1.16.5.44.34.79.8,1.3,1.35.16-.49.28-.74.32-1,.15-.96.31-1.44,1.61-1.05,1.29.39,2.8.9,4.12-.26.07.4.12.64.16.87l.25.05c.12-.39.23-.78.37-1.23,1.15-.07,2.36-.15,3.36-.21.07.56.09,1.14.16,1.15,1.55.15,3.13.46,4.66.27,1.13-.14,2.18-.27,3.28.23h-1.14c-.05.06-.1.13-.14.19.41.27.81.54,1.32.87.02.12.07.43.13.75.71-.36,1.37-.7,1.99-1.01-.23-.33-.43-.62-.81-1.17,1.81.49,3.68.17,3.97-.58.11.3.2.54.41,1.12.14-.59.21-.84.26-1.08.13.01.28,0,.28.03.32,1.16,1.42.98,2.16,1.04,1.72.13,3.45,0,5.18-.01.24,0,.61-.1.68,0,.81,1.22,1.96.46,2.94.5.82.03,1.34.48,1.11,1.39.33-.07.62-.12.73-.15-.04-.41-.19-.91-.09-.97.34-.18.99-.4,1.11-.25.6.71,1.11.79,2.08.57,1.26-.29,2.66-.03,3.99.05.35.02.73.21,1.02.42.58.43,1.11.93,1.66,1.4.19-.2.38-.4.57-.6-.57-.15-1.13-.31-1.7-.46.15-.1.3-.21.44-.31,1.45.06,2.91.1,4.36.19.61.04,1.21.15,1.8.29.53.12,1.04.33,1.5.6.52.21,1.04.42,1.69.69.08-1.08.75-1.17,1.59-1.01.66.13,1.33.24,2,.26.25,0,.51-.27.7-.38.17,1.34,1.46.79,2.29.67,1.2-.18,2.17.25,3.22.56.93.28,2.07.12,2.51,1.33.07.19.14.39.28.53.27.28.59.52.89.77.13-.08.25-.16.38-.25-.26-.51-.53-1.01-.79-1.52.04-.05.09-.1.13-.15.3.48.6.95.89,1.43.13-.1.27-.2.4-.3.02-.2.05-.39.08-.7.2.18.34.41.5.43,1.31.18,2.62.38,3.94.44,1.01.05,1.77.37,2.66.91.83.52,2.13.28,3.22.39.26.03.61.03.75.18.82.93,1.95.98,3.04,1.22.55.12,1.04.51,1.58.7,1.27.45,2.55.86,3.83,1.29.23.08.46.25.68.23,1.87-.18,3.48.83,5.21,1.11,1.92.31,3.4,1.35,5.08,2.05.61.26,1.26.43,1.83.75.28.16.42.55.72.97,1.18-1.13,2.26.11,3.28.58.49.23,1.67.44,1.61,1.63-.01.3.68.63,1.04.93,1.24-.79,3.03-.64,4.12.22,1.15.91,2.32,1.82,3.59,2.55.52.3,1.34.02,1.97.2,1.28.36,2.52.85,3.72,1.27.01.07-.04-.17-.16-.72,1.07,1.02,1.94,1.86,2.86,2.73.29-.17.6-.35,1.19-.7v2.51c.71-.77,1.12-1.53,1.92-.43.18.24,1.1-.05,1.47-.08.32.93.61,1.78.92,2.69,1.75-.76-.02-1.92.59-2.93.22.01.66-.08.96.09,1.5.85,2.95,1.79,4.44,2.66,1.82,1.06,3.66,2.07,5.48,3.13,1.01.59,1.98,1.22,2.97,1.84.7.44,1.34.98,2.08,1.33,2.62,1.25,4.71,3.17,6.8,5.13,2.08,1.96,4.25,3.82,6.41,5.68.44.38,1.12.51,1.54.91,2.18,2.07,4.23,4.28,6.48,6.26,2.55,2.25,5.18,4.51,7.21,7.17,1.33,1.75,3.32,2.46,4.58,4.08,1.63,2.08,3.71,3.78,4.88,6.26.45.96,1.66,1.54,2.3,2.44,1.13,1.6,2.09,3.32,3.12,5,.06.1.07.23.12.33,1.16,2.05,2.36,4.08,3.47,6.16,1.42,2.66,2.47,5.46,3.01,8.46.41,2.26,1.22,4.45,1.59,6.72.42,2.62.54,5.3.82,7.95.21,2.02.49,4.03.72,6.04.04.35,0,.71,0,1.06.02,4.57-.29,9.1-1.2,13.59-.52,2.6-.84,5.24-1.25,7.85-.03.19-.12.37-.21.55-.55,1.2-.99,2.48-1.69,3.58-.87,1.37-1.9,2.66-2.97,3.88-.95,1.08-1.15,2.17-.44,3.38.59,1,.3,1.72-.39,2.55-.83,1-1.53,2.14-2.21,3.26-1.33,2.2-2.48,4.51-3.93,6.62-1.11,1.61-2.55,2.98-3.86,4.44-1.83,2.03-3.61,4.12-5.55,6.04-1.34,1.32-2.93,2.39-4.38,3.6-.97.82-1.85,1.75-2.86,2.52-2.16,1.64-4.37,3.22-6.56,4.81-1.53,1.11-3.01,2.3-4.62,3.28-1.91,1.16-3.91,2.19-5.93,3.14-1.22.58-2.23,1.27-2.68,2.73-.82-1.25-1.78-.76-2.74-.43-.75.26-1.52.49-2.27.73-.91.29-1.81.61-2.72.88-1.22.37-2.44.7-3.66,1.06-.32.09-.61.25-1.05.44.93,1.13,2.09.65,2.98.62,1.04-.04,2.06-.65,3.09-1.02.04.11.09.22.13.33-1.4.66-2.75,1.51-4.22,1.93-.97.27-2.11-.13-3.17-.12-1.42.02-2.85-.43-4.28.16-.55.22-1.27-.06-1.89.06-2.23.45-4.43,1.1-6.68,1.43-2.38.35-4.81.41-7.21.61-1.75.14-3.5.34-5.26.45-1.64.1-3.29.19-4.93.16-1.15-.02-2.29-.35-3.44-.4-2.66-.13-5.32-.11-7.98-.28-2.34-.15-4.66-.49-6.99-.71-2.69-.26-5.39-.41-8.07-.74-3.63-.45-7.24-1.08-10.87-1.52-3.1-.38-6.23-.54-9.33-.93-2.46-.31-4.89-.84-7.34-1.22-1.44-.22-2.92-.26-4.36-.49-.59-.09-1.14-.45-1.62-.65-.5.08-1.02.29-1.49.21-2.87-.51-5.73-1.08-8.59-1.63-4.33-.83-8.65-1.66-12.98-2.48-2.27-.43-4.55-.8-6.81-1.29-1.05-.22-2.03-.74-3.08-.95-4.9-1-9.81-1.96-14.73-2.88-4.15-.78-8.31-1.48-12.45-2.24-4.44-.81-8.89-1.58-13.32-2.48-2.53-.52-5.02-1.25-7.53-1.89-.61-.15-1.23-.28-1.81-.54-.44.04-.88.15-1.31.11-2.44-.25-4.88-.49-7.31-.81-1.97-.26-3.91-.73-5.89-.94-2.42-.25-4.91-.08-7.27-.57-1.44-.3-2.84.17-4.26-.35-1.41-.51-2.95-.75-4.46-.91-2.04-.23-4.1-.35-6.16-.4-2.3-.05-4.6.09-6.9.04-.86-.02-1.71-.34-2.57-.53-.11-.03-.21-.15-.32-.16-3.77-.18-7.55-.33-11.32-.52-3.14-.16-6.3-.61-9.43-.47-3.02.14-6.21-.45-9.02,1.29-.9.55-1.83.35-2.54-.3-.96-.89-1.23-2.73-.61-3.56.51-.67,1.17-1.24,1.63-1.94.26-.4.37-1,.31-1.49-.18-1.47-.11-3.75,1.46-3.86,1.13-.07,1.78-.93,2.85-1.04.61-.06,1.37-.34,2.02-.62.25-.11.53-.38.61-.63.53-1.77,2.02-2.73,3.52-2.97,1.33-.21,1.69-1.02,2.37-1.77.49-.53,1.14-.95,1.79-1.29,2.75-1.43,5.07-3.69,8.25-4.3.43-.08.88-.11,1.28-.16.26-.37.5-1.09.88-1.18,1.74-.39,2.9-2.14,4.9-1.98.6.05,1.22-.66,1.88-.91.6-.23,1.28-.25,1.89-.45.43-.14.77-.52,1.2-.65.49-.15,1.03-.13,1.64.1.46-.51.92-1.03,1.38-1.54-.61-.34-1.21-.69-1.83-1.02-1.79-.96-3.63-1.84-5.36-2.88-1.54-.93-2.92-2.13-4.47-3.04-1.43-.84-3.01-1.41-4.49-2.16-2.16-1.09-4.32-2.19-6.44-3.36-2.16-1.2-4.29-2.46-6.4-3.75-1.98-1.21-3.89-2.55-5.9-3.73-2.05-1.2-4.18-2.28-6.29-3.4-1.4-.75-2.83-1.45-4.21-2.24-.29-.17-.44-.59-.65-.91-.15-.22-.24-.59-.43-.66-1.59-.55-1.75-2.1-2.49-3.45h1.21c0-.68-.03-1.28.03-1.87,0-.09.43-.14.68-.21-.61-1.88,1.7-1.72,2.04-2.99.09.05.18.11.27.16-.1.25-.21.5-.42,1,2.26-1.21,4.41-2.1,6.25-3.44,1.12-.81,2.2-1.55,3.5-2.01.97-.34,1.89-.81,2.86-1.15.36-.12.8-.02,1.28-.02.6-.5,1.28-1.11,2.01-1.63.31-.23.79-.22,1.13-.42,1.13-.67,2.56-.9,3.29-2.18.32-.55.63-.75,1.33-.3.73.48,1.52.11,2.07-.6.14-.18.4-.48.48-.45,1.16.55,1.7-.7,2.61-.88.38-.07.69-.47.77-.53,1.22.14,2.18.24,3.3.37.79-.95,1.77-1.79,3.44-1.51.42.07,1-.8,1.52-1.26.19.17.35.32.61.57.16-.63.33-1.15.4-1.69.02-.18-.18-.5-.35-.57-.9-.37-1.85-.63-2.74-1.02-.61-.27-1.18-.65-1.72-1.05-1.45-1.05-2.81-2.22-4.32-3.18-2.52-1.61-5.13-3.1-7.7-4.63-.35-.21-.68-.47-1.06-.58-.32-.1-.69-.02-1.18-.02-.56-1.11-1.81-1.82-3.1-2.54-.93-.52-1.95-.54-2.9-.83-1.09-.33-2.12-1.14-2.98-1.95-2.54-2.39-5.24-4.52-8.33-6.17-.76-.41-1.31-1-2.32-.83-.62.1-1.25-.24-1.25-1.14,0-.32-.2-.73-.45-.95-1.04-.92-.98-1.98-.51-3.13.1-.25.36-.56.28-.74-.73-1.78.92-2.88,1.24-4.36.14-.63.94-1.12,1.68-1.94-.04.65-.06.94-.07,1.23.08.1.16.19.25.29.74-2.06,2.43-2.23,4.14-2.6,1.02-.22,1.95-.86,3.08-.64.05,0,.11-.11.17-.15,1.5-.76,2.98-1.55,4.51-2.25.39-.17.92-.03,1.25-.03.57-.33,1.14-.68,1.72-.98.3-.16.77-.15.95-.38.68-.87,1.18-.92,1.64.16.04.1.24.12.5.25-.1-.63-.17-1.11-.23-1.48.51-.16.95-.3,1.39-.43.66-.19,1.4-.25,1.98-.59.55-.32.92-.94,1.5-1.55.09.02.43.1.63.14.1.73.19,1.36.26,1.85.85-.3,1.64-.54,2.4-.88.29-.13.6-.45.69-.75.12-.37.03-.81.03-1.36-.66.42-1.29.82-1.92,1.23l-.32-.5c.91-.57,1.78-1.2,2.73-1.68.84-.43,1.76-.69,2.67-1.04.99.14,2.36.14,2.58,1.97.14-.09.28-.17.43-.26.3-.52.96-1.14.84-1.53-.29-.97-.67-2.03-1.88-2.39-.76-.22-1.48-.57-2.2-.91-2.11-1.01-4.13-2.27-6.34-2.98-1.47-.47-2.66-1.05-3.77-2.11-.53-.51-1.65-.34-2.34-.75-1.41-.83-2.65-1.93-4.06-2.77-1.39-.83-2.91-1.44-4.32-2.24-.73-.41-1.35-1.02-1.99-1.56-2.46-2.08-4.9-4.18-7.38-6.24-.36-.3-.81-.55-1.25-.68-2.15-.6-2.64-1.25-2.7-3.39-.04-1.39-.13-2.73,1.34-3.5.31.37.7.83,1.26,1.49.33-.46.54-.75.74-1.05-.18-.37-.36-.74-.52-1.07-.12.13-.3.32-.71.75.55-2.53,1.65-2.94,3.35-1.61.51.4,1.02.79,1.64,1.27,1.79-1.8,3.9-2.27,6.51-.91-.31.14-.42.18-.53.24-.1.05-.2.11-.34.18.14.3.27.59.46,1-.52,0-.91,0-1.29,0,.02-.15.11-.4.06-.43-.55-.32-1.11-.6-1.95-1.04.39.76.66,1.31.94,1.86.41-.18.7-.3.98-.42Zm23.64,17.86c.36-.17.55-.32.62-.28,1.2.76,2.39,1.54,3.59,2.31.23.15.47.3.72.41.56.24,1.17.36,1.68.68,1.36.86,1.98,2.79,4.01,2.7.27-.01.61.36.84.62.46.55.88,1.14,1.28,1.74.69,1.03.72,2.19.4,3.32-.62,2.19-2.11,3.44-4.29,4.06-1.76.49-3.48,1.17-5.16,1.87-1.66.69-3.2,1.67-4.89,2.24-1.59.54-3.09,1.11-4.3,2.34-.38.39-.95.61-1.48.93,0-.13-.02-.33-.03-.59-.77.4-1.49.83-2.25,1.17-.66.3-1.5.34-2.02.78-.81.69-1.52,1.24-2.61.72-.12-.06-.34-.01-.46.07-.91.66-1.8,1.33-2.7,2-.15.11-.36.33-.44.29-1.12-.55-1.56.37-1.89.74-.9-.07-1.55-.11-1.97-.14-.3-.56-.58-1.08-.86-1.61-.16.03-.31.07-.47.1-.05.61-.11,1.22-.16,1.79-.34.05-.88,0-1.27.22-.25.14-.46.93-.37,1,1.3.96,2.63,1.88,4.01,2.72.2.12.92-.31.95-.25.67,1.32,3.34.86,2.86,3.19-.02.09.22.22.32.35,1.53,1.78,3.35,3.06,5.82,3.19.23,1.04.49,2,1.94,1.62.27-.07.69.33,1.02.56.41.29.78.62,1.29,1.03.13-.48.2-.76.32-1.2.57.45,1.05.8,1.49,1.19.94.85,1.68,2.14,3.3,1.27.24-.13.75-.11.93.06.92.87,1.78,1.81,2.63,2.75.47.51.8,1.19,1.36,1.57,1.57,1.07,3.24,2,4.84,3.04,2.19,1.41,4.34,2.88,6.51,4.31.04.02.13-.04.24-.08-.1-.31-.19-.62-.29-.93.09-.05.18-.1.27-.15.85,1.21,1.83,2.35,2.51,3.65.57,1.09.8,2.4.1,3.57-.6,1-1.35,1.9-2.03,2.84-.46.64-.86,1.35-1.79.54-.16-.14-.63-.04-.91.07-2.58,1.06-5.14,2.15-7.72,3.2-.77.31-1.65.37-2.36.77-2.98,1.69-6.19,2.73-9.52,3.46-.17.04-.41-.21-.6-.32-.06.27-.12.59-.15.72-.53.05-1.13-.05-1.26.15-.78,1.22-2.16,1.42-3.27,2.07-.78.46-1.69.71-2.42,1.23-1.29.93-2.85.93-4.2,1.48-1.03.42-2.38.66-3.16,1.77-.45.65-1.07,1.19-1.74,1.91,1.3-.12,2.77-.81,2.79,1.43.68-.37,1.23-.66,1.63-.88,1.36.82,2.73,1.49,3.92,2.38,1.37,1.03,2.59,2.27,3.89,3.4.11.09.28.16.42.16,1.33-.05,2.4.5,3.47,1.26,1.55,1.09,2.94,2.51,5.11,2.49.55,0,1.35.59,1.61,1.12.76,1.58.7,1.63,1.86.94.84.2,1.53.23,2.07.54.97.55,1.83,1.28,2.76,1.9,1.48.98,3,1.92,4.48,2.9.43.29.73.79,1.19,1.01,1.32.62,2.69,1.14,4.11,1.74.08-.02.38-.18.62-.12.68.16,1.34.44,2.02.62,1.65.44,3.37.85,4.49,2.24.97,1.19,1.76,2.54,2.55,3.87.88,1.46,1.26,3.05,1.44,4.76.11,1.09-.27,2.41-1.33,2.74-.53.17-1.12.19-1.64.37-1.34.45-2.67.93-3.99,1.45-.82.32-1.63,1.11-2.38,1.04-1.72-.15-2.78,1.13-4.22,1.5-.59.15-1.18.26-1.95.43-.11.17-.32.92-.7,1.01-.94.22-1.89.73-2.95.31-.25-.1-.95.24-.98.43-.11.99-.64,1.51-1.53,1.8-.52.17-1.19.26-1.5.63-1.41,1.72-3.57,2.25-5.37,3.19-2.27,1.19-4.35,2.77-6.78,3.67-1.34.5-2.02,2.14-3.69,2.08-.15,0-.32.4-.41.52.83.72,1.57,1.38,2.38,2.09.14-.19.39-.39.45-.63.4-1.63,1.46-2.13,3.05-2.05,1.02.05,2.08-.05,3.07-.3.96-.24,1.74-.39,2.17.85.24-.41.39-.68.59-1.02.26.28.45.48.7.74.11-.34.19-.56.21-.63,1.32.08,2.57.16,3.79.23.26.33.55,1.01.88,1.03.42.03.88-.48,1.3-.74.73-.05,1.52-.21,2.3-.13,1.96.18,3.9.53,5.86.7,1.67.14,3.42.44,5.01.1,2.6-.56,5.04.22,7.54.4.73.05,1.53.99,2.11.84,2.28-.6,4.48,1.12,6.8-.12,0-.04.05-.3.09-.55.52.3,1.01.59,1.51.87.67.38,1.2.77,2.15.34.65-.29,1.5-.37,2.25-.65.4-.15.98.11,1.46.26.67.21,1.3.54,1.97.73.57.16,1.18.19,1.76.28.24.04.48.15.71.13,1.87-.14,2.9.46,3.46,1.97.49-.45,1.01-.93,1.33-1.23.97.35,1.81.64,2.24.8,1.03-.31,1.71-.67,2.41-.68.66-.02,1.32.32,1.98.5.45.12.92.41,1.34.35,1.71-.23,2.94.55,4.05,1.7,1.03-.9,6.3-.24,6.76.85,1.33-.63,1.91-.44,2.86.78.19.24.6.31.91.46.06-.1.11-.2.17-.29-.13-.17-.26-.33-.39-.5.22-.1.46-.31.64-.27.9.2,1.78.46,2.66.72.17.05.33.24.49.25,1.51.05,3.09-.21,4.33.98.44-.03.86,0,1.18.21.45.29.83.7,1.21,1.03.11-.35.2-.63.24-.78,3.64.41,7.15.84,10.29,2.54.46-.19.99-.63,1.39-.53,1.1.28,2.15.77,3.22,1.18.37.14.89.51,1.07.39.78-.54,1.62-.17,2.38-.31,2.3-.43,4.15.98,6.25,1.31.8.13,1.57.43,2.37.59.29.06.62-.1.92-.09.44.02.88.11,1.32.17.03-.09.07-.19.1-.28.22.32.44.64.66.96l.03-.35c.81.07,1.63.11,2.44.21.29.04.56.28.86.31,1.15.1,2.42-.14,3.43.28,1.98.82,4.04,1.12,6.11,1.39,1.37.18,2.78.1,4.12.38,2.54.53,5.03,1.24,7.67,1.91.05.14.19.53.3.84.54-.39.92-.89,1.32-.9,1.26-.03,2.53.12,3.79.2.33.02.66.05.98,0,1.06-.18,2.12-.4,3.28-.62-.52.97-.02,1.48,1.26,1.47-.13-.41-.26-.8-.45-1.39.68.57.53,2.1,1.86,1.19.05-.03.25.18.4.25.85.38,1.63.83,2.68.57.95-.23,1.99-.14,3-.15.48,0,1.09.64,1.32-.33.27.16.7.27.8.5.32.79.64,1.01,1.07.26.9.49,1.71.94,2.24,1.23.77-.07,1.35-.21,1.91-.16.95.08,1.88.32,2.83.42,1.22.14,2.48.42,3.65.23.75-.13,2.21.53,2.18-1.17.24.01.4.02.56.04.05,0,1.52,1.58,1.56,1.6.29.14.58.35.89.4.56.09,1.14.05,1.69.15,1.23.23,2.45.51,3.69.77.12-.18.27-.41.42-.64.07.03.15.05.22.08-.04.43-.08.85-.13,1.43.52-.24.91-.42,1.69-.77-.53-.23-.82-.36-1.11-.49.02-.12.03-.24.05-.36.86-.32,1.73-.64,2.63-.97,1.38,1.93,2.09,2.14,4.46,1.3.17-.06.39-.13.54-.07.97.41,1.97.33,3.03.25-.03-.28-.06-.56-.08-.72.8-.04,1.5-.14,2.19-.1.72.04,1.48.08,2.14.34,1.42.54,2.58.65,3.8.16-.17-.16-.36-.34-.54-.51.16-.16.32-.43.5-.45,1.34-.14,2.7-.11,4.02-.35,2.09-.39,4.25.05,6.3-.68.45-.16.96-.22,1.44-.21.22,0,.43.29.78.56-.69.18-1.14.3-1.58.41,0,.07.02.14.03.21h4.45c-.15-.79-.27-1.4-.46-2.36,1.87-.15,3.62-.16,5.33-.48,1.76-.32,3.47-.94,5.19-1.43.07.16.14.31.22.47-.53.33-1.06.66-1.59.99l.08.19c.7-.08,1.4-.15,2.14-.23-.24-.69-.37-1.07-.5-1.45.83.79,1.25.87,2.07-.11.68-.82,1.9-1.26,2.95-1.69,1.47-.59,3.05-.91,4.5-1.54,2.17-.94,4.3-1.98,6.37-3.13,1.61-.89,3.14-1.95,4.63-3.04,1.52-1.11,2.88-2.44,4.44-3.48,2.96-1.99,5.85-4.07,8.35-6.63,1.81-1.85,3.46-3.87,5.19-5.79.39-.43.91-.74,1.28-1.17,1.73-2.01,3.43-4.04,5.13-6.08.06-.07.02-.21.06-.3.34-.77.67-1.53,1.02-2.29.33-.72.74-1.41,1-2.15.4-1.17.57-2.43,1.09-3.53.66-1.4,1.67-2.62,2.38-4,1.03-2.02,2.23-4.03,2.8-6.19.83-3.15,1.3-6.41,1.69-9.66.46-3.84.99-7.72.53-11.59-.45-3.84-1.05-7.66-1.71-11.46-.46-2.62-.48-5.37-1.91-7.77-.12-.2.02-.55-.03-.81-.05-.3-.09-.75-.29-.87-1.33-.79-1.06-2.35-1.75-3.45-1.23-1.96-2.22-4.07-3.54-5.97-1.15-1.66-2.61-3.1-3.94-4.63-1.13-1.3-2.19-2.67-3.41-3.88-1.71-1.71-3.58-3.25-5.29-4.95-1.19-1.18-2.14-2.6-3.36-3.74-4.46-4.16-8.98-8.26-13.5-12.35-1.77-1.6-3.49-3.28-5.44-4.63-3.95-2.74-8.02-5.33-12.1-7.89-2.16-1.35-4.45-2.48-6.68-3.71-.77-.42-1.5-.96-2.32-1.24-2.03-.69-4.12-1.22-6.17-1.87-1.87-.59-3.7-1.29-5.57-1.87-.96-.29-2.01-.33-2.96-.64-.56-.19-1.13-.62-1.48-1.1-.22-.3-.04-.89-.04-1.21-.43-.41-.97-.77-1.29-1.26-.71-1.08-1.67-1.66-2.87-1.91-.13.14-.25.28-.38.42.46.11.92.21,1.39.32-.13.14-.26.29-.39.43-.63-.35-1.27-.7-1.91-1.05-.22.55-.37.94-.53,1.33-.1-.03-.2-.05-.3-.08-.04-.56-.07-1.11-.13-1.94-.79-.36-1.82-.84-2.86-1.33-.48-.23-.91-.58-1.41-.71-2.02-.52-4.05-.99-6.08-1.46-3.79-.89-7.59-1.69-11.28-3.03-3.39-1.24-6.93-2.08-10.41-3.07-.21-.06-.47.08-.7.04-2.23-.34-4.46-.72-6.69-1.06-2.27-.34-4.45-1.18-6.81-1.07-1.77.09-3.55-.07-5.32-.24-2.83-.26-5.65-.72-8.49-.92-4.64-.33-9.3-.5-13.95-.76-2.66-.15-5.31-.34-7.97-.48-3.24-.17-6.48-.35-9.73-.43-3.64-.1-7.28-.14-10.92-.13-2.71,0-5.42.17-8.13.18-2.39.01-4.78-.08-7.17-.14-2.25-.06-4.51-.09-6.75-.22-3.55-.21-7.01,1.1-10.63.32-1.75-.38-3.68.14-5.52.16-3.81.04-7.63-.03-11.43-.46-.52-.06-1.06-.03-1.58.02-2.99.3-5.97.67-8.97.91-1.69.14-3.4-.05-5.08.15-1.55.19-2.93,1.2-4.6,1.02-1.02-.1-2.08-.18-3.08-.02-3.15.52-6.29,1.17-9.43,1.75-1.71.32-3.42.61-5.13.93-1.13.21-2.45.15-3.35.73-1.73,1.12-3.64,1.34-5.54,1.7-3.38.64-6.9.44-10.18,1.7-.58.22-1.18.5-1.77.52-1.56.06-3.13-.08-4.68.04-.5.04-1.06.56-1.38,1.01-.17.24-.06,1,.19,1.18,1.12.81,2.34,1.48,3.51,2.23.51.33.99.72,1.41,1.03.21-.08.6-.4.84-.31,1.04.41,2.04.92,3.03,1.44.55.29,1.04.92,1.58.95,1.37.06,2.18,1,3.2,1.64.7.44,1.44.96,2.23,1.1,1.83.34,3.29,1.3,4.54,2.24ZM118.78,2.11c-.45.57-.88,1.09-1.28,1.64-.14.18-.33.53-.26.62.17.22.54.52.71.46.68-.23,1.31-.6,1.97-.91-.31-.57-.62-1.13-.93-1.7-.02-.03-.07-.04-.2-.1Zm8.61-.78c.06,1.15.1,2.11.15,3.01.93-.04,1.62-.07,2.57-.12-.75-.7-1.36-1.25-2.05-1.9.06-.11.21-.4.41-.77-.3-.06-.55-.12-1.07-.22Zm-44.98,142.52c-.58.1-1.07.13-1.52.28-.33.11-.69.32-.88.59-.29.42-.13.84.4.92.57.09,1.18.2,1.71.06.2-.05.28-.76.33-1.17.04-.3-.04-.61-.05-.68Zm-25.15,18.59c.5-.43.92-.74,1.26-1.13.07-.08-.08-.55-.22-.6-1.31-.45-1.78-.12-1.9,1.24.33.19.64.37.85.49ZM278.33,26.14c-.98-2.41-1.59-2.78-2.78-1.78.86.55,1.69,1.08,2.78,1.78ZM42.4,53.91c-.9.84-.42,1.64-.01,2.76.43-.97.73-1.67,1.04-2.37-.07-.07-.14-.14-.21-.21-.23.12-.47.24-.69.36-.04-.16-.08-.33-.13-.53Zm9.82,114.05c.06.07.12.13.18.2.51-.72,1.02-1.44,1.43-2-.34-.28-.59-.47-.88-.71-.22.76-.47,1.64-.73,2.51Zm-1.39-113.89c.21-.06.42-.13.62-.19-.05-.53-.09-1.06-.15-1.59,0-.03-.12-.06-.21-.09-.03.24-.06.47-.09.7-.17.13-.34.26-.52.39-.05-.37-.1-.74-.15-1.1-.16.13-.32.26-.48.39.33.5.65,1.01.98,1.51ZM102.95,3.95c-1.18.34-2.01.59-2.9.85.95.79,1.35.69,2.9-.85Zm64.65-2.55c-.38-.06-.69-.1-.86-.13-.28.88-.5,1.58-.72,2.27.09.05.19.1.28.14.41-.73.82-1.45,1.3-2.29Zm-2.77,178.85c-.11.14-.23.28-.34.42.25.78.71,1.26,1.58,1.15.1-.13.19-.26.29-.38-.51-.4-1.02-.8-1.53-1.19ZM232.31,8.21c-.06-.14-.13-.27-.19-.41-.55.19-1.12.34-1.64.59-.08.04.04.51.09,1.02.73-.5,1.24-.85,1.75-1.21Z"/><path class="cls-1" d="m79.82,357.47c-.42-.59-.78-1.58-1.48-1.99-1.42-.83-1.5-2.31-2.11-3.52-.05-.1.17-.34.1-.2.98,0,1.77.12,2.5-.04.55-.12,1-.64,1.52-.94,1.04-.6,1.94-3.62,1.22-4.53-.72-.92-1.56-1.77-2.44-2.53-1.2-1.05-2.5-1.97-3.74-2.98-1.11-.9-2.19-1.84-3.27-2.77-1.55-1.33-3.06-2.7-4.66-3.97-.77-.62-1.58-1.41-2.89-.74.17-.3.23-.58.35-.61,1.11-.24,1.66-1.28,2.69-1.78,2.25-1.09,4.15-2.87,6.22-4.35,1.3-.93,2.59-1.88,3.97-2.7,2.31-1.38,4.58-2.77,6.07-5.12.37-.58.75-1.15,1.19-1.67,1.99-2.42,2.88-5.12,2.26-8.1-2.51-.26-4.12,1.58-6.03,2.67-1.87,1.07-3.54,2.52-5.26,3.85-.59.46-1,1.22-1.64,1.54-1.73.85-3.37,1.74-4.19,3.31-.67.15-1.23.16-1.68.39-1.86.94-3.66,2.02-5.55,2.9-.98.46-2.16.49-3.15.93-1.95.84-3.81,1.89-5.76,2.74-2.08.91-3.2,2.55-3.58,4.66-.17.94-.15,2.14.3,2.92.93,1.62,2.48,2.7,4.25,3.39,1.25.48,2.5.96,3.81,1.45h1.49c-.45.6-.73.97-1.01,1.34.08.09.16.17.24.26.61-.4,1.23-.8,1.85-1.21.23.28.47.57.76.92-.41-.06-.71-.1-1-.14-.05.1-.09.2-.14.31.62.47,1.21,1.01,1.88,1.4,1.05.61,2.16,1.13,3.24,1.68,2.28-1.48.91,1.72,2.09,1.64.01,0,.04.14.08.3-1.13.16-.73.7-.27,1.28.29-.19.58-.37.9-.58.49.9,1.64,1.45,1.09,2.75-.06.13.53.56.85.82.24.19.53.33.8.49.77.47,1.55.93,2.33,1.41-.16,1.73-1.58,1.24-2.71,1.37.39.42.92.99,1.13.89.82-.39,1.53-.99,2.22-1.47.33,1.3-.92,1.57-2.23,2.13,1.99,1.78,3.75,3.35,5.52,4.93.52-.74,1.12-1.61,1.9-2.72Zm3.64-110.74c-.84.2-1.66.34-2.45.61-.56.19-1.06.54-1.58.83-2.75,1.48-5.54,2.89-8.23,4.48-1.9,1.13-3.48,2.77-5.62,3.54-.28.1-.56.38-.71.64-.87,1.57-1.76,3.13-2.52,4.75-.31.66-.57,1.49-.44,2.17.27,1.4.77,2.76,1.27,4.1.56,1.5,1.87,2.53,2.98,3.49,2.52,2.18,5.33,4.01,8.09,5.9,1.06.72,2.38.88,3.21,2.17.89,1.37,2.77,1.83,3.8,3.23.91,1.22,2.04,2.28,2.92,3.52.95,1.34,1.73,2.81,2.58,4.21-.17.18-.67.6-.61.69.35.57.82,1.08,1.35,1.72.41-.62.88-1.02.85-1.38-.02-.32-.61-.59-1.01-.94.35-.11.67-.2,1.03-.31.15.36.28.67.41.97.1,0,.2,0,.3,0,.07-.48.13-.95.21-1.49-.39.14-.62.23-1.04.38.15-.37.17-.61.3-.7,1.45-1.08,2.69-2.33,3.33-4.08.12-.33.66-.68.6-.88-.47-1.42-.14-3.19-1.77-4.12-.16-.09-.22-.44-.25-.68-.18-1.59-.55-3.05-1.91-4.11-.94-.74-1.76-1.63-2.67-2.41-2.77-2.37-5.55-4.73-8.36-7.05-.42-.34-1.03-.45-1.6-.69-.05.58-.08.94-.12,1.3.08-2.73-3.06-3.02-3.76-4.92,1.36-2.6,4.14-2.81,6.3-3.96,1.02-.54,1.79-1.13,2.34-2.03.49-.8.89-1.42,2-1.53,2.65-.27,4.33-2.07,5.85-4.06.19-.25.66-.3,1-.45.65-.38,1.2-1.02,1.71-1.7,1.02-1.38,2.24-2.68,1.87-4.64-.04-.23.2-.5.26-.76.18-.8.37-1.61.47-2.42.01-.09-.48-.35-.74-.36-.59-.02-1.19.07-1.69.11-.53.5-1.02,1.07-1.61,1.51-2.04,1.52-4.13,2.98-6.17,4.51-.19.14-.14.61-.18.85Z"/><path class="cls-1" d="m128.45,213.27c-.35.38-.55.59-.83.89-.24-.64-.44-1.18-.57-1.53,1.31.34,2.57.66,3.98,1.02,1.52-.84,3.63-.63,4.62.55q-.71.64-1.76-.48v2.64c-.56-.34-1.4-.91-2.29-1.37-.38-.2-.86-.21-1.31-.25-.83-.08-1.73-.03-1.83-1.47Z"/><path class="cls-1" d="m312.32,369.85c-.23.59-.46,1.18-.69,1.77-1.16-.37-1.26-.27-1.14.8.03.25-.22.54-.35.81-.22-.1-.5-.15-.65-.32-.37-.41-.84-.83-.96-1.32-.11-.46.06-1.38.32-1.47,1.04-.37,2.17-.49,3.26-.71.07.15.13.3.2.45Z"/><path class="cls-1" d="m125.25,212.46c-.58.62-1.03,1.1-1.55,1.65-.61-.39-1.27-.82-2.21-1.42.56-.29,1.1-.79,1.39-.68.78.32,1.88-.72,2.37.45Z"/><path class="cls-1" d="m92.98,397c-.05-.15-.18-.53-.39-1.16.52.42.87.71,1.37,1.11.3-.43.61-.88.88-1.26.27.13.75.25,1.1.55.24.2.29.63.43.96-.46.13-.92.38-1.36.34-.6-.04-1.18-.3-2.03-.54Z"/><path class="cls-1" d="m106.07,402.19c.17.07.47.25.5.21.28-.35.52-.74.94-1.38-.06,1.16-.02,2.03-.17,2.87-.11.64-.51.55-.97.17-.36-.3-.82-.47-1.43-.81,0,.02-.03-.28-.06-.5.42-.2.81-.38,1.19-.56,0,0-.02,0-.02,0Z"/><path class="cls-1" d="m149.78,218.37c-.53-.53-1.11-1.12-1.69-1.7.11-.17.21-.33.32-.5,1.11.32,2.23.64,3.36.96-.78.49-1.32.82-1.99,1.23Z"/><path class="cls-1" d="m183.22,225.24c.97.13,1.66.23,2.5.34-.26.77-.51,1.51-.78,2.34-.39-.17-1.16-.06-.71-1.04.05-.11-.18-.37-.29-.55-.21-.34-.44-.67-.72-1.09Z"/><path class="cls-1" d="m345.23,401.17c-.22-.07-.55-.19-.91-.31-.04.54-.08,1.04-.14,1.68-.5-.3-.84-.5-1.29-.77.35-.24.61-.42.9-.62-.28-.37-.51-.67-1.02-1.33,1.34.81,2.02.61,2.16-.88.34.57.66.9.7,1.26.04.3-.25.64-.41.97Z"/><path class="cls-1" d="m341.3,398.35c.08-.44.14-.76.19-1.07.7-.34,1.96.39,2.45,1.69-.99-.23-1.76-.41-2.64-.62Z"/><path class="cls-1" d="m153.77,424.47c-.03-.56-.07-1.15-.12-2.01.37,0,.9-.02,1.43.03.05,0,.17.46.09.62-.31.62-.09,1.78-1.4,1.36Z"/><path class="cls-1" d="m316.62,368.84c-1.56.53-1.91.18-1.98-2.23.22.55.34.85.46,1.15.46-.14.88-.26,1.38-.41.04.46.09.94.14,1.5Z"/><path class="cls-1" d="m71.44,380.63c.33-.06.66-.13,1.25-.24-.25,1.19-.47,2.25-.7,3.31-.2,0-.4,0-.6,0-.03-.39-.14-.78-.08-1.15.09-.55.29-1.09.44-1.63-.1-.09-.21-.18-.31-.27Z"/><path class="cls-1" d="m153.85,218.83c-.51-.08-1.01-.16-1.54-.25-.03-1.18.95-.99,1.53-1.12.82-.18,1.47.16,1.67,1.41-.46-.42-.73-.66-1.08-.98-.19.29-.36.57-.6.94Z"/><path class="cls-1" d="m173.3,425.53c.5.75.91,1.37,1.37,2.06-.32.21-.66.44-1.12.75-.07-.96-1.35-1.58-.25-2.81Z"/><path class="cls-1" d="m106.08,402.19c-.47-.54-1.08-1.03-1.36-1.65-.19-.43.08-1.06.32-1.62.84.97,1.02,2.09,1.02,3.27,0,0,.02,0,.02,0Z"/><path class="cls-1" d="m106.43,213.55c.13.18.27.36.3.41.41-.11.96-.39,1.07-.27.57.64.59,1.32-.19,1.88-.49-.62-.97-1.22-1.44-1.82.08-.07.17-.13.25-.2Z"/><path class="cls-1" d="m123.48,410.4c-.21-.9-.41-1.81-.68-2.96.1-.11.41-.43.91-.97v3.95c-.08,0-.15-.01-.23-.02Z"/><path class="cls-1" d="m140.85,216.09c-.33-.11-.65-.22-.72-.24-.24-.43-.38-.69-.68-1.21.05-.04.35-.46.64-.45.67.02.89.65.76,1.91Z"/><path class="cls-1" d="m17.42,321.82c-.6.06-1.1.12-1.65.18-.19-.34-.42-.74-.66-1.15.99-.25,2.2.27,2.31.97Z"/><path class="cls-1" d="m115.16,217.48c.23-.59.36-1.27.73-1.76.39-.51,1.02-.84,1.64-1.03-.75.98-1.49,1.96-2.24,2.94-.04-.05-.09-.11-.13-.16Z"/><path class="cls-1" d="m11.82,320.63c-.63-.06-1.12-.1-1.71-.16-.19-1.01.61-.71,1.15-.73.08-.25.16-.5.24-.75.14.01.28.03.41.04-.03.53-.06,1.07-.09,1.59Z"/><path class="cls-1" d="m4.78,302.81l1.5.8c0,.13-.02.27-.03.4-.46.1-1.02.42-1.34.26-.31-.17-.37-.81-.54-1.25.14-.07.27-.14.41-.21Z"/><path class="cls-1" d="m79.93,211.06c.21-.63.33-1,.48-1.43.26.03.53.06.93.1-.2.37-.36.67-.53,1h1.2c0,.11,0,.22,0,.33h-2.06Z"/><path class="cls-1" d="m313.13,370.78c.32-.39.63-.77.99-1.2-.07-.2-.19-.52-.42-1.15.69.51,1.12.81,1.63,1.19-.75.47-1.4.87-2.04,1.28-.05-.04-.1-.07-.15-.11Z"/><path class="cls-1" d="m63.52,212.15c.9.1,1.77.19,2.78.3-.05.07-.21.31-.37.54-.69-.55-1.99.78-2.41-.84Z"/><path class="cls-1" d="m26.93,346.86c.29.46-.4,2.11-1.14,2.17-.13.01-.39-.15-.38-.18.06-.21.13-.43.27-.59.39-.47.82-.92,1.26-1.4Z"/><path class="cls-1" d="m178.1,230.55c-.43-.02-.56,0-.66-.04-.38-.18-.76-.39-1.19-.61.31-.36.59-.68.97-1.12.29.59.54,1.09.88,1.77Z"/><path class="cls-1" d="m334.12,392.32c-.59-.33-1.08-.6-1.75-.97,0,.06.02-.19.04-.46,2.1.56,2.2.65,1.71,1.43Z"/><path class="cls-1" d="m119.15,406.14c-.41.55-.82,1.1-1.24,1.66-.18-.13-.35-.26-.53-.39.42-.53.84-1.07,1.27-1.6.17.11.33.22.5.34Z"/><path class="cls-1" d="m330.52,390.22c-.54-.5-1.08-1-1.63-1.5.1-.12.19-.24.29-.35.57.47,1.14.95,1.71,1.42-.12.15-.25.29-.37.44Z"/><path class="cls-1" d="m157.69,421.89c-.35.53-.7,1.05-1.11,1.67-.11-.17-.48-.58-.41-.67.35-.46.81-.84,1.23-1.25.09.09.19.17.28.26Z"/><path class="cls-1" d="m82.4,143.85c0,.07.09.38.05.68-.06.42-.13,1.12-.33,1.17-.53.14-1.14.03-1.71-.06-.53-.09-.69-.51-.4-.92.19-.27.55-.48.88-.59.45-.15.94-.18,1.52-.28Z"/><path class="cls-1" d="m57.25,162.44c-.21-.12-.53-.3-.85-.49.12-1.36.59-1.68,1.9-1.24.14.05.29.52.22.6-.35.38-.77.7-1.26,1.13Z"/><path class="cls-2" d="m278.33,26.14c-1.09-.7-1.92-1.23-2.78-1.78,1.19-1,1.79-.64,2.78,1.78Z"/><path class="cls-1" d="m42.4,53.91c.05.2.09.37.13.53.22-.12.46-.24.69-.36.07.07.14.14.21.21-.31.7-.62,1.4-1.04,2.37-.41-1.12-.89-1.91.01-2.76Z"/><path class="cls-1" d="m52.22,167.96c.25-.88.51-1.75.73-2.51.29.23.53.43.88.71-.41.57-.92,1.29-1.43,2-.06-.07-.12-.13-.18-.2Z"/><path class="cls-1" d="m50.82,54.07c-.33-.5-.65-1.01-.98-1.51.16-.13.32-.26.48-.39.05.37.1.74.15,1.1.17-.13.34-.26.52-.39.03-.23.06-.45.09-.7.09.04.21.06.21.09.06.53.11,1.06.15,1.59-.21.06-.42.13-.62.19Z"/><path class="cls-1" d="m164.83,180.25c.51.4,1.02.8,1.53,1.19-.1.13-.19.26-.29.38-.87.1-1.33-.38-1.58-1.15.11-.14.23-.28.34-.42Z"/><path class="cls-1" d="m79.82,357.47c-.78,1.11-1.39,1.98-1.9,2.72-1.77-1.58-3.53-3.16-5.52-4.93,1.32-.55,2.56-.82,2.23-2.13-.69.48-1.4,1.08-2.22,1.47-.21.1-.74-.47-1.13-.89,1.13-.13,2.55.36,2.71-1.37-.79-.47-1.56-.94-2.33-1.41-.27-.16-.55-.3-.8-.49-.32-.25-.9-.68-.85-.82.55-1.3-.61-1.85-1.09-2.75-.32.2-.61.39-.9.58-.47-.57-.86-1.11.27-1.28-.04-.16-.06-.3-.08-.3-1.19.07.19-3.13-2.09-1.64-1.08-.56-2.19-1.07-3.24-1.68-.67-.39-1.26-.93-1.88-1.4.05-.1.09-.2.14-.31.29.04.59.08,1,.14-.29-.35-.53-.64-.76-.92-.63.41-1.24.81-1.85,1.21-.08-.09-.16-.17-.24-.26.28-.37.56-.75,1.01-1.34h-1.49c-1.31-.5-2.56-.97-3.81-1.45-1.77-.69-3.32-1.77-4.25-3.39-.45-.78-.47-1.98-.3-2.92.38-2.11,1.5-3.75,3.58-4.66,1.95-.85,3.81-1.9,5.76-2.74,1-.43,2.17-.47,3.15-.93,1.89-.88,3.68-1.96,5.55-2.9.45-.23,1.01-.24,1.68-.39.82-1.56,2.46-2.46,4.19-3.31.64-.32,1.05-1.08,1.64-1.54,1.72-1.33,3.38-2.78,5.26-3.85,1.91-1.09,3.51-2.93,6.03-2.67.62,2.98-.26,5.68-2.26,8.1-.43.53-.82,1.1-1.19,1.67-1.49,2.35-3.75,3.75-6.07,5.12-1.37.82-2.66,1.77-3.97,2.7-2.06,1.47-3.97,3.26-6.22,4.35-1.03.5-1.58,1.54-2.69,1.78-.12.03-.19.31-.35.61,1.31-.67,2.12.12,2.89.74,1.59,1.27,3.11,2.65,4.66,3.97,1.09.93,2.16,1.87,3.27,2.77,1.24,1.01,2.54,1.93,3.74,2.98.88.77,1.72,1.62,2.44,2.53.72.91-.18,3.93-1.22,4.53-.52.3-.97.81-1.52.94-.72.16-1.51.04-2.5.04.07-.13-.15.1-.1.2.61,1.22.69,2.69,2.11,3.52.7.41,1.06,1.41,1.48,1.99Zm-15.42-24.26c-.94-.64-1.36.13-2.16.82.32.35.58.62.95,1.01.55-.83.88-1.33,1.21-1.83Z"/><path class="cls-1" d="m83.45,246.74c.04-.23,0-.7.18-.85,2.04-1.53,4.13-2.99,6.17-4.51.59-.44,1.08-1,1.61-1.51.51-.04,1.1-.13,1.69-.11.26,0,.76.27.74.36-.1.81-.29,1.62-.47,2.42-.06.26-.3.53-.26.76.37,1.96-.85,3.26-1.87,4.64-.5.68-1.06,1.32-1.71,1.7-.34.14-.8.19-1,.45-1.52,1.99-3.2,3.79-5.85,4.06-1.11.11-1.51.73-2,1.53-.55.9-1.33,1.49-2.34,2.03-2.16,1.15-4.94,1.35-6.3,3.96.7,1.9,3.84,2.19,3.76,4.92.03-.36.06-.72.12-1.3.57.24,1.18.35,1.6.69,2.81,2.32,5.59,4.69,8.36,7.05.91.78,1.73,1.67,2.67,2.41,1.35,1.07,1.73,2.53,1.91,4.11.03.24.09.59.25.68,1.63.93,1.3,2.71,1.77,4.12.07.2-.48.55-.6.88-.64,1.75-1.87,3-3.33,4.08-.13.09-.15.33-.3.7.42-.15.65-.24,1.04-.38-.08.54-.14,1.01-.21,1.49-.1,0-.2,0-.3,0-.13-.31-.26-.61-.41-.97-.36.11-.68.2-1.03.31.4.35.98.62,1.01.94.03.36-.44.76-.85,1.38-.53-.65-1-1.15-1.35-1.72-.05-.08.45-.5.61-.69-.85-1.4-1.63-2.87-2.58-4.21-.88-1.24-2.01-2.3-2.92-3.52-1.04-1.4-2.92-1.85-3.8-3.23-.84-1.3-2.15-1.45-3.21-2.17-2.76-1.88-5.58-3.72-8.09-5.9-1.11-.96-2.41-1.99-2.98-3.49-.5-1.34-1-2.7-1.27-4.1-.13-.67.13-1.51.44-2.17.77-1.62,1.65-3.19,2.52-4.75.15-.27.43-.54.71-.64,2.14-.77,3.72-2.42,5.62-3.54,2.68-1.59,5.48-2.99,8.23-4.48.52-.28,1.03-.64,1.58-.83.79-.27,1.61-.41,2.45-.61Zm-11.11,25.69c-.41.89-.63,1.35-.83,1.78.77.05,1.42.08,2.07.12.17-.19.34-.39.51-.58-.5-.38-1-.76-1.75-1.32Z"/><path class="cls-1" d="m269.42,111.67c-.05.03.2-.24.43-.23,1.22.08,1.79-.59,2.28-1.6.47-.97,1.08-1.01,1.82-.19,1.42,1.56,2.76,3.21,4.19,4.76.43.46,1.1.69,1.61,1.1,1.8,1.45,3.53,2.99,5.38,4.37,2.94,2.19,5.97,4.26,8.92,6.44,1.4,1.04,2.67,2.27,4.06,3.33.86.66,1.89,1.08,2.74,1.76.41.32.7.95.8,1.48.19,1.04.11,2.13.33,3.15.1.46.65.82.72,1.18-.04.4-.08.8-.13,1.2-.07.58-.15,1.16-.22,1.74-.52-.16-1.04-.32-1.56-.48,0-.13,0-.26,0-.39-2.04.97-4.09,1.93-6.11,2.93-1.39.69-2.82,1.34-4.11,2.2-1.56,1.04-2.97,2.31-4.48,3.44-1.71,1.29-3.39,2.64-5.21,3.76-1.71,1.05-3.53,1.96-5.41,2.65-.72.26-1.03.9-1.73,1.11-.73.22-1.37.85-2.09.91-.46.04-1.17-.5-1.44-.97-.25-.43-.29-1.35,0-1.63.84-.84.32-2.29,1.57-2.96.38-.2.23-1.24.53-1.78.52-.96,1.22-1.82,1.81-2.75.2-.32.31-.7.41-.95.52.19,1.03.51,1.55.52.45.01.91-.32,1.45-.53-.44-.63-.72-1.02-1-1.41.05-.12.11-.24.16-.36.9.84,1.7,1.33,2.94.64,1.44-.81,2.06-1.23,1.96-2.4.66-.1,1.66,0,1.89-.36.41-.64,1.07-.77,1.52-1.24,1.04-1.06,2.12-2.07,3.25-3.03.36-.31.96-.59,1.39-.51.92.17,1.25-.43,1.33-1.01.06-.4-.32-1.01-.68-1.28-3.11-2.27-6.3-4.42-9.36-6.75-1.12-.85-1.94-2.1-2.91-3.16-.14-.16-.32-.3-.52-.38-2.07-.87-3.6-2.32-4.84-4.17-.46-.69-1.19-1.18-1.75-1.81-.44-.49-.83-1.04-1.2-1.59-.56-.85-.96-1.66-.15-2.68.27-.34-.05-1.14-.13-2.05Z"/><path class="cls-1" d="m277.54,93.9c-1.45-1.69-1.47-1.67-3.25-.99-.28.11-.71-.15-1.44-.33,1.11-1.44,1.99-2.6,2.88-3.76.17-.22.47-.43.49-.67.17-2.43,2.18-3.08,3.83-4.15,1.56-1.01,3-2.23,4.53-3.3,2.24-1.56,4.53-3.06,6.78-4.61.41-.28.74-.69,1.06-.99-1.79-1.72-3.43-3.42-5.21-4.97-1.59-1.38-3.53-2.4-4.97-3.91-1.65-1.73-3.64-2.85-5.58-4.1-1.11-.71-2.33-1.26-3.36-2.08-2.1-1.67-2.23-4.4-.28-6.09.6-.52,1.05-1.2,1.62-1.88,1.13.32,2.36.61,3.54,1.03.36.13.56.67.9.93,1.15.87,2.33,1.7,3.49,2.55,3.83,2.79,7.75,5.47,11.07,8.92,1.21,1.26,2.75,2.19,4.15,3.28.32.25.68.46.95.76,1.53,1.64,3.1,3.24,4.52,4.97.37.45.48,1.32.35,1.92-.35,1.57-1,3.06-2.31,4.09-.37.29-1.08.3-1.6.22-1.59-.25-3.01.31-4.4.89-1.23.51-2.47,1.05-3.58,1.77-1.85,1.22-3.6,2.61-5.39,3.92-.87.64-1.75,1.26-2.62,1.91-2.04,1.53-4.08,3.08-6.17,4.66Z"/><path class="cls-1" d="m269.84,29.38c-.76-.22-1.32-.37-2.2-.62.75-.47,1.24-.77,1.72-1.07.14.5.29,1.01.48,1.69Z"/><path class="cls-1" d="m64.4,333.22c-.33.51-.66,1-1.21,1.83-.37-.39-.62-.67-.95-1.01.8-.69,1.22-1.46,2.16-.82Z"/><path class="cls-1" d="m72.34,272.43c.74.56,1.25.94,1.75,1.32-.17.19-.34.39-.51.58-.65-.04-1.3-.08-2.07-.12.2-.43.42-.89.83-1.78Z"/></g></svg>