<?xml version="1.0" encoding="UTF-8"?><svg id="Layer_2" xmlns="http://www.w3.org/2000/svg" viewBox="0 0 518.28 548.59"><defs><style>.cls-1{fill:#fff;stroke-width:0px;}</style></defs><g id="Layer_1-2"><path class="cls-1" d="m282.31,520.3c.06-1.55.07-3.1.25-4.64.01-.12,1.22-.09,1.87-.13.88-1.15,1.85-2.42,2.51-3.29.47-1.11.77-1.81,1.07-2.5.72-1.65,1.35-3.36.61-5.12-.99-2.36-.28-4.06,1.79-5.33-1.9-3.09-.36-5.97.42-8.86.62-2.29,1.28-4.57,2.07-6.8.75-2.09,1.75-4.1,2.56-6.17.26-.67.2-1.46.41-2.16.19-.65.53-1.25,1.01-2.34.06-.65.19-1.87.31-3.1.06.01.12.03.18.04,0-1.46-.37-3.05.09-4.35.63-1.76.38-4.01,2.37-5.17.08-.05.16-.23.14-.33-.81-3.29,2.21-5.54,2.34-8.55.08-2.06-.11-4.13-.1-6.2,0-.73.07-2.01.38-2.1,1.77-.52,1.55-1.57.95-2.79,1.19-.33,2.68-.29,1.36-2.17-.25-.35.5-1.4.89-2.39,0,0-.28-.29-.57-.59.24-.37.65-.72.7-1.13.15-1.03.05-2.1.23-3.13.3-1.76.49-3.67,3.6-3.64-2.53-1.54-1.52-3.32-1.28-4.81,1-6.3,2.04-12.6,3.33-18.85,1.12-5.43,2.61-10.79,3.92-16.19.2-.84.33-1.69.48-2.54.12-.66.05-1.43.38-1.97,1.65-2.75,1.37-5.93,2.15-8.87.61-2.32,1.25-4.51.53-6.96-.26-.89.18-2.06.52-3.03,1.19-3.4,2.51-6.75,3.71-10.15.3-.85.39-1.8.5-2.71.48-3.82,1.53-7.46,2.96-11.06.71-1.8.8-4.01.61-5.97-.28-2.92-.15-5.65,1.33-8.24.53-.94.04-2.72,1.85-2.28-.25-.74-.63-1.41-.69-2.11-.13-1.48-.14-2.97-.11-4.46.01-.59.1-1.29.42-1.74,2.3-3.22,2.44-7.01,3-10.71.36-2.39,1.12-4.72,1.53-7.1.18-1.03-.14-2.15-.09-3.21.07-1.63.02-3.32.47-4.85,1.35-4.57,2.12-9.18,2.24-13.97.09-3.37.21-6.8,1.73-10.08.97-2.08,1.5-4.68,1.25-6.94-.36-3.27.83-6.18,1.32-9.21.81-5.01,1.7-9.99,1.97-15.08.13-2.37.81-4.7,1.12-7.07.13-1.02-.07-2.07-.05-3.11.11-5.36.31-10.72.34-16.08.02-3.26-.27-6.52-.32-9.79-.06-3.68.19-7.39-.07-11.05-.35-4.9-.92-9.79-1.68-14.65-.43-2.76-1.47-5.42-2.18-8.13-.17-.64-.13-1.34-.18-2.01-.09-1.24.46-2.65-.96-3.53-.08-.05-.14-.23-.12-.33.56-3.82-2.83-6.39-3.13-9.95-.07-.82-.36-1.63-.61-2.43-.86-2.81-1.81-5.59-2.6-8.41-.54-1.93-.85-3.92-1.3-5.87-.32-1.39-.61-2.81-1.1-4.14-1.47-4.05-3.02-8.07-4.58-12.09-.31-.8-.83-1.51-1.2-2.28-3.13-6.58-6.3-13.15-9.34-19.78-1.14-2.48-2.06-5.08-2.88-7.69-.25-.8.13-1.81.26-2.71.22-1.52.62-3.04.62-4.56,0-.5-.97-1.01-1.53-1.55-.33-.79-.68-1.72-1.09-2.62-1.21-2.66-1.5-5.45-1.33-8.33.04-.73.24-1.79-.15-2.16-1.42-1.35-.44-2.71-.37-4.09.06-1.25-.2-2.51-.16-3.76.04-1.18.28-2.35.47-3.85.65.51.93.73,1.61,1.25-.39-.85-.47-1.45-.75-1.56-2.83-1.17-1.64-4.01-2.33-6-.36-1.04.91-2.65,1.42-4.02.18-.5.39-1.04.37-1.55-.04-1.14-.53-2.36,1-2.99.17-.07.18-.54.27-.83.88-2.79,1.67-5.61,2.7-8.35.34-.91,1.36-1.54,1.94-2.39.73-1.07,1.26-2.28,2-3.34,1.86-2.66,3.98-5.07,6.68-6.96,3.28-2.29,6.36-4.87,9.75-6.98,3.94-2.45,8.2-4.14,12.78-5.29,6.6-1.65,13.23-2.54,20.01-2.49.06,0,.13.02.18,0,4.36-2.15,7.53.68,10.69,2.81,2.26,1.53,4.85,1.57,7.26,2.33,3.35,1.05,6.6,2.16,9.59,4.08,1.98,1.27,4.21,2.17,6.29,3.29,1.77.96,3.49,2.01,5.25,3,2.14,1.2,4.36,2.27,6.42,3.6,2.18,1.4,4.2,3.06,6.31,4.58,1.15.82,2.26,1.73,3.52,2.35,1.43.7,2.38,1.71,3.32,2.98,1.45,1.95,3.33,3.57,5.01,5.35,2.58,2.73,5.13,5.49,7.74,8.2,3.24,3.37,6.54,6.68,9.79,10.04,1.12,1.15,2.31,2.28,3.2,3.6,3.07,4.57,6.03,9.21,8.99,13.86.59.93,1.05,1.95,1.43,2.98.18.5.03,1.12.03,1.82,2.93,1.67,4.86,4.57,6.53,7.66,3.53,6.53,7.08,13.05,10.41,19.68,1.21,2.41,1.71,5.17,2.69,7.71.37.97,1.37,1.69,1.77,2.66,1.93,4.68,3.74,9.41,5.61,14.11,1.36,3.41,2.97,6.73,4.07,10.22,1.88,5.97,3.51,12.03,5.12,18.09.39,1.46.31,3.05.48,4.57.23,2.08.37,4.18.79,6.21.34,1.65.9,3.3,1.6,4.84,1.91,4.2,2.73,8.6,2.72,13.18,0,.3.02.68.19.89,3.08,3.75,2.5,8.17,2.4,12.52-.02.88.01,1.83.31,2.65,1.72,4.72,2.62,9.56,2.6,14.59,0,.74.33,1.48.54,2.21.08.29.32.55.35.84.4,3.85,1.17,7.71,1.05,11.54-.17,5.2,1.56,10.17,1.32,15.35-.12,2.68,0,5.39.21,8.07.12,1.55.41,3.16.99,4.59,1.73,4.25.95,8.6.85,12.94-.03,1.2-.08,2.43.1,3.6,1.04,6.69,1.43,13.41,1.62,20.18.14,5.1-.37,10.23.83,15.35.7,3.01.31,6.28.3,9.44-.03,10.29-.09,20.57-.19,30.86-.02,2.45-.44,4.92-.3,7.35.16,2.88.78,5.72,1.1,8.6.13,1.18,0,2.4-.03,3.6-.12,4.44-.27,8.87-.37,13.31-.1,4.29.04,8.59-.26,12.87-.27,3.94-1,7.85-1.5,11.78-.09.73-.2,1.52-.04,2.22.83,3.61-.4,7.05-.79,10.56-.35,3.09-.64,6.19-1.15,9.26-1,5.99-.85,12.16-2.98,17.97-.29.8-.54,2.02-.15,2.61,1.6,2.42-.26,4.8.15,7.16.06.33-.08.75-.26,1.05-1.97,3.24-3,6.63-2.36,10.52.81,4.99-1,9.49-2.81,14.04-1.39,3.49-2.24,7.21-3.19,10.87-.76,2.93-1.12,5.98-2.04,8.84-.46,1.43-1.78,2.59-2.74,3.85-1.27,1.69-2.19,3.44-2.31,5.69-.05.93-1.21,2.15-2.17,2.57-.88.39-2.18,0-3.25-.26-1.25-.31-2.42-.98-3.68-1.28-1.11-.27-2.3-.23-3.45-.38-.25-.03-.63-.21-.7-.41-1.02-2.89-3.46-5.13-3.46-8.55,0-1.66-1.1-3.34-1.8-4.97-.59-1.35-1.39-2.61-1.97-3.96-.4-.93-.59-1.95-.76-2.55-.71-.86-1.28-1.43-1.71-2.09-2.66-4.1-5.5-8.1-7.86-12.36-1.59-2.87-2.07-6.39-3.82-9.12-1.28-2-1.7-3.98-2.23-6.11-.23-.93-1.2-1.74-1.99-2.42-.23-.19-1.33.11-1.5.45-2.28,4.59-4.72,9.09-6.15,14.1-.96,3.37-2.9,6.46-4.11,9.78-1.04,2.86-1.66,5.88-2.51,8.81-.85,2.92-1.75,5.83-2.64,8.74-1.36,4.42-2.73,8.85-4.09,13.27-.09.3-.28.61-.24.89.47,3.69-1.45,6.51-3.45,9.45-1.34-.49-2.4-.36-3.55.95-.63.72-2.44.55-3.71.53-1.42-.03-3.44.16-4.14-.65-1.56-1.84-3.14-3.83-3.45-6.53-.33-2.79-1.1-5.54-1.71-8.29-.4-1.84-.68-3.73-1.31-5.49-.87-2.47-2.04-4.83-3.03-7.26-.14-.34,0-.81.05-1.22.13-1.03-.06-1.77-1.01-2.53-.68-.54-1.08-1.79-1.1-2.73-.03-1.85-.9-2.74-2.42-3.63-.86-.5-1.39-1.89-1.67-2.98-.38-1.47-.33-3.04-.54-4.56-.16-1.17-.44-2.32-.67-3.47-.06-.29-.24-.64-.14-.86.81-1.79-.97-2.23-1.68-3.2-.45-.62-1.13-1.08-1.71-1.61.14-.18.27-.36.41-.54.52.24,1.04.48,1.97.9-.41-1.81-.76-3.35-1.12-4.96-1.35-.46-3.12.64-3.25,2.47-.28,3.95-2,7.4-3.35,11-1.15,3.08-2.2,6.21-3.27,9.32-1.48,4.28-3,8.55-4.4,12.85-1.27,3.91-2.34,7.87-3.6,11.78-.84,2.63-1.88,5.19-2.75,7.8-.39,1.18-.84,2.44-.81,3.65.06,2.05-1.66,2.82-2.63,4.03-1.13,1.4-5.96,1.33-7.52.26-1.97-1.36-3.01-3.03-3.23-5.6-.21-2.55-1.18-5.1-2.17-7.5-1.58-3.84-3.59-7.51-5.14-11.36-1.24-3.08-2.07-6.33-3.09-9.5-2.41-7.56-4.77-15.13-7.27-22.66-.81-2.43-1.97-4.75-2.97-7.12-.21,0-.42,0-.63.01-.4.68-.71,1.44-1.22,2.02-1.07,1.2-2.07,2.32-2.88,3.83-1.36,2.54-3.65,4.56-5.48,6.86-1.92,2.4-3.65,4.95-5.66,7.27-1.4,1.62-3.12,2.96-4.68,4.44-.56.53-1.11,1.07-1.58,1.68-1.08,1.4-2.06,2.88-3.16,4.26-2.92,3.67-5.81,7.35-8.83,10.93-1.89,2.24-4,4.3-5.99,6.45-.45.49-.9,1-1.26,1.56-1.69,2.56-3.46,5.07-4.99,7.72-1.91,3.31-4.83,5.89-6.2,9.65-.92,2.53-3.19,4.48-5.88,5.46-.62.23-1.51-.17-2.23-.41-.45-.14-.87-.47-1.21-.8-1.04-1-2.09-2-3-3.11-.22-.27.12-.99.24-1.75-.7.36-1.19.61-2.07,1.07-.24-5.21,1.84-9.59,3.12-14.13.47.09,1.17.4,1.37.2.53-.5.84-1.23,1.23-1.87-.25-.17-.5-.34-.75-.51l-1.83,2.22Zm149.73-23.96c-1.47-.88-.53-1.9-.14-2.74.55-1.17,1.81-2.2,1.88-3.35.09-1.45.32-2.53,1.39-3.53.35-.33.22-1.15.36-1.74.5-2.11.65-4.43,1.69-6.23.53-.93.63-1.63.71-2.53.04-.41.3-.79.47-1.19.79-1.89,1.83-3.72,2.33-5.69,1.17-4.63,2.97-8.87,5.96-12.65,1.99-2.51,3.61-5.29,3.91-8.88,2.86,0,5.74,0,8.63,0,.24,0,.63.03.69.16.92,1.98,4.21,2.58,3.3,5.66-.11.37.24.95.51,1.34,2.35,3.34,3.87,7,5.11,10.91,1.21,3.8,3.14,7.41,5.08,10.92,1.92,3.48,4.64,6.5,6.25,10.2,2.04,4.69,4.14,9.35,6.28,13.99.19.41.85.74,1.33.81.3.04.87-.42.98-.77.99-3.13,1.95-6.27,2.8-9.43.34-1.27.32-2.64.64-3.93.37-1.47,1.01-2.87,1.4-4.34.53-2.01.88-4.06,1.4-6.07.58-2.24,1.55-4.42,1.86-6.69.51-3.77.59-7.6.9-11.39.18-2.29.34-4.59.7-6.85.53-3.29,1.2-6.55,1.87-9.81.24-1.16-.19-2.65,1.46-3.25.24-.09.37-.72.4-1.12.19-2.88.28-5.78.54-8.65.16-1.75.48-3.5.89-5.21.31-1.29,1.3-2.52,1.27-3.76-.07-3.54-.51-7.08-.78-10.61-.05-.61-.06-1.23.05-1.83.42-2.27,1.12-4.52,1.31-6.81.47-5.7.72-11.42,1.03-17.14.03-.55-.1-1.1-.18-1.65-.25-1.7-.73-3.4-.71-5.09.03-2.57.6-5.14.61-7.7.02-4.27-.22-8.53-.35-12.8-.11-3.65-.29-7.3-.31-10.95-.02-2.89.29-5.78.22-8.67-.11-4.8-.45-9.59-.61-14.39-.1-2.93,0-5.87-.06-8.81-.03-1.66-.11-3.33-.36-4.97-.13-.81-.98-1.54-1.01-2.33-.13-3.01-.05-6.03-.08-9.04-.06-5.63-.16-11.25-.23-16.88-.01-1.06.07-2.12-.04-3.17-.51-5.01-1.09-10-1.59-15.01-.17-1.71-.05-3.45-.28-5.15-.64-4.67-1.59-9.32-1.08-14.06.14-1.31.57-2.59.97-4.35-.57.6-.81.86-1.05,1.12-.16-.02-.32-.04-.49-.06,0-1.51.17-3.05-.03-4.53-.51-3.73-1.3-7.43-1.74-11.17-.28-2.42-.04-4.9-.2-7.35-.1-1.46.59-3.23-1.03-4.09.15-.56.46-1.08.39-1.54-.4-2.71-.83-5.41-1.38-8.09-.13-.65-1.01-1.17-1.11-1.81-.37-2.48-.5-5-.84-7.49-.34-2.48-.75-4.96-1.25-7.41-.47-2.27-1.13-4.51-1.67-6.77-.16-.66-.15-1.37-.21-2.05-.2.03-.4.05-.6.08.06.74.12,1.49.19,2.23-.36-1.05-.34-2.12-.37-3.18-.03-1.08.07-2.21-.19-3.24-.81-3.25-1.67-6.49-2.69-9.68-1.62-5.1-2.11-10.48-4.26-15.48-2.26-5.26-3.93-10.77-6.02-16.11-1.06-2.7-2.75-5.14-3.07-8.14-.19-1.8-.27-3.72-2.14-4.84-.18-.11-.06-.66-.13-1-.1-.51-.16-1.05-.38-1.51-1.27-2.66-2.66-5.26-3.85-7.95-1.85-4.18-3.17-8.65-5.45-12.56-4.28-7.35-8.94-14.5-13.76-21.52-2.28-3.32-5.33-6.11-7.95-9.21-1.95-2.31-3.67-4.82-5.69-7.06-5.33-5.91-10.72-11.76-16.17-17.55-2.56-2.72-6.3-4.15-8.37-7.45-.36-.57-.74-1.16-1.24-1.58-.81-.69-1.69-1.68-2.61-1.77-2.3-.23-4.23-1-5.6-2.8-2.21-2.9-5.43-4.33-8.62-5.43-4.04-1.38-7.61-3.27-10.82-6.06-1.31-1.14-2.9-1.91-4.94-1.91-2.2,0-4.49-.58-6.57-1.35-2.26-.84-4.38-1.85-6.9-1.58-2.26.25-4.56.12-6.82.39-3.57.42-7.11.87-10.59,2.1-3.81,1.35-7.25,3.24-10.42,5.63-2.58,1.95-5.3,3.88-7.38,6.3-2.12,2.47-3.67,5.47-5.21,8.37-.5.94-.7,2.67-.17,3.39,1.18,1.59.79,3.04.61,4.69-.35,3.29-.83,6.61-.7,9.9.17,4.46,1.02,8.89,1.27,13.36.26,4.6.7,9.13,2.14,13.52,1.36,4.14,2.69,8.3,4.12,12.42,1.69,4.87,3.46,9.71,5.22,14.56,2.73,7.5,5.46,15,8.27,22.47.97,2.56,1.25,5.5,3.65,7.38.3.23.38.75.54,1.14,1.64,3.75,3.35,7.47,4.89,11.26,1.95,4.8,3.71,9.68,4.31,14.88.41,3.52.44,7.13,1.21,10.56,1.47,6.54,1.52,13.18,1.68,19.79.13,5.59-.35,11.2-.69,16.79-.23,3.68-.63,7.34-1.08,11-.68,5.46-1.46,10.91-2.25,16.35-.5,3.45-1.08,6.88-1.67,10.31-.39,2.27-.94,4.52-1.28,6.81-.68,4.54-1.19,9.11-1.92,13.65-.42,2.58-.93,5.04-.76,7.76.25,3.92-1.97,7.61-1.78,11.68.08,1.63-.87,3.28-1.1,4.95-.58,4.31-.83,8.68-1.59,12.95-.65,3.71.09,7.5-1.64,11.21-1.49,3.18-1.71,6.94-2.6,10.42-.46,1.81-1.16,3.55-1.76,5.32-.08.23-.21.44-.24.67-.88,5.62-1.7,11.24-2.63,16.85-.67,4.05-1.4,8.1-2.25,12.11-.45,2.14-1.31,4.19-1.81,6.32-.84,3.56-1.49,7.17-2.3,10.74-.52,2.26-1.55,4.45-1.73,6.72-.41,5.27-2.47,10.03-3.98,14.97-.3.99-.71,1.95-.91,2.96-.51,2.63-.81,5.31-1.41,7.91-.69,3.03-1.74,5.98-2.4,9.01-1.26,5.71-2.29,11.48-3.56,17.19-.6,2.67-1.97,5.23-2.22,7.9-.55,6.01-2.07,11.73-4.05,17.39-1.48,4.24-2.79,8.55-4.05,12.86-.54,1.84-.73,3.78-1.13,5.93-.72-.81-1.16-1.3-1.59-1.79-.15.09-.31.17-.46.26.15.67.07,1.72.48,1.95,1.6.94.83,2.25.55,3.29-.82,3.09-1.76,6.16-2.84,9.18-.75,2.1-1.98,4.03-2.67,6.15-1.02,3.12-1.75,6.34-2.61,9.52-.19.7-.43,1.38-.68,2.19-.23.01-.66.04-1.08.07.27.63.48,1.12.77,1.81,1.73-1.05,2.42-2.66,3.26-4.17.4-.73.83-1.47,1.38-2.08,1.6-1.77,3.32-3.42,4.89-5.21,2.18-2.49,4.23-5.07,6.38-7.58,2.4-2.79,4.87-5.52,7.25-8.33,1.22-1.45,2.32-2.99,3.43-4.53,3-4.19,5.87-8.49,9.01-12.57,1.45-1.88,3.38-3.39,5.13-5.04.77-.73,1.63-1.36,2.57-2.13-.81-.8.14-1.55.88-2.37.4-.45.75-.94,1.15-1.39,1.41-1.59,2.8-3.21,4.28-4.74.21-.21.97-.14,1.31.07,1.87,1.15,4.36,1.25,5.63,3.45.54.94,1.45,1.66,2.09,2.56.38.53.86,1.26.76,1.8-.38,2.19.87,3.53,2.19,4.92.71.75,1.58,1.51,1.91,2.43,1.55,4.35,2.97,8.74,4.34,13.15.32,1.03.11,2.22.39,3.26.41,1.5,1.14,2.92,1.6,4.41,1.03,3.31,1.86,6.69,2.99,9.97.77,2.25,2.02,4.33,2.85,6.56.71,1.92,1.12,3.94,1.69,5.91.06.21.27.39.43.57.4.44.81.88,1.58,1.7.38-.18,1.13-.54,1.93-.92-.75-.7-1.1-1.03-1.45-1.37.46-.42.92-.85,1.55-1.43-.88-1.88-1.23-3.91.36-5.86.26-.32.04-.98.17-1.45.52-1.95.5-4.49,1.75-5.68,2.08-1.98,1.95-4.61,3.18-6.76.57-.98,1.11-2.03,1.41-3.11.72-2.57,1.14-5.22,1.95-7.75,1.02-3.19,2.48-6.24,3.42-9.45,1.04-3.55,1.7-7.2,2.55-10.87.42-.06.93-.13,1.21-.16,0-2.03-.02-3.93.02-5.82,0-.32.13-.77.36-.95,2.02-1.5,4.07-3.22,6.68-3.11,1.36.06,2.73-1.24,4.25.38,2.94,3.13,4.72,6.58,4.7,10.91,0,.34.19.7.34,1.03,1.3,2.85,2.67,5.66,3.89,8.54.64,1.52.98,3.17,1.55,4.72.75,2.03,1.71,3.99,2.36,6.06,1.95,6.24,3.79,12.53,5.69,18.78.8,2.62,1.63,5.23,2.53,7.82.68,1.96,1.5,3.87,2.25,5.8.06-.05.13-.1.19-.15.03.59.06,1.18.09,1.77.26,0,.53,0,.79,0,.18-2.07.34-4.14.55-6.21.12-1.19.23-2.39.53-3.55.46-1.79,1.63-3.59,1.5-5.31-.17-2.13,1.01-3.26,2.05-4.83Zm-148.96,30.41c.16-1.46.32-2.92.51-4.64-2.01,1.24-2.32,3.19-.51,4.64Zm36.57-153.05c.23.28.46.57.69.85.6-.52,1.2-1.04,1.8-1.56-.27-.27-.74-.81-.79-.78-.6.45-1.15.98-1.7,1.49Zm75.66,101.17c.27.04.54.08.81.12l.6-3.88c-.3-.04-.6-.09-.9-.13-.17,1.3-.34,2.6-.51,3.89Z"/><path class="cls-1" d="m234.9,546.55c-.35-.95-.39-1.82-.84-2.16-2.2-1.68-1.92-4.56-3.35-6.61-.83-1.19-1.38-2.58-2.05-3.89-.06-.11-.16-.21-.18-.32-.36-2.15-.7-4.31-1.05-6.46-.03-.18.04-.46-.06-.54-1.64-1.34-1.13-3.46-1.85-5.16-1.14-2.71-1.8-5.63-2.68-8.45-.76-2.45-1.62-4.87-2.33-7.34-1.08-3.76-2.09-7.54-3.07-11.33-.06-.22.47-.59.75-.92-.5-.19-1-.38-1.32-.51-.32-1.6-.62-3.1-.94-4.74-1.36.34-1.64-.35-1.7-1.63-.09-1.82-.53-3.63-.78-5.44-.18-1.3-.26-2.62-.46-3.92-.36-2.38-2.06-2.63-3.91-2.45-.23.54-.32,1.16-.67,1.5-2.48,2.47-5.07,4.83-7.52,7.32-1.64,1.68-3.08,3.56-4.67,5.28-3.16,3.42-6.39,6.79-9.56,10.2-1.34,1.44-2.68,2.9-3.89,4.45-.42.53-.25,1.53-.68,2.04-3.28,3.83-7.01,7.33-9.88,11.44-3.93,5.61-8.94,10.44-11.9,16.77-1.57,3.35-4.45,4.46-7.83,3.43-1.99-.61-3.89-1.5-5.86-2.2-2.02-.72-2.72-2.33-2.99-4.24-.42-2.98-.78-5.96-1.15-8.94-.2-1.57-.23-3.18-.56-4.72-.38-1.77-.94-3.51-1.54-5.23-1.34-3.85-1.41-7.76-.91-11.76.11-.83-.48-1.75-.71-2.63-.29-1.09-.75-2.18-.75-3.27,0-2.58.23-5.16.31-7.74,0-.3-.42-.6-.46-.93-.13-.91-.54-2.08-.14-2.7.67-1.06.29-1.63-.07-2.61-.91-2.52-1.73-5.11-.18-7.81.54-.93.43-2.23.65-3.58.62-.06,1.33-.12,2.3-.21-.45-.29-.75-.48-1.14-.73.4-.18.74-.34,1.24-.57-.3-.17-.47-.34-.58-.31-1.5.41-2.73.68-4.01,2.2-2.4,2.86-5.64,5.07-8.75,7.25-3.86,2.71-7.49,5.64-10.56,9.23-5.65,6.61-11.34,13.19-16.97,19.82-1.02,1.2-1.83,2.59-2.78,3.85-2.03,2.68-4.14,5.3-6.12,8.03-1.54,2.12-2.79,4.46-4.4,6.53-1.25,1.61-5.56,1.96-7.33.92-1.47-.86-3.13-1.53-2.89-3.73.03-.25-.22-.6-.43-.8-2.11-2-2.04-4.55-2.05-7.18-.01-2.18-.57-4.35-.66-6.54-.12-2.95-.03-5.91-.03-9.05-.1-.01-.53-.07-.95-.13,0-.22-.05-.38,0-.44,1.33-1.47.41-3.2.51-4.79.07-1.14-.29-2.31-.29-3.46,0-2.57.17-5.15.13-7.72,0-.57-.74-1.11-.86-1.71-.52-2.76-.86-5.48.1-8.3.53-1.56.34-3.37.5-5.07.15-1.67-.55-3.34,1.91-4.49,1.68-.78-.76-.97-.84-1.22-2.66,1.27-5.24,2.47-7.79,3.72-3,1.48-6.22,2.68-8.9,4.62-3.45,2.5-6.45,5.63-9.66,8.47-1.15,1.02-2.35,1.99-3.54,2.96-4.63,3.77-9.24,7.56-13.89,11.3-3.93,3.16-7.91,6.25-11.85,9.39-.72.58-1.38,1.24-2.02,1.91-1.5,1.57-3.23,2.54-5.48,2.7-1.05.07-2.11.59-3.08,1.08-1.78.89-3.03.45-3.94-1.3-.56-1.09-1.35-2.06-2.13-3.02-1.13-1.4-1.06-2.86-.56-4.49,1.33-4.35,3.01-8.51,5.83-12.14.07-.09.17-.25.14-.33-1.03-2.9,1.32-4.68,2.18-6.97.49-1.3.24-2.87.43-4.3.17-1.26.56-2.5.71-3.77.14-1.21.33-2.25,1.66-2.8.33-.14.52-1.09.44-1.61-.24-1.58-.13-2.94.99-4.26.54-.64.72-1.71.76-2.61.09-1.96-.13-3.93,0-5.88.11-1.58.39-3.18.87-4.69.59-1.82,1.57-3.51,2.19-5.32.28-.82.3-1.84.11-2.7-.58-2.63.33-4.86,1.58-7.05.12-.21.42-.44.38-.6-.78-3.46,1.21-6.29,2.07-9.38.25-.89.22-1.86.51-2.72.24-.71.76-1.32,1.08-1.85,1.43-4.62.61-9.56,2.73-14.09.82-1.76.87-3.88,1.29-5.83.65-3,1.25-6.01,1.99-8.98.8-3.21,1.7-6.4,2.59-9.59.85-3.04,1.8-6.04,2.61-9.09.6-2.25.97-4.55,1.55-6.81.84-3.31,1.81-6.59,2.65-9.9.33-1.3.36-2.68.74-3.97.58-1.99,1.43-3.89,1.99-5.88.36-1.27.3-2.65.59-3.94.6-2.65,1.25-5.3,2.01-7.9.28-.96.92-1.81,1.41-2.7,1.36-2.48,1.49-5.17,1.38-7.91-.06-1.55-.53-3.39,2.08-3.6-.64-1.35,1.25-3.04-1.1-3.96,1.32-1.22,2.78-2.24,2.29-4.3.4-.16.83-.32,1.25-.48-.05-.21-.05-.39-.1-.41-.88-.35-1.33-.87-1.1-1.92.47-2.22.8-4.48,1.28-6.7.51-2.34.75-4.85,1.8-6.94,2.3-4.58,1.29-9.51,2.08-14.23.32-1.91,1.15-3.74,1.52-5.65.59-3.07.8-6.22,1.54-9.24.58-2.38.61-5.1,2.94-6.8.23-.17.13-.78.22-1.18.22-.99.47-1.97.71-2.96.07-.29.19-.58.19-.87.02-2.93-.09-5.87.06-8.79.07-1.35.59-2.69.98-4.02.49-1.68,1.15-3.32,1.56-5.03.64-2.68,1.17-5.39,1.65-8.1.4-2.29.5-4.64,1.04-6.9.9-3.72,2.5-7.33,2.98-11.08.67-5.27,3.13-9.88,4.55-14.85.61-2.15.88-4.39,1.36-6.59.15-.71.32-1.47.72-2.06,1.82-2.68,2.26-5.79,3.01-8.83.47-1.89,1.61-3.61,2.38-5.44.85-2.03,1.58-4.1,2.43-6.13.75-1.78,1.6-3.53,2.4-5.29.17-.38.6-.84.5-1.12-.95-2.69.83-4.57,1.9-6.66,1.04-2.02,1.99-3.99,2.47-6.31.4-1.95,1.88-3.69,2.96-5.48,2.53-4.22,5.16-8.38,7.64-12.63,2.35-4.03,4.45-8.2,6.89-12.17,1.18-1.92,2.91-3.5,4.34-5.27.22-.28.28-.81.21-1.18-.44-2.21.41-4.13,1.62-5.78,3.4-4.65,7.11-9.07,10.39-13.8,3.62-5.22,8.33-9.39,12.6-13.98,5.29-5.68,12.06-9.33,18.8-12.83,5.29-2.75,11.07-4.53,16.57-6.91,6.26-2.7,12.87-3.93,19.55-4.76,8.16-1.02,16.26-2.85,24.57-2.27,1.45.1,2.88.44,4.31.72,5.57,1.1,11.16,2.12,16.69,3.39,2.59.59,5.1,1.6,7.57,2.59,5.43,2.18,11.03,3.99,15.98,7.25,1.65,1.09,3.55,1.82,5.35,2.68,2.29,1.09,4.26,2.56,6.1,4.33,1.23,1.19,3.08,1.71,4.56,2.66,1.59,1.02,3.16,2.09,4.59,3.31,2.7,2.29,5.19,4.85,7.97,7.04,4.02,3.16,7.3,7.04,10.31,11.03,2.38,3.15,3.77,7.06,5.61,10.63.56,1.08,1,2.27,1.77,3.17.76.89,1.31,1.68,1.2,2.91-.11,1.21.85,1.22,1.67,1.12,1.5-.18,2.85.03,3.78,1.32.39.55.57,1.25.85,1.88.57,1.29,1.13,2.59,1.73,3.87.38.82,1.05,1.58,1.2,2.43.6,3.33,1.03,6.7,1.54,10.05.06.39.18.78.69,1.19.1-.57.2-1.14.3-1.71l.34-.09c.92,3.76,2.03,7.49,2.7,11.29.69,3.88.95,7.85,1.42,11.97,2.07.01,1.57,2.44,1.84,3.74.84,4.07,1.1,8.25,1.63,12.38.43,3.38.96,6.75,1.38,10.14.33,2.61.69,5.24.81,7.86.32,6.9.88,13.81.66,20.7-.18,5.84-1.3,11.66-2.01,17.49-.2,1.65-.4,3.29-.63,4.93-.74,5.38-1.56,10.74-2.24,16.13-.76,6.03-1.34,12.08-2.11,18.11-.24,1.92-.86,3.79-1.26,5.68-.83,3.94-1.62,7.88-2.44,11.82-1.16,5.62-2.25,11.26-3.5,16.86-.97,4.39-2.08,8.75-3.23,13.1-.67,2.51-1.6,4.96-2.3,7.46-.78,2.8-1.37,5.66-2.16,8.46-.46,1.64-1.27,3.18-1.73,4.82-.73,2.61-1.29,5.27-1.92,7.91-.24.99-.38,2.02-.7,2.99-1.09,3.3-2.25,6.57-3.37,9.85-1.01,2.99-2.03,5.99-2.98,9-.93,2.97-1.77,5.97-2.68,8.95-.97,3.21-2.03,6.4-2.96,9.62-2.03,7.03-4.06,14.06-5.97,21.13-1.31,4.85-1.77,9.95-4.72,14.3-.62.92-.31,2.42-.66,3.58-.85,2.77-1.98,5.47-2.74,8.26-1.13,4.17-2.02,8.41-3.05,12.62-.25,1.01-.65,1.97-.95,2.97-1.43,4.72-2.85,9.44-4.26,14.17-1.34,4.5-2.71,8.99-3.96,13.52-1.14,4.16-2.13,8.36-3.21,12.53-1.2,4.65-2.39,9.31-3.66,13.95-1.08,3.94-2.39,7.82-3.4,11.78-1.09,4.26-1.88,8.6-2.92,12.87-.56,2.3-1.37,4.53-2.08,6.79-1.62,5.21-2.91,10.47-3.09,15.96-.1,2.93-.89,3.37-3.33,1.99-.38-.21-.95-.2-1.42-.13-3.41.46-6.91,1.76-9.61-1.16Zm43.75-152.1c.31-.68.56-1.25.85-1.81.18-.35.65-.74.58-1.01-.72-3.15,1-5.69,2.02-8.4.51-1.36,1.21-2.66,1.59-4.05.81-2.95,1.49-5.95,2.19-8.93.18-.77.2-1.58.42-2.33.77-2.63,1.64-5.23,2.38-7.87.34-1.22.39-2.53.73-3.75.69-2.45,1.51-4.87,2.25-7.31.31-1.02.5-2.09.86-3.09.64-1.78,1.52-3.49,2.04-5.3,1.41-4.99,2.64-10.03,4.02-15.03,1.19-4.29,2.49-8.55,3.76-12.82,1.01-3.4,2.22-6.75,3.03-10.19,1.27-5.44,2.31-10.94,3.38-16.43.88-4.5,1.67-9.01,2.46-13.52.19-1.09.11-2.24.42-3.29,1.94-6.57,2.35-13.36,3.11-20.1.42-3.71.96-7.4,1.45-11.09.37-2.79.78-5.57,1.14-8.36.3-2.26.56-4.52.83-6.78.47-3.95,1.16-7.88,1.34-11.84.17-3.81-.12-7.65-.32-11.48-.52-9.99-1.08-19.97-2.94-29.84-.56-3-.78-6.06-1.16-9.1-.19-1.52-.22-3.07-.58-4.55-1.14-4.64-2.37-9.26-3.61-13.88-1.27-4.76-2.6-9.51-3.88-14.27-.35-1.29-.46-2.65-.89-3.91-.55-1.63-.27-4.09-2.74-4.21-1.82-.09-2.46-1.19-3.13-2.39-.62-1.12-.95-2.4-1.54-3.54-1.52-2.93-3.01-5.88-4.71-8.71-1.25-2.08-2.8-3.99-4.21-5.97-1.59-2.24-2.98-4.65-4.82-6.66-2.15-2.35-4.73-4.32-7.07-6.51-1.79-1.68-3.36-3.62-5.3-5.1-2.12-1.63-4.53-2.88-6.84-4.26-4.07-2.43-7.79-5.49-12.46-6.83-.27-.08-.47-.39-.73-.55-1.93-1.18-3.8-2.46-5.82-3.47-1.84-.92-3.83-1.53-5.75-2.29-2.14-.84-4.23-1.81-6.42-2.5-3.53-1.11-6.99-2.53-10.82-2.41-1.2.04-2.45-.22-3.61-.56-4.85-1.43-9.75-1.73-14.74-.92-3.51.57-7.05.91-10.53,1.59-4.53.89-9.17,1.59-13.48,3.15-6.35,2.31-12.62,5-18.61,8.14-4.78,2.51-9.73,4.94-13.48,9.12-2.57,2.87-5.55,5.39-8.09,8.28-3.16,3.6-6.12,7.39-9.05,11.18-2.14,2.77-4.36,5.53-6.09,8.55-1.97,3.43-3.22,7.27-5.17,10.71-3.01,5.33-6.39,10.44-9.53,15.69-2.72,4.56-5.51,9.09-7.91,13.81-1.56,3.07-2.32,6.55-3.74,9.7-4.45,9.86-7.98,20.06-11.55,30.26-1.23,3.51-2.36,7.05-3.51,10.58-1.56,4.75-3.35,9.44-4.58,14.27-1.59,6.25-2.76,12.61-4.04,18.94-.62,3.05-1.05,6.15-1.65,9.2-.54,2.79-.15,5.74-1.75,8.37-.8,1.31-1.22,2.92-1.54,4.45-.64,3.04-1.03,6.13-1.64,9.18-.3,1.5-1,2.93-1.28,4.43-.5,2.76-.85,5.54-1.21,8.32-.23,1.76-.21,3.57-.58,5.29-.54,2.55-1.58,5.02-1.96,7.59-.69,4.62-.95,9.31-1.6,13.94-.36,2.57-.87,5.2-1.85,7.58-.48,1.17-1.11,2.21-1.09,3.51.04,2.64.25,5.26-2.53,6.98-.74.46-1.01,1.7-1.46,2.59-.69,1.38-.13,2.54,1.72,2.74-.38,1.73-.63,3.46-1.14,5.1-.69,2.2-1.79,4.29-2.32,6.52-.37,1.57-.35,3.18-1.8,4.27-.17.12-.25.42-.28.65-.78,5-1.46,10.01-3.55,14.7-.55,1.24-.97,2.56-1.29,3.89-.71,2.97-1.24,5.98-1.99,8.93-.59,2.35-1.35,4.67-2.1,6.98-.78,2.44-1.81,4.82-2.4,7.31-.59,2.48-.57,5.09-1.15,7.57-1.05,4.5-2.4,8.93-3.52,13.42-1.35,5.38-1.76,10.95-3.59,16.27-1.4,4.08-1.98,8.44-2.97,12.67-.58,2.47-1.24,4.92-1.93,7.36-.65,2.32-1.52,4.59-2.02,6.94-1.07,5.05-1.83,10.16-2.97,15.19-1.07,4.75-2.43,9.43-3.7,14.13-.66,2.43-2.11,4.66-1.84,7.33.02.15-.1.38-.23.48-1.9,1.53-1.65,3.55-1.29,5.59.03.16.19.29.34.5.46-.17.91-.33,1.25-.46-.17-.49-.51-1.19-.42-1.24.91-.6,1.89-1.11,2.68-1.54.55-.73.98-1.49,1.59-2.06.96-.89,2.62-1.48,2.95-2.52.88-2.78,2.84-3.7,5.76-4.09-1.16-1.22-2.11-2.22-3.09-3.25,1.68-3.05,4.88-4.82,7.86-6.76,3.7-2.41,7.7-4.37,11.33-6.87,4.72-3.26,9.26-6.81,13.77-10.37,2.93-2.31,6.06-3.99,9.76-4.62,1.99-.34,4.14-.51,5.85-1.44,1.78-.98,3.45-.82,5.22-.74,2.95.14,4.62,2.57,3.72,5.31-.17.53-.38,1.06-.41,1.61-.28,4.79-.49,9.59-.78,14.38-.08,1.27-.65,2.57-.49,3.79.22,1.68-2.44,3.42.11,5.03.15.1.14.61.06.9-.37,1.44-.79,2.86-1.22,4.35,1.54.95,1.74,2.66,1.86,4.45.33,4.87.65,9.74,1.08,14.61.21,2.39,1.29,4.86-1.44,6.87.43.34.73.72,1.12.86,1.21.45,4.36-.95,5.04-2.08,1.39-2.32,2.66-4.76,4.32-6.87,3.49-4.45,7.22-8.71,10.84-13.06,1.61-1.93,3.03-4.05,4.84-5.77,3.53-3.34,7.25-6.47,10.94-9.64,1.31-1.13,2.73-2.12,3.68-2.86.89-1.57,1.58-2.8,2.3-4.01.25-.41.67-.73.87-1.16.97-2.08,1.43-4.37,4.05-5.42,1.59-.64,2.84-2.16,4.22-3.32.18-.15.15-.56.32-.74.58-.58,1.13-1.28,1.84-1.61.85-.4,1.84-.6,2.78-.66,1.16-.07,2.45-.19,3.46.24,1.04.44,1.55,1.95,3.08,1.74.06,0,.35.75.33,1.14-.1,1.84-.09,3.72-.45,5.52-.41,2.07-.52,3.99.63,5.86.28.46.55,1,.59,1.52.51,6.43.97,12.86,1.45,19.29.03.43.06.86.13,1.29.58,3.48,1.19,6.96,1.74,10.44.16,1.01.22,2.09-1.46,1.66-.26,3.19.95,5.74,2.17,8.31-.31,1.07-.81,2.29-.97,3.56-.06.45.82,1.48,1.1,1.42,1.24-.25,1.29.43,1.42,1.29.46,3.01.96,6.01,1.49,9.26.76-.22,1.9-.19,2.32-.73,1.88-2.38,3.52-4.96,5.34-7.39.48-.64,1.78-.95,1.87-1.54.31-1.93,1.86-2.7,2.92-3.99,4.02-4.86,7.71-9.98,11.76-14.81,2.52-3.01,5.54-5.59,8.19-8.49,1.66-1.81,3.05-3.86,4.56-5.81.47-.61.87-1.25,1.35-1.81,1.63-1.88,3.36-3.67,4.91-5.61.82-1.03,1.06-2.67,2.03-3.38,2.11-1.53,3.79-3.77,6.47-4.44.99-.24,2.04-.28,3.21-.43.24-1.68,1.4-2.53,4.29-2.68.56-.03,1.14.06,1.83.11-.36.68-.6,1.12-1.1,2.05,1-.4,1.52-.6,2.03-.83.5-.23,1.16-.81,1.44-.66.44.24.88.98.85,1.47-.13,1.6.5,2.45,1.95,3.11,1.56.71,1.69,2.32.68,3.36.45.81.94,1.52,1.23,2.3.25.66.19,1.42.4,2.1.91,2.94,1.89,5.85,2.79,8.79.78,2.54,1.6,5.08,2.18,7.66.22.99.73,2.37-.39,2.88.43.76.99,1.47,1.26,2.29,1.07,3.15,2.02,6.34,3.06,9.5.66,1.97,1.45,3.9,2.11,5.87,1.17,3.48,2.29,6.98,3.43,10.48.61,1.87,1.16,3.77,1.81,5.63.63,1.82,1.55,3.56,1.98,5.41.49,2.08,2.32,2.01,3.67,2.7.21.11.7-.36,1.07-.56-.29-.32-.54-.84-.89-.93-.48-.13-1.05.07-1.58.12-.03-.11-.07-.22-.1-.34.59-.32,1.17-.65,1.73-.96.11-1.08.22-2.14.33-3.21-.45-.08-1-.18-1.82-.32.66-.61,1.08-1,1.45-1.35-1.88-1.79-.33-3.68-.22-5.46.04-.58.88-1.1,1.09-1.35.2-1.27.37-2.32.52-3.39.27-1.93.52-3.86.78-5.79-.2-.02-.41-.05-.61-.07-.16.63-.32,1.26-.48,1.9-.08-.02-.16-.03-.24-.05.05-1.08.1-2.15.15-3.23.14.08.28.17.42.25.46-.47.89-.98,1.39-1.39.47-.39,1.02-.67,1.54-1,.1.12.2.24.3.35.19-.5.37-1,.65-1.74-.65.53-1.08.86-1.49,1.2-.95-.87-1.08-3.11-.41-3.81.75-.78,1.34-1.72,2.22-2.88-1.19-.08-1.72-.11-2.25-.15.42-1.11.8-2.13,1.24-3.29.14.94.26,1.72.38,2.49.19.03.37.06.56.09-.17-2.51.6-4.52,2.78-5.72-.75-.37-1.41-.7-2.15-1.06-.4,1.05-.78,2.04-1.15,3.03-.15-.05-.3-.1-.45-.15.85-3.04,1.74-6.06,2.52-9.12.79-3.11,1.47-6.25,2.24-9.61.47-.02,1.24-.06,2.24-.11-.34-.47-.59-.81-.88-1.22.56.04,1.01.07,1.45.1-.11-1.16-.21-2.18-.32-3.23-1.88,0-.18,1.72-1.01,2.6-.81-1.88-.45-3.49.09-5.08.5-1.49,1.26-2.92,1.61-4.45.71-3.1.63-6.55,3.62-7.75.12-2.01.18-3.56.37-5.09,0-.07,1.09,0,1.83,0-.47-1.63,2.21-3.74-.87-5.28.89-.88-1.08-3.43,1.86-2.97-.12-.52-.37-.97-.28-1.32.24-.96.69-1.86.94-2.82,1.04-4.07,2.01-8.16,3.08-12.23.26-.98,1.25-1.93,1.16-2.82-.27-2.79.7-5.16,1.77-7.59.38-.87.33-1.92.68-2.8.76-1.94,1.81-3.77,2.46-5.75,1.1-3.36,1.96-6.79,2.95-10.18.16-.53.7-1.01.7-1.52-.02-2.02.53-3.49,2.86-3.61.13,0,.24-.2.75-.65-1.14-.06-1.86-.1-3.19-.17Zm-226.24,76.14c-1.07-.8-2.08-1.89-2.94.24-.11.27-.61.38-.92.58-1.32.83-1.88,1.92-1.14,3.79,1.75-1.61,3.34-3.08,5-4.61Zm194.3,57.88c.92-.08,1.84.11,2.16-.25.43-.47.41-1.36.58-2.07-.17-.09-.34-.19-.51-.28-.62.72-1.23,1.43-2.24,2.6Z"/><path class="cls-1" d="m36.95,488.96c-.47-.63-.94-1.27-1.4-1.9.27-.19.77-.57.79-.55.51.6.97,1.24,1.43,1.87-.27.19-.54.39-.82.58Z"/><path class="cls-1" d="m50.06,316.55h4.69v.33h-4.69v-.33Z"/><path class="cls-1" d="m319.65,373.7c.56-.51,1.1-1.04,1.7-1.49.04-.03.51.51.79.78-.6.52-1.2,1.04-1.8,1.56-.23-.28-.46-.57-.69-.85Z"/><path class="cls-1" d="m395.31,474.87c.17-1.3.34-2.6.51-3.89.3.04.6.09.9.13l-.6,3.88c-.27-.04-.54-.08-.81-.12Z"/><path class="cls-1" d="m319.99,197.94c1-1.17,1.62-1.88,2.24-2.6.17.09.34.19.51.28-.17.71-.15,1.6-.58,2.07-.32.35-1.24.17-2.16.25Z"/><path class="cls-1" d="m391.05,126.08c-.59-.04-1.34-.1-2.41-.17-4.05-3.19-3.02-8.17-3.43-12.86-1.3.88-1.97.24-2.1-1.13-.31-3.28-1.67-6.86,1.46-9.46,1.59-1.32,3.62-2.48,5.61-2.81.87-.15,2.13,1.95,3.19,3.04.36.37.6.91,1.02,1.16.36.21.9.13,1.37.18.04-.41.02-.83.12-1.22.32-1.23.67-2.45,1.04-3.67,1.53-5.03,4.93-8.69,10.56-8,2.94.36,5.3,2.96,5.82,6.36.34,2.2,1.22,4.31,1.67,6.5.33,1.61.56,3.29.49,4.92-.15,3.48.38,6.82,1.25,10.17.44,1.71.54,3.52.64,5.3.26,4.67.3,9.35.69,14.01.32,3.85,1.01,7.66,1.54,11.49.14.99-1.28,4.24-2.19,4.37-2.35.34-1.97,1.89-1.73,3.4.33,2.02.1,2.41-2.04,2.72-1.82.27-3.66.47-5.48.72-.92.13-1.42-.19-2.03-.98-1.84-2.4-2.76-5.11-3.18-8.04-.07-.46.23-.97.38-1.51-.57-.45-1.26-.94-1.88-1.51-1.47-1.36-1.45-1.38.09-2.54-2.72-.98-6.72-7-6.25-9.4-1.88-.2-2.75-3.16-1.6-6.1-.71.15-1.26.26-1.93.41-.21-1.62-.44-3.28-.71-5.33Zm-3.45-7.19c.93.93,2.03,1.6,1.95,2.04-.34,1.75.56,3.28,1.6,3.87,1.93,1.1,2.08,2.92,2.91,4.52,1.01,1.95,1.14,4.61,3.19,5.1.74,1.57,1.25,2.66,1.87,3.97,2.27-1.81-1.25-3.22.56-4.65-1.03-.06-1.72-.11-2.4-.15,0-1.48.03-2.77-.03-4.06,0-.17-.44-.33-.67-.48-.6-.39-1.33-.66-1.77-1.17-.68-.81-1.73-1.9-.49-2.85,2.06-1.56,1.63-3.67,1.71-6,1.12.24,2.26.31,3.25.73,1.19.5,2.03.31,2.72-.6-.67-.22-1.31-.45-1.96-.65-.32-.1-.65-.15-.97-.22.33-.18.64-.42.99-.52.74-.19,1.49-.31,2.5-.51-.43-.34-.6-.42-.7-.56-.1-.14-.13-.33-.08-.2h5.37c-1.61-.97-2.79-1.67-4.08-2.44-.67.44-1.61,1.07-2.55,1.7-.05-.12-.1-.24-.16-.36.46-.81.92-1.61,1.57-2.76-1.96-.12-3.48-.21-4.94-.3.15-.37.35-.84.6-1.43h-1.73c-.51.97-.75,1.74-1.23,2.28-1.21,1.36-1.19,2.21.23,3.32.32.25.56.59.73.76-.77.45-1.43.85-2.13,1.26-.73-.81-2.35-1.08-1.71-2.79-1.14-.39.02-3.31-2.52-2.31-.2.08-.87-.85-1.21-1.39-.34-.53-.54-1.15-.97-2.14-1.77,3.7-.11,6.59.56,8.97Zm15.42,27.35c1.14,2.1,2.17,3.99,3.19,5.86h2.71c-.92-2.02-1.64-3.96-2.67-5.72-.84-1.42-1.86-1.29-3.23-.15Zm3.53-34.62c-.5-2.13-.9-3.84-1.42-6.04-.31.91-.74,1.51-.6,1.91.53,1.53.09,2.73-.85,3.92-.27.34-.41,1.06-.23,1.42.58,1.12,2.86,1.62,3.9.93.15-.1.14-.44.21-.71-.49-.15-.9-.27-1.58-.47.52-.37.9-.51,1.07-.78.3-.47.48-1.03.7-1.55-.17-.06-.34-.12-.51-.18-.18.4-.37.8-.7,1.54Zm-3.81-.23c-.57-1.73-1.09-3.29-1.67-5.04-.56.13-1.06.25-1.56.37.13.46.26.92.4,1.42-1.34.79-1.38.89-1.09,3.33.53-.57,1.03-1.1,1.89-2.03-.29.94-.41,1.33-.53,1.71.73.06,1.39.12,2.57.22Zm2.85,15.65c.44-1.1.88-2.22,1.32-3.34l-.29-.13c-.33.53-.66,1.05-1.22,1.97.09-1.09.14-1.66.2-2.36-1.58.99-1.43,2.98,0,3.87Zm-3.16,15.54c.23-.09.46-.19.7-.28-.64-1.27-1.24-2.56-1.96-3.78-.08-.13-.85.14-1.27.22.95,1.45,1.74,2.65,2.53,3.84Zm-.54-21.8c.86.75,1.53,1.33,2.2,1.9.06-.09.12-.18.21-.32-.22-.12-.44-.24-.62-.33.49-.64.95-1.26,1.59-2.1-1.23.31-2.04.51-3.39.85Zm-1.43.13c-1.22-.25-2.05-.41-2.88-.58-.06.09-.12.19-.18.28.62.58,1.23,1.16,1.85,1.74.34-.4.68-.81,1.22-1.44Z"/><path class="cls-1" d="m370.42,163.42c1.19-3-.75-4.25-2.02-5.84-.55-.69-.81-1.61-1.26-2.39-.34-.59-.73-1.16-1.18-1.67-1.2-1.34-2.51-2.58-3.64-3.98-1.14-1.41-2.17-2.92-3.16-4.45-2.15-3.34-3.91-6.98-6.43-10-3.38-4.06-4.83-9.09-7.6-13.44-2.35-3.7,0-9.61,4.06-11.26,3.3-1.34,5.54-.77,8.04,2.08,1.32,1.51,2.68,3.01,3.84,4.64.43.6.34,1.58.54,2.64.69.16,1.62.39,2.56.61,0,.16,0,.32-.01.48-.66.13-1.31.25-2.06.4.03.74.07,1.5.1,2.25-.13.03-.25.05-.38.08-.27-.82-.54-1.65-.83-2.57-1.59.79-1.9,2.08-1.1,3.87-2.61-.99-.57-3.12-1.38-4.49q-2.26,2.05-1.4,7.45c1.89,1.55,3.44,2.81,5.22,4.26-.49.28-.92.52-1.55.88,1.09.79,1.89,1.37,2.74,1.99-.89.7-1.75,1.37-2.85,2.23.65.58,1.26,1.12,2.2,1.96-.44-2.53-.18-2.88,1.21-2.35.61.23,1.23.45,1.79.66-.16,1.39-.31,2.71-.49,4.27.69-.51,1.21-.89,1.73-1.27.13-.12.26-.25.39-.37.78.45,1.56.9,2.34,1.35.81-1.31,2.97-1.55,5.78-.13-.75-1.12-1.22-1.86-1.73-2.57-.48-.67-1.19-1.2.05-1.96.6-.37-.5-2.46-1.49-2.83-.39-.15-.83-.14-1.29-.2-.15-.87-.29-1.71-.44-2.61,1.15-.37,2.25-.72,3.34-1.07-.02-.17-.04-.34-.06-.5-.54-.2-1.07-.4-1.61-.6.22.22.44.45.66.67.6-.57,1.21-1.14,1.81-1.71l-.67-.89c.34.26.68.51,1.01.76.64-.72-.62-1.89-2.89-2.58.72-.15,1.17-.24,1.81-.37-.2-.58-.39-1.14-.58-1.69h1.86c.13-.88.3-1.63.33-2.39.01-.32-.26-.66-.4-.99-.22.24-.51.44-.63.73-.17.39-.22.84-.35,1.4-1.4-1.26-1.31-2.61-.1-3.32.44-.26.72-.82,1.07-1.24-.13-.11-.27-.23-.4-.34-.53.37-1.06.75-1.54,1.08-.91-.59-1.77-1.15-2.6-1.69-.28.96-.52,1.79-.8,2.76-.48-.18-.84-.32-1.28-.49-.21.33-.47.74-.74,1.16-.18-.02-.36-.04-.53-.07v-4.99c-.16.01-.32.02-.48.03-.06.46-.11.93-.17,1.44-.24-.01-.41,0-.57-.03-1.08-.18-2.18-.59-3.24-.5-1.24.11-1.58-.49-1.67-1.43-.37-3.58.37-6.66,3.01-9.48,2.43-2.58,5.05-3.84,8.49-3.73,1.99.06,3.62.58,4.36,2.67,1.48,4.2,3.34,8.31,4.38,12.62.89,3.7.91,7.62,1.24,11.45.42,5.01.79,10.02,1.13,15.04.29,4.24.51,8.48.76,12.72.12,1.91.19,3.82.39,5.72.19,1.84-.48,3.31-2.02,4.18-1.74.98-3.97.37-5.6-.99-.54-.45-1.45-.53-2.21-.63-1.53-.21-3.07-.31-4.78-.48Zm-13.15-24.02l.67.22c.49-.77,1.25-1.49,1.39-2.32.17-1.01-.17-2.1-.37-3.15-.03-.14-.52-.24-.81-.28-.41-.05-.83-.01-.8-.01-.54-1.2-.97-2.17-1.41-3.14-2.19,3.56.68,5.87,1.32,8.68Zm-2.66-13.16c-.15-.06-.3-.12-.45-.18v3.74c.65-.59,1.25-1.13,1.65-1.49-.45-.78-.83-1.42-1.2-2.07Zm18.56,18.15c.25-1.2.38-1.84.57-2.75-.7.03-1.33.06-2.45.11.74,1.04,1.19,1.67,1.88,2.64Z"/><path class="cls-1" d="m277.09,208.77c.64-.52,1.28-1.05,2.02-1.65.58.86,1.01,1.49,1.44,2.12.11-.02.22-.03.33-.05-.13-.84-.27-1.67-.39-2.42.95-1.91,1.87-3.87,2.9-5.77.35-.65.98-1.16,1.71-1.98-.18-.35-.59-1.12-1.1-2.09h1.83c-.02-.33-.2-.76-.05-.99,1.13-1.86,2.3-3.7,3.52-5.51.29-.42.88-.63,1.21-1.03.47-.56,1-1.16,1.16-1.83.09-.36-.51-.9-.85-1.45.3-.14.71-.34,1.26-.61-.44-.38-.79-.67-1.31-1.12.65-.22,1.13-.39,1.67-.57-.24-1.54-.98-2.19-2.31-1.72-.24-1.39-.57-2.78-.69-4.19-.12-1.44-.03-2.9-.25-4.5-.54,2.36-1.26,4.44-4.3,3.73.87-.21,2.12-.15,2.52-.7.46-.65.52-2.02.12-2.72-.43-.75-1.59-1.08-2.13-1.4-1.56,1.38-2.78,2.44-3.96,3.49.03.09-.1-.27-.26-.71-1.38.41-2.68.79-3.98,1.18.01.23.03.45.04.68-.93-.61-1.89-1.18-2.78-1.84-.34-.25-.54-.69-.81-1.05.49-.09.98-.24,1.46-.23.25,0,.49.28,1.24.76-.36-1.09-.45-2.09-.76-2.16-.65-.15-1.42.18-2.03.29-.35-.89-.73-1.84-1.19-3,5.66-5.33,12.11-8.98,20.34-8.2,4.54.43,8.13,3.89,9.38,8.48.88,3.24.48,6.3-.06,9.58-.88,5.3-3.56,9.79-5.85,14.37-2.31,4.61-4.31,9.36-6.69,13.92-2.1,4.04-4.32,8.01-6.45,12.03-.94,1.78-1.86,3.58-2.67,5.43-.44.99-.93,1.22-1.98.94-.72-.19-1.66-.14-2.32.18-1.79.87-3.38,1.56-5.4.28-1.38-.87-3.2-1.01-4.72-1.7-.62-.29-1.06-1.13-1.43-1.8-1.04-1.91-1.95-3.9-3.02-5.8-1.03-1.84-2.38-3.53-3.24-5.44-.65-1.44-.96-2.98-2.38-3.94-.27-.18-.39-.61-.52-.95-.5-1.35-1.1-2.69-1.45-4.08-.86-3.48-1.66-6.97-2.38-10.48-.52-2.52-1.06-5.05-1.27-7.61-.35-4.19-1.18-8.38.09-12.61,1.56-5.22,5.32-8.17,9.51-7.7,4.69.52,8.64,3.05,10.98,7.39.53.99.35,2.37.55,3.95-1.18-.45-2-1.03-2.77-.98-.81.05-1.58.71-2.36,1.1.02.18.04.35.07.53.85.14,1.69.28,2.63.43.09.51.18,1.03.29,1.68-.4.05-.74.1-1.21.16.19-.52.33-.91.5-1.41-1.03.13-1.86.23-2.74.34-.38.56-.77,1.23-1.24,1.84-1.44,1.82-.98,4.05-1.32,6.1-.04.26.05.7.24.82,1.31.81,2.37,1.55.19,2.65-.13.06.11,1.08.36,1.56.2.37.68.6,1.03.88-.47.11-.93.23-1.4.34-.22.05-.45.1-.75.16.67.59,1.26,1.11,2.02,1.78-1.04.27-1.76.45-2.49.64,0,.16.01.32.02.47.79.09,1.57.19,2.33.28-.07,1.43-.28,2.91-.17,4.37.13,1.65,1.17,2.75,2.66,3.51.43.22.58.94.94,1.35.32.37.72.76,1.16.91.72.25,1.56.17,2.24.47,1.57.68,1.89,3.23.63,4.44,1.02,2.31,2.99.75,4.74,1.06.06-.83.12-1.74.18-2.66l-.04.03Zm-9.51,4.19c-.06-.14-.12-.28-.18-.42-1.01.21-2.02.41-3.03.62.2.98.41,1.96.61,2.93.12.59.23,1.19.43,2.21.06.02.63.25,1.26.49.43-2.08-2.26-4.38.91-5.83Zm23.53-39.46c1.24-1.71,1.39-2.5.26-3.49-.53-.47-1.52-.41-2.31-.6-.11.23-.23.46-.34.69.76,1.08,1.52,2.16,2.39,3.4Zm-37.48,21.25c.28.04.57.08.85.12l.46-3.8c-.25-.03-.5-.07-.75-.1-.18,1.26-.37,2.53-.55,3.79Z"/><path class="cls-1" d="m203.14,212.92c1.08.48,2.15.96,3.21,1.43.23-.66.5-1.45.93-2.71-.87.04-1.69-.06-2.43.14-1.22.34-1.86.21-2.91-.87-2.96-3.02-4.71-6.73-6.67-10.32-.9-1.64-1.54-3.46-2.05-5.27-1.66-5.86-3.23-11.76-4.8-17.65-.85-3.18.45-5.92,2.07-8.47.44-.69,1.82-.72,2.49-1.35,4.77-4.5,9.87-2.71,14.95-.82.65.24,1.04,1.15,1.6,1.69.48.46,1.12,1.25,1.54,1.17.59-.12,1.26-.83,1.51-1.44.8-1.97,1.99-3.5,3.92-4.44.37-.18.74-.47.97-.81,1.18-1.71,2.84-2.52,4.86-2.48,8.04.16,13.97,3.85,17.88,10.85-.2,2.72-.22,5.47-.67,8.14-.34,2.01-1.2,3.94-1.89,5.88-.5,1.42-.88,2.96-1.71,4.18-2.1,3.09-2.47,7.07-5.21,9.83-.44.44-.51,1.22-.8,1.82-2.9,6.06-5.81,12.12-8.7,18.19-.42.88-.82,1.78-1.05,2.72-.43,1.74-1.71,1.86-3.02,1.56-2.77-.63-5.5-1.42-8.24-2.15-.86-.23-1.9-.22-2.54-.72-2.45-1.93-2.51-5.04-3.77-7.58.18-.18.36-.36.54-.54Zm1.75-30.8c.18.24.35.47.53.71-.45.17-.89.34-1.48.57.96.57,1.52.9,2.49,1.48-1.15.58-1.96.98-2.94,1.47.34.66.68,1.31,1.13,2.18.47-.66.73-1.03.91-1.29v4.85c.97-.16,1.46-.24,2.04-.34.22,2.3-1.49,1.54-2.54,2.09.51.32,1.04.37,1.58.38.34,0,.77-.17.99-.02.58.4,1.48.92,1.48,1.41,0,.67-.68,1.36-1.18,2.22.1.12.4.46.71.83-.41.26-.75.47-1.08.67.05.18.09.37.14.55.99-.12,1.99-.24,2.92-.35-.72,1.67.9,1.82,2.07,2.29.78.31,1.6.27,2.3,1.09.61.71,1.9.83,2.88,1.21.23-.29.46-.59.69-.88-.61-.2-1.23-.41-1.84-.61,1.54-.56,3.08-.63,2.63-2.73-2.15-.46-4.55,1.58-6.52-.35,2.91-1.42,7.27,1.84,8.89-3.19.19-.6.37-1.21.55-1.81-.14-.05-.29-.1-.43-.15,1.93-1.88,3.85-3.76,5.8-5.66-3.49-2.12.16-4.16-.23-6.16.55-.08.99-.14,1.73-.24-2.82-2.56,1.56-2.35,1.3-3.53-1.5-.55-2.72-1-3.99-1.47,1.24-2.05,1.11-2.55-.63-2.73-.06.57-.12,1.15-.14,1.33-1.04.69-1.77,1.19-2.95,1.97.63-1.22,1.07-2.05,1.62-3.11-2.53.27-4.91.52-7.52.79-.02.05-.16.48-.32.98-.68-.26-1.23-.47-1.85-.72,1.27-1.05,2.41-1.99,3.55-2.93-.08-.14-.15-.27-.23-.41-.69.11-1.39.21-1.91.29-.63-1.03-1.2-1.97-1.78-2.91-.93.39-1.59.67-1.88.79.35,2.54.66,4.85.98,7.16.02.12,0,.28.07.35,1.76,1.81.07,1.97-1.1,2.41-.48-.52-.92-1.01-1.38-1.51.36-.38.66-.69.97-1.03-1.25-.26-2.34-.48-3.56-.74-.09.62-.17,1.26-.27,1.96-2.41.55-4.66,1.27-5.46,4.21.86-.54,1.55-.96,2.24-1.39Zm9.32,21.13c-.22,0-.51.01-.79,0-.37-.02-.73-.06-1.09-.12-1.52-.25-2.13.41-1.88,1.93.49,2.87.95,5.74,1.41,8.59,1.43-.35,2.43-1.72,2.37-3.43-.08-2.28-.02-4.56-.02-6.97Zm15.14-32.27c-.22-.03-.44-.07-.66-.1-.2,1.92-.4,3.85-.6,5.86,1.84-.44,2.14-2.07,1.26-5.76Z"/><path class="cls-1" d="m277.13,208.73c-.7-.32-1.4-.64-2.65-1.21,1.24-.67,2.07-1.12,2.88-1.56-.11,1.2-.19,2-.26,2.8,0,0,.04-.03.04-.03Z"/><path class="cls-1" d="m387.6,118.88c-.67-2.37-2.32-5.26-.56-8.97.44.99.64,1.61.97,2.14.34.53,1.01,1.47,1.21,1.39,2.54-1,1.38,1.91,2.52,2.31-.64,1.71.98,1.98,1.71,2.79.7-.41,1.36-.81,2.13-1.26-.17-.18-.41-.52-.73-.76-1.42-1.11-1.44-1.97-.23-3.32.49-.54.72-1.31,1.23-2.28h1.73c-.25.59-.45,1.07-.6,1.43,1.46.09,2.98.18,4.94.3-.65,1.15-1.11,1.95-1.57,2.76.05.12.1.24.16.36.94-.63,1.88-1.26,2.55-1.7,1.29.77,2.47,1.48,4.08,2.44h-5.37c-.05-.13-.02.06.08.2.1.14.27.22.7.56-1.01.2-1.77.31-2.5.51-.35.09-.66.34-.99.52.32.07.65.12.97.22.65.2,1.29.42,1.96.65-.7.91-1.53,1.1-2.72.6-.99-.41-2.12-.49-3.25-.73-.09,2.32.35,4.44-1.71,6-1.24.94-.19,2.04.49,2.85.44.52,1.17.79,1.77,1.17.24.15.67.31.67.48.06,1.29.03,2.59.03,4.06.68.04,1.37.08,2.4.15-1.81,1.43,1.72,2.84-.56,4.65-.62-1.32-1.13-2.4-1.87-3.97-2.05-.49-2.19-3.14-3.19-5.1-.83-1.61-.98-3.42-2.91-4.52-1.04-.59-1.94-2.12-1.6-3.87.09-.44-1.02-1.11-1.95-2.04Z"/><path class="cls-1" d="m403.02,146.23c1.37-1.14,2.4-1.27,3.23.15,1.03,1.75,1.75,3.7,2.67,5.72h-2.71c-1.02-1.88-2.05-3.76-3.19-5.86Z"/><path class="cls-1" d="m406.54,111.61c.34-.74.52-1.14.7-1.54.17.06.34.12.51.18-.23.52-.4,1.07-.7,1.55-.17.27-.55.41-1.07.78.68.2,1.09.32,1.58.47-.08.27-.06.61-.21.71-1.04.69-3.33.19-3.9-.93-.18-.35-.04-1.08.23-1.42.94-1.2,1.38-2.39.85-3.92-.14-.4.3-1,.6-1.91.52,2.19.92,3.91,1.42,6.04Z"/><path class="cls-1" d="m402.73,111.38c-1.18-.1-1.83-.16-2.57-.22.12-.39.24-.77.53-1.71-.86.92-1.36,1.46-1.89,2.03-.29-2.45-.25-2.55,1.09-3.33-.14-.5-.27-.96-.4-1.42.5-.12.99-.24,1.56-.37.58,1.74,1.1,3.31,1.67,5.04Z"/><path class="cls-1" d="m405.58,127.03c-1.42-.89-1.58-2.88,0-3.87-.06.7-.11,1.27-.2,2.36.57-.91.9-1.44,1.22-1.97l.29.13c-.44,1.12-.88,2.24-1.32,3.34Z"/><path class="cls-1" d="m402.42,142.57c-.79-1.2-1.58-2.4-2.53-3.84.42-.08,1.19-.35,1.27-.22.72,1.22,1.32,2.51,1.96,3.78-.23.09-.46.19-.7.28Z"/><path class="cls-1" d="m401.89,120.77c1.35-.34,2.16-.54,3.39-.85-.64.84-1.1,1.46-1.59,2.1.17.09.39.21.62.33-.09.14-.15.23-.21.32-.67-.58-1.34-1.16-2.2-1.9Z"/><path class="cls-1" d="m400.46,120.9c-.54.64-.88,1.04-1.22,1.44-.62-.58-1.23-1.16-1.85-1.74.06-.09.12-.19.18-.28.83.17,1.66.34,2.88.58Z"/><path class="cls-1" d="m357.27,139.4c-.64-2.81-3.51-5.12-1.32-8.68.44.97.87,1.95,1.41,3.14-.03,0,.39-.03.8.01.29.03.78.13.81.28.2,1.04.53,2.14.37,3.15-.14.83-.9,1.55-1.39,2.32l-.67-.22Z"/><path class="cls-1" d="m354.61,126.24c.37.64.75,1.28,1.2,2.07-.4.36-1,.91-1.65,1.49v-3.74c.15.06.3.12.45.18Z"/><path class="cls-1" d="m373.17,144.38c-.69-.97-1.14-1.61-1.88-2.64,1.12-.05,1.75-.08,2.45-.11-.19.92-.32,1.55-.57,2.75Z"/><path class="cls-1" d="m267.59,212.96c-3.17,1.46-.48,3.75-.91,5.83-.63-.25-1.21-.47-1.26-.49-.2-1.02-.31-1.61-.43-2.21-.2-.98-.41-1.96-.61-2.93,1.01-.21,2.02-.41,3.03-.62.06.14.12.28.18.42Z"/><path class="cls-1" d="m291.12,173.49c-.87-1.24-1.63-2.32-2.39-3.4.11-.23.23-.46.34-.69.78.18,1.77.13,2.31.6,1.14,1,.99,1.79-.26,3.49Z"/><path class="cls-1" d="m253.63,194.75c.18-1.26.37-2.53.55-3.79.25.03.5.07.75.1l-.46,3.8c-.28-.04-.57-.08-.85-.12Z"/><path class="cls-1" d="m214.2,203.26c0,2.4-.06,4.69.02,6.97.06,1.72-.94,3.09-2.37,3.43-.47-2.85-.92-5.72-1.41-8.59-.26-1.52.36-2.18,1.88-1.93.36.06.73.09,1.09.12.29.02.57,0,.79,0Z"/><path class="cls-1" d="m229.34,170.99c.88,3.68.58,5.32-1.26,5.76.21-2.01.41-3.93.6-5.86.22.03.44.07.66.1Z"/><path class="cls-1" d="m210.38,173.49l6.11-9.47,17.71,12.72c-8.58,23-10.67,33.97-15.32,33.72s-15.31-9.5-16.23-12.87-4.91-19.3-4.91-19.3l12.65-4.8Z"/><path class="cls-1" d="m270.81,171.96l5.11-5.28s13.58-3.32,14.52,0,10.26,18.25,4.43,24.28-15.72,29.1-17.51,27.83-12.98-12.82-12.98-12.82c0,0-7.51-22.15-7.2-25.22s11.41-5.82,11.41-5.82"/><path class="cls-1" d="m361.08,117.11l.71-8.21s13.63-1.02,15.68,5.17c2.05,6.19-.29,35.04-1.17,34.65s-12.42-1.7-11.67-4.33-12.6-16.92-12.89-20.23,2.41-5.65,2.41-5.65l6.92-1.4Z"/></g></svg>