<?xml version="1.0" encoding="UTF-8"?><svg id="Layer_1" xmlns="http://www.w3.org/2000/svg" viewBox="0 0 1000 600"><defs><style>.cls-1,.cls-2,.cls-3,.cls-4,.cls-5{stroke-width:0px;}.cls-1,.cls-6{fill:none;}.cls-2{fill:#605c6d;opacity:.81;}.cls-6{stroke:#000;stroke-miterlimit:10;stroke-width:.25px;}.cls-6,.cls-3{opacity:.5;}.cls-3{fill:#c0b5da;}.cls-5{fill:#403d49;}</style></defs><rect class="cls-3" x="231.26" y="187.89" width="133.33" height="100"/><rect class="cls-5" x="231.26" y="299.89" width="133.33" height="100"/><rect class="cls-3" x="231.26" y="411.89" width="133.33" height="100"/><path class="cls-4" d="m122.67,220.76c-.11,2.66-1.83,4.38-4.4,4.38-2.4,0-4.51-1.77-4.51-5.25s2-5.25,4.51-5.25,4.17,1.58,4.4,4.48h-2.01c-.17-1.9-1.14-2.7-2.46-2.7-1.56,0-2.58,1.12-2.58,3.46s1.04,3.46,2.58,3.46c1.33,0,1.99-.66,2.59-2.6h1.88Z"/><path class="cls-4" d="m127.44,217.34c2.25,0,3.6,1.94,3.6,3.96,0,1.89-1.2,3.84-3.6,3.84s-3.6-1.95-3.6-3.84c0-2.02,1.35-3.96,3.6-3.96Zm0,1.65c-1.18,0-1.95.9-1.95,2.25,0,1.44.79,2.25,1.95,2.25s1.95-.81,1.95-2.25c0-1.35-.76-2.25-1.95-2.25Z"/><path class="cls-4" d="m136.94,224.99v-4.95c0-.71-.51-1.12-1.25-1.12-1.21,0-1.44,1.21-1.44,2.02v4.05h-1.71v-7.5h1.65v.6c.27-.21.9-.75,2.1-.75.87,0,1.62.3,2.02.99.33-.33,1.07-.99,2.37-.99s2.35.69,2.35,2.34v5.31h-1.71v-4.95c0-.71-.51-1.12-1.24-1.12-1.22,0-1.44,1.21-1.44,2.02v4.05h-1.71Z"/><path class="cls-4" d="m149.18,224.99v-4.95c0-.71-.51-1.12-1.25-1.12-1.21,0-1.44,1.21-1.44,2.02v4.05h-1.71v-7.5h1.65v.6c.27-.21.9-.75,2.1-.75.87,0,1.62.3,2.03.99.33-.33,1.06-.99,2.37-.99s2.36.69,2.36,2.34v5.31h-1.71v-4.95c0-.71-.51-1.12-1.25-1.12-1.21,0-1.44,1.21-1.44,2.02v4.05h-1.71Z"/><path class="cls-4" d="m158.67,217.49v4.95c0,.9.58,1.35,1.32,1.35,1.21,0,1.49-1.2,1.49-2.1v-4.2h1.71v7.5h-1.65v-.6c-.27.21-.95.75-2.14.75-1.31,0-2.43-.84-2.43-2.49v-5.16h1.71Z"/><path class="cls-4" d="m169.5,224.99v-4.95c0-.71-.54-1.12-1.3-1.12-1.21,0-1.5,1.06-1.5,1.88v4.2h-1.71v-7.5h1.65v.6c.62-.48,1.4-.75,2.16-.75,1.3,0,2.42.69,2.42,2.34v5.31h-1.71Z"/><path class="cls-4" d="m174.66,214.64v1.8h-1.71v-1.8h1.71Zm0,2.85v7.5h-1.71v-7.5h1.71Z"/><path class="cls-4" d="m179.67,217.34c2.61,0,3.21,2.28,3.42,3.3h-1.74c-.15-.93-.62-1.65-1.74-1.65-.97,0-1.8.75-1.8,2.25,0,1.59.92,2.25,1.92,2.25,1.14,0,1.5-.81,1.77-1.5h1.56c0,1.26-1.11,3.15-3.48,3.15-2.07,0-3.42-1.8-3.42-3.84,0-2.32,1.47-3.96,3.51-3.96Z"/><path class="cls-4" d="m191.47,223.43c.19,0,.39-.03.67-.09v1.65c-.53.08-.79.09-1.07.09-.92,0-1.35-.19-1.69-.78-.27.21-1.02.84-2.34.84-1.68,0-2.94-1.17-2.94-2.49,0-1.71,1.44-2.4,3.51-2.4h1.44v-.36c0-.81-.63-1.35-1.53-1.35s-1.41.46-1.41,1.35h-1.83c0-1.62,1.44-2.55,3.28-2.55,1.7,0,3.13.77,3.13,2.39v3.06c0,.45.3.65.77.65Zm-4.19.51c1.23,0,1.77-1.05,1.77-1.65v-.75c-2.61-.12-3.09.48-3.09,1.29,0,.6.51,1.11,1.32,1.11Z"/><path class="cls-4" d="m194.7,214.79v2.7h1.05v1.65h-1.05v3.87c0,.45.3.57.6.57.27,0,.45-.06.55-.12v1.5c-.13.04-.5.18-1.18.18-1.14,0-1.62-.69-1.62-1.41v-4.59h-.9v-1.65h.9v-2.7h1.65Z"/><path class="cls-4" d="m198.92,214.64v1.8h-1.71v-1.8h1.71Zm0,2.85v7.5h-1.71v-7.5h1.71Z"/><path class="cls-4" d="m204.01,217.34c2.25,0,3.6,1.94,3.6,3.96,0,1.89-1.2,3.84-3.6,3.84s-3.6-1.95-3.6-3.84c0-2.02,1.35-3.96,3.6-3.96Zm0,1.65c-1.19,0-1.95.9-1.95,2.25,0,1.44.79,2.25,1.95,2.25s1.95-.81,1.95-2.25c0-1.35-.77-2.25-1.95-2.25Z"/><path class="cls-4" d="m213.63,224.99v-4.95c0-.71-.54-1.12-1.3-1.12-1.21,0-1.5,1.06-1.5,1.88v4.2h-1.71v-7.5h1.65v.6c.62-.48,1.39-.75,2.16-.75,1.3,0,2.41.69,2.41,2.34v5.31h-1.71Z"/><path class="cls-4" d="m135.35,237.89c0-3.23,2-5.25,4.53-5.25s4.56,2.02,4.56,5.25-2.03,5.25-4.56,5.25-4.53-2.02-4.53-5.25Zm7.21,0c0-2.18-1.11-3.46-2.68-3.46s-2.67,1.29-2.67,3.46,1.09,3.46,2.67,3.46,2.68-1.29,2.68-3.46Z"/><path class="cls-4" d="m146.94,235.49l1.79,4.87,1.79-4.87h1.77l-2.79,7.5h-1.53l-2.79-7.5h1.77Z"/><path class="cls-4" d="m156.06,235.34c2.1,0,3.4,1.5,3.51,4.29h-5.33c.13,1.31.92,1.86,1.92,1.86,1.16,0,1.52-.72,1.67-1.05h1.65c-.09,1.02-1.05,2.7-3.3,2.7s-3.6-1.8-3.6-3.84,1.38-3.96,3.48-3.96Zm-1.7,2.79h3.43c-.1-.92-.72-1.44-1.68-1.44-.79,0-1.48.44-1.75,1.44Z"/><path class="cls-4" d="m164.4,236.96c-1.09,0-1.74.45-1.74,2.27v3.76h-1.71v-7.5h1.65v.84c.42-.51.93-.99,1.89-.99.45,0,.87.09,1.2.24l-.09,1.65c-.34-.15-.63-.27-1.2-.27Z"/><path class="cls-4" d="m168.34,232.79v10.2h-1.71v-10.2h1.71Z"/><path class="cls-4" d="m173.44,235.34c2.25,0,3.6,1.94,3.6,3.96,0,1.89-1.2,3.84-3.6,3.84s-3.6-1.95-3.6-3.84c0-2.02,1.35-3.96,3.6-3.96Zm0,1.65c-1.18,0-1.95.9-1.95,2.25,0,1.44.79,2.25,1.95,2.25s1.95-.81,1.95-2.25c0-1.35-.76-2.25-1.95-2.25Z"/><path class="cls-4" d="m185.49,241.43c.2,0,.39-.03.67-.09v1.65c-.52.08-.79.09-1.06.09-.92,0-1.35-.19-1.7-.78-.27.21-1.02.84-2.34.84-1.68,0-2.94-1.17-2.94-2.49,0-1.71,1.44-2.4,3.51-2.4h1.44v-.36c0-.81-.63-1.35-1.53-1.35s-1.41.46-1.41,1.35h-1.83c0-1.62,1.44-2.55,3.29-2.55,1.69,0,3.13.77,3.13,2.39v3.06c0,.45.3.65.76.65Zm-4.18.51c1.23,0,1.77-1.05,1.77-1.65v-.75c-2.61-.12-3.09.48-3.09,1.29,0,.6.51,1.11,1.32,1.11Z"/><path class="cls-4" d="m192.1,242.99v-.66c-.33.24-.99.81-2.07.81-2.19,0-3.42-1.92-3.42-3.84,0-2.16,1.17-3.96,3.36-3.96,1.08,0,1.71.45,2.07.69v-3.24h1.65v10.2h-1.59Zm-1.89-1.5c1.12,0,1.89-.75,1.89-2.25s-.79-2.25-1.89-2.25-1.95.66-1.95,2.25c0,1.5.83,2.25,1.95,2.25Z"/><path class="cls-4" d="m136.99,257.24c-.01-2.14.51-3.85,1.68-6.22h1.5c-1.09,2.25-1.67,4.29-1.67,6.24s.71,4.51,1.67,6.21h-1.5c-1-1.77-1.66-4.08-1.68-6.23Z"/><path class="cls-4" d="m144.04,258.18l1.54-7.4h2.59l1.51,7.44,1.73-7.44h1.8l-2.47,10.2h-2.16l-1.74-8.04-1.71,8.04h-2.14l-2.5-10.2h1.88l1.68,7.4Z"/><path class="cls-4" d="m160.7,259.43c.19,0,.39-.03.67-.09v1.65c-.53.08-.79.09-1.07.09-.92,0-1.35-.19-1.69-.78-.27.21-1.02.84-2.34.84-1.68,0-2.94-1.17-2.94-2.49,0-1.71,1.44-2.4,3.51-2.4h1.44v-.36c0-.81-.63-1.35-1.53-1.35s-1.41.46-1.41,1.35h-1.83c0-1.62,1.44-2.55,3.28-2.55,1.7,0,3.13.77,3.13,2.39v3.06c0,.45.3.65.77.65Zm-4.19.51c1.23,0,1.77-1.05,1.77-1.65v-.75c-2.61-.12-3.09.48-3.09,1.29,0,.6.51,1.11,1.32,1.11Z"/><path class="cls-4" d="m162.55,253.49l1.79,4.87,1.79-4.87h1.77l-2.79,7.5h-1.53l-2.79-7.5h1.77Z"/><path class="cls-4" d="m171.67,253.34c2.1,0,3.41,1.5,3.51,4.29h-5.32c.13,1.31.92,1.86,1.92,1.86,1.15,0,1.51-.72,1.67-1.05h1.65c-.09,1.02-1.05,2.7-3.3,2.7s-3.6-1.8-3.6-3.84,1.38-3.96,3.48-3.96Zm-1.69,2.79h3.43c-.11-.92-.72-1.44-1.68-1.44-.79,0-1.49.44-1.75,1.44Z"/><path class="cls-4" d="m180.46,259.53h2.82v-5.89h-2.38v-1.2c2.21-.15,2.62-.9,2.82-1.65h1.35v8.74h2.59v1.46h-7.2v-1.46Z"/><path class="cls-4" d="m192.2,257.24c.02,2.15-.51,3.85-1.68,6.23h-1.5c1.09-2.25,1.67-4.29,1.67-6.24s-.71-4.52-1.67-6.21h1.5c1,1.77,1.67,4.08,1.68,6.22Z"/><path class="cls-4" d="m383.89,210.57h4.2l-.04,5.41h-1.69c-.02-.23-.02-.44-.03-.65-.51.5-1.33.79-2.34.79-2.59,0-4.67-1.95-4.67-5.25s2.01-5.25,4.68-5.25c1.98,0,3.69.99,4,3.28h-2.1c-.11-.87-.86-1.5-2.01-1.5-1.65,0-2.71,1.29-2.71,3.46s1.17,3.46,3.03,3.46c1.29,0,1.92-.65,2.1-2.07h-2.42v-1.71Z"/><path class="cls-4" d="m394.37,215.99v-4.95c0-.84-.57-1.29-1.31-1.29-1.21,0-1.5,1.29-1.5,2.19v4.05h-1.65v-10.2h1.59v3.3c.27-.27.96-.75,2.16-.75,1.3,0,2.42.69,2.42,2.34v5.31h-1.71Z"/><path class="cls-4" d="m401.12,208.34c2.25,0,3.6,1.94,3.6,3.96,0,1.89-1.2,3.84-3.6,3.84s-3.6-1.95-3.6-3.84c0-2.02,1.35-3.96,3.6-3.96Zm0,1.65c-1.18,0-1.95.9-1.95,2.25,0,1.44.79,2.25,1.95,2.25s1.95-.81,1.95-2.25c0-1.35-.76-2.25-1.95-2.25Z"/><path class="cls-4" d="m408.8,209.61c-.87,0-1.17.39-1.17.78,0,1.26,4.44.33,4.44,3.24,0,1.41-1.02,2.5-3.09,2.5-2.68,0-3.21-1.65-3.21-2.55h1.71c.12.58.51,1.2,1.63,1.2.83,0,1.3-.31,1.3-.94,0-1.48-4.44-.38-4.44-3.22,0-1.17.78-2.28,2.97-2.28,2.37,0,3,1.56,3,2.31h-1.71c.03-.67-.54-1.03-1.44-1.03Z"/><path class="cls-4" d="m415.37,205.79v2.7h1.05v1.65h-1.05v3.87c0,.45.3.57.6.57.27,0,.45-.06.56-.12v1.5c-.14.04-.5.18-1.19.18-1.14,0-1.62-.69-1.62-1.41v-4.59h-.9v-1.65h.9v-2.7h1.65Z"/><path class="cls-4" d="m419.58,205.64v1.8h-1.71v-1.8h1.71Zm0,2.85v7.5h-1.71v-7.5h1.71Z"/><path class="cls-4" d="m425.9,215.99v-4.95c0-.71-.54-1.12-1.3-1.12-1.21,0-1.5,1.06-1.5,1.88v4.2h-1.71v-7.5h1.65v.6c.62-.48,1.39-.75,2.16-.75,1.3,0,2.41.69,2.41,2.34v5.31h-1.71Z"/><path class="cls-4" d="m434.3,215.06c-.36.29-1,.63-1.92.63-2.19,0-3.33-1.65-3.33-3.54,0-2.02,1.32-3.81,3.24-3.81,1.11,0,1.74.42,2.07.69v-.54h1.59v7.35c0,1.92-1.14,3-3.33,3s-3.51-.93-3.51-2.55h1.71c.18.5.42,1.2,1.77,1.2,1.2,0,1.71-.6,1.71-1.5v-.93Zm-1.74-.72c1.09,0,1.8-.75,1.8-2.19,0-1.35-.67-2.16-1.8-2.16s-1.86.81-1.86,2.16c0,1.44.76,2.19,1.86,2.19Z"/><path class="cls-4" d="m440.9,210.89c0-3.23,2-5.25,4.53-5.25s4.56,2.02,4.56,5.25-2.03,5.25-4.56,5.25-4.53-2.02-4.53-5.25Zm7.21,0c0-2.18-1.11-3.46-2.68-3.46s-2.67,1.29-2.67,3.46,1.09,3.46,2.67,3.46,2.68-1.29,2.68-3.46Z"/><path class="cls-4" d="m453.57,205.79v2.7h1.05v1.65h-1.05v3.87c0,.45.3.57.6.57.27,0,.45-.06.56-.12v1.5c-.14.04-.5.18-1.19.18-1.14,0-1.62-.69-1.62-1.41v-4.59h-.9v-1.65h.9v-2.7h1.65Z"/><path class="cls-4" d="m460.53,215.99v-4.95c0-.84-.57-1.29-1.3-1.29-1.21,0-1.5,1.29-1.5,2.19v4.05h-1.65v-10.2h1.59v3.3c.27-.27.96-.75,2.16-.75,1.3,0,2.42.69,2.42,2.34v5.31h-1.71Z"/><path class="cls-4" d="m467.09,208.34c2.1,0,3.41,1.5,3.51,4.29h-5.32c.13,1.31.92,1.86,1.92,1.86,1.15,0,1.51-.72,1.67-1.05h1.65c-.09,1.02-1.05,2.7-3.3,2.7s-3.6-1.8-3.6-3.84,1.38-3.96,3.48-3.96Zm-1.69,2.79h3.43c-.11-.92-.72-1.44-1.68-1.44-.79,0-1.49.44-1.75,1.44Z"/><path class="cls-4" d="m475.43,209.96c-1.09,0-1.74.45-1.74,2.27v3.76h-1.71v-7.5h1.65v.84c.42-.51.93-.99,1.89-.99.45,0,.87.09,1.2.24l-.09,1.65c-.35-.15-.63-.27-1.2-.27Z"/><path class="cls-4" d="m480.24,209.61c-.87,0-1.17.39-1.17.78,0,1.26,4.44.33,4.44,3.24,0,1.41-1.02,2.5-3.09,2.5-2.68,0-3.21-1.65-3.21-2.55h1.71c.12.58.51,1.2,1.63,1.2.83,0,1.3-.31,1.3-.94,0-1.48-4.44-.38-4.44-3.22,0-1.17.78-2.28,2.97-2.28,2.37,0,3,1.56,3,2.31h-1.71c.03-.67-.54-1.03-1.44-1.03Z"/><path class="cls-4" d="m381.94,231.18l1.54-7.4h2.6l1.51,7.44,1.72-7.44h1.8l-2.47,10.2h-2.16l-1.74-8.04-1.71,8.04h-2.15l-2.5-10.2h1.88l1.68,7.4Z"/><path class="cls-4" d="m393.67,223.64v1.8h-1.71v-1.8h1.71Zm0,2.85v7.5h-1.71v-7.5h1.71Z"/><path class="cls-4" d="m397.42,223.79v2.7h1.05v1.65h-1.05v3.87c0,.45.3.57.6.57.27,0,.45-.06.55-.12v1.5c-.13.04-.5.18-1.18.18-1.14,0-1.62-.69-1.62-1.41v-4.59h-.9v-1.65h.9v-2.7h1.65Z"/><path class="cls-4" d="m404.38,233.99v-4.95c0-.84-.57-1.29-1.31-1.29-1.21,0-1.5,1.29-1.5,2.19v4.05h-1.65v-10.2h1.59v3.3c.27-.27.96-.75,2.16-.75,1.3,0,2.42.69,2.42,2.34v5.31h-1.71Z"/><path class="cls-4" d="m409.54,223.64v1.8h-1.71v-1.8h1.71Zm0,2.85v7.5h-1.71v-7.5h1.71Z"/><path class="cls-4" d="m415.86,233.99v-4.95c0-.71-.54-1.12-1.3-1.12-1.21,0-1.5,1.06-1.5,1.88v4.2h-1.71v-7.5h1.65v.6c.62-.48,1.39-.75,2.16-.75,1.3,0,2.41.69,2.41,2.34v5.31h-1.71Z"/><path class="cls-4" d="m423,223.79h4.23c2.22,0,3.27,1.1,3.27,2.91,0,1.15-.76,1.9-1.77,2.37.63.3.9.87,1,1.47l.22,1.27c.15.85.62,1.69,1.33,2.17h-2.35c-.54-.24-.74-.88-.87-1.83l-.17-1.15c-.12-.81-.45-1.4-1.35-1.4h-1.77v4.38h-1.78v-10.2Zm1.78,1.69v2.43h2.4c1.02,0,1.46-.44,1.46-1.21s-.53-1.22-1.41-1.22h-2.45Z"/><path class="cls-4" d="m435.27,226.34c2.25,0,3.6,1.94,3.6,3.96,0,1.89-1.2,3.84-3.6,3.84s-3.6-1.95-3.6-3.84c0-2.02,1.35-3.96,3.6-3.96Zm0,1.65c-1.19,0-1.95.9-1.95,2.25,0,1.44.79,2.25,1.95,2.25s1.95-.81,1.95-2.25c0-1.35-.77-2.25-1.95-2.25Z"/><path class="cls-4" d="m444.76,233.99v-4.95c0-.71-.51-1.12-1.25-1.12-1.21,0-1.44,1.21-1.44,2.02v4.05h-1.71v-7.5h1.65v.6c.27-.21.9-.75,2.1-.75.87,0,1.62.3,2.03.99.33-.33,1.06-.99,2.37-.99s2.36.69,2.36,2.34v5.31h-1.71v-4.95c0-.71-.51-1.12-1.25-1.12-1.21,0-1.44,1.21-1.44,2.02v4.05h-1.71Z"/><path class="cls-4" d="m459.55,232.43c.2,0,.39-.03.67-.09v1.65c-.52.08-.79.09-1.06.09-.92,0-1.35-.19-1.7-.78-.27.21-1.02.84-2.34.84-1.68,0-2.94-1.17-2.94-2.49,0-1.71,1.44-2.4,3.51-2.4h1.44v-.36c0-.81-.63-1.35-1.53-1.35s-1.41.46-1.41,1.35h-1.83c0-1.62,1.44-2.55,3.29-2.55,1.69,0,3.13.77,3.13,2.39v3.06c0,.45.3.65.76.65Zm-4.18.51c1.23,0,1.77-1.05,1.77-1.65v-.75c-2.61-.12-3.09.48-3.09,1.29,0,.6.51,1.11,1.32,1.11Z"/><path class="cls-4" d="m465.49,233.99v-4.95c0-.71-.54-1.12-1.3-1.12-1.21,0-1.5,1.06-1.5,1.88v4.2h-1.71v-7.5h1.65v.6c.62-.48,1.4-.75,2.16-.75,1.3,0,2.42.69,2.42,2.34v5.31h-1.71Z"/><path class="cls-4" d="m470.89,223.79v2.7h1.05v1.65h-1.05v3.87c0,.45.3.57.6.57.27,0,.45-.06.55-.12v1.5c-.13.04-.5.18-1.18.18-1.14,0-1.62-.69-1.62-1.41v-4.59h-.9v-1.65h.9v-2.7h1.65Z"/><path class="cls-4" d="m475.11,223.64v1.8h-1.71v-1.8h1.71Zm0,2.85v7.5h-1.71v-7.5h1.71Z"/><path class="cls-4" d="m480.12,226.34c2.61,0,3.21,2.28,3.42,3.3h-1.74c-.15-.93-.62-1.65-1.74-1.65-.97,0-1.8.75-1.8,2.25,0,1.59.92,2.25,1.92,2.25,1.14,0,1.5-.81,1.77-1.5h1.56c0,1.26-1.11,3.15-3.48,3.15-2.07,0-3.42-1.8-3.42-3.84,0-2.32,1.47-3.96,3.51-3.96Z"/><path class="cls-4" d="m388.65,241.79h4.23c2.22,0,3.27,1.1,3.27,2.91,0,1.15-.76,1.9-1.77,2.37.63.3.9.87,1,1.47l.22,1.27c.15.85.62,1.69,1.33,2.17h-2.35c-.54-.24-.74-.88-.87-1.83l-.17-1.15c-.12-.81-.45-1.4-1.35-1.4h-1.77v4.38h-1.78v-10.2Zm1.78,1.69v2.43h2.4c1.02,0,1.46-.44,1.46-1.21s-.53-1.22-1.41-1.22h-2.45Z"/><path class="cls-4" d="m400.72,244.34c2.1,0,3.41,1.5,3.51,4.29h-5.32c.13,1.31.92,1.86,1.92,1.86,1.15,0,1.51-.72,1.67-1.05h1.65c-.09,1.02-1.05,2.7-3.3,2.7s-3.6-1.8-3.6-3.84,1.38-3.96,3.48-3.96Zm-1.69,2.79h3.43c-.11-.92-.72-1.44-1.68-1.44-.79,0-1.49.44-1.75,1.44Z"/><path class="cls-4" d="m407.32,241.79v10.2h-1.71v-10.2h1.71Z"/><path class="cls-4" d="m416.07,250.43c.19,0,.39-.03.67-.09v1.65c-.53.08-.79.09-1.07.09-.92,0-1.35-.19-1.69-.78-.27.21-1.02.84-2.34.84-1.68,0-2.94-1.17-2.94-2.49,0-1.71,1.44-2.4,3.51-2.4h1.44v-.36c0-.81-.63-1.35-1.53-1.35s-1.41.46-1.41,1.35h-1.83c0-1.62,1.44-2.55,3.28-2.55,1.7,0,3.13.77,3.13,2.39v3.06c0,.45.3.65.77.65Zm-4.19.51c1.23,0,1.77-1.05,1.77-1.65v-.75c-2.61-.12-3.09.48-3.09,1.29,0,.6.51,1.11,1.32,1.11Z"/><path class="cls-4" d="m419.29,241.79v2.7h1.05v1.65h-1.05v3.87c0,.45.3.57.6.57.27,0,.45-.06.55-.12v1.5c-.13.04-.5.18-1.18.18-1.14,0-1.62-.69-1.62-1.41v-4.59h-.9v-1.65h.9v-2.7h1.65Z"/><path class="cls-4" d="m423.51,241.64v1.8h-1.71v-1.8h1.71Zm0,2.85v7.5h-1.71v-7.5h1.71Z"/><path class="cls-4" d="m428.61,244.34c2.25,0,3.6,1.94,3.6,3.96,0,1.89-1.2,3.84-3.6,3.84s-3.6-1.95-3.6-3.84c0-2.02,1.35-3.96,3.6-3.96Zm0,1.65c-1.19,0-1.95.9-1.95,2.25,0,1.44.79,2.25,1.95,2.25s1.95-.81,1.95-2.25c0-1.35-.77-2.25-1.95-2.25Z"/><path class="cls-4" d="m438.22,251.99v-4.95c0-.71-.54-1.12-1.3-1.12-1.21,0-1.5,1.06-1.5,1.88v4.2h-1.71v-7.5h1.65v.6c.62-.48,1.39-.75,2.16-.75,1.3,0,2.41.69,2.41,2.34v5.31h-1.71Z"/><path class="cls-4" d="m444.25,245.61c-.87,0-1.17.39-1.17.78,0,1.26,4.44.33,4.44,3.24,0,1.41-1.02,2.5-3.09,2.5-2.68,0-3.21-1.65-3.21-2.55h1.71c.12.58.51,1.2,1.64,1.2.82,0,1.3-.31,1.3-.94,0-1.48-4.44-.38-4.44-3.22,0-1.17.78-2.28,2.97-2.28,2.37,0,3,1.56,3,2.31h-1.71c.03-.67-.54-1.03-1.44-1.03Z"/><path class="cls-4" d="m453.33,251.99v-4.95c0-.84-.57-1.29-1.31-1.29-1.21,0-1.5,1.29-1.5,2.19v4.05h-1.65v-10.2h1.59v3.3c.27-.27.96-.75,2.16-.75,1.3,0,2.42.69,2.42,2.34v5.31h-1.71Z"/><path class="cls-4" d="m458.49,241.64v1.8h-1.71v-1.8h1.71Zm0,2.85v7.5h-1.71v-7.5h1.71Z"/><path class="cls-4" d="m461.88,244.49v.66c.33-.24.99-.81,2.07-.81,2.19,0,3.42,1.92,3.42,3.84,0,2.16-1.17,3.96-3.36,3.96-1.08,0-1.71-.45-2.07-.69v3.24h-1.65v-10.2h1.59Zm1.89,1.5c-1.12,0-1.89.75-1.89,2.25s.79,2.25,1.89,2.25,1.95-.66,1.95-2.25c0-1.5-.82-2.25-1.95-2.25Z"/><path class="cls-4" d="m471.45,245.61c-.87,0-1.17.39-1.17.78,0,1.26,4.44.33,4.44,3.24,0,1.41-1.02,2.5-3.09,2.5-2.68,0-3.21-1.65-3.21-2.55h1.71c.12.58.51,1.2,1.64,1.2.82,0,1.3-.31,1.3-.94,0-1.48-4.44-.38-4.44-3.22,0-1.17.78-2.28,2.97-2.28,2.37,0,3,1.56,3,2.31h-1.71c.03-.67-.54-1.03-1.44-1.03Z"/><path class="cls-4" d="m403.66,266.24c-.01-2.14.51-3.85,1.68-6.22h1.5c-1.09,2.25-1.67,4.29-1.67,6.24s.71,4.51,1.67,6.21h-1.5c-1-1.77-1.66-4.08-1.68-6.23Z"/><path class="cls-4" d="m410.71,267.18l1.54-7.4h2.59l1.51,7.44,1.73-7.44h1.8l-2.47,10.2h-2.16l-1.74-8.04-1.71,8.04h-2.14l-2.5-10.2h1.88l1.68,7.4Z"/><path class="cls-4" d="m427.37,268.43c.19,0,.39-.03.67-.09v1.65c-.53.08-.79.09-1.07.09-.92,0-1.35-.19-1.69-.78-.27.21-1.02.84-2.34.84-1.68,0-2.94-1.17-2.94-2.49,0-1.71,1.44-2.4,3.51-2.4h1.44v-.36c0-.81-.63-1.35-1.53-1.35s-1.41.46-1.41,1.35h-1.83c0-1.62,1.44-2.55,3.28-2.55,1.7,0,3.13.77,3.13,2.39v3.06c0,.45.3.65.77.65Zm-4.19.51c1.23,0,1.77-1.05,1.77-1.65v-.75c-2.61-.12-3.09.48-3.09,1.29,0,.6.51,1.11,1.32,1.11Z"/><path class="cls-4" d="m429.21,262.49l1.79,4.87,1.79-4.87h1.77l-2.79,7.5h-1.53l-2.79-7.5h1.77Z"/><path class="cls-4" d="m438.33,262.34c2.1,0,3.41,1.5,3.51,4.29h-5.32c.13,1.31.92,1.86,1.92,1.86,1.15,0,1.51-.72,1.67-1.05h1.65c-.09,1.02-1.05,2.7-3.3,2.7s-3.6-1.8-3.6-3.84,1.38-3.96,3.48-3.96Zm-1.69,2.79h3.43c-.11-.92-.72-1.44-1.68-1.44-.79,0-1.49.44-1.75,1.44Z"/><path class="cls-4" d="m446.9,268.49l3.39-3.01c1.14-1,1.84-1.64,1.84-2.62,0-.81-.56-1.56-1.71-1.56s-1.77.79-1.79,2.27h-1.8c-.15-2.48,1.48-3.92,3.72-3.92s3.41,1.42,3.41,3c0,1.68-.95,2.8-2.19,3.81l-2.16,1.74h4.4v1.8h-7.11v-1.5Z"/><path class="cls-4" d="m458.87,266.24c.02,2.15-.51,3.85-1.68,6.23h-1.5c1.09-2.25,1.67-4.29,1.67-6.24s-.71-4.52-1.67-6.21h1.5c1,1.77,1.67,4.08,1.68,6.22Z"/><path class="cls-4" d="m158.12,352.18h-3.36l-1.1,2.8h-1.89l3.9-10.2h1.53l3.9,10.2h-1.89l-1.09-2.8Zm-.63-1.65l-1.05-2.68-1.05,2.68h2.1Z"/><path class="cls-4" d="m166.83,354.06c-.36.29-1,.63-1.92.63-2.19,0-3.33-1.65-3.33-3.54,0-2.03,1.32-3.81,3.24-3.81,1.11,0,1.74.42,2.07.69v-.54h1.59v7.35c0,1.92-1.14,3-3.33,3s-3.51-.93-3.51-2.55h1.71c.18.5.42,1.2,1.77,1.2,1.2,0,1.71-.6,1.71-1.5v-.93Zm-1.74-.72c1.09,0,1.8-.75,1.8-2.19,0-1.35-.67-2.16-1.8-2.16s-1.86.81-1.86,2.16c0,1.44.76,2.19,1.86,2.19Z"/><path class="cls-4" d="m173.39,347.34c2.1,0,3.4,1.5,3.51,4.29h-5.33c.13,1.31.92,1.86,1.92,1.86,1.16,0,1.52-.72,1.67-1.05h1.65c-.09,1.02-1.05,2.7-3.3,2.7s-3.6-1.8-3.6-3.84,1.38-3.96,3.48-3.96Zm-1.7,2.79h3.43c-.1-.92-.72-1.44-1.68-1.44-.79,0-1.48.43-1.75,1.44Z"/><path class="cls-4" d="m144.22,447.79h1.79v4.05h3.99v-4.05h1.78v10.2h-1.78v-4.38h-3.99v4.38h-1.79v-10.2Z"/><path class="cls-4" d="m155.68,447.64v1.8h-1.71v-1.8h1.71Zm0,2.85v7.5h-1.71v-7.5h1.71Z"/><path class="cls-4" d="m162.43,457.06c-.36.29-1,.63-1.92.63-2.19,0-3.33-1.65-3.33-3.54,0-2.03,1.32-3.81,3.24-3.81,1.11,0,1.74.42,2.07.69v-.54h1.59v7.35c0,1.92-1.14,3-3.33,3s-3.51-.93-3.51-2.55h1.71c.18.5.42,1.2,1.77,1.2,1.2,0,1.71-.6,1.71-1.5v-.93Zm-1.74-.72c1.09,0,1.8-.75,1.8-2.19,0-1.35-.67-2.16-1.8-2.16s-1.86.81-1.86,2.16c0,1.44.76,2.19,1.86,2.19Z"/><path class="cls-4" d="m170.33,457.99v-4.95c0-.84-.57-1.29-1.31-1.29-1.21,0-1.5,1.29-1.5,2.19v4.05h-1.65v-10.2h1.59v3.3c.27-.27.96-.75,2.16-.75,1.3,0,2.42.69,2.42,2.34v5.31h-1.71Z"/><path class="cls-4" d="m176.89,450.34c2.1,0,3.4,1.5,3.51,4.29h-5.33c.13,1.31.92,1.86,1.92,1.86,1.16,0,1.52-.72,1.67-1.05h1.65c-.09,1.02-1.05,2.7-3.3,2.7s-3.6-1.8-3.6-3.84,1.38-3.96,3.48-3.96Zm-1.7,2.79h3.43c-.1-.92-.72-1.44-1.68-1.44-.79,0-1.48.43-1.75,1.44Z"/><path class="cls-4" d="m185.23,451.96c-1.09,0-1.74.45-1.74,2.27v3.76h-1.71v-7.5h1.65v.84c.42-.51.93-.99,1.89-.99.45,0,.87.09,1.2.24l-.09,1.65c-.34-.15-.63-.27-1.2-.27Z"/><path class="cls-4" d="m133.12,465.79h6.24v1.7h-4.46v2.08h4.21v1.7h-4.21v3.03h4.46v1.7h-6.24v-10.2Z"/><path class="cls-4" d="m146.29,475.99v-.66c-.33.24-.99.81-2.07.81-2.19,0-3.42-1.92-3.42-3.84,0-2.16,1.17-3.96,3.36-3.96,1.08,0,1.71.45,2.07.69v-3.24h1.65v10.2h-1.59Zm-1.89-1.5c1.12,0,1.89-.75,1.89-2.25s-.79-2.25-1.89-2.25-1.95.66-1.95,2.25c0,1.5.83,2.25,1.95,2.25Z"/><path class="cls-4" d="m151.33,468.49v4.95c0,.9.58,1.35,1.32,1.35,1.21,0,1.49-1.2,1.49-2.1v-4.2h1.71v7.5h-1.65v-.6c-.27.21-.95.75-2.14.75-1.31,0-2.43-.84-2.43-2.49v-5.16h1.71Z"/><path class="cls-4" d="m160.85,468.34c2.61,0,3.21,2.28,3.42,3.3h-1.74c-.15-.93-.62-1.65-1.74-1.65-.97,0-1.8.75-1.8,2.25,0,1.59.92,2.25,1.92,2.25,1.14,0,1.5-.81,1.77-1.5h1.56c0,1.26-1.11,3.15-3.48,3.15-2.07,0-3.42-1.8-3.42-3.84,0-2.32,1.47-3.96,3.51-3.96Z"/><path class="cls-4" d="m172.66,474.43c.19,0,.39-.03.67-.09v1.65c-.53.08-.79.09-1.07.09-.92,0-1.35-.2-1.69-.78-.27.21-1.02.84-2.34.84-1.68,0-2.94-1.17-2.94-2.49,0-1.71,1.44-2.4,3.51-2.4h1.44v-.36c0-.81-.63-1.35-1.53-1.35s-1.41.46-1.41,1.35h-1.83c0-1.62,1.44-2.55,3.28-2.55,1.7,0,3.13.77,3.13,2.39v3.06c0,.45.3.64.77.64Zm-4.19.51c1.23,0,1.77-1.05,1.77-1.65v-.75c-2.61-.12-3.09.48-3.09,1.29,0,.6.51,1.11,1.32,1.11Z"/><path class="cls-4" d="m175.88,465.79v2.7h1.05v1.65h-1.05v3.87c0,.45.3.57.6.57.27,0,.45-.06.55-.12v1.5c-.13.04-.5.18-1.18.18-1.14,0-1.62-.69-1.62-1.41v-4.59h-.9v-1.65h.9v-2.7h1.65Z"/><path class="cls-4" d="m180.1,465.64v1.8h-1.71v-1.8h1.71Zm0,2.85v7.5h-1.71v-7.5h1.71Z"/><path class="cls-4" d="m185.2,468.34c2.25,0,3.6,1.94,3.6,3.96,0,1.89-1.2,3.84-3.6,3.84s-3.6-1.95-3.6-3.84c0-2.02,1.35-3.96,3.6-3.96Zm0,1.65c-1.19,0-1.95.9-1.95,2.25,0,1.44.79,2.25,1.95,2.25s1.95-.81,1.95-2.25c0-1.35-.77-2.25-1.95-2.25Z"/><path class="cls-4" d="m194.81,475.99v-4.95c0-.71-.54-1.12-1.3-1.12-1.21,0-1.5,1.07-1.5,1.88v4.2h-1.71v-7.5h1.65v.6c.62-.48,1.39-.75,2.16-.75,1.3,0,2.41.69,2.41,2.34v5.31h-1.71Z"/><path class="cls-4" d="m383.89,322.57h4.2l-.04,5.42h-1.69c-.02-.23-.02-.44-.03-.65-.51.5-1.33.79-2.34.79-2.59,0-4.67-1.95-4.67-5.25s2.01-5.25,4.68-5.25c1.98,0,3.69.99,4,3.28h-2.1c-.11-.87-.86-1.5-2.01-1.5-1.65,0-2.71,1.29-2.71,3.46s1.17,3.46,3.03,3.46c1.29,0,1.92-.65,2.1-2.07h-2.42v-1.71Z"/><path class="cls-4" d="m394.37,327.99v-4.95c0-.84-.57-1.29-1.31-1.29-1.21,0-1.5,1.29-1.5,2.19v4.05h-1.65v-10.2h1.59v3.3c.27-.27.96-.75,2.16-.75,1.3,0,2.42.69,2.42,2.34v5.31h-1.71Z"/><path class="cls-4" d="m401.12,320.34c2.25,0,3.6,1.94,3.6,3.96,0,1.89-1.2,3.84-3.6,3.84s-3.6-1.95-3.6-3.84c0-2.02,1.35-3.96,3.6-3.96Zm0,1.65c-1.18,0-1.95.9-1.95,2.25,0,1.44.79,2.25,1.95,2.25s1.95-.81,1.95-2.25c0-1.35-.76-2.25-1.95-2.25Z"/><path class="cls-4" d="m408.8,321.61c-.87,0-1.17.39-1.17.78,0,1.26,4.44.33,4.44,3.24,0,1.41-1.02,2.5-3.09,2.5-2.68,0-3.21-1.65-3.21-2.55h1.71c.12.58.51,1.2,1.63,1.2.83,0,1.3-.32,1.3-.95,0-1.48-4.44-.38-4.44-3.22,0-1.17.78-2.28,2.97-2.28,2.37,0,3,1.56,3,2.31h-1.71c.03-.67-.54-1.04-1.44-1.04Z"/><path class="cls-4" d="m415.37,317.79v2.7h1.05v1.65h-1.05v3.87c0,.45.3.57.6.57.27,0,.45-.06.56-.12v1.5c-.14.04-.5.18-1.19.18-1.14,0-1.62-.69-1.62-1.41v-4.59h-.9v-1.65h.9v-2.7h1.65Z"/><path class="cls-4" d="m419.58,317.64v1.8h-1.71v-1.8h1.71Zm0,2.85v7.5h-1.71v-7.5h1.71Z"/><path class="cls-4" d="m425.9,327.99v-4.95c0-.71-.54-1.12-1.3-1.12-1.21,0-1.5,1.07-1.5,1.88v4.2h-1.71v-7.5h1.65v.6c.62-.48,1.39-.75,2.16-.75,1.3,0,2.41.69,2.41,2.34v5.31h-1.71Z"/><path class="cls-4" d="m434.3,327.06c-.36.29-1,.63-1.92.63-2.19,0-3.33-1.65-3.33-3.54,0-2.03,1.32-3.81,3.24-3.81,1.11,0,1.74.42,2.07.69v-.54h1.59v7.35c0,1.92-1.14,3-3.33,3s-3.51-.93-3.51-2.55h1.71c.18.5.42,1.2,1.77,1.2,1.2,0,1.71-.6,1.71-1.5v-.93Zm-1.74-.72c1.09,0,1.8-.75,1.8-2.19,0-1.35-.67-2.16-1.8-2.16s-1.86.81-1.86,2.16c0,1.44.76,2.19,1.86,2.19Z"/><path class="cls-4" d="m440.9,322.89c0-3.23,2-5.25,4.53-5.25s4.56,2.02,4.56,5.25-2.03,5.25-4.56,5.25-4.53-2.02-4.53-5.25Zm7.21,0c0-2.18-1.11-3.46-2.68-3.46s-2.67,1.29-2.67,3.46,1.09,3.46,2.67,3.46,2.68-1.29,2.68-3.46Z"/><path class="cls-4" d="m453.57,317.79v2.7h1.05v1.65h-1.05v3.87c0,.45.3.57.6.57.27,0,.45-.06.56-.12v1.5c-.14.04-.5.18-1.19.18-1.14,0-1.62-.69-1.62-1.41v-4.59h-.9v-1.65h.9v-2.7h1.65Z"/><path class="cls-4" d="m460.53,327.99v-4.95c0-.84-.57-1.29-1.3-1.29-1.21,0-1.5,1.29-1.5,2.19v4.05h-1.65v-10.2h1.59v3.3c.27-.27.96-.75,2.16-.75,1.3,0,2.42.69,2.42,2.34v5.31h-1.71Z"/><path class="cls-4" d="m467.09,320.34c2.1,0,3.41,1.5,3.51,4.29h-5.32c.13,1.31.92,1.86,1.92,1.86,1.15,0,1.51-.72,1.67-1.05h1.65c-.09,1.02-1.05,2.7-3.3,2.7s-3.6-1.8-3.6-3.84,1.38-3.96,3.48-3.96Zm-1.69,2.79h3.43c-.11-.92-.72-1.44-1.68-1.44-.79,0-1.49.43-1.75,1.44Z"/><path class="cls-4" d="m475.43,321.96c-1.09,0-1.74.45-1.74,2.27v3.76h-1.71v-7.5h1.65v.84c.42-.51.93-.99,1.89-.99.45,0,.87.09,1.2.24l-.09,1.65c-.35-.15-.63-.27-1.2-.27Z"/><path class="cls-4" d="m480.24,321.61c-.87,0-1.17.39-1.17.78,0,1.26,4.44.33,4.44,3.24,0,1.41-1.02,2.5-3.09,2.5-2.68,0-3.21-1.65-3.21-2.55h1.71c.12.58.51,1.2,1.63,1.2.83,0,1.3-.32,1.3-.95,0-1.48-4.44-.38-4.44-3.22,0-1.17.78-2.28,2.97-2.28,2.37,0,3,1.56,3,2.31h-1.71c.03-.67-.54-1.04-1.44-1.04Z"/><path class="cls-4" d="m381.94,343.18l1.54-7.4h2.6l1.51,7.44,1.72-7.44h1.8l-2.47,10.2h-2.16l-1.74-8.04-1.71,8.04h-2.15l-2.5-10.2h1.88l1.68,7.4Z"/><path class="cls-4" d="m393.67,335.64v1.8h-1.71v-1.8h1.71Zm0,2.85v7.5h-1.71v-7.5h1.71Z"/><path class="cls-4" d="m397.42,335.79v2.7h1.05v1.65h-1.05v3.87c0,.45.3.57.6.57.27,0,.45-.06.55-.12v1.5c-.13.04-.5.18-1.18.18-1.14,0-1.62-.69-1.62-1.41v-4.59h-.9v-1.65h.9v-2.7h1.65Z"/><path class="cls-4" d="m404.38,345.99v-4.95c0-.84-.57-1.29-1.31-1.29-1.21,0-1.5,1.29-1.5,2.19v4.05h-1.65v-10.2h1.59v3.3c.27-.27.96-.75,2.16-.75,1.3,0,2.42.69,2.42,2.34v5.31h-1.71Z"/><path class="cls-4" d="m409.54,335.64v1.8h-1.71v-1.8h1.71Zm0,2.85v7.5h-1.71v-7.5h1.71Z"/><path class="cls-4" d="m415.86,345.99v-4.95c0-.71-.54-1.12-1.3-1.12-1.21,0-1.5,1.07-1.5,1.88v4.2h-1.71v-7.5h1.65v.6c.62-.48,1.39-.75,2.16-.75,1.3,0,2.41.69,2.41,2.34v5.31h-1.71Z"/><path class="cls-4" d="m423,335.79h4.23c2.22,0,3.27,1.1,3.27,2.91,0,1.16-.76,1.91-1.77,2.37.63.3.9.87,1,1.47l.22,1.28c.15.85.62,1.69,1.33,2.17h-2.35c-.54-.24-.74-.88-.87-1.83l-.17-1.16c-.12-.81-.45-1.39-1.35-1.39h-1.77v4.38h-1.78v-10.2Zm1.78,1.7v2.43h2.4c1.02,0,1.46-.43,1.46-1.21s-.53-1.21-1.41-1.21h-2.45Z"/><path class="cls-4" d="m435.27,338.34c2.25,0,3.6,1.94,3.6,3.96,0,1.89-1.2,3.84-3.6,3.84s-3.6-1.95-3.6-3.84c0-2.02,1.35-3.96,3.6-3.96Zm0,1.65c-1.19,0-1.95.9-1.95,2.25,0,1.44.79,2.25,1.95,2.25s1.95-.81,1.95-2.25c0-1.35-.77-2.25-1.95-2.25Z"/><path class="cls-4" d="m444.76,345.99v-4.95c0-.71-.51-1.12-1.25-1.12-1.21,0-1.44,1.21-1.44,2.03v4.05h-1.71v-7.5h1.65v.6c.27-.21.9-.75,2.1-.75.87,0,1.62.3,2.03.99.33-.33,1.06-.99,2.37-.99s2.36.69,2.36,2.34v5.31h-1.71v-4.95c0-.71-.51-1.12-1.25-1.12-1.21,0-1.44,1.21-1.44,2.03v4.05h-1.71Z"/><path class="cls-4" d="m459.55,344.43c.2,0,.39-.03.67-.09v1.65c-.52.08-.79.09-1.06.09-.92,0-1.35-.2-1.7-.78-.27.21-1.02.84-2.34.84-1.68,0-2.94-1.17-2.94-2.49,0-1.71,1.44-2.4,3.51-2.4h1.44v-.36c0-.81-.63-1.35-1.53-1.35s-1.41.46-1.41,1.35h-1.83c0-1.62,1.44-2.55,3.29-2.55,1.69,0,3.13.77,3.13,2.39v3.06c0,.45.3.64.76.64Zm-4.18.51c1.23,0,1.77-1.05,1.77-1.65v-.75c-2.61-.12-3.09.48-3.09,1.29,0,.6.51,1.11,1.32,1.11Z"/><path class="cls-4" d="m465.49,345.99v-4.95c0-.71-.54-1.12-1.3-1.12-1.21,0-1.5,1.07-1.5,1.88v4.2h-1.71v-7.5h1.65v.6c.62-.48,1.4-.75,2.16-.75,1.3,0,2.42.69,2.42,2.34v5.31h-1.71Z"/><path class="cls-4" d="m470.89,335.79v2.7h1.05v1.65h-1.05v3.87c0,.45.3.57.6.57.27,0,.45-.06.55-.12v1.5c-.13.04-.5.18-1.18.18-1.14,0-1.62-.69-1.62-1.41v-4.59h-.9v-1.65h.9v-2.7h1.65Z"/><path class="cls-4" d="m475.11,335.64v1.8h-1.71v-1.8h1.71Zm0,2.85v7.5h-1.71v-7.5h1.71Z"/><path class="cls-4" d="m480.12,338.34c2.61,0,3.21,2.28,3.42,3.3h-1.74c-.15-.93-.62-1.65-1.74-1.65-.97,0-1.8.75-1.8,2.25,0,1.59.92,2.25,1.92,2.25,1.14,0,1.5-.81,1.77-1.5h1.56c0,1.26-1.11,3.15-3.48,3.15-2.07,0-3.42-1.8-3.42-3.84,0-2.32,1.47-3.96,3.51-3.96Z"/><path class="cls-4" d="m388.65,353.79h4.23c2.22,0,3.27,1.1,3.27,2.91,0,1.16-.76,1.91-1.77,2.37.63.3.9.87,1,1.47l.22,1.28c.15.85.62,1.69,1.33,2.17h-2.35c-.54-.24-.74-.88-.87-1.83l-.17-1.16c-.12-.81-.45-1.39-1.35-1.39h-1.77v4.38h-1.78v-10.2Zm1.78,1.7v2.43h2.4c1.02,0,1.46-.43,1.46-1.21s-.53-1.21-1.41-1.21h-2.45Z"/><path class="cls-4" d="m400.72,356.34c2.1,0,3.41,1.5,3.51,4.29h-5.32c.13,1.31.92,1.86,1.92,1.86,1.15,0,1.51-.72,1.67-1.05h1.65c-.09,1.02-1.05,2.7-3.3,2.7s-3.6-1.8-3.6-3.84,1.38-3.96,3.48-3.96Zm-1.69,2.79h3.43c-.11-.92-.72-1.44-1.68-1.44-.79,0-1.49.43-1.75,1.44Z"/><path class="cls-4" d="m407.32,353.79v10.2h-1.71v-10.2h1.71Z"/><path class="cls-4" d="m416.07,362.43c.19,0,.39-.03.67-.09v1.65c-.53.08-.79.09-1.07.09-.92,0-1.35-.2-1.69-.78-.27.21-1.02.84-2.34.84-1.68,0-2.94-1.17-2.94-2.49,0-1.71,1.44-2.4,3.51-2.4h1.44v-.36c0-.81-.63-1.35-1.53-1.35s-1.41.46-1.41,1.35h-1.83c0-1.62,1.44-2.55,3.28-2.55,1.7,0,3.13.77,3.13,2.39v3.06c0,.45.3.64.77.64Zm-4.19.51c1.23,0,1.77-1.05,1.77-1.65v-.75c-2.61-.12-3.09.48-3.09,1.29,0,.6.51,1.11,1.32,1.11Z"/><path class="cls-4" d="m419.29,353.79v2.7h1.05v1.65h-1.05v3.87c0,.45.3.57.6.57.27,0,.45-.06.55-.12v1.5c-.13.04-.5.18-1.18.18-1.14,0-1.62-.69-1.62-1.41v-4.59h-.9v-1.65h.9v-2.7h1.65Z"/><path class="cls-4" d="m423.51,353.64v1.8h-1.71v-1.8h1.71Zm0,2.85v7.5h-1.71v-7.5h1.71Z"/><path class="cls-4" d="m428.61,356.34c2.25,0,3.6,1.94,3.6,3.96,0,1.89-1.2,3.84-3.6,3.84s-3.6-1.95-3.6-3.84c0-2.02,1.35-3.96,3.6-3.96Zm0,1.65c-1.19,0-1.95.9-1.95,2.25,0,1.44.79,2.25,1.95,2.25s1.95-.81,1.95-2.25c0-1.35-.77-2.25-1.95-2.25Z"/><path class="cls-4" d="m438.22,363.99v-4.95c0-.71-.54-1.12-1.3-1.12-1.21,0-1.5,1.07-1.5,1.88v4.2h-1.71v-7.5h1.65v.6c.62-.48,1.39-.75,2.16-.75,1.3,0,2.41.69,2.41,2.34v5.31h-1.71Z"/><path class="cls-4" d="m444.25,357.61c-.87,0-1.17.39-1.17.78,0,1.26,4.44.33,4.44,3.24,0,1.41-1.02,2.5-3.09,2.5-2.68,0-3.21-1.65-3.21-2.55h1.71c.12.58.51,1.2,1.64,1.2.82,0,1.3-.32,1.3-.95,0-1.48-4.44-.38-4.44-3.22,0-1.17.78-2.28,2.97-2.28,2.37,0,3,1.56,3,2.31h-1.71c.03-.67-.54-1.04-1.44-1.04Z"/><path class="cls-4" d="m453.33,363.99v-4.95c0-.84-.57-1.29-1.31-1.29-1.21,0-1.5,1.29-1.5,2.19v4.05h-1.65v-10.2h1.59v3.3c.27-.27.96-.75,2.16-.75,1.3,0,2.42.69,2.42,2.34v5.31h-1.71Z"/><path class="cls-4" d="m458.49,353.64v1.8h-1.71v-1.8h1.71Zm0,2.85v7.5h-1.71v-7.5h1.71Z"/><path class="cls-4" d="m461.88,356.49v.66c.33-.24.99-.81,2.07-.81,2.19,0,3.42,1.92,3.42,3.84,0,2.16-1.17,3.96-3.36,3.96-1.08,0-1.71-.45-2.07-.69v3.24h-1.65v-10.2h1.59Zm1.89,1.5c-1.12,0-1.89.75-1.89,2.25s.79,2.25,1.89,2.25,1.95-.66,1.95-2.25c0-1.5-.82-2.25-1.95-2.25Z"/><path class="cls-4" d="m471.45,357.61c-.87,0-1.17.39-1.17.78,0,1.26,4.44.33,4.44,3.24,0,1.41-1.02,2.5-3.09,2.5-2.68,0-3.21-1.65-3.21-2.55h1.71c.12.58.51,1.2,1.64,1.2.82,0,1.3-.32,1.3-.95,0-1.48-4.44-.38-4.44-3.22,0-1.17.78-2.28,2.97-2.28,2.37,0,3,1.56,3,2.31h-1.71c.03-.67-.54-1.04-1.44-1.04Z"/><path class="cls-4" d="m403.66,378.24c-.01-2.14.51-3.85,1.68-6.22h1.5c-1.09,2.25-1.67,4.29-1.67,6.24s.71,4.51,1.67,6.21h-1.5c-1-1.77-1.66-4.08-1.68-6.22Z"/><path class="cls-4" d="m410.71,379.18l1.54-7.4h2.59l1.51,7.44,1.73-7.44h1.8l-2.47,10.2h-2.16l-1.74-8.04-1.71,8.04h-2.14l-2.5-10.2h1.88l1.68,7.4Z"/><path class="cls-4" d="m427.37,380.43c.19,0,.39-.03.67-.09v1.65c-.53.08-.79.09-1.07.09-.92,0-1.35-.2-1.69-.78-.27.21-1.02.84-2.34.84-1.68,0-2.94-1.17-2.94-2.49,0-1.71,1.44-2.4,3.51-2.4h1.44v-.36c0-.81-.63-1.35-1.53-1.35s-1.41.46-1.41,1.35h-1.83c0-1.62,1.44-2.55,3.28-2.55,1.7,0,3.13.77,3.13,2.39v3.06c0,.45.3.64.77.64Zm-4.19.51c1.23,0,1.77-1.05,1.77-1.65v-.75c-2.61-.12-3.09.48-3.09,1.29,0,.6.51,1.11,1.32,1.11Z"/><path class="cls-4" d="m429.21,374.49l1.79,4.88,1.79-4.88h1.77l-2.79,7.5h-1.53l-2.79-7.5h1.77Z"/><path class="cls-4" d="m438.33,374.34c2.1,0,3.41,1.5,3.51,4.29h-5.32c.13,1.31.92,1.86,1.92,1.86,1.15,0,1.51-.72,1.67-1.05h1.65c-.09,1.02-1.05,2.7-3.3,2.7s-3.6-1.8-3.6-3.84,1.38-3.96,3.48-3.96Zm-1.69,2.79h3.43c-.11-.92-.72-1.44-1.68-1.44-.79,0-1.49.43-1.75,1.44Z"/><path class="cls-4" d="m446.9,380.49l3.39-3.01c1.14-1,1.84-1.64,1.84-2.62,0-.81-.56-1.56-1.71-1.56s-1.77.79-1.79,2.27h-1.8c-.15-2.48,1.48-3.92,3.72-3.92s3.41,1.42,3.41,3c0,1.68-.95,2.8-2.19,3.81l-2.16,1.74h4.4v1.8h-7.11v-1.5Z"/><path class="cls-4" d="m458.87,378.24c.02,2.14-.51,3.85-1.68,6.22h-1.5c1.09-2.25,1.67-4.29,1.67-6.24s-.71-4.52-1.67-6.21h1.5c1,1.77,1.67,4.08,1.68,6.22Z"/><path class="cls-4" d="m383.89,434.57h4.2l-.04,5.41h-1.69c-.02-.22-.02-.43-.03-.64-.51.5-1.33.79-2.34.79-2.59,0-4.67-1.95-4.67-5.25s2.01-5.25,4.68-5.25c1.98,0,3.69.99,4,3.29h-2.1c-.11-.87-.86-1.5-2.01-1.5-1.65,0-2.71,1.29-2.71,3.46s1.17,3.46,3.03,3.46c1.29,0,1.92-.64,2.1-2.07h-2.42v-1.71Z"/><path class="cls-4" d="m394.37,439.99v-4.95c0-.84-.57-1.29-1.31-1.29-1.21,0-1.5,1.29-1.5,2.19v4.05h-1.65v-10.2h1.59v3.3c.27-.27.96-.75,2.16-.75,1.3,0,2.42.69,2.42,2.34v5.31h-1.71Z"/><path class="cls-4" d="m401.12,432.34c2.25,0,3.6,1.93,3.6,3.96,0,1.89-1.2,3.84-3.6,3.84s-3.6-1.95-3.6-3.84c0-2.03,1.35-3.96,3.6-3.96Zm0,1.65c-1.18,0-1.95.9-1.95,2.25,0,1.44.79,2.25,1.95,2.25s1.95-.81,1.95-2.25c0-1.35-.76-2.25-1.95-2.25Z"/><path class="cls-4" d="m408.8,433.61c-.87,0-1.17.39-1.17.78,0,1.26,4.44.33,4.44,3.24,0,1.41-1.02,2.5-3.09,2.5-2.68,0-3.21-1.65-3.21-2.55h1.71c.12.58.51,1.2,1.63,1.2.83,0,1.3-.32,1.3-.95,0-1.48-4.44-.38-4.44-3.22,0-1.17.78-2.28,2.97-2.28,2.37,0,3,1.56,3,2.31h-1.71c.03-.67-.54-1.03-1.44-1.03Z"/><path class="cls-4" d="m415.37,429.79v2.7h1.05v1.65h-1.05v3.87c0,.45.3.57.6.57.27,0,.45-.06.56-.12v1.5c-.14.04-.5.18-1.19.18-1.14,0-1.62-.69-1.62-1.41v-4.59h-.9v-1.65h.9v-2.7h1.65Z"/><path class="cls-4" d="m419.58,429.64v1.8h-1.71v-1.8h1.71Zm0,2.85v7.5h-1.71v-7.5h1.71Z"/><path class="cls-4" d="m425.9,439.99v-4.95c0-.71-.54-1.12-1.3-1.12-1.21,0-1.5,1.06-1.5,1.88v4.2h-1.71v-7.5h1.65v.6c.62-.48,1.39-.75,2.16-.75,1.3,0,2.41.69,2.41,2.34v5.31h-1.71Z"/><path class="cls-4" d="m434.3,439.06c-.36.29-1,.63-1.92.63-2.19,0-3.33-1.65-3.33-3.54,0-2.02,1.32-3.81,3.24-3.81,1.11,0,1.74.42,2.07.69v-.54h1.59v7.35c0,1.92-1.14,3-3.33,3s-3.51-.93-3.51-2.55h1.71c.18.49.42,1.2,1.77,1.2,1.2,0,1.71-.6,1.71-1.5v-.93Zm-1.74-.72c1.09,0,1.8-.75,1.8-2.19,0-1.35-.67-2.16-1.8-2.16s-1.86.81-1.86,2.16c0,1.44.76,2.19,1.86,2.19Z"/><path class="cls-4" d="m440.9,434.89c0-3.22,2-5.25,4.53-5.25s4.56,2.03,4.56,5.25-2.03,5.25-4.56,5.25-4.53-2.03-4.53-5.25Zm7.21,0c0-2.17-1.11-3.46-2.68-3.46s-2.67,1.29-2.67,3.46,1.09,3.46,2.67,3.46,2.68-1.29,2.68-3.46Z"/><path class="cls-4" d="m453.57,429.79v2.7h1.05v1.65h-1.05v3.87c0,.45.3.57.6.57.27,0,.45-.06.56-.12v1.5c-.14.04-.5.18-1.19.18-1.14,0-1.62-.69-1.62-1.41v-4.59h-.9v-1.65h.9v-2.7h1.65Z"/><path class="cls-4" d="m460.53,439.99v-4.95c0-.84-.57-1.29-1.3-1.29-1.21,0-1.5,1.29-1.5,2.19v4.05h-1.65v-10.2h1.59v3.3c.27-.27.96-.75,2.16-.75,1.3,0,2.42.69,2.42,2.34v5.31h-1.71Z"/><path class="cls-4" d="m467.09,432.34c2.1,0,3.41,1.5,3.51,4.29h-5.32c.13,1.3.92,1.86,1.92,1.86,1.15,0,1.51-.72,1.67-1.05h1.65c-.09,1.02-1.05,2.7-3.3,2.7s-3.6-1.8-3.6-3.84,1.38-3.96,3.48-3.96Zm-1.69,2.79h3.43c-.11-.92-.72-1.44-1.68-1.44-.79,0-1.49.43-1.75,1.44Z"/><path class="cls-4" d="m475.43,433.96c-1.09,0-1.74.45-1.74,2.27v3.76h-1.71v-7.5h1.65v.84c.42-.51.93-.99,1.89-.99.45,0,.87.09,1.2.24l-.09,1.65c-.35-.15-.63-.27-1.2-.27Z"/><path class="cls-4" d="m480.24,433.61c-.87,0-1.17.39-1.17.78,0,1.26,4.44.33,4.44,3.24,0,1.41-1.02,2.5-3.09,2.5-2.68,0-3.21-1.65-3.21-2.55h1.71c.12.58.51,1.2,1.63,1.2.83,0,1.3-.32,1.3-.95,0-1.48-4.44-.38-4.44-3.22,0-1.17.78-2.28,2.97-2.28,2.37,0,3,1.56,3,2.31h-1.71c.03-.67-.54-1.03-1.44-1.03Z"/><path class="cls-4" d="m381.94,455.18l1.54-7.39h2.6l1.51,7.44,1.72-7.44h1.8l-2.47,10.2h-2.16l-1.74-8.04-1.71,8.04h-2.15l-2.5-10.2h1.88l1.68,7.39Z"/><path class="cls-4" d="m393.67,447.64v1.8h-1.71v-1.8h1.71Zm0,2.85v7.5h-1.71v-7.5h1.71Z"/><path class="cls-4" d="m397.42,447.79v2.7h1.05v1.65h-1.05v3.87c0,.45.3.57.6.57.27,0,.45-.06.55-.12v1.5c-.13.04-.5.18-1.18.18-1.14,0-1.62-.69-1.62-1.41v-4.59h-.9v-1.65h.9v-2.7h1.65Z"/><path class="cls-4" d="m404.38,457.99v-4.95c0-.84-.57-1.29-1.31-1.29-1.21,0-1.5,1.29-1.5,2.19v4.05h-1.65v-10.2h1.59v3.3c.27-.27.96-.75,2.16-.75,1.3,0,2.42.69,2.42,2.34v5.31h-1.71Z"/><path class="cls-4" d="m409.54,447.64v1.8h-1.71v-1.8h1.71Zm0,2.85v7.5h-1.71v-7.5h1.71Z"/><path class="cls-4" d="m415.86,457.99v-4.95c0-.71-.54-1.12-1.3-1.12-1.21,0-1.5,1.06-1.5,1.88v4.2h-1.71v-7.5h1.65v.6c.62-.48,1.39-.75,2.16-.75,1.3,0,2.41.69,2.41,2.34v5.31h-1.71Z"/><path class="cls-4" d="m423,447.79h4.23c2.22,0,3.27,1.1,3.27,2.91,0,1.15-.76,1.9-1.77,2.37.63.3.9.87,1,1.47l.22,1.28c.15.85.62,1.69,1.33,2.17h-2.35c-.54-.24-.74-.88-.87-1.83l-.17-1.15c-.12-.81-.45-1.39-1.35-1.39h-1.77v4.38h-1.78v-10.2Zm1.78,1.7v2.43h2.4c1.02,0,1.46-.44,1.46-1.21s-.53-1.21-1.41-1.21h-2.45Z"/><path class="cls-4" d="m435.27,450.34c2.25,0,3.6,1.93,3.6,3.96,0,1.89-1.2,3.84-3.6,3.84s-3.6-1.95-3.6-3.84c0-2.03,1.35-3.96,3.6-3.96Zm0,1.65c-1.19,0-1.95.9-1.95,2.25,0,1.44.79,2.25,1.95,2.25s1.95-.81,1.95-2.25c0-1.35-.77-2.25-1.95-2.25Z"/><path class="cls-4" d="m444.76,457.99v-4.95c0-.71-.51-1.12-1.25-1.12-1.21,0-1.44,1.21-1.44,2.03v4.05h-1.71v-7.5h1.65v.6c.27-.21.9-.75,2.1-.75.87,0,1.62.3,2.03.99.33-.33,1.06-.99,2.37-.99s2.36.69,2.36,2.34v5.31h-1.71v-4.95c0-.71-.51-1.12-1.25-1.12-1.21,0-1.44,1.21-1.44,2.03v4.05h-1.71Z"/><path class="cls-4" d="m459.55,456.43c.2,0,.39-.03.67-.09v1.65c-.52.08-.79.09-1.06.09-.92,0-1.35-.19-1.7-.78-.27.21-1.02.84-2.34.84-1.68,0-2.94-1.17-2.94-2.49,0-1.71,1.44-2.4,3.51-2.4h1.44v-.36c0-.81-.63-1.35-1.53-1.35s-1.41.46-1.41,1.35h-1.83c0-1.62,1.44-2.55,3.29-2.55,1.69,0,3.13.76,3.13,2.39v3.06c0,.45.3.65.76.65Zm-4.18.51c1.23,0,1.77-1.05,1.77-1.65v-.75c-2.61-.12-3.09.48-3.09,1.29,0,.6.51,1.11,1.32,1.11Z"/><path class="cls-4" d="m465.49,457.99v-4.95c0-.71-.54-1.12-1.3-1.12-1.21,0-1.5,1.06-1.5,1.88v4.2h-1.71v-7.5h1.65v.6c.62-.48,1.4-.75,2.16-.75,1.3,0,2.42.69,2.42,2.34v5.31h-1.71Z"/><path class="cls-4" d="m470.89,447.79v2.7h1.05v1.65h-1.05v3.87c0,.45.3.57.6.57.27,0,.45-.06.55-.12v1.5c-.13.04-.5.18-1.18.18-1.14,0-1.62-.69-1.62-1.41v-4.59h-.9v-1.65h.9v-2.7h1.65Z"/><path class="cls-4" d="m475.11,447.64v1.8h-1.71v-1.8h1.71Zm0,2.85v7.5h-1.71v-7.5h1.71Z"/><path class="cls-4" d="m480.12,450.34c2.61,0,3.21,2.28,3.42,3.3h-1.74c-.15-.93-.62-1.65-1.74-1.65-.97,0-1.8.75-1.8,2.25,0,1.59.92,2.25,1.92,2.25,1.14,0,1.5-.81,1.77-1.5h1.56c0,1.26-1.11,3.15-3.48,3.15-2.07,0-3.42-1.8-3.42-3.84,0-2.32,1.47-3.96,3.51-3.96Z"/><path class="cls-4" d="m388.65,465.79h4.23c2.22,0,3.27,1.1,3.27,2.91,0,1.15-.76,1.9-1.77,2.37.63.3.9.87,1,1.47l.22,1.28c.15.85.62,1.69,1.33,2.17h-2.35c-.54-.24-.74-.88-.87-1.83l-.17-1.15c-.12-.81-.45-1.39-1.35-1.39h-1.77v4.38h-1.78v-10.2Zm1.78,1.7v2.43h2.4c1.02,0,1.46-.44,1.46-1.21s-.53-1.21-1.41-1.21h-2.45Z"/><path class="cls-4" d="m400.72,468.34c2.1,0,3.41,1.5,3.51,4.29h-5.32c.13,1.3.92,1.86,1.92,1.86,1.15,0,1.51-.72,1.67-1.05h1.65c-.09,1.02-1.05,2.7-3.3,2.7s-3.6-1.8-3.6-3.84,1.38-3.96,3.48-3.96Zm-1.69,2.79h3.43c-.11-.92-.72-1.44-1.68-1.44-.79,0-1.49.43-1.75,1.44Z"/><path class="cls-4" d="m407.32,465.79v10.2h-1.71v-10.2h1.71Z"/><path class="cls-4" d="m416.07,474.43c.19,0,.39-.03.67-.09v1.65c-.53.08-.79.09-1.07.09-.92,0-1.35-.19-1.69-.78-.27.21-1.02.84-2.34.84-1.68,0-2.94-1.17-2.94-2.49,0-1.71,1.44-2.4,3.51-2.4h1.44v-.36c0-.81-.63-1.35-1.53-1.35s-1.41.46-1.41,1.35h-1.83c0-1.62,1.44-2.55,3.28-2.55,1.7,0,3.13.76,3.13,2.39v3.06c0,.45.3.65.77.65Zm-4.19.51c1.23,0,1.77-1.05,1.77-1.65v-.75c-2.61-.12-3.09.48-3.09,1.29,0,.6.51,1.11,1.32,1.11Z"/><path class="cls-4" d="m419.29,465.79v2.7h1.05v1.65h-1.05v3.87c0,.45.3.57.6.57.27,0,.45-.06.55-.12v1.5c-.13.04-.5.18-1.18.18-1.14,0-1.62-.69-1.62-1.41v-4.59h-.9v-1.65h.9v-2.7h1.65Z"/><path class="cls-4" d="m423.51,465.64v1.8h-1.71v-1.8h1.71Zm0,2.85v7.5h-1.71v-7.5h1.71Z"/><path class="cls-4" d="m428.61,468.34c2.25,0,3.6,1.93,3.6,3.96,0,1.89-1.2,3.84-3.6,3.84s-3.6-1.95-3.6-3.84c0-2.03,1.35-3.96,3.6-3.96Zm0,1.65c-1.19,0-1.95.9-1.95,2.25,0,1.44.79,2.25,1.95,2.25s1.95-.81,1.95-2.25c0-1.35-.77-2.25-1.95-2.25Z"/><path class="cls-4" d="m438.22,475.99v-4.95c0-.71-.54-1.12-1.3-1.12-1.21,0-1.5,1.06-1.5,1.88v4.2h-1.71v-7.5h1.65v.6c.62-.48,1.39-.75,2.16-.75,1.3,0,2.41.69,2.41,2.34v5.31h-1.71Z"/><path class="cls-4" d="m444.25,469.61c-.87,0-1.17.39-1.17.78,0,1.26,4.44.33,4.44,3.24,0,1.41-1.02,2.5-3.09,2.5-2.68,0-3.21-1.65-3.21-2.55h1.71c.12.58.51,1.2,1.64,1.2.82,0,1.3-.32,1.3-.95,0-1.48-4.44-.38-4.44-3.22,0-1.17.78-2.28,2.97-2.28,2.37,0,3,1.56,3,2.31h-1.71c.03-.67-.54-1.03-1.44-1.03Z"/><path class="cls-4" d="m453.33,475.99v-4.95c0-.84-.57-1.29-1.31-1.29-1.21,0-1.5,1.29-1.5,2.19v4.05h-1.65v-10.2h1.59v3.3c.27-.27.96-.75,2.16-.75,1.3,0,2.42.69,2.42,2.34v5.31h-1.71Z"/><path class="cls-4" d="m458.49,465.64v1.8h-1.71v-1.8h1.71Zm0,2.85v7.5h-1.71v-7.5h1.71Z"/><path class="cls-4" d="m461.88,468.49v.66c.33-.24.99-.81,2.07-.81,2.19,0,3.42,1.92,3.42,3.84,0,2.16-1.17,3.96-3.36,3.96-1.08,0-1.71-.45-2.07-.69v3.24h-1.65v-10.2h1.59Zm1.89,1.5c-1.12,0-1.89.75-1.89,2.25s.79,2.25,1.89,2.25,1.95-.66,1.95-2.25c0-1.5-.82-2.25-1.95-2.25Z"/><path class="cls-4" d="m471.45,469.61c-.87,0-1.17.39-1.17.78,0,1.26,4.44.33,4.44,3.24,0,1.41-1.02,2.5-3.09,2.5-2.68,0-3.21-1.65-3.21-2.55h1.71c.12.58.51,1.2,1.64,1.2.82,0,1.3-.32,1.3-.95,0-1.48-4.44-.38-4.44-3.22,0-1.17.78-2.28,2.97-2.28,2.37,0,3,1.56,3,2.31h-1.71c.03-.67-.54-1.03-1.44-1.03Z"/><path class="cls-4" d="m403.66,490.24c-.01-2.14.51-3.85,1.68-6.22h1.5c-1.09,2.25-1.67,4.29-1.67,6.24s.71,4.51,1.67,6.21h-1.5c-1-1.77-1.66-4.08-1.68-6.23Z"/><path class="cls-4" d="m410.71,491.18l1.54-7.39h2.59l1.51,7.44,1.73-7.44h1.8l-2.47,10.2h-2.16l-1.74-8.04-1.71,8.04h-2.14l-2.5-10.2h1.88l1.68,7.39Z"/><path class="cls-4" d="m427.37,492.43c.19,0,.39-.03.67-.09v1.65c-.53.08-.79.09-1.07.09-.92,0-1.35-.19-1.69-.78-.27.21-1.02.84-2.34.84-1.68,0-2.94-1.17-2.94-2.49,0-1.71,1.44-2.4,3.51-2.4h1.44v-.36c0-.81-.63-1.35-1.53-1.35s-1.41.46-1.41,1.35h-1.83c0-1.62,1.44-2.55,3.28-2.55,1.7,0,3.13.76,3.13,2.39v3.06c0,.45.3.65.77.65Zm-4.19.51c1.23,0,1.77-1.05,1.77-1.65v-.75c-2.61-.12-3.09.48-3.09,1.29,0,.6.51,1.11,1.32,1.11Z"/><path class="cls-4" d="m429.21,486.49l1.79,4.87,1.79-4.87h1.77l-2.79,7.5h-1.53l-2.79-7.5h1.77Z"/><path class="cls-4" d="m438.33,486.34c2.1,0,3.41,1.5,3.51,4.29h-5.32c.13,1.3.92,1.86,1.92,1.86,1.15,0,1.51-.72,1.67-1.05h1.65c-.09,1.02-1.05,2.7-3.3,2.7s-3.6-1.8-3.6-3.84,1.38-3.96,3.48-3.96Zm-1.69,2.79h3.43c-.11-.92-.72-1.44-1.68-1.44-.79,0-1.49.43-1.75,1.44Z"/><path class="cls-4" d="m446.9,492.49l3.39-3.01c1.14-1.01,1.84-1.64,1.84-2.62,0-.81-.56-1.56-1.71-1.56s-1.77.79-1.79,2.27h-1.8c-.15-2.48,1.48-3.92,3.72-3.92s3.41,1.43,3.41,3c0,1.68-.95,2.8-2.19,3.81l-2.16,1.74h4.4v1.8h-7.11v-1.5Z"/><path class="cls-4" d="m458.87,490.24c.02,2.15-.51,3.86-1.68,6.23h-1.5c1.09-2.25,1.67-4.29,1.67-6.24s-.71-4.52-1.67-6.21h1.5c1,1.77,1.67,4.08,1.68,6.22Z"/><path class="cls-4" d="m157.17,123.61c-.12-1.18-.4-2.7-2.58-2.7-1.6,0-2.36.8-2.36,1.88,0,3.28,7.58-.02,7.58,5.92,0,2.76-2.14,4.4-5.22,4.4-3.84,0-5.46-2.38-5.14-4.66h2.52c.1,1.54.3,2.86,2.7,2.86,1.96,0,2.64-.96,2.64-2,0-3.46-7.6-.26-7.6-6.2,0-2.28,1.9-4,4.82-4,3.7,0,5.24,1.92,5.04,4.5h-2.4Z"/><path class="cls-4" d="m163.97,119.11v2.4h-2.28v-2.4h2.28Zm0,3.8v10h-2.28v-10h2.28Z"/><path class="cls-4" d="m172.97,131.67c-.48.38-1.34.84-2.56.84-2.92,0-4.44-2.2-4.44-4.72,0-2.7,1.76-5.08,4.32-5.08,1.48,0,2.32.56,2.76.92v-.72h2.12v9.8c0,2.56-1.52,4-4.44,4s-4.68-1.24-4.68-3.4h2.28c.24.66.56,1.6,2.36,1.6,1.6,0,2.28-.8,2.28-2v-1.24Zm-2.32-.96c1.46,0,2.4-1,2.4-2.92,0-1.8-.9-2.88-2.4-2.88s-2.48,1.08-2.48,2.88c0,1.92,1.02,2.92,2.48,2.92Z"/><path class="cls-4" d="m183.59,132.91v-6.6c0-.94-.72-1.5-1.74-1.5-1.62,0-2,1.42-2,2.5v5.6h-2.28v-10h2.2v.8c.82-.64,1.86-1,2.88-1,1.74,0,3.22.92,3.22,3.12v7.08h-2.28Z"/><path class="cls-4" d="m190.47,119.11v2.4h-2.28v-2.4h2.28Zm0,3.8v10h-2.28v-10h2.28Z"/><path class="cls-4" d="m193.27,125.11h-1.2v-2.2h1.2v-1.64c0-.96.64-2.16,2.16-2.16.92,0,1.4.1,1.58.12v2.2c-.14,0-.38-.04-.74-.04-.4,0-.8.16-.8.76v.76h1.4v2.2h-1.4v7.8h-2.2v-7.8Zm7.08-6v2.4h-2.28v-2.4h2.28Zm0,3.8v10h-2.28v-10h2.28Z"/><path class="cls-4" d="m207.03,122.71c3.48,0,4.28,3.04,4.56,4.4h-2.32c-.2-1.24-.82-2.2-2.32-2.2-1.3,0-2.4,1-2.4,3,0,2.12,1.22,3,2.56,3,1.52,0,2-1.08,2.36-2h2.08c0,1.68-1.48,4.2-4.64,4.2-2.76,0-4.56-2.4-4.56-5.12,0-3.1,1.96-5.28,4.68-5.28Z"/><path class="cls-4" d="m222.77,130.83c.26,0,.52-.04.9-.12v2.2c-.7.1-1.06.12-1.42.12-1.22,0-1.8-.26-2.26-1.04-.36.28-1.36,1.12-3.12,1.12-2.24,0-3.92-1.56-3.92-3.32,0-2.28,1.92-3.2,4.68-3.2h1.92v-.48c0-1.08-.84-1.8-2.04-1.8s-1.88.62-1.88,1.8h-2.44c0-2.16,1.92-3.4,4.38-3.4,2.26,0,4.18,1.02,4.18,3.18v4.08c0,.6.4.86,1.02.86Zm-5.58.68c1.64,0,2.36-1.4,2.36-2.2v-1c-3.48-.16-4.12.64-4.12,1.72,0,.8.68,1.48,1.76,1.48Z"/><path class="cls-4" d="m230.69,132.91v-6.6c0-.94-.72-1.5-1.74-1.5-1.62,0-2,1.42-2,2.5v5.6h-2.28v-10h2.2v.8c.82-.64,1.86-1,2.88-1,1.74,0,3.22.92,3.22,3.12v7.08h-2.28Z"/><path class="cls-4" d="m237.89,119.31v3.6h1.4v2.2h-1.4v5.16c0,.6.4.76.8.76.36,0,.6-.08.74-.16v2c-.18.06-.66.24-1.58.24-1.52,0-2.16-.92-2.16-1.88v-6.12h-1.2v-2.2h1.2v-3.6h2.2Z"/><path class="cls-4" d="m249.91,122.71c3.48,0,4.28,3.04,4.56,4.4h-2.32c-.2-1.24-.82-2.2-2.32-2.2-1.3,0-2.4,1-2.4,3,0,2.12,1.22,3,2.56,3,1.52,0,2-1.08,2.36-2h2.08c0,1.68-1.48,4.2-4.64,4.2-2.76,0-4.56-2.4-4.56-5.12,0-3.1,1.96-5.28,4.68-5.28Z"/><path class="cls-4" d="m260.79,122.71c3,0,4.8,2.58,4.8,5.28,0,2.52-1.6,5.12-4.8,5.12s-4.8-2.6-4.8-5.12c0-2.7,1.8-5.28,4.8-5.28Zm0,2.2c-1.58,0-2.6,1.2-2.6,3,0,1.92,1.06,3,2.6,3s2.6-1.08,2.6-3c0-1.8-1.02-3-2.6-3Z"/><path class="cls-4" d="m272.19,124.87c-1.46,0-2.32.6-2.32,3.02v5.02h-2.28v-10h2.2v1.12c.56-.68,1.24-1.32,2.52-1.32.6,0,1.16.12,1.6.32l-.12,2.2c-.46-.2-.84-.36-1.6-.36Z"/><path class="cls-4" d="m279.77,124.87c-1.46,0-2.32.6-2.32,3.02v5.02h-2.28v-10h2.2v1.12c.56-.68,1.24-1.32,2.52-1.32.6,0,1.16.12,1.6.32l-.12,2.2c-.46-.2-.84-.36-1.6-.36Z"/><path class="cls-4" d="m286.49,122.71c2.8,0,4.54,2,4.68,5.72h-7.1c.18,1.74,1.22,2.48,2.56,2.48,1.54,0,2.02-.96,2.22-1.4h2.2c-.12,1.36-1.4,3.6-4.4,3.6s-4.8-2.4-4.8-5.12,1.84-5.28,4.64-5.28Zm-2.26,3.72h4.58c-.14-1.22-.96-1.92-2.24-1.92-1.06,0-1.98.58-2.34,1.92Z"/><path class="cls-4" d="m295.29,119.31v13.6h-2.28v-13.6h2.28Z"/><path class="cls-4" d="m306.95,130.83c.26,0,.52-.04.9-.12v2.2c-.7.1-1.06.12-1.42.12-1.22,0-1.8-.26-2.26-1.04-.36.28-1.36,1.12-3.12,1.12-2.24,0-3.92-1.56-3.92-3.32,0-2.28,1.92-3.2,4.68-3.2h1.92v-.48c0-1.08-.84-1.8-2.04-1.8s-1.88.62-1.88,1.8h-2.44c0-2.16,1.92-3.4,4.38-3.4,2.26,0,4.18,1.02,4.18,3.18v4.08c0,.6.4.86,1.02.86Zm-5.58.68c1.64,0,2.36-1.4,2.36-2.2v-1c-3.48-.16-4.12.64-4.12,1.72,0,.8.68,1.48,1.76,1.48Z"/><path class="cls-4" d="m311.25,119.31v3.6h1.4v2.2h-1.4v5.16c0,.6.4.76.8.76.36,0,.6-.08.74-.16v2c-.18.06-.66.24-1.58.24-1.52,0-2.16-.92-2.16-1.88v-6.12h-1.2v-2.2h1.2v-3.6h2.2Z"/><path class="cls-4" d="m316.87,119.11v2.4h-2.28v-2.4h2.28Zm0,3.8v10h-2.28v-10h2.28Z"/><path class="cls-4" d="m323.67,122.71c3,0,4.8,2.58,4.8,5.28,0,2.52-1.6,5.12-4.8,5.12s-4.8-2.6-4.8-5.12c0-2.7,1.8-5.28,4.8-5.28Zm0,2.2c-1.58,0-2.6,1.2-2.6,3,0,1.92,1.06,3,2.6,3s2.6-1.08,2.6-3c0-1.8-1.02-3-2.6-3Z"/><path class="cls-4" d="m336.49,132.91v-6.6c0-.94-.72-1.5-1.74-1.5-1.62,0-2,1.42-2,2.5v5.6h-2.28v-10h2.2v.8c.82-.64,1.86-1,2.88-1,1.74,0,3.22.92,3.22,3.12v7.08h-2.28Z"/><path class="cls-4" d="m344.53,124.41c-1.16,0-1.56.52-1.56,1.04,0,1.68,5.92.44,5.92,4.32,0,1.88-1.36,3.34-4.12,3.34-3.58,0-4.28-2.2-4.28-3.4h2.28c.16.78.68,1.6,2.18,1.6,1.1,0,1.74-.42,1.74-1.26,0-1.98-5.92-.5-5.92-4.3,0-1.56,1.04-3.04,3.96-3.04,3.16,0,4,2.08,4,3.08h-2.28c.04-.9-.72-1.38-1.92-1.38Z"/><path class="cls-4" d="m357.37,119.11v2.4h-2.28v-2.4h2.28Zm0,3.8v10h-2.28v-10h2.28Z"/><path class="cls-4" d="m365.79,132.91v-6.6c0-.94-.72-1.5-1.74-1.5-1.62,0-2,1.42-2,2.5v5.6h-2.28v-10h2.2v.8c.82-.64,1.86-1,2.88-1,1.74,0,3.22.92,3.22,3.12v7.08h-2.28Z"/><path class="cls-4" d="m381.39,131.67c-.48.38-1.34.84-2.56.84-2.92,0-4.44-2.2-4.44-4.72,0-2.7,1.76-5.08,4.32-5.08,1.48,0,2.32.56,2.76.92v-.72h2.12v9.8c0,2.56-1.52,4-4.44,4s-4.68-1.24-4.68-3.4h2.28c.24.66.56,1.6,2.36,1.6,1.6,0,2.28-.8,2.28-2v-1.24Zm-2.32-.96c1.46,0,2.4-1,2.4-2.92,0-1.8-.9-2.88-2.4-2.88s-2.48,1.08-2.48,2.88c0,1.92,1.02,2.92,2.48,2.92Z"/><path class="cls-4" d="m391.93,132.91v-6.6c0-1.12-.76-1.72-1.74-1.72-1.62,0-2,1.72-2,2.92v5.4h-2.2v-13.6h2.12v4.4c.36-.36,1.28-1,2.88-1,1.74,0,3.22.92,3.22,3.12v7.08h-2.28Z"/><path class="cls-4" d="m400.93,122.71c3,0,4.8,2.58,4.8,5.28,0,2.52-1.6,5.12-4.8,5.12s-4.8-2.6-4.8-5.12c0-2.7,1.8-5.28,4.8-5.28Zm0,2.2c-1.58,0-2.6,1.2-2.6,3,0,1.92,1.06,3,2.6,3s2.6-1.08,2.6-3c0-1.8-1.02-3-2.6-3Z"/><path class="cls-4" d="m411.17,124.41c-1.16,0-1.56.52-1.56,1.04,0,1.68,5.92.44,5.92,4.32,0,1.88-1.36,3.34-4.12,3.34-3.58,0-4.28-2.2-4.28-3.4h2.28c.16.78.68,1.6,2.18,1.6,1.1,0,1.74-.42,1.74-1.26,0-1.98-5.92-.5-5.92-4.3,0-1.56,1.04-3.04,3.96-3.04,3.16,0,4,2.08,4,3.08h-2.28c.04-.9-.72-1.38-1.92-1.38Z"/><path class="cls-4" d="m419.93,119.31v3.6h1.4v2.2h-1.4v5.16c0,.6.4.76.8.76.36,0,.6-.08.74-.16v2c-.18.06-.66.24-1.58.24-1.52,0-2.16-.92-2.16-1.88v-6.12h-1.2v-2.2h1.2v-3.6h2.2Z"/><path class="cls-4" d="m425.55,119.11v2.4h-2.28v-2.4h2.28Zm0,3.8v10h-2.28v-10h2.28Z"/><path class="cls-4" d="m433.97,132.91v-6.6c0-.94-.72-1.5-1.74-1.5-1.62,0-2,1.42-2,2.5v5.6h-2.28v-10h2.2v.8c.82-.64,1.86-1,2.88-1,1.74,0,3.22.92,3.22,3.12v7.08h-2.28Z"/><path class="cls-4" d="m445.17,131.67c-.48.38-1.34.84-2.56.84-2.92,0-4.44-2.2-4.44-4.72,0-2.7,1.76-5.08,4.32-5.08,1.48,0,2.32.56,2.76.92v-.72h2.12v9.8c0,2.56-1.52,4-4.44,4s-4.68-1.24-4.68-3.4h2.28c.24.66.56,1.6,2.36,1.6,1.6,0,2.28-.8,2.28-2v-1.24Zm-2.32-.96c1.46,0,2.4-1,2.4-2.92,0-1.8-.9-2.88-2.4-2.88s-2.48,1.08-2.48,2.88c0,1.92,1.02,2.92,2.48,2.92Z"/><path class="cls-4" d="m181.65,143.31h2.2v4.32c.48-.32,1.32-.92,2.76-.92,2.92,0,4.48,2.4,4.48,5.28,0,2.56-1.64,5.12-4.56,5.12-1.44,0-2.32-.76-2.76-1.08v.88h-2.12v-13.6Zm4.64,5.6c-1.46,0-2.52,1-2.52,3s1.02,3,2.52,3,2.6-1,2.6-3c0-2.12-1.14-3-2.6-3Z"/><path class="cls-4" d="m197.23,146.71c2.8,0,4.54,2,4.68,5.72h-7.1c.18,1.74,1.22,2.48,2.56,2.48,1.54,0,2.02-.96,2.22-1.4h2.2c-.12,1.36-1.4,3.6-4.4,3.6s-4.8-2.4-4.8-5.12,1.84-5.28,4.64-5.28Zm-2.26,3.72h4.58c-.14-1.22-.96-1.92-2.24-1.92-1.06,0-1.98.58-2.34,1.92Z"/><path class="cls-4" d="m206.35,143.31v3.6h1.4v2.2h-1.4v5.16c0,.6.4.76.8.76.36,0,.6-.08.74-.16v2c-.18.06-.66.24-1.58.24-1.52,0-2.16-.92-2.16-1.88v-6.12h-1.2v-2.2h1.2v-3.6h2.2Z"/><path class="cls-4" d="m210.81,146.91l2.14,6.76,2.14-6.76h2.2l2.18,6.88,2.18-6.88h2.32l-3.36,10h-2.28l-2.12-6.56-2.08,6.56h-2.28l-3.36-10h2.32Z"/><path class="cls-4" d="m229.01,146.71c2.8,0,4.54,2,4.68,5.72h-7.1c.18,1.74,1.22,2.48,2.56,2.48,1.54,0,2.02-.96,2.22-1.4h2.2c-.12,1.36-1.4,3.6-4.4,3.6s-4.8-2.4-4.8-5.12,1.84-5.28,4.64-5.28Zm-2.26,3.72h4.58c-.14-1.22-.96-1.92-2.24-1.92-1.06,0-1.98.58-2.34,1.92Z"/><path class="cls-4" d="m239.67,146.71c2.8,0,4.54,2,4.68,5.72h-7.1c.18,1.74,1.22,2.48,2.56,2.48,1.54,0,2.02-.96,2.22-1.4h2.2c-.12,1.36-1.4,3.6-4.4,3.6s-4.8-2.4-4.8-5.12,1.84-5.28,4.64-5.28Zm-2.26,3.72h4.58c-.14-1.22-.96-1.92-2.24-1.92-1.06,0-1.98.58-2.34,1.92Z"/><path class="cls-4" d="m252.21,156.91v-6.6c0-.94-.72-1.5-1.74-1.5-1.62,0-2,1.42-2,2.5v5.6h-2.28v-10h2.2v.8c.82-.64,1.86-1,2.88-1,1.74,0,3.22.92,3.22,3.12v7.08h-2.28Z"/><path class="cls-4" d="m265.81,148.87c-1.46,0-2.32.6-2.32,3.02v5.02h-2.28v-10h2.2v1.12c.56-.68,1.24-1.32,2.52-1.32.6,0,1.16.12,1.6.32l-.12,2.2c-.46-.2-.84-.36-1.6-.36Z"/><path class="cls-4" d="m272.79,146.71c3,0,4.8,2.58,4.8,5.28,0,2.52-1.6,5.12-4.8,5.12s-4.8-2.6-4.8-5.12c0-2.7,1.8-5.28,4.8-5.28Zm0,2.2c-1.58,0-2.6,1.2-2.6,3,0,1.92,1.06,3,2.6,3s2.6-1.08,2.6-3c0-1.8-1.02-3-2.6-3Z"/><path class="cls-4" d="m285.45,156.91v-6.6c0-.94-.68-1.5-1.66-1.5-1.62,0-1.92,1.62-1.92,2.7v5.4h-2.28v-10h2.2v.8c.36-.28,1.2-1,2.8-1,1.16,0,2.16.4,2.7,1.32.44-.44,1.42-1.32,3.16-1.32s3.14.92,3.14,3.12v7.08h-2.28v-6.6c0-.94-.68-1.5-1.66-1.5-1.62,0-1.92,1.62-1.92,2.7v5.4h-2.28Z"/><path class="cls-4" d="m305.17,154.83c.26,0,.52-.04.9-.12v2.2c-.7.1-1.06.12-1.42.12-1.22,0-1.8-.26-2.26-1.04-.36.28-1.36,1.12-3.12,1.12-2.24,0-3.92-1.56-3.92-3.32,0-2.28,1.92-3.2,4.68-3.2h1.92v-.48c0-1.08-.84-1.8-2.04-1.8s-1.88.62-1.88,1.8h-2.44c0-2.16,1.92-3.4,4.38-3.4,2.26,0,4.18,1.02,4.18,3.18v4.08c0,.6.4.86,1.02.86Zm-5.58.68c1.64,0,2.36-1.4,2.36-2.2v-1c-3.48-.16-4.12.64-4.12,1.72,0,.8.68,1.48,1.76,1.48Z"/><path class="cls-4" d="m313.09,156.91v-6.6c0-.94-.72-1.5-1.74-1.5-1.62,0-2,1.42-2,2.5v5.6h-2.28v-10h2.2v.8c.82-.64,1.86-1,2.88-1,1.74,0,3.22.92,3.22,3.12v7.08h-2.28Z"/><path class="cls-4" d="m320.29,143.31v3.6h1.4v2.2h-1.4v5.16c0,.6.4.76.8.76.36,0,.6-.08.74-.16v2c-.18.06-.66.24-1.58.24-1.52,0-2.16-.92-2.16-1.88v-6.12h-1.2v-2.2h1.2v-3.6h2.2Z"/><path class="cls-4" d="m325.91,143.11v2.4h-2.28v-2.4h2.28Zm0,3.8v10h-2.28v-10h2.28Z"/><path class="cls-4" d="m332.59,146.71c3.48,0,4.28,3.04,4.56,4.4h-2.32c-.2-1.24-.82-2.2-2.32-2.2-1.3,0-2.4,1-2.4,3,0,2.12,1.22,3,2.56,3,1.52,0,2-1.08,2.36-2h2.08c0,1.68-1.48,4.2-4.64,4.2-2.76,0-4.56-2.4-4.56-5.12,0-3.1,1.96-5.28,4.68-5.28Z"/><path class="cls-4" d="m345.59,146.91v.88c.44-.32,1.32-1.08,2.76-1.08,2.92,0,4.56,2.56,4.56,5.12,0,2.88-1.56,5.28-4.48,5.28-1.44,0-2.28-.6-2.76-.92v4.32h-2.2v-13.6h2.12Zm2.52,2c-1.5,0-2.52,1-2.52,3s1.06,3,2.52,3,2.6-.88,2.6-3c0-2-1.1-3-2.6-3Z"/><path class="cls-4" d="m364.17,154.83c.26,0,.52-.04.9-.12v2.2c-.7.1-1.06.12-1.42.12-1.22,0-1.8-.26-2.26-1.04-.36.28-1.36,1.12-3.12,1.12-2.24,0-3.92-1.56-3.92-3.32,0-2.28,1.92-3.2,4.68-3.2h1.92v-.48c0-1.08-.84-1.8-2.04-1.8s-1.88.62-1.88,1.8h-2.44c0-2.16,1.92-3.4,4.38-3.4,2.26,0,4.18,1.02,4.18,3.18v4.08c0,.6.4.86,1.02.86Zm-5.58.68c1.64,0,2.36-1.4,2.36-2.2v-1c-3.48-.16-4.12.64-4.12,1.72,0,.8.68,1.48,1.76,1.48Z"/><path class="cls-4" d="m370.67,148.87c-1.46,0-2.32.6-2.32,3.02v5.02h-2.28v-10h2.2v1.12c.56-.68,1.24-1.32,2.52-1.32.6,0,1.16.12,1.6.32l-.12,2.2c-.46-.2-.84-.36-1.6-.36Z"/><path class="cls-4" d="m376.25,143.31v3.6h1.4v2.2h-1.4v5.16c0,.6.4.76.8.76.36,0,.6-.08.74-.16v2c-.18.06-.66.24-1.58.24-1.52,0-2.16-.92-2.16-1.88v-6.12h-1.2v-2.2h1.2v-3.6h2.2Z"/><path class="cls-4" d="m385.61,156.91v-6.6c0-.94-.72-1.5-1.74-1.5-1.62,0-2,1.42-2,2.5v5.6h-2.28v-10h2.2v.8c.82-.64,1.86-1,2.88-1,1.74,0,3.22.92,3.22,3.12v7.08h-2.28Z"/><path class="cls-4" d="m394.35,146.71c2.8,0,4.54,2,4.68,5.72h-7.1c.18,1.74,1.22,2.48,2.56,2.48,1.54,0,2.02-.96,2.22-1.4h2.2c-.12,1.36-1.4,3.6-4.4,3.6s-4.8-2.4-4.8-5.12,1.84-5.28,4.64-5.28Zm-2.26,3.72h4.58c-.14-1.22-.96-1.92-2.24-1.92-1.06,0-1.98.58-2.34,1.92Z"/><path class="cls-4" d="m405.47,148.87c-1.46,0-2.32.6-2.32,3.02v5.02h-2.28v-10h2.2v1.12c.56-.68,1.24-1.32,2.52-1.32.6,0,1.16.12,1.6.32l-.12,2.2c-.46-.2-.84-.36-1.6-.36Z"/><path class="cls-4" d="m411.89,148.41c-1.16,0-1.56.52-1.56,1.04,0,1.68,5.92.44,5.92,4.32,0,1.88-1.36,3.34-4.12,3.34-3.58,0-4.28-2.2-4.28-3.4h2.28c.16.78.68,1.6,2.18,1.6,1.1,0,1.74-.42,1.74-1.26,0-1.98-5.92-.5-5.92-4.3,0-1.56,1.04-3.04,3.96-3.04,3.16,0,4,2.08,4,3.08h-2.28c.04-.9-.72-1.38-1.92-1.38Z"/><rect class="cls-3" x="631.26" y="188.74" width="133.33" height="100"/><rect class="cls-2" x="631.26" y="300.74" width="133.33" height="100"/><path class="cls-4" d="m531.93,227.87c-.09-.89-.3-2.02-1.93-2.02-1.2,0-1.77.6-1.77,1.41,0,2.46,5.68-.01,5.68,4.44,0,2.07-1.6,3.3-3.91,3.3-2.88,0-4.1-1.78-3.86-3.49h1.89c.08,1.15.23,2.15,2.03,2.15,1.47,0,1.98-.72,1.98-1.5,0-2.6-5.7-.2-5.7-4.65,0-1.71,1.42-3,3.61-3,2.78,0,3.93,1.44,3.78,3.38h-1.8Z"/><path class="cls-4" d="m538.42,227.19c2.1,0,3.4,1.5,3.51,4.29h-5.33c.13,1.31.92,1.86,1.92,1.86,1.16,0,1.52-.72,1.67-1.05h1.65c-.09,1.02-1.05,2.7-3.3,2.7s-3.6-1.8-3.6-3.84,1.38-3.96,3.48-3.96Zm-1.7,2.79h3.43c-.1-.92-.72-1.44-1.68-1.44-.79,0-1.48.44-1.75,1.44Z"/><path class="cls-4" d="m545.02,224.64v10.2h-1.71v-10.2h1.71Z"/><path class="cls-4" d="m547.12,228.99h-.9v-1.65h.9v-1.23c0-.72.48-1.62,1.62-1.62.69,0,1.05.08,1.18.09v1.65c-.1,0-.29-.03-.55-.03-.3,0-.6.12-.6.57v.57h1.05v1.65h-1.05v5.85h-1.65v-5.85Z"/><path class="cls-4" d="m550.41,230.42h4.6v1.35h-4.6v-1.35Z"/><path class="cls-4" d="m556.63,224.64h6.24v1.69h-4.46v2.08h4.21v1.7h-4.21v3.03h4.46v1.69h-6.24v-10.2Z"/><path class="cls-4" d="m567.19,228.47c-.87,0-1.17.39-1.17.78,0,1.26,4.44.33,4.44,3.24,0,1.41-1.02,2.5-3.09,2.5-2.68,0-3.21-1.65-3.21-2.55h1.71c.12.58.51,1.2,1.63,1.2.83,0,1.3-.32,1.3-.95,0-1.48-4.44-.38-4.44-3.22,0-1.17.78-2.28,2.97-2.28,2.37,0,3,1.56,3,2.31h-1.71c.03-.67-.54-1.03-1.44-1.03Z"/><path class="cls-4" d="m573.76,224.64v2.7h1.05v1.65h-1.05v3.87c0,.45.3.57.6.57.27,0,.45-.06.56-.12v1.5c-.14.04-.5.18-1.19.18-1.14,0-1.62-.69-1.62-1.41v-4.59h-.9v-1.65h.9v-2.7h1.65Z"/><path class="cls-4" d="m579.37,227.19c2.1,0,3.4,1.5,3.51,4.29h-5.33c.13,1.31.92,1.86,1.92,1.86,1.16,0,1.52-.72,1.67-1.05h1.65c-.09,1.02-1.05,2.7-3.3,2.7s-3.6-1.8-3.6-3.84,1.38-3.96,3.48-3.96Zm-1.7,2.79h3.43c-.1-.92-.72-1.44-1.68-1.44-.79,0-1.48.44-1.75,1.44Z"/><path class="cls-4" d="m587.36,227.19c2.1,0,3.41,1.5,3.51,4.29h-5.32c.13,1.31.92,1.86,1.92,1.86,1.15,0,1.51-.72,1.67-1.05h1.65c-.09,1.02-1.05,2.7-3.3,2.7s-3.6-1.8-3.6-3.84,1.38-3.96,3.48-3.96Zm-1.69,2.79h3.43c-.11-.92-.72-1.44-1.68-1.44-.79,0-1.49.44-1.75,1.44Z"/><path class="cls-4" d="m596.65,234.84v-4.95c0-.71-.51-1.12-1.25-1.12-1.21,0-1.44,1.21-1.44,2.02v4.05h-1.71v-7.5h1.65v.6c.27-.21.9-.75,2.1-.75.87,0,1.62.3,2.03.99.33-.33,1.06-.99,2.37-.99s2.36.69,2.36,2.34v5.31h-1.71v-4.95c0-.71-.51-1.12-1.25-1.12-1.21,0-1.44,1.21-1.44,2.02v4.05h-1.71Z"/><path class="cls-4" d="m536.99,249.09c-.01-2.14.51-3.85,1.68-6.22h1.5c-1.09,2.25-1.67,4.29-1.67,6.24s.71,4.51,1.67,6.21h-1.5c-1-1.77-1.66-4.08-1.68-6.23Z"/><path class="cls-4" d="m544.04,250.04l1.54-7.4h2.59l1.51,7.44,1.73-7.44h1.8l-2.47,10.2h-2.16l-1.74-8.04-1.71,8.04h-2.14l-2.5-10.2h1.88l1.68,7.4Z"/><path class="cls-4" d="m560.7,251.28c.19,0,.39-.03.67-.09v1.65c-.53.08-.79.09-1.07.09-.92,0-1.35-.19-1.69-.78-.27.21-1.02.84-2.34.84-1.68,0-2.94-1.17-2.94-2.49,0-1.71,1.44-2.4,3.51-2.4h1.44v-.36c0-.81-.63-1.35-1.53-1.35s-1.41.46-1.41,1.35h-1.83c0-1.62,1.44-2.55,3.28-2.55,1.7,0,3.13.77,3.13,2.39v3.06c0,.45.3.65.77.65Zm-4.19.51c1.23,0,1.77-1.05,1.77-1.65v-.75c-2.61-.12-3.09.48-3.09,1.29,0,.6.51,1.11,1.32,1.11Z"/><path class="cls-4" d="m562.55,245.34l1.79,4.87,1.79-4.87h1.77l-2.79,7.5h-1.53l-2.79-7.5h1.77Z"/><path class="cls-4" d="m571.67,245.19c2.1,0,3.41,1.5,3.51,4.29h-5.32c.13,1.31.92,1.86,1.92,1.86,1.15,0,1.51-.72,1.67-1.05h1.65c-.09,1.02-1.05,2.7-3.3,2.7s-3.6-1.8-3.6-3.84,1.38-3.96,3.48-3.96Zm-1.69,2.79h3.43c-.11-.92-.72-1.44-1.68-1.44-.79,0-1.49.44-1.75,1.44Z"/><path class="cls-4" d="m580.46,251.39h2.82v-5.89h-2.38v-1.2c2.21-.15,2.62-.9,2.82-1.65h1.35v8.74h2.59v1.46h-7.2v-1.46Z"/><path class="cls-4" d="m592.2,249.09c.02,2.15-.51,3.85-1.68,6.23h-1.5c1.09-2.25,1.67-4.29,1.67-6.24s-.71-4.52-1.67-6.21h1.5c1,1.77,1.67,4.08,1.68,6.22Z"/><path class="cls-4" d="m783.89,220.43h4.2l-.04,5.41h-1.69c-.02-.23-.02-.44-.03-.65-.51.5-1.33.79-2.34.79-2.59,0-4.67-1.95-4.67-5.25s2.01-5.25,4.68-5.25c1.98,0,3.69.99,4,3.28h-2.1c-.11-.87-.86-1.5-2.01-1.5-1.65,0-2.71,1.29-2.71,3.46s1.17,3.46,3.03,3.46c1.29,0,1.92-.65,2.1-2.07h-2.42v-1.71Z"/><path class="cls-4" d="m794.37,225.84v-4.95c0-.84-.57-1.29-1.31-1.29-1.21,0-1.5,1.29-1.5,2.19v4.05h-1.65v-10.2h1.59v3.3c.27-.27.96-.75,2.16-.75,1.3,0,2.42.69,2.42,2.34v5.31h-1.71Z"/><path class="cls-4" d="m801.12,218.19c2.25,0,3.6,1.94,3.6,3.96,0,1.89-1.2,3.84-3.6,3.84s-3.6-1.95-3.6-3.84c0-2.02,1.35-3.96,3.6-3.96Zm0,1.65c-1.18,0-1.95.9-1.95,2.25,0,1.44.79,2.25,1.95,2.25s1.95-.81,1.95-2.25c0-1.35-.76-2.25-1.95-2.25Z"/><path class="cls-4" d="m808.8,219.47c-.87,0-1.17.39-1.17.78,0,1.26,4.44.33,4.44,3.24,0,1.41-1.02,2.5-3.09,2.5-2.68,0-3.21-1.65-3.21-2.55h1.71c.12.58.51,1.2,1.63,1.2.83,0,1.3-.31,1.3-.94,0-1.48-4.44-.38-4.44-3.22,0-1.17.78-2.28,2.97-2.28,2.37,0,3,1.56,3,2.31h-1.71c.03-.67-.54-1.03-1.44-1.03Z"/><path class="cls-4" d="m815.37,215.64v2.7h1.05v1.65h-1.05v3.87c0,.45.3.57.6.57.27,0,.45-.06.56-.12v1.5c-.14.04-.5.18-1.19.18-1.14,0-1.62-.69-1.62-1.41v-4.59h-.9v-1.65h.9v-2.7h1.65Z"/><path class="cls-4" d="m819.58,215.49v1.8h-1.71v-1.8h1.71Zm0,2.85v7.5h-1.71v-7.5h1.71Z"/><path class="cls-4" d="m825.9,225.84v-4.95c0-.71-.54-1.12-1.3-1.12-1.21,0-1.5,1.06-1.5,1.88v4.2h-1.71v-7.5h1.65v.6c.62-.48,1.39-.75,2.16-.75,1.3,0,2.41.69,2.41,2.34v5.31h-1.71Z"/><path class="cls-4" d="m834.3,224.91c-.36.29-1,.63-1.92.63-2.19,0-3.33-1.65-3.33-3.54,0-2.02,1.32-3.81,3.24-3.81,1.11,0,1.74.42,2.07.69v-.54h1.59v7.35c0,1.92-1.14,3-3.33,3s-3.51-.93-3.51-2.55h1.71c.18.5.42,1.2,1.77,1.2,1.2,0,1.71-.6,1.71-1.5v-.93Zm-1.74-.72c1.09,0,1.8-.75,1.8-2.19,0-1.35-.67-2.16-1.8-2.16s-1.86.81-1.86,2.16c0,1.44.76,2.19,1.86,2.19Z"/><path class="cls-4" d="m840.9,220.74c0-3.23,2-5.25,4.53-5.25s4.56,2.02,4.56,5.25-2.03,5.25-4.56,5.25-4.53-2.02-4.53-5.25Zm7.21,0c0-2.18-1.11-3.46-2.68-3.46s-2.67,1.29-2.67,3.46,1.09,3.46,2.67,3.46,2.68-1.29,2.68-3.46Z"/><path class="cls-4" d="m853.57,215.64v2.7h1.05v1.65h-1.05v3.87c0,.45.3.57.6.57.27,0,.45-.06.56-.12v1.5c-.14.04-.5.18-1.19.18-1.14,0-1.62-.69-1.62-1.41v-4.59h-.9v-1.65h.9v-2.7h1.65Z"/><path class="cls-4" d="m860.53,225.84v-4.95c0-.84-.57-1.29-1.3-1.29-1.21,0-1.5,1.29-1.5,2.19v4.05h-1.65v-10.2h1.59v3.3c.27-.27.96-.75,2.16-.75,1.3,0,2.42.69,2.42,2.34v5.31h-1.71Z"/><path class="cls-4" d="m867.09,218.19c2.1,0,3.41,1.5,3.51,4.29h-5.32c.13,1.31.92,1.86,1.92,1.86,1.15,0,1.51-.72,1.67-1.05h1.65c-.09,1.02-1.05,2.7-3.3,2.7s-3.6-1.8-3.6-3.84,1.38-3.96,3.48-3.96Zm-1.69,2.79h3.43c-.11-.92-.72-1.44-1.68-1.44-.79,0-1.49.44-1.75,1.44Z"/><path class="cls-4" d="m875.43,219.81c-1.09,0-1.74.45-1.74,2.27v3.76h-1.71v-7.5h1.65v.84c.42-.51.93-.99,1.89-.99.45,0,.87.09,1.2.24l-.09,1.65c-.35-.15-.63-.27-1.2-.27Z"/><path class="cls-4" d="m880.24,219.47c-.87,0-1.17.39-1.17.78,0,1.26,4.44.33,4.44,3.24,0,1.41-1.02,2.5-3.09,2.5-2.68,0-3.21-1.65-3.21-2.55h1.71c.12.58.51,1.2,1.63,1.2.83,0,1.3-.31,1.3-.94,0-1.48-4.44-.38-4.44-3.22,0-1.17.78-2.28,2.97-2.28,2.37,0,3,1.56,3,2.31h-1.71c.03-.67-.54-1.03-1.44-1.03Z"/><path class="cls-4" d="m775.16,241.04l1.54-7.4h2.6l1.51,7.44,1.72-7.44h1.8l-2.47,10.2h-2.16l-1.74-8.04-1.71,8.04h-2.15l-2.5-10.2h1.88l1.68,7.4Z"/><path class="cls-4" d="m786.89,233.49v1.8h-1.71v-1.8h1.71Zm0,2.85v7.5h-1.71v-7.5h1.71Z"/><path class="cls-4" d="m790.64,233.64v2.7h1.05v1.65h-1.05v3.87c0,.45.3.57.6.57.27,0,.45-.06.55-.12v1.5c-.13.04-.5.18-1.18.18-1.14,0-1.62-.69-1.62-1.41v-4.59h-.9v-1.65h.9v-2.7h1.65Z"/><path class="cls-4" d="m797.6,243.84v-4.95c0-.84-.57-1.29-1.31-1.29-1.21,0-1.5,1.29-1.5,2.19v4.05h-1.65v-10.2h1.59v3.3c.27-.27.96-.75,2.16-.75,1.3,0,2.42.69,2.42,2.34v5.31h-1.71Z"/><path class="cls-4" d="m802.75,233.49v1.8h-1.71v-1.8h1.71Zm0,2.85v7.5h-1.71v-7.5h1.71Z"/><path class="cls-4" d="m809.07,243.84v-4.95c0-.71-.54-1.12-1.3-1.12-1.21,0-1.5,1.06-1.5,1.88v4.2h-1.71v-7.5h1.65v.6c.62-.48,1.39-.75,2.16-.75,1.3,0,2.41.69,2.41,2.34v5.31h-1.71Z"/><path class="cls-4" d="m816.21,233.64h6.07v1.69h-4.29v2.08h3.88v1.7h-3.88v3.85c0,.36.02.66.09.87h-1.88v-10.2Z"/><path class="cls-4" d="m827.08,237.81c-1.09,0-1.74.45-1.74,2.27v3.76h-1.71v-7.5h1.65v.84c.42-.51.93-.99,1.89-.99.45,0,.87.09,1.2.24l-.09,1.65c-.34-.15-.63-.27-1.2-.27Z"/><path class="cls-4" d="m831.03,233.49v1.8h-1.71v-1.8h1.71Zm0,2.85v7.5h-1.71v-7.5h1.71Z"/><path class="cls-4" d="m835.93,236.19c2.1,0,3.4,1.5,3.51,4.29h-5.33c.13,1.31.92,1.86,1.92,1.86,1.16,0,1.52-.72,1.67-1.05h1.65c-.09,1.02-1.05,2.7-3.3,2.7s-3.6-1.8-3.6-3.84,1.38-3.96,3.48-3.96Zm-1.7,2.79h3.43c-.1-.92-.72-1.44-1.68-1.44-.79,0-1.48.44-1.75,1.44Z"/><path class="cls-4" d="m845.34,243.84v-4.95c0-.71-.54-1.12-1.3-1.12-1.21,0-1.5,1.06-1.5,1.88v4.2h-1.71v-7.5h1.65v.6c.62-.48,1.4-.75,2.16-.75,1.3,0,2.42.69,2.42,2.34v5.31h-1.71Z"/><path class="cls-4" d="m853.98,243.84v-.66c-.33.24-.99.81-2.07.81-2.19,0-3.42-1.92-3.42-3.84,0-2.16,1.17-3.96,3.36-3.96,1.08,0,1.71.45,2.07.69v-3.24h1.65v10.2h-1.59Zm-1.89-1.5c1.12,0,1.89-.75,1.89-2.25s-.79-2.25-1.89-2.25-1.95.66-1.95,2.25c0,1.5.83,2.25,1.95,2.25Z"/><path class="cls-4" d="m859.95,237.47c-.87,0-1.17.39-1.17.78,0,1.26,4.44.33,4.44,3.24,0,1.41-1.02,2.5-3.09,2.5-2.68,0-3.21-1.65-3.21-2.55h1.71c.12.58.51,1.2,1.63,1.2.83,0,1.3-.31,1.3-.94,0-1.48-4.44-.38-4.44-3.22,0-1.17.78-2.28,2.97-2.28,2.37,0,3,1.56,3,2.31h-1.71c.03-.67-.54-1.03-1.44-1.03Z"/><path class="cls-4" d="m869.02,243.84v-4.95c0-.84-.57-1.29-1.3-1.29-1.21,0-1.5,1.29-1.5,2.19v4.05h-1.65v-10.2h1.59v3.3c.27-.27.96-.75,2.16-.75,1.3,0,2.42.69,2.42,2.34v5.31h-1.71Z"/><path class="cls-4" d="m874.18,233.49v1.8h-1.71v-1.8h1.71Zm0,2.85v7.5h-1.71v-7.5h1.71Z"/><path class="cls-4" d="m877.57,236.34v.66c.33-.24.99-.81,2.07-.81,2.19,0,3.42,1.92,3.42,3.84,0,2.16-1.17,3.96-3.36,3.96-1.08,0-1.71-.45-2.07-.69v3.24h-1.65v-10.2h1.59Zm1.89,1.5c-1.12,0-1.89.75-1.89,2.25s.79,2.25,1.89,2.25,1.95-.66,1.95-2.25c0-1.5-.83-2.25-1.95-2.25Z"/><path class="cls-4" d="m887.14,237.47c-.87,0-1.17.39-1.17.78,0,1.26,4.44.33,4.44,3.24,0,1.41-1.02,2.5-3.09,2.5-2.68,0-3.21-1.65-3.21-2.55h1.71c.12.58.51,1.2,1.63,1.2.83,0,1.3-.31,1.3-.94,0-1.48-4.44-.38-4.44-3.22,0-1.17.78-2.28,2.97-2.28,2.37,0,3,1.56,3,2.31h-1.71c.03-.67-.54-1.03-1.44-1.03Z"/><path class="cls-4" d="m803.66,258.09c-.01-2.14.51-3.85,1.68-6.22h1.5c-1.09,2.25-1.67,4.29-1.67,6.24s.71,4.51,1.67,6.21h-1.5c-1-1.77-1.66-4.08-1.68-6.23Z"/><path class="cls-4" d="m810.71,259.04l1.54-7.4h2.59l1.51,7.44,1.73-7.44h1.8l-2.47,10.2h-2.16l-1.74-8.04-1.71,8.04h-2.14l-2.5-10.2h1.88l1.68,7.4Z"/><path class="cls-4" d="m827.37,260.28c.19,0,.39-.03.67-.09v1.65c-.53.08-.79.09-1.07.09-.92,0-1.35-.19-1.69-.78-.27.21-1.02.84-2.34.84-1.68,0-2.94-1.17-2.94-2.49,0-1.71,1.44-2.4,3.51-2.4h1.44v-.36c0-.81-.63-1.35-1.53-1.35s-1.41.46-1.41,1.35h-1.83c0-1.62,1.44-2.55,3.28-2.55,1.7,0,3.13.77,3.13,2.39v3.06c0,.45.3.65.77.65Zm-4.19.51c1.23,0,1.77-1.05,1.77-1.65v-.75c-2.61-.12-3.09.48-3.09,1.29,0,.6.51,1.11,1.32,1.11Z"/><path class="cls-4" d="m829.21,254.34l1.79,4.87,1.79-4.87h1.77l-2.79,7.5h-1.53l-2.79-7.5h1.77Z"/><path class="cls-4" d="m838.33,254.19c2.1,0,3.41,1.5,3.51,4.29h-5.32c.13,1.31.92,1.86,1.92,1.86,1.15,0,1.51-.72,1.67-1.05h1.65c-.09,1.02-1.05,2.7-3.3,2.7s-3.6-1.8-3.6-3.84,1.38-3.96,3.48-3.96Zm-1.69,2.79h3.43c-.11-.92-.72-1.44-1.68-1.44-.79,0-1.49.44-1.75,1.44Z"/><path class="cls-4" d="m846.9,260.34l3.39-3.01c1.14-1,1.84-1.64,1.84-2.62,0-.81-.56-1.56-1.71-1.56s-1.77.79-1.79,2.27h-1.8c-.15-2.48,1.48-3.92,3.72-3.92s3.41,1.42,3.41,3c0,1.68-.95,2.8-2.19,3.81l-2.16,1.74h4.4v1.8h-7.11v-1.5Z"/><path class="cls-4" d="m858.87,258.09c.02,2.15-.51,3.85-1.68,6.23h-1.5c1.09-2.25,1.67-4.29,1.67-6.24s-.71-4.52-1.67-6.21h1.5c1,1.77,1.67,4.08,1.68,6.22Z"/><path class="cls-4" d="m517.22,332.43h4.2l-.04,5.42h-1.69c-.02-.23-.02-.44-.03-.65-.51.5-1.33.79-2.34.79-2.59,0-4.67-1.95-4.67-5.25s2.01-5.25,4.68-5.25c1.98,0,3.69.99,4,3.28h-2.1c-.11-.87-.86-1.5-2.01-1.5-1.65,0-2.71,1.29-2.71,3.46s1.17,3.46,3.03,3.46c1.29,0,1.92-.65,2.1-2.07h-2.42v-1.71Z"/><path class="cls-4" d="m527.7,337.84v-4.95c0-.84-.57-1.29-1.31-1.29-1.21,0-1.5,1.29-1.5,2.19v4.05h-1.65v-10.2h1.59v3.3c.27-.27.96-.75,2.16-.75,1.3,0,2.42.69,2.42,2.34v5.31h-1.71Z"/><path class="cls-4" d="m534.45,330.19c2.25,0,3.6,1.94,3.6,3.96,0,1.89-1.2,3.84-3.6,3.84s-3.6-1.95-3.6-3.84c0-2.02,1.35-3.96,3.6-3.96Zm0,1.65c-1.18,0-1.95.9-1.95,2.25,0,1.44.79,2.25,1.95,2.25s1.95-.81,1.95-2.25c0-1.35-.76-2.25-1.95-2.25Z"/><path class="cls-4" d="m542.13,331.47c-.87,0-1.17.39-1.17.78,0,1.26,4.44.33,4.44,3.24,0,1.41-1.02,2.5-3.09,2.5-2.68,0-3.21-1.65-3.21-2.55h1.71c.12.58.51,1.2,1.63,1.2.83,0,1.3-.32,1.3-.95,0-1.48-4.44-.38-4.44-3.22,0-1.17.78-2.28,2.97-2.28,2.37,0,3,1.56,3,2.31h-1.71c.03-.67-.54-1.04-1.44-1.04Z"/><path class="cls-4" d="m548.7,327.64v2.7h1.05v1.65h-1.05v3.87c0,.45.3.57.6.57.27,0,.45-.06.56-.12v1.5c-.14.04-.5.18-1.19.18-1.14,0-1.62-.69-1.62-1.41v-4.59h-.9v-1.65h.9v-2.7h1.65Z"/><path class="cls-4" d="m552.92,327.49v1.8h-1.71v-1.8h1.71Zm0,2.85v7.5h-1.71v-7.5h1.71Z"/><path class="cls-4" d="m559.23,337.84v-4.95c0-.71-.54-1.12-1.3-1.12-1.21,0-1.5,1.07-1.5,1.88v4.2h-1.71v-7.5h1.65v.6c.62-.48,1.39-.75,2.16-.75,1.3,0,2.41.69,2.41,2.34v5.31h-1.71Z"/><path class="cls-4" d="m567.63,336.91c-.36.29-1,.63-1.92.63-2.19,0-3.33-1.65-3.33-3.54,0-2.03,1.32-3.81,3.24-3.81,1.11,0,1.74.42,2.07.69v-.54h1.59v7.35c0,1.92-1.14,3-3.33,3s-3.51-.93-3.51-2.55h1.71c.18.5.42,1.2,1.77,1.2,1.2,0,1.71-.6,1.71-1.5v-.93Zm-1.74-.72c1.09,0,1.8-.75,1.8-2.19,0-1.35-.67-2.16-1.8-2.16s-1.86.81-1.86,2.16c0,1.44.76,2.19,1.86,2.19Z"/><path class="cls-4" d="m574.23,332.74c0-3.23,2-5.25,4.53-5.25s4.56,2.02,4.56,5.25-2.03,5.25-4.56,5.25-4.53-2.02-4.53-5.25Zm7.21,0c0-2.18-1.11-3.46-2.68-3.46s-2.67,1.29-2.67,3.46,1.09,3.46,2.67,3.46,2.68-1.29,2.68-3.46Z"/><path class="cls-4" d="m586.91,327.64v2.7h1.05v1.65h-1.05v3.87c0,.45.3.57.6.57.27,0,.45-.06.56-.12v1.5c-.14.04-.5.18-1.19.18-1.14,0-1.62-.69-1.62-1.41v-4.59h-.9v-1.65h.9v-2.7h1.65Z"/><path class="cls-4" d="m593.87,337.84v-4.95c0-.84-.57-1.29-1.3-1.29-1.21,0-1.5,1.29-1.5,2.19v4.05h-1.65v-10.2h1.59v3.3c.27-.27.96-.75,2.16-.75,1.3,0,2.42.69,2.42,2.34v5.31h-1.71Z"/><path class="cls-4" d="m600.42,330.19c2.1,0,3.41,1.5,3.51,4.29h-5.32c.13,1.31.92,1.86,1.92,1.86,1.15,0,1.51-.72,1.67-1.05h1.65c-.09,1.02-1.05,2.7-3.3,2.7s-3.6-1.8-3.6-3.84,1.38-3.96,3.48-3.96Zm-1.69,2.79h3.43c-.11-.92-.72-1.44-1.68-1.44-.79,0-1.49.43-1.75,1.44Z"/><path class="cls-4" d="m608.76,331.81c-1.09,0-1.74.45-1.74,2.27v3.76h-1.71v-7.5h1.65v.84c.42-.51.93-.99,1.89-.99.45,0,.87.09,1.2.24l-.09,1.65c-.35-.15-.63-.27-1.2-.27Z"/><path class="cls-4" d="m613.58,331.47c-.87,0-1.17.39-1.17.78,0,1.26,4.44.33,4.44,3.24,0,1.41-1.02,2.5-3.09,2.5-2.68,0-3.21-1.65-3.21-2.55h1.71c.12.58.51,1.2,1.63,1.2.83,0,1.3-.32,1.3-.95,0-1.48-4.44-.38-4.44-3.22,0-1.17.78-2.28,2.97-2.28,2.37,0,3,1.56,3,2.31h-1.71c.03-.67-.54-1.04-1.44-1.04Z"/><path class="cls-4" d="m508.49,353.04l1.54-7.4h2.6l1.51,7.44,1.72-7.44h1.8l-2.47,10.2h-2.16l-1.74-8.04-1.71,8.04h-2.15l-2.5-10.2h1.88l1.68,7.4Z"/><path class="cls-4" d="m520.22,345.49v1.8h-1.71v-1.8h1.71Zm0,2.85v7.5h-1.71v-7.5h1.71Z"/><path class="cls-4" d="m523.97,345.64v2.7h1.05v1.65h-1.05v3.87c0,.45.3.57.6.57.27,0,.45-.06.55-.12v1.5c-.13.04-.5.18-1.18.18-1.14,0-1.62-.69-1.62-1.41v-4.59h-.9v-1.65h.9v-2.7h1.65Z"/><path class="cls-4" d="m530.93,355.84v-4.95c0-.84-.57-1.29-1.31-1.29-1.21,0-1.5,1.29-1.5,2.19v4.05h-1.65v-10.2h1.59v3.3c.27-.27.96-.75,2.16-.75,1.3,0,2.42.69,2.42,2.34v5.31h-1.71Z"/><path class="cls-4" d="m536.09,345.49v1.8h-1.71v-1.8h1.71Zm0,2.85v7.5h-1.71v-7.5h1.71Z"/><path class="cls-4" d="m542.4,355.84v-4.95c0-.71-.54-1.12-1.3-1.12-1.21,0-1.5,1.07-1.5,1.88v4.2h-1.71v-7.5h1.65v.6c.62-.48,1.39-.75,2.16-.75,1.3,0,2.41.69,2.41,2.34v5.31h-1.71Z"/><path class="cls-4" d="m549.54,345.64h6.07v1.7h-4.29v2.08h3.88v1.7h-3.88v3.85c0,.36.02.66.09.87h-1.88v-10.2Z"/><path class="cls-4" d="m560.42,349.81c-1.09,0-1.74.45-1.74,2.27v3.76h-1.71v-7.5h1.65v.84c.42-.51.93-.99,1.89-.99.45,0,.87.09,1.2.24l-.09,1.65c-.34-.15-.63-.27-1.2-.27Z"/><path class="cls-4" d="m564.36,345.49v1.8h-1.71v-1.8h1.71Zm0,2.85v7.5h-1.71v-7.5h1.71Z"/><path class="cls-4" d="m569.27,348.19c2.1,0,3.4,1.5,3.51,4.29h-5.33c.13,1.31.92,1.86,1.92,1.86,1.16,0,1.52-.72,1.67-1.05h1.65c-.09,1.02-1.05,2.7-3.3,2.7s-3.6-1.8-3.6-3.84,1.38-3.96,3.48-3.96Zm-1.7,2.79h3.43c-.1-.92-.72-1.44-1.68-1.44-.79,0-1.48.43-1.75,1.44Z"/><path class="cls-4" d="m578.67,355.84v-4.95c0-.71-.54-1.12-1.3-1.12-1.21,0-1.5,1.07-1.5,1.88v4.2h-1.71v-7.5h1.65v.6c.62-.48,1.4-.75,2.16-.75,1.3,0,2.42.69,2.42,2.34v5.31h-1.71Z"/><path class="cls-4" d="m587.31,355.84v-.66c-.33.24-.99.81-2.07.81-2.19,0-3.42-1.92-3.42-3.84,0-2.16,1.17-3.96,3.36-3.96,1.08,0,1.71.45,2.07.69v-3.24h1.65v10.2h-1.59Zm-1.89-1.5c1.12,0,1.89-.75,1.89-2.25s-.79-2.25-1.89-2.25-1.95.66-1.95,2.25c0,1.5.83,2.25,1.95,2.25Z"/><path class="cls-4" d="m593.28,349.47c-.87,0-1.17.39-1.17.78,0,1.26,4.44.33,4.44,3.24,0,1.41-1.02,2.5-3.09,2.5-2.68,0-3.21-1.65-3.21-2.55h1.71c.12.58.51,1.2,1.63,1.2.83,0,1.3-.32,1.3-.95,0-1.48-4.44-.38-4.44-3.22,0-1.17.78-2.28,2.97-2.28,2.37,0,3,1.56,3,2.31h-1.71c.03-.67-.54-1.04-1.44-1.04Z"/><path class="cls-4" d="m602.36,355.84v-4.95c0-.84-.57-1.29-1.3-1.29-1.21,0-1.5,1.29-1.5,2.19v4.05h-1.65v-10.2h1.59v3.3c.27-.27.96-.75,2.16-.75,1.3,0,2.42.69,2.42,2.34v5.31h-1.71Z"/><path class="cls-4" d="m607.52,345.49v1.8h-1.71v-1.8h1.71Zm0,2.85v7.5h-1.71v-7.5h1.71Z"/><path class="cls-4" d="m610.91,348.34v.66c.33-.24.99-.81,2.07-.81,2.19,0,3.42,1.92,3.42,3.84,0,2.16-1.17,3.96-3.36,3.96-1.08,0-1.71-.45-2.07-.69v3.24h-1.65v-10.2h1.59Zm1.89,1.5c-1.12,0-1.89.75-1.89,2.25s.79,2.25,1.89,2.25,1.95-.66,1.95-2.25c0-1.5-.83-2.25-1.95-2.25Z"/><path class="cls-4" d="m620.48,349.47c-.87,0-1.17.39-1.17.78,0,1.26,4.44.33,4.44,3.24,0,1.41-1.02,2.5-3.09,2.5-2.68,0-3.21-1.65-3.21-2.55h1.71c.12.58.51,1.2,1.63,1.2.83,0,1.3-.32,1.3-.95,0-1.48-4.44-.38-4.44-3.22,0-1.17.78-2.28,2.97-2.28,2.37,0,3,1.56,3,2.31h-1.71c.03-.67-.54-1.04-1.44-1.04Z"/><path class="cls-4" d="m536.99,370.09c-.01-2.14.51-3.85,1.68-6.22h1.5c-1.09,2.25-1.67,4.29-1.67,6.24s.71,4.51,1.67,6.21h-1.5c-1-1.77-1.66-4.08-1.68-6.22Z"/><path class="cls-4" d="m544.04,371.04l1.54-7.4h2.59l1.51,7.44,1.73-7.44h1.8l-2.47,10.2h-2.16l-1.74-8.04-1.71,8.04h-2.14l-2.5-10.2h1.88l1.68,7.4Z"/><path class="cls-4" d="m560.7,372.28c.19,0,.39-.03.67-.09v1.65c-.53.08-.79.09-1.07.09-.92,0-1.35-.2-1.69-.78-.27.21-1.02.84-2.34.84-1.68,0-2.94-1.17-2.94-2.49,0-1.71,1.44-2.4,3.51-2.4h1.44v-.36c0-.81-.63-1.35-1.53-1.35s-1.41.46-1.41,1.35h-1.83c0-1.62,1.44-2.55,3.28-2.55,1.7,0,3.13.77,3.13,2.39v3.06c0,.45.3.64.77.64Zm-4.19.51c1.23,0,1.77-1.05,1.77-1.65v-.75c-2.61-.12-3.09.48-3.09,1.29,0,.6.51,1.11,1.32,1.11Z"/><path class="cls-4" d="m562.55,366.34l1.79,4.88,1.79-4.88h1.77l-2.79,7.5h-1.53l-2.79-7.5h1.77Z"/><path class="cls-4" d="m571.67,366.19c2.1,0,3.41,1.5,3.51,4.29h-5.32c.13,1.31.92,1.86,1.92,1.86,1.15,0,1.51-.72,1.67-1.05h1.65c-.09,1.02-1.05,2.7-3.3,2.7s-3.6-1.8-3.6-3.84,1.38-3.96,3.48-3.96Zm-1.69,2.79h3.43c-.11-.92-.72-1.44-1.68-1.44-.79,0-1.49.43-1.75,1.44Z"/><path class="cls-4" d="m580.46,372.39h2.82v-5.89h-2.38v-1.2c2.21-.15,2.62-.9,2.82-1.65h1.35v8.75h2.59v1.46h-7.2v-1.46Z"/><path class="cls-4" d="m592.2,370.09c.02,2.14-.51,3.85-1.68,6.22h-1.5c1.09-2.25,1.67-4.29,1.67-6.24s-.71-4.52-1.67-6.21h1.5c1,1.77,1.67,4.08,1.68,6.22Z"/><path class="cls-4" d="m796.1,327.64h3.04c3.04,0,5.08,1.94,5.08,5.1s-2.04,5.1-5.08,5.1h-3.04v-10.2Zm6.27,5.1c0-2.27-1.2-3.41-3.33-3.41h-1.16v6.81h1.16c2.13,0,3.33-1.14,3.33-3.4Z"/><path class="cls-4" d="m808.97,330.19c2.1,0,3.4,1.5,3.51,4.29h-5.33c.13,1.31.92,1.86,1.92,1.86,1.16,0,1.52-.72,1.67-1.05h1.65c-.09,1.02-1.05,2.7-3.3,2.7s-3.6-1.8-3.6-3.84,1.38-3.96,3.48-3.96Zm-1.7,2.79h3.43c-.1-.92-.72-1.44-1.68-1.44-.79,0-1.48.43-1.75,1.44Z"/><path class="cls-4" d="m815.45,330.34v.66c.33-.24.99-.81,2.07-.81,2.19,0,3.42,1.92,3.42,3.84,0,2.16-1.17,3.96-3.36,3.96-1.08,0-1.71-.45-2.07-.69v3.24h-1.65v-10.2h1.59Zm1.89,1.5c-1.12,0-1.89.75-1.89,2.25s.79,2.25,1.89,2.25,1.95-.66,1.95-2.25c0-1.5-.83-2.25-1.95-2.25Z"/><path class="cls-4" d="m825.89,331.81c-1.09,0-1.74.45-1.74,2.27v3.76h-1.71v-7.5h1.65v.84c.42-.51.93-.99,1.89-.99.45,0,.87.09,1.2.24l-.09,1.65c-.34-.15-.63-.27-1.2-.27Z"/><path class="cls-4" d="m830.93,330.19c2.1,0,3.4,1.5,3.51,4.29h-5.33c.13,1.31.92,1.86,1.92,1.86,1.16,0,1.52-.72,1.67-1.05h1.65c-.09,1.02-1.05,2.7-3.3,2.7s-3.6-1.8-3.6-3.84,1.38-3.96,3.48-3.96Zm-1.7,2.79h3.43c-.1-.92-.72-1.44-1.68-1.44-.79,0-1.48.43-1.75,1.44Z"/><path class="cls-4" d="m838.4,331.47c-.87,0-1.17.39-1.17.78,0,1.26,4.44.33,4.44,3.24,0,1.41-1.02,2.5-3.09,2.5-2.68,0-3.21-1.65-3.21-2.55h1.71c.12.58.51,1.2,1.63,1.2.83,0,1.3-.32,1.3-.95,0-1.48-4.44-.38-4.44-3.22,0-1.17.78-2.28,2.97-2.28,2.37,0,3,1.56,3,2.31h-1.71c.03-.67-.54-1.04-1.44-1.04Z"/><path class="cls-4" d="m845.6,331.47c-.87,0-1.17.39-1.17.78,0,1.26,4.44.33,4.44,3.24,0,1.41-1.02,2.5-3.09,2.5-2.68,0-3.21-1.65-3.21-2.55h1.71c.12.58.51,1.2,1.64,1.2.82,0,1.3-.32,1.3-.95,0-1.48-4.44-.38-4.44-3.22,0-1.17.78-2.28,2.97-2.28,2.37,0,3,1.56,3,2.31h-1.71c.03-.67-.54-1.04-1.44-1.04Z"/><path class="cls-4" d="m851.93,327.49v1.8h-1.71v-1.8h1.71Zm0,2.85v7.5h-1.71v-7.5h1.71Z"/><path class="cls-4" d="m854.6,330.34l1.78,4.88,1.79-4.88h1.77l-2.79,7.5h-1.53l-2.79-7.5h1.77Z"/><path class="cls-4" d="m863.72,330.19c2.1,0,3.41,1.5,3.51,4.29h-5.32c.13,1.31.92,1.86,1.92,1.86,1.15,0,1.51-.72,1.67-1.05h1.65c-.09,1.02-1.05,2.7-3.3,2.7s-3.6-1.8-3.6-3.84,1.38-3.96,3.48-3.96Zm-1.69,2.79h3.43c-.11-.92-.72-1.44-1.68-1.44-.79,0-1.49.43-1.75,1.44Z"/><path class="cls-4" d="m776.24,347.44h-2.67v-1.8h7.14v1.8h-2.67v8.4h-1.8v-8.4Z"/><path class="cls-4" d="m783.41,348.19c2.1,0,3.4,1.5,3.51,4.29h-5.33c.13,1.31.92,1.86,1.92,1.86,1.16,0,1.52-.72,1.67-1.05h1.65c-.09,1.02-1.05,2.7-3.3,2.7s-3.6-1.8-3.6-3.84,1.38-3.96,3.48-3.96Zm-1.7,2.79h3.43c-.1-.92-.72-1.44-1.68-1.44-.79,0-1.48.43-1.75,1.44Z"/><path class="cls-4" d="m792.81,355.84v-4.95c0-.71-.54-1.12-1.3-1.12-1.21,0-1.5,1.07-1.5,1.88v4.2h-1.71v-7.5h1.65v.6c.62-.48,1.4-.75,2.16-.75,1.3,0,2.42.69,2.42,2.34v5.31h-1.71Z"/><path class="cls-4" d="m801.45,355.84v-.66c-.33.24-.99.81-2.07.81-2.19,0-3.42-1.92-3.42-3.84,0-2.16,1.17-3.96,3.36-3.96,1.08,0,1.71.45,2.07.69v-3.24h1.65v10.2h-1.59Zm-1.89-1.5c1.12,0,1.89-.75,1.89-2.25s-.79-2.25-1.89-2.25-1.95.66-1.95,2.25c0,1.5.83,2.25,1.95,2.25Z"/><path class="cls-4" d="m807.95,348.19c2.1,0,3.41,1.5,3.51,4.29h-5.32c.13,1.31.92,1.86,1.92,1.86,1.15,0,1.51-.72,1.67-1.05h1.65c-.09,1.02-1.05,2.7-3.3,2.7s-3.6-1.8-3.6-3.84,1.38-3.96,3.48-3.96Zm-1.69,2.79h3.43c-.11-.92-.72-1.44-1.68-1.44-.79,0-1.49.43-1.75,1.44Z"/><path class="cls-4" d="m817.35,355.84v-4.95c0-.71-.54-1.12-1.3-1.12-1.21,0-1.5,1.07-1.5,1.88v4.2h-1.71v-7.5h1.65v.6c.62-.48,1.39-.75,2.16-.75,1.3,0,2.41.69,2.41,2.34v5.31h-1.71Z"/><path class="cls-4" d="m824.01,348.19c2.61,0,3.21,2.28,3.42,3.3h-1.74c-.15-.93-.61-1.65-1.74-1.65-.98,0-1.8.75-1.8,2.25,0,1.59.92,2.25,1.92,2.25,1.14,0,1.5-.81,1.77-1.5h1.56c0,1.26-1.11,3.15-3.48,3.15-2.07,0-3.42-1.8-3.42-3.84,0-2.32,1.47-3.96,3.51-3.96Z"/><path class="cls-4" d="m830.58,345.49v1.8h-1.71v-1.8h1.71Zm0,2.85v7.5h-1.71v-7.5h1.71Z"/><path class="cls-4" d="m835.48,348.19c2.1,0,3.41,1.5,3.51,4.29h-5.32c.13,1.31.92,1.86,1.92,1.86,1.15,0,1.51-.72,1.67-1.05h1.65c-.09,1.02-1.05,2.7-3.3,2.7s-3.6-1.8-3.6-3.84,1.38-3.96,3.48-3.96Zm-1.69,2.79h3.43c-.11-.92-.72-1.44-1.68-1.44-.79,0-1.49.43-1.75,1.44Z"/><path class="cls-4" d="m842.95,349.47c-.87,0-1.17.39-1.17.78,0,1.26,4.44.33,4.44,3.24,0,1.41-1.02,2.5-3.09,2.5-2.68,0-3.21-1.65-3.21-2.55h1.71c.12.58.51,1.2,1.64,1.2.82,0,1.3-.32,1.3-.95,0-1.48-4.44-.38-4.44-3.22,0-1.17.78-2.28,2.97-2.28,2.37,0,3,1.56,3,2.31h-1.71c.03-.67-.54-1.04-1.44-1.04Z"/><path class="cls-4" d="m850.78,352.09c-.02-2.14.51-3.85,1.68-6.22h1.5c-1.09,2.25-1.67,4.29-1.67,6.24s.71,4.51,1.67,6.21h-1.5c-1-1.77-1.67-4.08-1.68-6.22Z"/><path class="cls-4" d="m857.83,353.04l1.54-7.4h2.6l1.51,7.44,1.72-7.44h1.8l-2.47,10.2h-2.16l-1.74-8.04-1.71,8.04h-2.15l-2.5-10.2h1.88l1.68,7.4Z"/><path class="cls-4" d="m874.5,354.28c.2,0,.39-.03.67-.09v1.65c-.52.08-.79.09-1.06.09-.92,0-1.35-.2-1.7-.78-.27.21-1.02.84-2.34.84-1.68,0-2.94-1.17-2.94-2.49,0-1.71,1.44-2.4,3.51-2.4h1.44v-.36c0-.81-.63-1.35-1.53-1.35s-1.41.46-1.41,1.35h-1.83c0-1.62,1.44-2.55,3.29-2.55,1.69,0,3.13.77,3.13,2.39v3.06c0,.45.3.64.76.64Zm-4.18.51c1.23,0,1.77-1.05,1.77-1.65v-.75c-2.61-.12-3.09.48-3.09,1.29,0,.6.51,1.11,1.32,1.11Z"/><path class="cls-4" d="m876.34,348.34l1.78,4.88,1.79-4.88h1.77l-2.79,7.5h-1.53l-2.79-7.5h1.77Z"/><path class="cls-4" d="m885.46,348.19c2.1,0,3.41,1.5,3.51,4.29h-5.32c.13,1.31.92,1.86,1.92,1.86,1.15,0,1.51-.72,1.67-1.05h1.65c-.09,1.02-1.05,2.7-3.3,2.7s-3.6-1.8-3.6-3.84,1.38-3.96,3.48-3.96Zm-1.69,2.79h3.43c-.11-.92-.72-1.44-1.68-1.44-.79,0-1.49.43-1.75,1.44Z"/><path class="cls-4" d="m825.51,372.34l3.39-3.01c1.14-1,1.84-1.64,1.84-2.62,0-.81-.56-1.56-1.71-1.56s-1.77.79-1.79,2.27h-1.8c-.15-2.48,1.48-3.92,3.72-3.92s3.41,1.42,3.41,3c0,1.68-.95,2.8-2.19,3.81l-2.16,1.74h4.4v1.8h-7.11v-1.5Z"/><path class="cls-4" d="m837.48,370.09c.02,2.14-.51,3.85-1.68,6.22h-1.5c1.09-2.25,1.67-4.29,1.67-6.24s-.71-4.52-1.67-6.21h1.5c1,1.77,1.67,4.08,1.68,6.22Z"/><path class="cls-4" d="m559.96,124.46c-.12-1.18-.4-2.7-2.58-2.7-1.6,0-2.36.8-2.36,1.88,0,3.28,7.58-.02,7.58,5.92,0,2.76-2.14,4.4-5.22,4.4-3.84,0-5.46-2.38-5.14-4.66h2.52c.1,1.54.3,2.86,2.7,2.86,1.96,0,2.64-.96,2.64-2,0-3.46-7.6-.26-7.6-6.2,0-2.28,1.9-4,4.82-4,3.7,0,5.24,1.92,5.04,4.5h-2.4Z"/><path class="cls-4" d="m566.75,119.96v2.4h-2.28v-2.4h2.28Zm0,3.8v10h-2.28v-10h2.28Z"/><path class="cls-4" d="m575.75,132.52c-.48.38-1.34.84-2.56.84-2.92,0-4.44-2.2-4.44-4.72,0-2.7,1.76-5.08,4.32-5.08,1.48,0,2.32.56,2.76.92v-.72h2.12v9.8c0,2.56-1.52,4-4.44,4s-4.68-1.24-4.68-3.4h2.28c.24.66.56,1.6,2.36,1.6,1.6,0,2.28-.8,2.28-2v-1.24Zm-2.32-.96c1.46,0,2.4-1,2.4-2.92,0-1.8-.9-2.88-2.4-2.88s-2.48,1.08-2.48,2.88c0,1.92,1.02,2.92,2.48,2.92Z"/><path class="cls-4" d="m586.38,133.76v-6.6c0-.94-.72-1.5-1.74-1.5-1.62,0-2,1.42-2,2.5v5.6h-2.28v-10h2.2v.8c.82-.64,1.86-1,2.88-1,1.74,0,3.22.92,3.22,3.12v7.08h-2.28Z"/><path class="cls-4" d="m593.25,119.96v2.4h-2.28v-2.4h2.28Zm0,3.8v10h-2.28v-10h2.28Z"/><path class="cls-4" d="m596.05,125.96h-1.2v-2.2h1.2v-1.64c0-.96.64-2.16,2.16-2.16.92,0,1.4.1,1.58.12v2.2c-.14,0-.38-.04-.74-.04-.4,0-.8.16-.8.76v.76h1.4v2.2h-1.4v7.8h-2.2v-7.8Zm7.08-6v2.4h-2.28v-2.4h2.28Zm0,3.8v10h-2.28v-10h2.28Z"/><path class="cls-4" d="m609.81,123.56c3.48,0,4.28,3.04,4.56,4.4h-2.32c-.2-1.24-.82-2.2-2.32-2.2-1.3,0-2.4,1-2.4,3,0,2.12,1.22,3,2.56,3,1.52,0,2-1.08,2.36-2h2.08c0,1.68-1.48,4.2-4.64,4.2-2.76,0-4.56-2.4-4.56-5.12,0-3.1,1.96-5.28,4.68-5.28Z"/><path class="cls-4" d="m625.55,131.68c.26,0,.52-.04.9-.12v2.2c-.7.1-1.06.12-1.42.12-1.22,0-1.8-.26-2.26-1.04-.36.28-1.36,1.12-3.12,1.12-2.24,0-3.92-1.56-3.92-3.32,0-2.28,1.92-3.2,4.68-3.2h1.92v-.48c0-1.08-.84-1.8-2.04-1.8s-1.88.62-1.88,1.8h-2.44c0-2.16,1.92-3.4,4.38-3.4,2.26,0,4.18,1.02,4.18,3.18v4.08c0,.6.4.86,1.02.86Zm-5.58.68c1.64,0,2.36-1.4,2.36-2.2v-1c-3.48-.16-4.12.64-4.12,1.72,0,.8.68,1.48,1.76,1.48Z"/><path class="cls-4" d="m633.47,133.76v-6.6c0-.94-.72-1.5-1.74-1.5-1.62,0-2,1.42-2,2.5v5.6h-2.28v-10h2.2v.8c.82-.64,1.86-1,2.88-1,1.74,0,3.22.92,3.22,3.12v7.08h-2.28Z"/><path class="cls-4" d="m640.67,120.16v3.6h1.4v2.2h-1.4v5.16c0,.6.4.76.8.76.36,0,.6-.08.74-.16v2c-.18.06-.66.24-1.58.24-1.52,0-2.16-.92-2.16-1.88v-6.12h-1.2v-2.2h1.2v-3.6h2.2Z"/><path class="cls-4" d="m652.69,123.56c3.48,0,4.28,3.04,4.56,4.4h-2.32c-.2-1.24-.82-2.2-2.32-2.2-1.3,0-2.4,1-2.4,3,0,2.12,1.22,3,2.56,3,1.52,0,2-1.08,2.36-2h2.08c0,1.68-1.48,4.2-4.64,4.2-2.76,0-4.56-2.4-4.56-5.12,0-3.1,1.96-5.28,4.68-5.28Z"/><path class="cls-4" d="m663.57,123.56c3,0,4.8,2.58,4.8,5.28,0,2.52-1.6,5.12-4.8,5.12s-4.8-2.6-4.8-5.12c0-2.7,1.8-5.28,4.8-5.28Zm0,2.2c-1.58,0-2.6,1.2-2.6,3,0,1.92,1.06,3,2.6,3s2.6-1.08,2.6-3c0-1.8-1.02-3-2.6-3Z"/><path class="cls-4" d="m674.97,125.72c-1.46,0-2.32.6-2.32,3.02v5.02h-2.28v-10h2.2v1.12c.56-.68,1.24-1.32,2.52-1.32.6,0,1.16.12,1.6.32l-.12,2.2c-.46-.2-.84-.36-1.6-.36Z"/><path class="cls-4" d="m682.55,125.72c-1.46,0-2.32.6-2.32,3.02v5.02h-2.28v-10h2.2v1.12c.56-.68,1.24-1.32,2.52-1.32.6,0,1.16.12,1.6.32l-.12,2.2c-.46-.2-.84-.36-1.6-.36Z"/><path class="cls-4" d="m689.27,123.56c2.8,0,4.54,2,4.68,5.72h-7.1c.18,1.74,1.22,2.48,2.56,2.48,1.54,0,2.02-.96,2.22-1.4h2.2c-.12,1.36-1.4,3.6-4.4,3.6s-4.8-2.4-4.8-5.12,1.84-5.28,4.64-5.28Zm-2.26,3.72h4.58c-.14-1.22-.96-1.92-2.24-1.92-1.06,0-1.98.58-2.34,1.92Z"/><path class="cls-4" d="m698.07,120.16v13.6h-2.28v-13.6h2.28Z"/><path class="cls-4" d="m709.73,131.68c.26,0,.52-.04.9-.12v2.2c-.7.1-1.06.12-1.42.12-1.22,0-1.8-.26-2.26-1.04-.36.28-1.36,1.12-3.12,1.12-2.24,0-3.92-1.56-3.92-3.32,0-2.28,1.92-3.2,4.68-3.2h1.92v-.48c0-1.08-.84-1.8-2.04-1.8s-1.88.62-1.88,1.8h-2.44c0-2.16,1.92-3.4,4.38-3.4,2.26,0,4.18,1.02,4.18,3.18v4.08c0,.6.4.86,1.02.86Zm-5.58.68c1.64,0,2.36-1.4,2.36-2.2v-1c-3.48-.16-4.12.64-4.12,1.72,0,.8.68,1.48,1.76,1.48Z"/><path class="cls-4" d="m714.03,120.16v3.6h1.4v2.2h-1.4v5.16c0,.6.4.76.8.76.36,0,.6-.08.74-.16v2c-.18.06-.66.24-1.58.24-1.52,0-2.16-.92-2.16-1.88v-6.12h-1.2v-2.2h1.2v-3.6h2.2Z"/><path class="cls-4" d="m719.65,119.96v2.4h-2.28v-2.4h2.28Zm0,3.8v10h-2.28v-10h2.28Z"/><path class="cls-4" d="m726.45,123.56c3,0,4.8,2.58,4.8,5.28,0,2.52-1.6,5.12-4.8,5.12s-4.8-2.6-4.8-5.12c0-2.7,1.8-5.28,4.8-5.28Zm0,2.2c-1.58,0-2.6,1.2-2.6,3,0,1.92,1.06,3,2.6,3s2.6-1.08,2.6-3c0-1.8-1.02-3-2.6-3Z"/><path class="cls-4" d="m739.27,133.76v-6.6c0-.94-.72-1.5-1.74-1.5-1.62,0-2,1.42-2,2.5v5.6h-2.28v-10h2.2v.8c.82-.64,1.86-1,2.88-1,1.74,0,3.22.92,3.22,3.12v7.08h-2.28Z"/><path class="cls-4" d="m747.31,125.26c-1.16,0-1.56.52-1.56,1.04,0,1.68,5.92.44,5.92,4.32,0,1.88-1.36,3.34-4.12,3.34-3.58,0-4.28-2.2-4.28-3.4h2.28c.16.78.68,1.6,2.18,1.6,1.1,0,1.74-.42,1.74-1.26,0-1.98-5.92-.5-5.92-4.3,0-1.56,1.04-3.04,3.96-3.04,3.16,0,4,2.08,4,3.08h-2.28c.04-.9-.72-1.38-1.92-1.38Z"/><path class="cls-4" d="m760.15,119.96v2.4h-2.28v-2.4h2.28Zm0,3.8v10h-2.28v-10h2.28Z"/><path class="cls-4" d="m768.57,133.76v-6.6c0-.94-.72-1.5-1.74-1.5-1.62,0-2,1.42-2,2.5v5.6h-2.28v-10h2.2v.8c.82-.64,1.86-1,2.88-1,1.74,0,3.22.92,3.22,3.12v7.08h-2.28Z"/><path class="cls-4" d="m784.17,132.52c-.48.38-1.34.84-2.56.84-2.92,0-4.44-2.2-4.44-4.72,0-2.7,1.76-5.08,4.32-5.08,1.48,0,2.32.56,2.76.92v-.72h2.12v9.8c0,2.56-1.52,4-4.44,4s-4.68-1.24-4.68-3.4h2.28c.24.66.56,1.6,2.36,1.6,1.6,0,2.28-.8,2.28-2v-1.24Zm-2.32-.96c1.46,0,2.4-1,2.4-2.92,0-1.8-.9-2.88-2.4-2.88s-2.48,1.08-2.48,2.88c0,1.92,1.02,2.92,2.48,2.92Z"/><path class="cls-4" d="m794.71,133.76v-6.6c0-1.12-.76-1.72-1.74-1.72-1.62,0-2,1.72-2,2.92v5.4h-2.2v-13.6h2.12v4.4c.36-.36,1.28-1,2.88-1,1.74,0,3.22.92,3.22,3.12v7.08h-2.28Z"/><path class="cls-4" d="m803.71,123.56c3,0,4.8,2.58,4.8,5.28,0,2.52-1.6,5.12-4.8,5.12s-4.8-2.6-4.8-5.12c0-2.7,1.8-5.28,4.8-5.28Zm0,2.2c-1.58,0-2.6,1.2-2.6,3,0,1.92,1.06,3,2.6,3s2.6-1.08,2.6-3c0-1.8-1.02-3-2.6-3Z"/><path class="cls-4" d="m813.95,125.26c-1.16,0-1.56.52-1.56,1.04,0,1.68,5.92.44,5.92,4.32,0,1.88-1.36,3.34-4.12,3.34-3.58,0-4.28-2.2-4.28-3.4h2.28c.16.78.68,1.6,2.18,1.6,1.1,0,1.74-.42,1.74-1.26,0-1.98-5.92-.5-5.92-4.3,0-1.56,1.04-3.04,3.96-3.04,3.16,0,4,2.08,4,3.08h-2.28c.04-.9-.72-1.38-1.92-1.38Z"/><path class="cls-4" d="m822.71,120.16v3.6h1.4v2.2h-1.4v5.16c0,.6.4.76.8.76.36,0,.6-.08.74-.16v2c-.18.06-.66.24-1.58.24-1.52,0-2.16-.92-2.16-1.88v-6.12h-1.2v-2.2h1.2v-3.6h2.2Z"/><path class="cls-4" d="m828.33,119.96v2.4h-2.28v-2.4h2.28Zm0,3.8v10h-2.28v-10h2.28Z"/><path class="cls-4" d="m836.75,133.76v-6.6c0-.94-.72-1.5-1.74-1.5-1.62,0-2,1.42-2,2.5v5.6h-2.28v-10h2.2v.8c.82-.64,1.86-1,2.88-1,1.74,0,3.22.92,3.22,3.12v7.08h-2.28Z"/><path class="cls-4" d="m847.95,132.52c-.48.38-1.34.84-2.56.84-2.92,0-4.44-2.2-4.44-4.72,0-2.7,1.76-5.08,4.32-5.08,1.48,0,2.32.56,2.76.92v-.72h2.12v9.8c0,2.56-1.52,4-4.44,4s-4.68-1.24-4.68-3.4h2.28c.24.66.56,1.6,2.36,1.6,1.6,0,2.28-.8,2.28-2v-1.24Zm-2.32-.96c1.46,0,2.4-1,2.4-2.92,0-1.8-.9-2.88-2.4-2.88s-2.48,1.08-2.48,2.88c0,1.92,1.02,2.92,2.48,2.92Z"/><path class="cls-4" d="m614.56,144.16h2.2v4.32c.48-.32,1.32-.92,2.76-.92,2.92,0,4.48,2.4,4.48,5.28,0,2.56-1.64,5.12-4.56,5.12-1.44,0-2.32-.76-2.76-1.08v.88h-2.12v-13.6Zm4.64,5.6c-1.46,0-2.52,1-2.52,3s1.02,3,2.52,3,2.6-1,2.6-3c0-2.12-1.14-3-2.6-3Z"/><path class="cls-4" d="m630.14,147.56c2.8,0,4.54,2,4.68,5.72h-7.1c.18,1.74,1.22,2.48,2.56,2.48,1.54,0,2.02-.96,2.22-1.4h2.2c-.12,1.36-1.4,3.6-4.4,3.6s-4.8-2.4-4.8-5.12,1.84-5.28,4.64-5.28Zm-2.26,3.72h4.58c-.14-1.22-.96-1.92-2.24-1.92-1.06,0-1.98.58-2.34,1.92Z"/><path class="cls-4" d="m639.26,144.16v3.6h1.4v2.2h-1.4v5.16c0,.6.4.76.8.76.36,0,.6-.08.74-.16v2c-.18.06-.66.24-1.58.24-1.52,0-2.16-.92-2.16-1.88v-6.12h-1.2v-2.2h1.2v-3.6h2.2Z"/><path class="cls-4" d="m643.72,147.76l2.14,6.76,2.14-6.76h2.2l2.18,6.88,2.18-6.88h2.32l-3.36,10h-2.28l-2.12-6.56-2.08,6.56h-2.28l-3.36-10h2.32Z"/><path class="cls-4" d="m661.92,147.56c2.8,0,4.54,2,4.68,5.72h-7.1c.18,1.74,1.22,2.48,2.56,2.48,1.54,0,2.02-.96,2.22-1.4h2.2c-.12,1.36-1.4,3.6-4.4,3.6s-4.8-2.4-4.8-5.12,1.84-5.28,4.64-5.28Zm-2.26,3.72h4.58c-.14-1.22-.96-1.92-2.24-1.92-1.06,0-1.98.58-2.34,1.92Z"/><path class="cls-4" d="m672.58,147.56c2.8,0,4.54,2,4.68,5.72h-7.1c.18,1.74,1.22,2.48,2.56,2.48,1.54,0,2.02-.96,2.22-1.4h2.2c-.12,1.36-1.4,3.6-4.4,3.6s-4.8-2.4-4.8-5.12,1.84-5.28,4.64-5.28Zm-2.26,3.72h4.58c-.14-1.22-.96-1.92-2.24-1.92-1.06,0-1.98.58-2.34,1.92Z"/><path class="cls-4" d="m685.12,157.76v-6.6c0-.94-.72-1.5-1.74-1.5-1.62,0-2,1.42-2,2.5v5.6h-2.28v-10h2.2v.8c.82-.64,1.86-1,2.88-1,1.74,0,3.22.92,3.22,3.12v7.08h-2.28Z"/><path class="cls-4" d="m694.52,149.96h-1.2v-2.2h1.2v-1.64c0-.96.64-2.16,2.16-2.16.92,0,1.4.1,1.58.12v2.2c-.14,0-.38-.04-.74-.04-.4,0-.8.16-.8.76v.76h1.4v2.2h-1.4v7.8h-2.2v-7.8Z"/><path class="cls-4" d="m704.46,149.72c-1.46,0-2.32.6-2.32,3.02v5.02h-2.28v-10h2.2v1.12c.56-.68,1.24-1.32,2.52-1.32.6,0,1.16.12,1.6.32l-.12,2.2c-.46-.2-.84-.36-1.6-.36Z"/><path class="cls-4" d="m709.72,143.96v2.4h-2.28v-2.4h2.28Zm0,3.8v10h-2.28v-10h2.28Z"/><path class="cls-4" d="m716.26,147.56c2.8,0,4.54,2,4.68,5.72h-7.1c.18,1.74,1.22,2.48,2.56,2.48,1.54,0,2.02-.96,2.22-1.4h2.2c-.12,1.36-1.4,3.6-4.4,3.6s-4.8-2.4-4.8-5.12,1.84-5.28,4.64-5.28Zm-2.26,3.72h4.58c-.14-1.22-.96-1.92-2.24-1.92-1.06,0-1.98.58-2.34,1.92Z"/><path class="cls-4" d="m728.8,157.76v-6.6c0-.94-.72-1.5-1.74-1.5-1.62,0-2,1.42-2,2.5v5.6h-2.28v-10h2.2v.8c.82-.64,1.86-1,2.88-1,1.74,0,3.22.92,3.22,3.12v7.08h-2.28Z"/><path class="cls-4" d="m740.32,157.76v-.88c-.44.32-1.32,1.08-2.76,1.08-2.92,0-4.56-2.56-4.56-5.12,0-2.88,1.56-5.28,4.48-5.28,1.44,0,2.28.6,2.76.92v-4.32h2.2v13.6h-2.12Zm-2.52-2c1.5,0,2.52-1,2.52-3s-1.06-3-2.52-3-2.6.88-2.6,3c0,2,1.1,3,2.6,3Z"/><path class="cls-4" d="m748.28,149.26c-1.16,0-1.56.52-1.56,1.04,0,1.68,5.92.44,5.92,4.32,0,1.88-1.36,3.34-4.12,3.34-3.58,0-4.28-2.2-4.28-3.4h2.28c.16.78.68,1.6,2.18,1.6,1.1,0,1.74-.42,1.74-1.26,0-1.98-5.92-.5-5.92-4.3,0-1.56,1.04-3.04,3.96-3.04,3.16,0,4,2.08,4,3.08h-2.28c.04-.9-.72-1.38-1.92-1.38Z"/><path class="cls-4" d="m760.38,157.76v-6.6c0-1.12-.76-1.72-1.74-1.72-1.62,0-2,1.72-2,2.92v5.4h-2.2v-13.6h2.12v4.4c.36-.36,1.28-1,2.88-1,1.74,0,3.22.92,3.22,3.12v7.08h-2.28Z"/><path class="cls-4" d="m767.26,143.96v2.4h-2.28v-2.4h2.28Zm0,3.8v10h-2.28v-10h2.28Z"/><path class="cls-4" d="m771.78,147.76v.88c.44-.32,1.32-1.08,2.76-1.08,2.92,0,4.56,2.56,4.56,5.12,0,2.88-1.56,5.28-4.48,5.28-1.44,0-2.28-.6-2.76-.92v4.32h-2.2v-13.6h2.12Zm2.52,2c-1.5,0-2.52,1-2.52,3s1.06,3,2.52,3,2.6-.88,2.6-3c0-2-1.1-3-2.6-3Z"/><path class="cls-4" d="m784.54,149.26c-1.16,0-1.56.52-1.56,1.04,0,1.68,5.92.44,5.92,4.32,0,1.88-1.36,3.34-4.12,3.34-3.58,0-4.28-2.2-4.28-3.4h2.28c.16.78.68,1.6,2.18,1.6,1.1,0,1.74-.42,1.74-1.26,0-1.98-5.92-.5-5.92-4.3,0-1.56,1.04-3.04,3.96-3.04,3.16,0,4,2.08,4,3.08h-2.28c.04-.9-.72-1.38-1.92-1.38Z"/><rect class="cls-1" width="500" height="600"/><line class="cls-6" x1="500" y1="119.11" x2="500" y2="511.89"/></svg>