<?xml version="1.0" encoding="UTF-8"?><svg id="Layer_1" xmlns="http://www.w3.org/2000/svg" viewBox="0 0 1000 600"><defs><style>.cls-1{letter-spacing:-.02em;}.cls-2,.cls-3,.cls-4,.cls-5{stroke-width:0px;}.cls-2,.cls-6{fill:none;}.cls-7{letter-spacing:-.02em;}.cls-8{letter-spacing:-.03em;}.cls-9{letter-spacing:-.01em;}.cls-3{fill:#605c6d;opacity:.81;}.cls-10{letter-spacing:-.12em;}.cls-11{font-size:20px;}.cls-11,.cls-12{font-family:Karrik-Regular, Karrik;}.cls-6{stroke:#000;stroke-miterlimit:10;stroke-width:.25px;}.cls-6,.cls-4{opacity:.5;}.cls-4{fill:#c0b5da;}.cls-12{font-size:15px;}.cls-13{letter-spacing:-.02em;}.cls-14{letter-spacing:-.01em;}.cls-15{letter-spacing:0em;}.cls-16{letter-spacing:0em;}.cls-5{fill:#403d49;}.cls-17{letter-spacing:0em;}</style></defs><rect class="cls-4" x="231.26" y="187.89" width="133.33" height="100"/><rect class="cls-5" x="231.26" y="299.89" width="133.33" height="100"/><rect class="cls-4" x="231.26" y="411.89" width="133.33" height="100"/><text class="cls-12" transform="translate(113.01 224.99)"><tspan x="0" y="0">Communic</tspan><tspan class="cls-15" x="70.62" y="0">a</tspan><tspan x="78.84" y="0">tion </tspan><tspan x="21.58" y="18">O</tspan><tspan class="cls-13" x="32.16" y="18">v</tspan><tspan x="39.04" y="18">erload </tspan><tspan x="23.17" y="36">(</tspan><tspan class="cls-1" x="27.53" y="36">W</tspan><tspan class="cls-8" x="39.85" y="36">a</tspan><tspan class="cls-9" x="47.77" y="36">v</tspan><tspan x="54.65" y="36">e 1)</tspan></text><text class="cls-12" transform="translate(378.56 215.99)"><tspan x="0" y="0">Ghosting Others </tspan><tspan x="-.11" y="18">Within Romantic </tspan><tspan x="8.8" y="36">Rel</tspan><tspan class="cls-15" x="29.66" y="36">a</tspan><tspan x="37.88" y="36">tionships </tspan><tspan x="24.28" y="54">(</tspan><tspan class="cls-1" x="28.65" y="54">W</tspan><tspan class="cls-8" x="40.96" y="54">a</tspan><tspan class="cls-9" x="48.88" y="54">v</tspan><tspan x="55.77" y="54">e 2)</tspan></text><text class="cls-12" transform="translate(151.82 354.99)"><tspan class="cls-17" x="0" y="0">A</tspan><tspan x="9.17" y="0">ge</tspan></text><text class="cls-12" transform="translate(142.93 457.99)"><tspan x="0" y="0">Highe</tspan><tspan class="cls-1" x="37.95" y="0">r</tspan><tspan x="43.33" y="0"> </tspan><tspan x="-11.1" y="18">Educ</tspan><tspan class="cls-15" x="21.89" y="18">a</tspan><tspan x="30.11" y="18">tion</tspan></text><text class="cls-12" transform="translate(378.56 327.99)"><tspan x="0" y="0">Ghosting Others </tspan><tspan x="-.11" y="18">Within Romantic </tspan><tspan x="8.8" y="36">Rel</tspan><tspan class="cls-15" x="29.66" y="36">a</tspan><tspan x="37.88" y="36">tionships </tspan><tspan x="24.28" y="54">(</tspan><tspan class="cls-1" x="28.65" y="54">W</tspan><tspan class="cls-8" x="40.96" y="54">a</tspan><tspan class="cls-9" x="48.88" y="54">v</tspan><tspan x="55.77" y="54">e 2)</tspan></text><text class="cls-12" transform="translate(378.56 439.99)"><tspan x="0" y="0">Ghosting Others </tspan><tspan x="-.11" y="18">Within Romantic </tspan><tspan x="8.8" y="36">Rel</tspan><tspan class="cls-15" x="29.66" y="36">a</tspan><tspan x="37.88" y="36">tionships </tspan><tspan x="24.28" y="54">(</tspan><tspan class="cls-1" x="28.65" y="54">W</tspan><tspan class="cls-8" x="40.96" y="54">a</tspan><tspan class="cls-9" x="48.88" y="54">v</tspan><tspan x="55.77" y="54">e 2)</tspan></text><text class="cls-11" transform="translate(148.73 132.91)"><tspan x="0" y="0">Significant cor</tspan><tspan class="cls-7" x="125.24" y="0">r</tspan><tspan x="132.42" y="0">el</tspan><tspan class="cls-16" x="147.76" y="0">a</tspan><tspan x="158.72" y="0">tions in ghosting </tspan><tspan x="31.72" y="24">bet</tspan><tspan class="cls-14" x="59.76" y="24">w</tspan><tspan x="74.94" y="24">een </tspan><tspan class="cls-7" x="111.28" y="24">r</tspan><tspan x="118.46" y="24">omantic partners</tspan></text><rect class="cls-4" x="631.26" y="188.74" width="133.33" height="100"/><rect class="cls-3" x="631.26" y="300.74" width="133.33" height="100"/><text class="cls-12" transform="translate(525.6 234.84)"><tspan x="0" y="0">Sel</tspan><tspan class="cls-15" x="20.32" y="0">f</tspan><tspan x="24.48" y="0">-Esteem </tspan><tspan x="10.58" y="18">(</tspan><tspan class="cls-1" x="14.95" y="18">W</tspan><tspan class="cls-8" x="27.26" y="18">a</tspan><tspan class="cls-9" x="35.18" y="18">v</tspan><tspan x="42.07" y="18">e 1)</tspan></text><text class="cls-12" transform="translate(778.56 225.84)"><tspan x="0" y="0">Ghosting Others </tspan><tspan x="-6.9" y="18">Within Friendships</tspan><tspan x="24.28" y="36">(</tspan><tspan class="cls-1" x="28.65" y="36">W</tspan><tspan class="cls-8" x="40.96" y="36">a</tspan><tspan class="cls-9" x="48.88" y="36">v</tspan><tspan x="55.77" y="36">e 2)</tspan></text><text class="cls-12" transform="translate(511.89 337.84)"><tspan x="0" y="0">Ghosting Others </tspan><tspan x="-6.9" y="18">Within Friendships </tspan><tspan x="24.28" y="36">(</tspan><tspan class="cls-1" x="28.65" y="36">W</tspan><tspan class="cls-8" x="40.96" y="36">a</tspan><tspan class="cls-9" x="48.88" y="36">v</tspan><tspan x="55.77" y="36">e 1)</tspan></text><text class="cls-12" transform="translate(794.81 337.84)"><tspan x="0" y="0">Dep</tspan><tspan class="cls-1" x="26.73" y="0">r</tspan><tspan x="32.11" y="0">essi</tspan><tspan class="cls-13" x="58.02" y="0">v</tspan><tspan x="64.9" y="0">e </tspan><tspan class="cls-10" x="-21.74" y="18">T</tspan><tspan x="-15.41" y="18">endencies (</tspan><tspan class="cls-1" x="59.53" y="18">W</tspan><tspan class="cls-8" x="71.84" y="18">a</tspan><tspan class="cls-13" x="79.76" y="18">v</tspan><tspan x="86.65" y="18">e </tspan><tspan x="29.42" y="36">2)</tspan></text><text class="cls-11" transform="translate(551.51 133.76)"><tspan x="0" y="0">Significant cor</tspan><tspan class="cls-7" x="125.24" y="0">r</tspan><tspan x="132.42" y="0">el</tspan><tspan class="cls-16" x="147.76" y="0">a</tspan><tspan x="158.72" y="0">tions in ghosting </tspan><tspan x="61.85" y="24">bet</tspan><tspan class="cls-14" x="89.89" y="24">w</tspan><tspan x="105.07" y="24">een friendships</tspan></text><rect class="cls-2" width="500" height="600"/><line class="cls-6" x1="500" y1="119.11" x2="500" y2="511.89"/></svg>