<?xml version="1.0" encoding="UTF-8"?><svg id="Layer_1" xmlns="http://www.w3.org/2000/svg" viewBox="0 0 776.65 392.78"><defs><style>.cls-1{fill:#605c6d;opacity:.81;}.cls-1,.cls-2,.cls-3,.cls-4{stroke-width:0px;}.cls-5{fill:none;stroke:#000;stroke-miterlimit:10;stroke-width:.25px;}.cls-5,.cls-2{opacity:.5;}.cls-2{fill:#c0b5da;}.cls-4{fill:#403d49;}</style></defs><rect class="cls-2" x="117.5" y="68.78" width="133.33" height="100"/><rect class="cls-4" x="117.5" y="180.78" width="133.33" height="100"/><rect class="cls-2" x="117.5" y="292.78" width="133.33" height="100"/><path class="cls-3" d="m8.91,101.65c-.11,2.66-1.83,4.38-4.4,4.38-2.4,0-4.51-1.77-4.51-5.25s2-5.25,4.51-5.25,4.17,1.58,4.4,4.48h-2.01c-.17-1.9-1.14-2.7-2.46-2.7-1.56,0-2.58,1.12-2.58,3.46s1.04,3.46,2.58,3.46c1.33,0,1.99-.66,2.59-2.6h1.88Z"/><path class="cls-3" d="m13.68,98.23c2.25,0,3.6,1.94,3.6,3.96,0,1.89-1.2,3.84-3.6,3.84s-3.6-1.95-3.6-3.84c0-2.02,1.35-3.96,3.6-3.96Zm0,1.65c-1.18,0-1.95.9-1.95,2.25,0,1.44.79,2.25,1.95,2.25s1.95-.81,1.95-2.25c0-1.35-.76-2.25-1.95-2.25Z"/><path class="cls-3" d="m23.17,105.88v-4.95c0-.71-.51-1.12-1.25-1.12-1.21,0-1.44,1.21-1.44,2.02v4.05h-1.71v-7.5h1.65v.6c.27-.21.9-.75,2.1-.75.87,0,1.62.3,2.02.99.33-.33,1.07-.99,2.37-.99s2.35.69,2.35,2.34v5.31h-1.71v-4.95c0-.71-.51-1.12-1.24-1.12-1.22,0-1.44,1.21-1.44,2.02v4.05h-1.71Z"/><path class="cls-3" d="m35.42,105.88v-4.95c0-.71-.51-1.12-1.25-1.12-1.21,0-1.44,1.21-1.44,2.02v4.05h-1.71v-7.5h1.65v.6c.27-.21.9-.75,2.1-.75.87,0,1.62.3,2.03.99.33-.33,1.06-.99,2.37-.99s2.36.69,2.36,2.34v5.31h-1.71v-4.95c0-.71-.51-1.12-1.25-1.12-1.21,0-1.44,1.21-1.44,2.02v4.05h-1.71Z"/><path class="cls-3" d="m44.91,98.38v4.95c0,.9.58,1.35,1.32,1.35,1.21,0,1.49-1.2,1.49-2.1v-4.2h1.71v7.5h-1.65v-.6c-.27.21-.95.75-2.14.75-1.31,0-2.43-.84-2.43-2.49v-5.16h1.71Z"/><path class="cls-3" d="m55.74,105.88v-4.95c0-.71-.54-1.12-1.3-1.12-1.21,0-1.5,1.06-1.5,1.88v4.2h-1.71v-7.5h1.65v.6c.62-.48,1.4-.75,2.16-.75,1.3,0,2.42.69,2.42,2.34v5.31h-1.71Z"/><path class="cls-3" d="m60.9,95.53v1.8h-1.71v-1.8h1.71Zm0,2.85v7.5h-1.71v-7.5h1.71Z"/><path class="cls-3" d="m65.91,98.23c2.61,0,3.21,2.28,3.42,3.3h-1.74c-.15-.93-.62-1.65-1.74-1.65-.97,0-1.8.75-1.8,2.25,0,1.59.92,2.25,1.92,2.25,1.14,0,1.5-.81,1.77-1.5h1.56c0,1.26-1.11,3.15-3.48,3.15-2.07,0-3.42-1.8-3.42-3.84,0-2.32,1.47-3.96,3.51-3.96Z"/><path class="cls-3" d="m77.71,104.32c.19,0,.39-.03.67-.09v1.65c-.53.08-.79.09-1.07.09-.92,0-1.35-.19-1.69-.78-.27.21-1.02.84-2.34.84-1.68,0-2.94-1.17-2.94-2.49,0-1.71,1.44-2.4,3.51-2.4h1.44v-.36c0-.81-.63-1.35-1.53-1.35s-1.41.46-1.41,1.35h-1.83c0-1.62,1.44-2.55,3.28-2.55,1.7,0,3.13.77,3.13,2.39v3.06c0,.45.3.65.77.65Zm-4.19.51c1.23,0,1.77-1.05,1.77-1.65v-.75c-2.61-.12-3.09.48-3.09,1.29,0,.6.51,1.11,1.32,1.11Z"/><path class="cls-3" d="m80.94,95.68v2.7h1.05v1.65h-1.05v3.87c0,.45.3.57.6.57.27,0,.45-.06.55-.12v1.5c-.13.04-.5.18-1.18.18-1.14,0-1.62-.69-1.62-1.41v-4.59h-.9v-1.65h.9v-2.7h1.65Z"/><path class="cls-3" d="m85.15,95.53v1.8h-1.71v-1.8h1.71Zm0,2.85v7.5h-1.71v-7.5h1.71Z"/><path class="cls-3" d="m90.25,98.23c2.25,0,3.6,1.94,3.6,3.96,0,1.89-1.2,3.84-3.6,3.84s-3.6-1.95-3.6-3.84c0-2.02,1.35-3.96,3.6-3.96Zm0,1.65c-1.19,0-1.95.9-1.95,2.25,0,1.44.79,2.25,1.95,2.25s1.95-.81,1.95-2.25c0-1.35-.77-2.25-1.95-2.25Z"/><path class="cls-3" d="m99.87,105.88v-4.95c0-.71-.54-1.12-1.3-1.12-1.21,0-1.5,1.06-1.5,1.88v4.2h-1.71v-7.5h1.65v.6c.62-.48,1.39-.75,2.16-.75,1.3,0,2.41.69,2.41,2.34v5.31h-1.71Z"/><path class="cls-3" d="m21.58,118.78c0-3.23,2-5.25,4.53-5.25s4.56,2.02,4.56,5.25-2.03,5.25-4.56,5.25-4.53-2.02-4.53-5.25Zm7.21,0c0-2.18-1.11-3.46-2.68-3.46s-2.67,1.29-2.67,3.46,1.09,3.46,2.67,3.46,2.68-1.29,2.68-3.46Z"/><path class="cls-3" d="m33.18,116.38l1.79,4.87,1.79-4.87h1.77l-2.79,7.5h-1.53l-2.79-7.5h1.77Z"/><path class="cls-3" d="m42.3,116.23c2.1,0,3.4,1.5,3.51,4.29h-5.33c.13,1.31.92,1.86,1.92,1.86,1.16,0,1.52-.72,1.67-1.05h1.65c-.09,1.02-1.05,2.7-3.3,2.7s-3.6-1.8-3.6-3.84,1.38-3.96,3.48-3.96Zm-1.7,2.79h3.43c-.1-.92-.72-1.44-1.68-1.44-.79,0-1.48.44-1.75,1.44Z"/><path class="cls-3" d="m50.64,117.85c-1.09,0-1.74.45-1.74,2.27v3.76h-1.71v-7.5h1.65v.84c.42-.51.93-.99,1.89-.99.45,0,.87.09,1.2.24l-.09,1.65c-.34-.15-.63-.27-1.2-.27Z"/><path class="cls-3" d="m54.58,113.68v10.2h-1.71v-10.2h1.71Z"/><path class="cls-3" d="m59.68,116.23c2.25,0,3.6,1.94,3.6,3.96,0,1.89-1.2,3.84-3.6,3.84s-3.6-1.95-3.6-3.84c0-2.02,1.35-3.96,3.6-3.96Zm0,1.65c-1.18,0-1.95.9-1.95,2.25,0,1.44.79,2.25,1.95,2.25s1.95-.81,1.95-2.25c0-1.35-.76-2.25-1.95-2.25Z"/><path class="cls-3" d="m71.73,122.32c.2,0,.39-.03.67-.09v1.65c-.52.08-.79.09-1.06.09-.92,0-1.35-.19-1.7-.78-.27.21-1.02.84-2.34.84-1.68,0-2.94-1.17-2.94-2.49,0-1.71,1.44-2.4,3.51-2.4h1.44v-.36c0-.81-.63-1.35-1.53-1.35s-1.41.46-1.41,1.35h-1.83c0-1.62,1.44-2.55,3.29-2.55,1.69,0,3.13.77,3.13,2.39v3.06c0,.45.3.65.76.65Zm-4.18.51c1.23,0,1.77-1.05,1.77-1.65v-.75c-2.61-.12-3.09.48-3.09,1.29,0,.6.51,1.11,1.32,1.11Z"/><path class="cls-3" d="m78.34,123.88v-.66c-.33.24-.99.81-2.07.81-2.19,0-3.42-1.92-3.42-3.84,0-2.16,1.17-3.96,3.36-3.96,1.08,0,1.71.45,2.07.69v-3.24h1.65v10.2h-1.59Zm-1.89-1.5c1.12,0,1.89-.75,1.89-2.25s-.79-2.25-1.89-2.25-1.95.66-1.95,2.25c0,1.5.83,2.25,1.95,2.25Z"/><path class="cls-3" d="m23.23,138.13c-.01-2.14.51-3.85,1.68-6.22h1.5c-1.09,2.25-1.67,4.29-1.67,6.24s.71,4.51,1.67,6.21h-1.5c-1-1.77-1.66-4.08-1.68-6.23Z"/><path class="cls-3" d="m30.28,139.07l1.54-7.4h2.59l1.51,7.44,1.73-7.44h1.8l-2.47,10.2h-2.16l-1.74-8.04-1.71,8.04h-2.14l-2.5-10.2h1.88l1.68,7.4Z"/><path class="cls-3" d="m46.94,140.32c.19,0,.39-.03.67-.09v1.65c-.53.08-.79.09-1.07.09-.92,0-1.35-.19-1.69-.78-.27.21-1.02.84-2.34.84-1.68,0-2.94-1.17-2.94-2.49,0-1.71,1.44-2.4,3.51-2.4h1.44v-.36c0-.81-.63-1.35-1.53-1.35s-1.41.46-1.41,1.35h-1.83c0-1.62,1.44-2.55,3.28-2.55,1.7,0,3.13.77,3.13,2.39v3.06c0,.45.3.65.77.65Zm-4.19.51c1.23,0,1.77-1.05,1.77-1.65v-.75c-2.61-.12-3.09.48-3.09,1.29,0,.6.51,1.11,1.32,1.11Z"/><path class="cls-3" d="m48.79,134.38l1.79,4.87,1.79-4.87h1.77l-2.79,7.5h-1.53l-2.79-7.5h1.77Z"/><path class="cls-3" d="m57.91,134.23c2.1,0,3.41,1.5,3.51,4.29h-5.32c.13,1.31.92,1.86,1.92,1.86,1.15,0,1.51-.72,1.67-1.05h1.65c-.09,1.02-1.05,2.7-3.3,2.7s-3.6-1.8-3.6-3.84,1.38-3.96,3.48-3.96Zm-1.69,2.79h3.43c-.11-.92-.72-1.44-1.68-1.44-.79,0-1.49.44-1.75,1.44Z"/><path class="cls-3" d="m66.7,140.42h2.82v-5.89h-2.38v-1.2c2.21-.15,2.62-.9,2.82-1.65h1.35v8.74h2.59v1.46h-7.2v-1.46Z"/><path class="cls-3" d="m78.44,138.13c.02,2.15-.51,3.85-1.68,6.23h-1.5c1.09-2.25,1.67-4.29,1.67-6.24s-.71-4.52-1.67-6.21h1.5c1,1.77,1.67,4.08,1.68,6.22Z"/><path class="cls-3" d="m270.12,91.46h4.2l-.04,5.41h-1.69c-.02-.23-.02-.44-.03-.65-.51.5-1.33.79-2.34.79-2.59,0-4.67-1.95-4.67-5.25s2.01-5.25,4.68-5.25c1.98,0,3.69.99,4,3.28h-2.1c-.11-.87-.86-1.5-2.01-1.5-1.65,0-2.71,1.29-2.71,3.46s1.17,3.46,3.03,3.46c1.29,0,1.92-.65,2.1-2.07h-2.42v-1.71Z"/><path class="cls-3" d="m280.61,96.88v-4.95c0-.84-.57-1.29-1.31-1.29-1.21,0-1.5,1.29-1.5,2.19v4.05h-1.65v-10.2h1.59v3.3c.27-.27.96-.75,2.16-.75,1.3,0,2.42.69,2.42,2.34v5.31h-1.71Z"/><path class="cls-3" d="m287.36,89.23c2.25,0,3.6,1.94,3.6,3.96,0,1.89-1.2,3.84-3.6,3.84s-3.6-1.95-3.6-3.84c0-2.02,1.35-3.96,3.6-3.96Zm0,1.65c-1.18,0-1.95.9-1.95,2.25,0,1.44.79,2.25,1.95,2.25s1.95-.81,1.95-2.25c0-1.35-.76-2.25-1.95-2.25Z"/><path class="cls-3" d="m295.04,90.5c-.87,0-1.17.39-1.17.78,0,1.26,4.44.33,4.44,3.24,0,1.41-1.02,2.5-3.09,2.5-2.68,0-3.21-1.65-3.21-2.55h1.71c.12.58.51,1.2,1.63,1.2.83,0,1.3-.31,1.3-.94,0-1.48-4.44-.38-4.44-3.22,0-1.17.78-2.28,2.97-2.28,2.37,0,3,1.56,3,2.31h-1.71c.03-.67-.54-1.03-1.44-1.03Z"/><path class="cls-3" d="m301.61,86.68v2.7h1.05v1.65h-1.05v3.87c0,.45.3.57.6.57.27,0,.45-.06.56-.12v1.5c-.14.04-.5.18-1.19.18-1.14,0-1.62-.69-1.62-1.41v-4.59h-.9v-1.65h.9v-2.7h1.65Z"/><path class="cls-3" d="m305.82,86.53v1.8h-1.71v-1.8h1.71Zm0,2.85v7.5h-1.71v-7.5h1.71Z"/><path class="cls-3" d="m312.14,96.88v-4.95c0-.71-.54-1.12-1.3-1.12-1.21,0-1.5,1.06-1.5,1.88v4.2h-1.71v-7.5h1.65v.6c.62-.48,1.39-.75,2.16-.75,1.3,0,2.41.69,2.41,2.34v5.31h-1.71Z"/><path class="cls-3" d="m320.54,95.95c-.36.29-1,.63-1.92.63-2.19,0-3.33-1.65-3.33-3.54,0-2.02,1.32-3.81,3.24-3.81,1.11,0,1.74.42,2.07.69v-.54h1.59v7.35c0,1.92-1.14,3-3.33,3s-3.51-.93-3.51-2.55h1.71c.18.5.42,1.2,1.77,1.2,1.2,0,1.71-.6,1.71-1.5v-.93Zm-1.74-.72c1.09,0,1.8-.75,1.8-2.19,0-1.35-.67-2.16-1.8-2.16s-1.86.81-1.86,2.16c0,1.44.76,2.19,1.86,2.19Z"/><path class="cls-3" d="m327.14,91.78c0-3.23,2-5.25,4.53-5.25s4.56,2.02,4.56,5.25-2.03,5.25-4.56,5.25-4.53-2.02-4.53-5.25Zm7.21,0c0-2.18-1.11-3.46-2.68-3.46s-2.67,1.29-2.67,3.46,1.09,3.46,2.67,3.46,2.68-1.29,2.68-3.46Z"/><path class="cls-3" d="m339.81,86.68v2.7h1.05v1.65h-1.05v3.87c0,.45.3.57.6.57.27,0,.45-.06.56-.12v1.5c-.14.04-.5.18-1.19.18-1.14,0-1.62-.69-1.62-1.41v-4.59h-.9v-1.65h.9v-2.7h1.65Z"/><path class="cls-3" d="m346.77,96.88v-4.95c0-.84-.57-1.29-1.3-1.29-1.21,0-1.5,1.29-1.5,2.19v4.05h-1.65v-10.2h1.59v3.3c.27-.27.96-.75,2.16-.75,1.3,0,2.42.69,2.42,2.34v5.31h-1.71Z"/><path class="cls-3" d="m353.33,89.23c2.1,0,3.41,1.5,3.51,4.29h-5.32c.13,1.31.92,1.86,1.92,1.86,1.15,0,1.51-.72,1.67-1.05h1.65c-.09,1.02-1.05,2.7-3.3,2.7s-3.6-1.8-3.6-3.84,1.38-3.96,3.48-3.96Zm-1.69,2.79h3.43c-.11-.92-.72-1.44-1.68-1.44-.79,0-1.49.44-1.75,1.44Z"/><path class="cls-3" d="m361.67,90.85c-1.09,0-1.74.45-1.74,2.27v3.76h-1.71v-7.5h1.65v.84c.42-.51.93-.99,1.89-.99.45,0,.87.09,1.2.24l-.09,1.65c-.35-.15-.63-.27-1.2-.27Z"/><path class="cls-3" d="m366.48,90.5c-.87,0-1.17.39-1.17.78,0,1.26,4.44.33,4.44,3.24,0,1.41-1.02,2.5-3.09,2.5-2.68,0-3.21-1.65-3.21-2.55h1.71c.12.58.51,1.2,1.63,1.2.83,0,1.3-.31,1.3-.94,0-1.48-4.44-.38-4.44-3.22,0-1.17.78-2.28,2.97-2.28,2.37,0,3,1.56,3,2.31h-1.71c.03-.67-.54-1.03-1.44-1.03Z"/><path class="cls-3" d="m268.18,112.07l1.54-7.4h2.6l1.51,7.44,1.72-7.44h1.8l-2.47,10.2h-2.16l-1.74-8.04-1.71,8.04h-2.15l-2.5-10.2h1.88l1.68,7.4Z"/><path class="cls-3" d="m279.91,104.53v1.8h-1.71v-1.8h1.71Zm0,2.85v7.5h-1.71v-7.5h1.71Z"/><path class="cls-3" d="m283.66,104.68v2.7h1.05v1.65h-1.05v3.87c0,.45.3.57.6.57.27,0,.45-.06.55-.12v1.5c-.13.04-.5.18-1.18.18-1.14,0-1.62-.69-1.62-1.41v-4.59h-.9v-1.65h.9v-2.7h1.65Z"/><path class="cls-3" d="m290.62,114.88v-4.95c0-.84-.57-1.29-1.31-1.29-1.21,0-1.5,1.29-1.5,2.19v4.05h-1.65v-10.2h1.59v3.3c.27-.27.96-.75,2.16-.75,1.3,0,2.42.69,2.42,2.34v5.31h-1.71Z"/><path class="cls-3" d="m295.78,104.53v1.8h-1.71v-1.8h1.71Zm0,2.85v7.5h-1.71v-7.5h1.71Z"/><path class="cls-3" d="m302.1,114.88v-4.95c0-.71-.54-1.12-1.3-1.12-1.21,0-1.5,1.06-1.5,1.88v4.2h-1.71v-7.5h1.65v.6c.62-.48,1.39-.75,2.16-.75,1.3,0,2.41.69,2.41,2.34v5.31h-1.71Z"/><path class="cls-3" d="m309.24,104.68h4.23c2.22,0,3.27,1.1,3.27,2.91,0,1.15-.76,1.9-1.77,2.37.63.3.9.87,1,1.47l.22,1.27c.15.85.62,1.69,1.33,2.17h-2.35c-.54-.24-.74-.88-.87-1.83l-.17-1.15c-.12-.81-.45-1.4-1.35-1.4h-1.77v4.38h-1.78v-10.2Zm1.78,1.69v2.43h2.4c1.02,0,1.46-.44,1.46-1.21s-.53-1.22-1.41-1.22h-2.45Z"/><path class="cls-3" d="m321.51,107.23c2.25,0,3.6,1.94,3.6,3.96,0,1.89-1.2,3.84-3.6,3.84s-3.6-1.95-3.6-3.84c0-2.02,1.35-3.96,3.6-3.96Zm0,1.65c-1.19,0-1.95.9-1.95,2.25,0,1.44.79,2.25,1.95,2.25s1.95-.81,1.95-2.25c0-1.35-.77-2.25-1.95-2.25Z"/><path class="cls-3" d="m331,114.88v-4.95c0-.71-.51-1.12-1.25-1.12-1.21,0-1.44,1.21-1.44,2.02v4.05h-1.71v-7.5h1.65v.6c.27-.21.9-.75,2.1-.75.87,0,1.62.3,2.03.99.33-.33,1.06-.99,2.37-.99s2.36.69,2.36,2.34v5.31h-1.71v-4.95c0-.71-.51-1.12-1.25-1.12-1.21,0-1.44,1.21-1.44,2.02v4.05h-1.71Z"/><path class="cls-3" d="m345.79,113.32c.2,0,.39-.03.67-.09v1.65c-.52.08-.79.09-1.06.09-.92,0-1.35-.19-1.7-.78-.27.21-1.02.84-2.34.84-1.68,0-2.94-1.17-2.94-2.49,0-1.71,1.44-2.4,3.51-2.4h1.44v-.36c0-.81-.63-1.35-1.53-1.35s-1.41.46-1.41,1.35h-1.83c0-1.62,1.44-2.55,3.29-2.55,1.69,0,3.13.77,3.13,2.39v3.06c0,.45.3.65.76.65Zm-4.18.51c1.23,0,1.77-1.05,1.77-1.65v-.75c-2.61-.12-3.09.48-3.09,1.29,0,.6.51,1.11,1.32,1.11Z"/><path class="cls-3" d="m351.73,114.88v-4.95c0-.71-.54-1.12-1.3-1.12-1.21,0-1.5,1.06-1.5,1.88v4.2h-1.71v-7.5h1.65v.6c.62-.48,1.4-.75,2.16-.75,1.3,0,2.42.69,2.42,2.34v5.31h-1.71Z"/><path class="cls-3" d="m357.13,104.68v2.7h1.05v1.65h-1.05v3.87c0,.45.3.57.6.57.27,0,.45-.06.55-.12v1.5c-.13.04-.5.18-1.18.18-1.14,0-1.62-.69-1.62-1.41v-4.59h-.9v-1.65h.9v-2.7h1.65Z"/><path class="cls-3" d="m361.35,104.53v1.8h-1.71v-1.8h1.71Zm0,2.85v7.5h-1.71v-7.5h1.71Z"/><path class="cls-3" d="m366.36,107.23c2.61,0,3.21,2.28,3.42,3.3h-1.74c-.15-.93-.62-1.65-1.74-1.65-.97,0-1.8.75-1.8,2.25,0,1.59.92,2.25,1.92,2.25,1.14,0,1.5-.81,1.77-1.5h1.56c0,1.26-1.11,3.15-3.48,3.15-2.07,0-3.42-1.8-3.42-3.84,0-2.32,1.47-3.96,3.51-3.96Z"/><path class="cls-3" d="m274.89,122.68h4.23c2.22,0,3.27,1.1,3.27,2.91,0,1.15-.76,1.9-1.77,2.37.63.3.9.87,1,1.47l.22,1.27c.15.85.62,1.69,1.33,2.17h-2.35c-.54-.24-.74-.88-.87-1.83l-.17-1.15c-.12-.81-.45-1.4-1.35-1.4h-1.77v4.38h-1.78v-10.2Zm1.78,1.69v2.43h2.4c1.02,0,1.46-.44,1.46-1.21s-.53-1.22-1.41-1.22h-2.45Z"/><path class="cls-3" d="m286.96,125.23c2.1,0,3.41,1.5,3.51,4.29h-5.32c.13,1.31.92,1.86,1.92,1.86,1.15,0,1.51-.72,1.67-1.05h1.65c-.09,1.02-1.05,2.7-3.3,2.7s-3.6-1.8-3.6-3.84,1.38-3.96,3.48-3.96Zm-1.69,2.79h3.43c-.11-.92-.72-1.44-1.68-1.44-.79,0-1.49.44-1.75,1.44Z"/><path class="cls-3" d="m293.56,122.68v10.2h-1.71v-10.2h1.71Z"/><path class="cls-3" d="m302.31,131.32c.19,0,.39-.03.67-.09v1.65c-.53.08-.79.09-1.07.09-.92,0-1.35-.19-1.69-.78-.27.21-1.02.84-2.34.84-1.68,0-2.94-1.17-2.94-2.49,0-1.71,1.44-2.4,3.51-2.4h1.44v-.36c0-.81-.63-1.35-1.53-1.35s-1.41.46-1.41,1.35h-1.83c0-1.62,1.44-2.55,3.28-2.55,1.7,0,3.13.77,3.13,2.39v3.06c0,.45.3.65.77.65Zm-4.19.51c1.23,0,1.77-1.05,1.77-1.65v-.75c-2.61-.12-3.09.48-3.09,1.29,0,.6.51,1.11,1.32,1.11Z"/><path class="cls-3" d="m305.53,122.68v2.7h1.05v1.65h-1.05v3.87c0,.45.3.57.6.57.27,0,.45-.06.55-.12v1.5c-.13.04-.5.18-1.18.18-1.14,0-1.62-.69-1.62-1.41v-4.59h-.9v-1.65h.9v-2.7h1.65Z"/><path class="cls-3" d="m309.75,122.53v1.8h-1.71v-1.8h1.71Zm0,2.85v7.5h-1.71v-7.5h1.71Z"/><path class="cls-3" d="m314.85,125.23c2.25,0,3.6,1.94,3.6,3.96,0,1.89-1.2,3.84-3.6,3.84s-3.6-1.95-3.6-3.84c0-2.02,1.35-3.96,3.6-3.96Zm0,1.65c-1.19,0-1.95.9-1.95,2.25,0,1.44.79,2.25,1.95,2.25s1.95-.81,1.95-2.25c0-1.35-.77-2.25-1.95-2.25Z"/><path class="cls-3" d="m324.46,132.88v-4.95c0-.71-.54-1.12-1.3-1.12-1.21,0-1.5,1.06-1.5,1.88v4.2h-1.71v-7.5h1.65v.6c.62-.48,1.39-.75,2.16-.75,1.3,0,2.41.69,2.41,2.34v5.31h-1.71Z"/><path class="cls-3" d="m330.49,126.5c-.87,0-1.17.39-1.17.78,0,1.26,4.44.33,4.44,3.24,0,1.41-1.02,2.5-3.09,2.5-2.68,0-3.21-1.65-3.21-2.55h1.71c.12.58.51,1.2,1.64,1.2.82,0,1.3-.31,1.3-.94,0-1.48-4.44-.38-4.44-3.22,0-1.17.78-2.28,2.97-2.28,2.37,0,3,1.56,3,2.31h-1.71c.03-.67-.54-1.03-1.44-1.03Z"/><path class="cls-3" d="m339.57,132.88v-4.95c0-.84-.57-1.29-1.31-1.29-1.21,0-1.5,1.29-1.5,2.19v4.05h-1.65v-10.2h1.59v3.3c.27-.27.96-.75,2.16-.75,1.3,0,2.42.69,2.42,2.34v5.31h-1.71Z"/><path class="cls-3" d="m344.73,122.53v1.8h-1.71v-1.8h1.71Zm0,2.85v7.5h-1.71v-7.5h1.71Z"/><path class="cls-3" d="m348.12,125.38v.66c.33-.24.99-.81,2.07-.81,2.19,0,3.42,1.92,3.42,3.84,0,2.16-1.17,3.96-3.36,3.96-1.08,0-1.71-.45-2.07-.69v3.24h-1.65v-10.2h1.59Zm1.89,1.5c-1.12,0-1.89.75-1.89,2.25s.79,2.25,1.89,2.25,1.95-.66,1.95-2.25c0-1.5-.82-2.25-1.95-2.25Z"/><path class="cls-3" d="m357.69,126.5c-.87,0-1.17.39-1.17.78,0,1.26,4.44.33,4.44,3.24,0,1.41-1.02,2.5-3.09,2.5-2.68,0-3.21-1.65-3.21-2.55h1.71c.12.58.51,1.2,1.64,1.2.82,0,1.3-.31,1.3-.94,0-1.48-4.44-.38-4.44-3.22,0-1.17.78-2.28,2.97-2.28,2.37,0,3,1.56,3,2.31h-1.71c.03-.67-.54-1.03-1.44-1.03Z"/><path class="cls-3" d="m289.89,147.13c-.01-2.14.51-3.85,1.68-6.22h1.5c-1.09,2.25-1.67,4.29-1.67,6.24s.71,4.51,1.67,6.21h-1.5c-1-1.77-1.66-4.08-1.68-6.23Z"/><path class="cls-3" d="m296.94,148.07l1.54-7.4h2.59l1.51,7.44,1.73-7.44h1.8l-2.47,10.2h-2.16l-1.74-8.04-1.71,8.04h-2.14l-2.5-10.2h1.88l1.68,7.4Z"/><path class="cls-3" d="m313.61,149.32c.19,0,.39-.03.67-.09v1.65c-.53.08-.79.09-1.07.09-.92,0-1.35-.19-1.69-.78-.27.21-1.02.84-2.34.84-1.68,0-2.94-1.17-2.94-2.49,0-1.71,1.44-2.4,3.51-2.4h1.44v-.36c0-.81-.63-1.35-1.53-1.35s-1.41.46-1.41,1.35h-1.83c0-1.62,1.44-2.55,3.28-2.55,1.7,0,3.13.77,3.13,2.39v3.06c0,.45.3.65.77.65Zm-4.19.51c1.23,0,1.77-1.05,1.77-1.65v-.75c-2.61-.12-3.09.48-3.09,1.29,0,.6.51,1.11,1.32,1.11Z"/><path class="cls-3" d="m315.45,143.38l1.79,4.87,1.79-4.87h1.77l-2.79,7.5h-1.53l-2.79-7.5h1.77Z"/><path class="cls-3" d="m324.57,143.23c2.1,0,3.41,1.5,3.51,4.29h-5.32c.13,1.31.92,1.86,1.92,1.86,1.15,0,1.51-.72,1.67-1.05h1.65c-.09,1.02-1.05,2.7-3.3,2.7s-3.6-1.8-3.6-3.84,1.38-3.96,3.48-3.96Zm-1.69,2.79h3.43c-.11-.92-.72-1.44-1.68-1.44-.79,0-1.49.44-1.75,1.44Z"/><path class="cls-3" d="m333.14,149.38l3.39-3.01c1.14-1,1.84-1.64,1.84-2.62,0-.81-.56-1.56-1.71-1.56s-1.77.79-1.79,2.27h-1.8c-.15-2.48,1.48-3.92,3.72-3.92s3.41,1.42,3.41,3c0,1.68-.95,2.8-2.19,3.81l-2.16,1.74h4.4v1.8h-7.11v-1.5Z"/><path class="cls-3" d="m345.11,147.13c.02,2.15-.51,3.85-1.68,6.23h-1.5c1.09-2.25,1.67-4.29,1.67-6.24s-.71-4.52-1.67-6.21h1.5c1,1.77,1.67,4.08,1.68,6.22Z"/><path class="cls-3" d="m44.35,233.07h-3.36l-1.1,2.8h-1.89l3.9-10.2h1.53l3.9,10.2h-1.89l-1.09-2.8Zm-.63-1.65l-1.05-2.68-1.05,2.68h2.1Z"/><path class="cls-3" d="m53.07,234.95c-.36.29-1,.63-1.92.63-2.19,0-3.33-1.65-3.33-3.54,0-2.03,1.32-3.81,3.24-3.81,1.11,0,1.74.42,2.07.69v-.54h1.59v7.35c0,1.92-1.14,3-3.33,3s-3.51-.93-3.51-2.55h1.71c.18.5.42,1.2,1.77,1.2,1.2,0,1.71-.6,1.71-1.5v-.93Zm-1.74-.72c1.09,0,1.8-.75,1.8-2.19,0-1.35-.67-2.16-1.8-2.16s-1.86.81-1.86,2.16c0,1.44.76,2.19,1.86,2.19Z"/><path class="cls-3" d="m59.62,228.23c2.1,0,3.4,1.5,3.51,4.29h-5.33c.13,1.31.92,1.86,1.92,1.86,1.16,0,1.52-.72,1.67-1.05h1.65c-.09,1.02-1.05,2.7-3.3,2.7s-3.6-1.8-3.6-3.84,1.38-3.96,3.48-3.96Zm-1.7,2.79h3.43c-.1-.92-.72-1.44-1.68-1.44-.79,0-1.48.43-1.75,1.44Z"/><path class="cls-3" d="m30.46,328.68h1.79v4.05h3.99v-4.05h1.78v10.2h-1.78v-4.38h-3.99v4.38h-1.79v-10.2Z"/><path class="cls-3" d="m41.92,328.53v1.8h-1.71v-1.8h1.71Zm0,2.85v7.5h-1.71v-7.5h1.71Z"/><path class="cls-3" d="m48.67,337.95c-.36.29-1,.63-1.92.63-2.19,0-3.33-1.65-3.33-3.54,0-2.03,1.32-3.81,3.24-3.81,1.11,0,1.74.42,2.07.69v-.54h1.59v7.35c0,1.92-1.14,3-3.33,3s-3.51-.93-3.51-2.55h1.71c.18.5.42,1.2,1.77,1.2,1.2,0,1.71-.6,1.71-1.5v-.93Zm-1.74-.72c1.09,0,1.8-.75,1.8-2.19,0-1.35-.67-2.16-1.8-2.16s-1.86.81-1.86,2.16c0,1.44.76,2.19,1.86,2.19Z"/><path class="cls-3" d="m56.57,338.88v-4.95c0-.84-.57-1.29-1.31-1.29-1.21,0-1.5,1.29-1.5,2.19v4.05h-1.65v-10.2h1.59v3.3c.27-.27.96-.75,2.16-.75,1.3,0,2.42.69,2.42,2.34v5.31h-1.71Z"/><path class="cls-3" d="m63.13,331.23c2.1,0,3.4,1.5,3.51,4.29h-5.33c.13,1.31.92,1.86,1.92,1.86,1.16,0,1.52-.72,1.67-1.05h1.65c-.09,1.02-1.05,2.7-3.3,2.7s-3.6-1.8-3.6-3.84,1.38-3.96,3.48-3.96Zm-1.7,2.79h3.43c-.1-.92-.72-1.44-1.68-1.44-.79,0-1.48.43-1.75,1.44Z"/><path class="cls-3" d="m71.47,332.85c-1.09,0-1.74.45-1.74,2.27v3.76h-1.71v-7.5h1.65v.84c.42-.51.93-.99,1.89-.99.45,0,.87.09,1.2.24l-.09,1.65c-.34-.15-.63-.27-1.2-.27Z"/><path class="cls-3" d="m19.36,346.68h6.24v1.7h-4.46v2.08h4.21v1.7h-4.21v3.03h4.46v1.7h-6.24v-10.2Z"/><path class="cls-3" d="m32.53,356.88v-.66c-.33.24-.99.81-2.07.81-2.19,0-3.42-1.92-3.42-3.84,0-2.16,1.17-3.96,3.36-3.96,1.08,0,1.71.45,2.07.69v-3.24h1.65v10.2h-1.59Zm-1.89-1.5c1.12,0,1.89-.75,1.89-2.25s-.79-2.25-1.89-2.25-1.95.66-1.95,2.25c0,1.5.83,2.25,1.95,2.25Z"/><path class="cls-3" d="m37.57,349.38v4.95c0,.9.58,1.35,1.32,1.35,1.21,0,1.49-1.2,1.49-2.1v-4.2h1.71v7.5h-1.65v-.6c-.27.21-.95.75-2.14.75-1.31,0-2.43-.84-2.43-2.49v-5.16h1.71Z"/><path class="cls-3" d="m47.09,349.23c2.61,0,3.21,2.28,3.42,3.3h-1.74c-.15-.93-.62-1.65-1.74-1.65-.97,0-1.8.75-1.8,2.25,0,1.59.92,2.25,1.92,2.25,1.14,0,1.5-.81,1.77-1.5h1.56c0,1.26-1.11,3.15-3.48,3.15-2.07,0-3.42-1.8-3.42-3.84,0-2.32,1.47-3.96,3.51-3.96Z"/><path class="cls-3" d="m58.9,355.32c.19,0,.39-.03.67-.09v1.65c-.53.08-.79.09-1.07.09-.92,0-1.35-.2-1.69-.78-.27.21-1.02.84-2.34.84-1.68,0-2.94-1.17-2.94-2.49,0-1.71,1.44-2.4,3.51-2.4h1.44v-.36c0-.81-.63-1.35-1.53-1.35s-1.41.46-1.41,1.35h-1.83c0-1.62,1.44-2.55,3.28-2.55,1.7,0,3.13.77,3.13,2.39v3.06c0,.45.3.64.77.64Zm-4.19.51c1.23,0,1.77-1.05,1.77-1.65v-.75c-2.61-.12-3.09.48-3.09,1.29,0,.6.51,1.11,1.32,1.11Z"/><path class="cls-3" d="m62.12,346.68v2.7h1.05v1.65h-1.05v3.87c0,.45.3.57.6.57.27,0,.45-.06.55-.12v1.5c-.13.04-.5.18-1.18.18-1.14,0-1.62-.69-1.62-1.41v-4.59h-.9v-1.65h.9v-2.7h1.65Z"/><path class="cls-3" d="m66.34,346.53v1.8h-1.71v-1.8h1.71Zm0,2.85v7.5h-1.71v-7.5h1.71Z"/><path class="cls-3" d="m71.44,349.23c2.25,0,3.6,1.94,3.6,3.96,0,1.89-1.2,3.84-3.6,3.84s-3.6-1.95-3.6-3.84c0-2.02,1.35-3.96,3.6-3.96Zm0,1.65c-1.19,0-1.95.9-1.95,2.25,0,1.44.79,2.25,1.95,2.25s1.95-.81,1.95-2.25c0-1.35-.77-2.25-1.95-2.25Z"/><path class="cls-3" d="m81.05,356.88v-4.95c0-.71-.54-1.12-1.3-1.12-1.21,0-1.5,1.07-1.5,1.88v4.2h-1.71v-7.5h1.65v.6c.62-.48,1.39-.75,2.16-.75,1.3,0,2.41.69,2.41,2.34v5.31h-1.71Z"/><path class="cls-3" d="m270.12,203.46h4.2l-.04,5.42h-1.69c-.02-.23-.02-.44-.03-.65-.51.5-1.33.79-2.34.79-2.59,0-4.67-1.95-4.67-5.25s2.01-5.25,4.68-5.25c1.98,0,3.69.99,4,3.28h-2.1c-.11-.87-.86-1.5-2.01-1.5-1.65,0-2.71,1.29-2.71,3.46s1.17,3.46,3.03,3.46c1.29,0,1.92-.65,2.1-2.07h-2.42v-1.71Z"/><path class="cls-3" d="m280.61,208.88v-4.95c0-.84-.57-1.29-1.31-1.29-1.21,0-1.5,1.29-1.5,2.19v4.05h-1.65v-10.2h1.59v3.3c.27-.27.96-.75,2.16-.75,1.3,0,2.42.69,2.42,2.34v5.31h-1.71Z"/><path class="cls-3" d="m287.36,201.23c2.25,0,3.6,1.94,3.6,3.96,0,1.89-1.2,3.84-3.6,3.84s-3.6-1.95-3.6-3.84c0-2.02,1.35-3.96,3.6-3.96Zm0,1.65c-1.18,0-1.95.9-1.95,2.25,0,1.44.79,2.25,1.95,2.25s1.95-.81,1.95-2.25c0-1.35-.76-2.25-1.95-2.25Z"/><path class="cls-3" d="m295.04,202.5c-.87,0-1.17.39-1.17.78,0,1.26,4.44.33,4.44,3.24,0,1.41-1.02,2.5-3.09,2.5-2.68,0-3.21-1.65-3.21-2.55h1.71c.12.58.51,1.2,1.63,1.2.83,0,1.3-.32,1.3-.95,0-1.48-4.44-.38-4.44-3.22,0-1.17.78-2.28,2.97-2.28,2.37,0,3,1.56,3,2.31h-1.71c.03-.67-.54-1.04-1.44-1.04Z"/><path class="cls-3" d="m301.61,198.68v2.7h1.05v1.65h-1.05v3.87c0,.45.3.57.6.57.27,0,.45-.06.56-.12v1.5c-.14.04-.5.18-1.19.18-1.14,0-1.62-.69-1.62-1.41v-4.59h-.9v-1.65h.9v-2.7h1.65Z"/><path class="cls-3" d="m305.82,198.53v1.8h-1.71v-1.8h1.71Zm0,2.85v7.5h-1.71v-7.5h1.71Z"/><path class="cls-3" d="m312.14,208.88v-4.95c0-.71-.54-1.12-1.3-1.12-1.21,0-1.5,1.07-1.5,1.88v4.2h-1.71v-7.5h1.65v.6c.62-.48,1.39-.75,2.16-.75,1.3,0,2.41.69,2.41,2.34v5.31h-1.71Z"/><path class="cls-3" d="m320.54,207.95c-.36.29-1,.63-1.92.63-2.19,0-3.33-1.65-3.33-3.54,0-2.03,1.32-3.81,3.24-3.81,1.11,0,1.74.42,2.07.69v-.54h1.59v7.35c0,1.92-1.14,3-3.33,3s-3.51-.93-3.51-2.55h1.71c.18.5.42,1.2,1.77,1.2,1.2,0,1.71-.6,1.71-1.5v-.93Zm-1.74-.72c1.09,0,1.8-.75,1.8-2.19,0-1.35-.67-2.16-1.8-2.16s-1.86.81-1.86,2.16c0,1.44.76,2.19,1.86,2.19Z"/><path class="cls-3" d="m327.14,203.78c0-3.23,2-5.25,4.53-5.25s4.56,2.02,4.56,5.25-2.03,5.25-4.56,5.25-4.53-2.02-4.53-5.25Zm7.21,0c0-2.18-1.11-3.46-2.68-3.46s-2.67,1.29-2.67,3.46,1.09,3.46,2.67,3.46,2.68-1.29,2.68-3.46Z"/><path class="cls-3" d="m339.81,198.68v2.7h1.05v1.65h-1.05v3.87c0,.45.3.57.6.57.27,0,.45-.06.56-.12v1.5c-.14.04-.5.18-1.19.18-1.14,0-1.62-.69-1.62-1.41v-4.59h-.9v-1.65h.9v-2.7h1.65Z"/><path class="cls-3" d="m346.77,208.88v-4.95c0-.84-.57-1.29-1.3-1.29-1.21,0-1.5,1.29-1.5,2.19v4.05h-1.65v-10.2h1.59v3.3c.27-.27.96-.75,2.16-.75,1.3,0,2.42.69,2.42,2.34v5.31h-1.71Z"/><path class="cls-3" d="m353.33,201.23c2.1,0,3.41,1.5,3.51,4.29h-5.32c.13,1.31.92,1.86,1.92,1.86,1.15,0,1.51-.72,1.67-1.05h1.65c-.09,1.02-1.05,2.7-3.3,2.7s-3.6-1.8-3.6-3.84,1.38-3.96,3.48-3.96Zm-1.69,2.79h3.43c-.11-.92-.72-1.44-1.68-1.44-.79,0-1.49.43-1.75,1.44Z"/><path class="cls-3" d="m361.67,202.85c-1.09,0-1.74.45-1.74,2.27v3.76h-1.71v-7.5h1.65v.84c.42-.51.93-.99,1.89-.99.45,0,.87.09,1.2.24l-.09,1.65c-.35-.15-.63-.27-1.2-.27Z"/><path class="cls-3" d="m366.48,202.5c-.87,0-1.17.39-1.17.78,0,1.26,4.44.33,4.44,3.24,0,1.41-1.02,2.5-3.09,2.5-2.68,0-3.21-1.65-3.21-2.55h1.71c.12.58.51,1.2,1.63,1.2.83,0,1.3-.32,1.3-.95,0-1.48-4.44-.38-4.44-3.22,0-1.17.78-2.28,2.97-2.28,2.37,0,3,1.56,3,2.31h-1.71c.03-.67-.54-1.04-1.44-1.04Z"/><path class="cls-3" d="m268.18,224.07l1.54-7.4h2.6l1.51,7.44,1.72-7.44h1.8l-2.47,10.2h-2.16l-1.74-8.04-1.71,8.04h-2.15l-2.5-10.2h1.88l1.68,7.4Z"/><path class="cls-3" d="m279.91,216.53v1.8h-1.71v-1.8h1.71Zm0,2.85v7.5h-1.71v-7.5h1.71Z"/><path class="cls-3" d="m283.66,216.68v2.7h1.05v1.65h-1.05v3.87c0,.45.3.57.6.57.27,0,.45-.06.55-.12v1.5c-.13.04-.5.18-1.18.18-1.14,0-1.62-.69-1.62-1.41v-4.59h-.9v-1.65h.9v-2.7h1.65Z"/><path class="cls-3" d="m290.62,226.88v-4.95c0-.84-.57-1.29-1.31-1.29-1.21,0-1.5,1.29-1.5,2.19v4.05h-1.65v-10.2h1.59v3.3c.27-.27.96-.75,2.16-.75,1.3,0,2.42.69,2.42,2.34v5.31h-1.71Z"/><path class="cls-3" d="m295.78,216.53v1.8h-1.71v-1.8h1.71Zm0,2.85v7.5h-1.71v-7.5h1.71Z"/><path class="cls-3" d="m302.1,226.88v-4.95c0-.71-.54-1.12-1.3-1.12-1.21,0-1.5,1.07-1.5,1.88v4.2h-1.71v-7.5h1.65v.6c.62-.48,1.39-.75,2.16-.75,1.3,0,2.41.69,2.41,2.34v5.31h-1.71Z"/><path class="cls-3" d="m309.24,216.68h4.23c2.22,0,3.27,1.1,3.27,2.91,0,1.16-.76,1.91-1.77,2.37.63.3.9.87,1,1.47l.22,1.28c.15.85.62,1.69,1.33,2.17h-2.35c-.54-.24-.74-.88-.87-1.83l-.17-1.16c-.12-.81-.45-1.39-1.35-1.39h-1.77v4.38h-1.78v-10.2Zm1.78,1.7v2.43h2.4c1.02,0,1.46-.43,1.46-1.21s-.53-1.21-1.41-1.21h-2.45Z"/><path class="cls-3" d="m321.51,219.23c2.25,0,3.6,1.94,3.6,3.96,0,1.89-1.2,3.84-3.6,3.84s-3.6-1.95-3.6-3.84c0-2.02,1.35-3.96,3.6-3.96Zm0,1.65c-1.19,0-1.95.9-1.95,2.25,0,1.44.79,2.25,1.95,2.25s1.95-.81,1.95-2.25c0-1.35-.77-2.25-1.95-2.25Z"/><path class="cls-3" d="m331,226.88v-4.95c0-.71-.51-1.12-1.25-1.12-1.21,0-1.44,1.21-1.44,2.03v4.05h-1.71v-7.5h1.65v.6c.27-.21.9-.75,2.1-.75.87,0,1.62.3,2.03.99.33-.33,1.06-.99,2.37-.99s2.36.69,2.36,2.34v5.31h-1.71v-4.95c0-.71-.51-1.12-1.25-1.12-1.21,0-1.44,1.21-1.44,2.03v4.05h-1.71Z"/><path class="cls-3" d="m345.79,225.32c.2,0,.39-.03.67-.09v1.65c-.52.08-.79.09-1.06.09-.92,0-1.35-.2-1.7-.78-.27.21-1.02.84-2.34.84-1.68,0-2.94-1.17-2.94-2.49,0-1.71,1.44-2.4,3.51-2.4h1.44v-.36c0-.81-.63-1.35-1.53-1.35s-1.41.46-1.41,1.35h-1.83c0-1.62,1.44-2.55,3.29-2.55,1.69,0,3.13.77,3.13,2.39v3.06c0,.45.3.64.76.64Zm-4.18.51c1.23,0,1.77-1.05,1.77-1.65v-.75c-2.61-.12-3.09.48-3.09,1.29,0,.6.51,1.11,1.32,1.11Z"/><path class="cls-3" d="m351.73,226.88v-4.95c0-.71-.54-1.12-1.3-1.12-1.21,0-1.5,1.07-1.5,1.88v4.2h-1.71v-7.5h1.65v.6c.62-.48,1.4-.75,2.16-.75,1.3,0,2.42.69,2.42,2.34v5.31h-1.71Z"/><path class="cls-3" d="m357.13,216.68v2.7h1.05v1.65h-1.05v3.87c0,.45.3.57.6.57.27,0,.45-.06.55-.12v1.5c-.13.04-.5.18-1.18.18-1.14,0-1.62-.69-1.62-1.41v-4.59h-.9v-1.65h.9v-2.7h1.65Z"/><path class="cls-3" d="m361.35,216.53v1.8h-1.71v-1.8h1.71Zm0,2.85v7.5h-1.71v-7.5h1.71Z"/><path class="cls-3" d="m366.36,219.23c2.61,0,3.21,2.28,3.42,3.3h-1.74c-.15-.93-.62-1.65-1.74-1.65-.97,0-1.8.75-1.8,2.25,0,1.59.92,2.25,1.92,2.25,1.14,0,1.5-.81,1.77-1.5h1.56c0,1.26-1.11,3.15-3.48,3.15-2.07,0-3.42-1.8-3.42-3.84,0-2.32,1.47-3.96,3.51-3.96Z"/><path class="cls-3" d="m274.89,234.68h4.23c2.22,0,3.27,1.1,3.27,2.91,0,1.16-.76,1.91-1.77,2.37.63.3.9.87,1,1.47l.22,1.28c.15.85.62,1.69,1.33,2.17h-2.35c-.54-.24-.74-.88-.87-1.83l-.17-1.16c-.12-.81-.45-1.39-1.35-1.39h-1.77v4.38h-1.78v-10.2Zm1.78,1.7v2.43h2.4c1.02,0,1.46-.43,1.46-1.21s-.53-1.21-1.41-1.21h-2.45Z"/><path class="cls-3" d="m286.96,237.23c2.1,0,3.41,1.5,3.51,4.29h-5.32c.13,1.31.92,1.86,1.92,1.86,1.15,0,1.51-.72,1.67-1.05h1.65c-.09,1.02-1.05,2.7-3.3,2.7s-3.6-1.8-3.6-3.84,1.38-3.96,3.48-3.96Zm-1.69,2.79h3.43c-.11-.92-.72-1.44-1.68-1.44-.79,0-1.49.43-1.75,1.44Z"/><path class="cls-3" d="m293.56,234.68v10.2h-1.71v-10.2h1.71Z"/><path class="cls-3" d="m302.31,243.32c.19,0,.39-.03.67-.09v1.65c-.53.08-.79.09-1.07.09-.92,0-1.35-.2-1.69-.78-.27.21-1.02.84-2.34.84-1.68,0-2.94-1.17-2.94-2.49,0-1.71,1.44-2.4,3.51-2.4h1.44v-.36c0-.81-.63-1.35-1.53-1.35s-1.41.46-1.41,1.35h-1.83c0-1.62,1.44-2.55,3.28-2.55,1.7,0,3.13.77,3.13,2.39v3.06c0,.45.3.64.77.64Zm-4.19.51c1.23,0,1.77-1.05,1.77-1.65v-.75c-2.61-.12-3.09.48-3.09,1.29,0,.6.51,1.11,1.32,1.11Z"/><path class="cls-3" d="m305.53,234.68v2.7h1.05v1.65h-1.05v3.87c0,.45.3.57.6.57.27,0,.45-.06.55-.12v1.5c-.13.04-.5.18-1.18.18-1.14,0-1.62-.69-1.62-1.41v-4.59h-.9v-1.65h.9v-2.7h1.65Z"/><path class="cls-3" d="m309.75,234.53v1.8h-1.71v-1.8h1.71Zm0,2.85v7.5h-1.71v-7.5h1.71Z"/><path class="cls-3" d="m314.85,237.23c2.25,0,3.6,1.94,3.6,3.96,0,1.89-1.2,3.84-3.6,3.84s-3.6-1.95-3.6-3.84c0-2.02,1.35-3.96,3.6-3.96Zm0,1.65c-1.19,0-1.95.9-1.95,2.25,0,1.44.79,2.25,1.95,2.25s1.95-.81,1.95-2.25c0-1.35-.77-2.25-1.95-2.25Z"/><path class="cls-3" d="m324.46,244.88v-4.95c0-.71-.54-1.12-1.3-1.12-1.21,0-1.5,1.07-1.5,1.88v4.2h-1.71v-7.5h1.65v.6c.62-.48,1.39-.75,2.16-.75,1.3,0,2.41.69,2.41,2.34v5.31h-1.71Z"/><path class="cls-3" d="m330.49,238.5c-.87,0-1.17.39-1.17.78,0,1.26,4.44.33,4.44,3.24,0,1.41-1.02,2.5-3.09,2.5-2.68,0-3.21-1.65-3.21-2.55h1.71c.12.58.51,1.2,1.64,1.2.82,0,1.3-.32,1.3-.95,0-1.48-4.44-.38-4.44-3.22,0-1.17.78-2.28,2.97-2.28,2.37,0,3,1.56,3,2.31h-1.71c.03-.67-.54-1.04-1.44-1.04Z"/><path class="cls-3" d="m339.57,244.88v-4.95c0-.84-.57-1.29-1.31-1.29-1.21,0-1.5,1.29-1.5,2.19v4.05h-1.65v-10.2h1.59v3.3c.27-.27.96-.75,2.16-.75,1.3,0,2.42.69,2.42,2.34v5.31h-1.71Z"/><path class="cls-3" d="m344.73,234.53v1.8h-1.71v-1.8h1.71Zm0,2.85v7.5h-1.71v-7.5h1.71Z"/><path class="cls-3" d="m348.12,237.38v.66c.33-.24.99-.81,2.07-.81,2.19,0,3.42,1.92,3.42,3.84,0,2.16-1.17,3.96-3.36,3.96-1.08,0-1.71-.45-2.07-.69v3.24h-1.65v-10.2h1.59Zm1.89,1.5c-1.12,0-1.89.75-1.89,2.25s.79,2.25,1.89,2.25,1.95-.66,1.95-2.25c0-1.5-.82-2.25-1.95-2.25Z"/><path class="cls-3" d="m357.69,238.5c-.87,0-1.17.39-1.17.78,0,1.26,4.44.33,4.44,3.24,0,1.41-1.02,2.5-3.09,2.5-2.68,0-3.21-1.65-3.21-2.55h1.71c.12.58.51,1.2,1.64,1.2.82,0,1.3-.32,1.3-.95,0-1.48-4.44-.38-4.44-3.22,0-1.17.78-2.28,2.97-2.28,2.37,0,3,1.56,3,2.31h-1.71c.03-.67-.54-1.04-1.44-1.04Z"/><path class="cls-3" d="m289.89,259.13c-.01-2.14.51-3.85,1.68-6.22h1.5c-1.09,2.25-1.67,4.29-1.67,6.24s.71,4.51,1.67,6.21h-1.5c-1-1.77-1.66-4.08-1.68-6.22Z"/><path class="cls-3" d="m296.94,260.07l1.54-7.4h2.59l1.51,7.44,1.73-7.44h1.8l-2.47,10.2h-2.16l-1.74-8.04-1.71,8.04h-2.14l-2.5-10.2h1.88l1.68,7.4Z"/><path class="cls-3" d="m313.61,261.32c.19,0,.39-.03.67-.09v1.65c-.53.08-.79.09-1.07.09-.92,0-1.35-.2-1.69-.78-.27.21-1.02.84-2.34.84-1.68,0-2.94-1.17-2.94-2.49,0-1.71,1.44-2.4,3.51-2.4h1.44v-.36c0-.81-.63-1.35-1.53-1.35s-1.41.46-1.41,1.35h-1.83c0-1.62,1.44-2.55,3.28-2.55,1.7,0,3.13.77,3.13,2.39v3.06c0,.45.3.64.77.64Zm-4.19.51c1.23,0,1.77-1.05,1.77-1.65v-.75c-2.61-.12-3.09.48-3.09,1.29,0,.6.51,1.11,1.32,1.11Z"/><path class="cls-3" d="m315.45,255.38l1.79,4.88,1.79-4.88h1.77l-2.79,7.5h-1.53l-2.79-7.5h1.77Z"/><path class="cls-3" d="m324.57,255.23c2.1,0,3.41,1.5,3.51,4.29h-5.32c.13,1.31.92,1.86,1.92,1.86,1.15,0,1.51-.72,1.67-1.05h1.65c-.09,1.02-1.05,2.7-3.3,2.7s-3.6-1.8-3.6-3.84,1.38-3.96,3.48-3.96Zm-1.69,2.79h3.43c-.11-.92-.72-1.44-1.68-1.44-.79,0-1.49.43-1.75,1.44Z"/><path class="cls-3" d="m333.14,261.38l3.39-3.01c1.14-1,1.84-1.64,1.84-2.62,0-.81-.56-1.56-1.71-1.56s-1.77.79-1.79,2.27h-1.8c-.15-2.48,1.48-3.92,3.72-3.92s3.41,1.42,3.41,3c0,1.68-.95,2.8-2.19,3.81l-2.16,1.74h4.4v1.8h-7.11v-1.5Z"/><path class="cls-3" d="m345.11,259.13c.02,2.14-.51,3.85-1.68,6.22h-1.5c1.09-2.25,1.67-4.29,1.67-6.24s-.71-4.52-1.67-6.21h1.5c1,1.77,1.67,4.08,1.68,6.22Z"/><path class="cls-3" d="m270.12,315.46h4.2l-.04,5.41h-1.69c-.02-.22-.02-.43-.03-.64-.51.5-1.33.79-2.34.79-2.59,0-4.67-1.95-4.67-5.25s2.01-5.25,4.68-5.25c1.98,0,3.69.99,4,3.29h-2.1c-.11-.87-.86-1.5-2.01-1.5-1.65,0-2.71,1.29-2.71,3.46s1.17,3.46,3.03,3.46c1.29,0,1.92-.64,2.1-2.07h-2.42v-1.71Z"/><path class="cls-3" d="m280.61,320.88v-4.95c0-.84-.57-1.29-1.31-1.29-1.21,0-1.5,1.29-1.5,2.19v4.05h-1.65v-10.2h1.59v3.3c.27-.27.96-.75,2.16-.75,1.3,0,2.42.69,2.42,2.34v5.31h-1.71Z"/><path class="cls-3" d="m287.36,313.23c2.25,0,3.6,1.93,3.6,3.96,0,1.89-1.2,3.84-3.6,3.84s-3.6-1.95-3.6-3.84c0-2.03,1.35-3.96,3.6-3.96Zm0,1.65c-1.18,0-1.95.9-1.95,2.25,0,1.44.79,2.25,1.95,2.25s1.95-.81,1.95-2.25c0-1.35-.76-2.25-1.95-2.25Z"/><path class="cls-3" d="m295.04,314.5c-.87,0-1.17.39-1.17.78,0,1.26,4.44.33,4.44,3.24,0,1.41-1.02,2.5-3.09,2.5-2.68,0-3.21-1.65-3.21-2.55h1.71c.12.58.51,1.2,1.63,1.2.83,0,1.3-.32,1.3-.95,0-1.48-4.44-.38-4.44-3.22,0-1.17.78-2.28,2.97-2.28,2.37,0,3,1.56,3,2.31h-1.71c.03-.67-.54-1.03-1.44-1.03Z"/><path class="cls-3" d="m301.61,310.68v2.7h1.05v1.65h-1.05v3.87c0,.45.3.57.6.57.27,0,.45-.06.56-.12v1.5c-.14.04-.5.18-1.19.18-1.14,0-1.62-.69-1.62-1.41v-4.59h-.9v-1.65h.9v-2.7h1.65Z"/><path class="cls-3" d="m305.82,310.53v1.8h-1.71v-1.8h1.71Zm0,2.85v7.5h-1.71v-7.5h1.71Z"/><path class="cls-3" d="m312.14,320.88v-4.95c0-.71-.54-1.12-1.3-1.12-1.21,0-1.5,1.06-1.5,1.88v4.2h-1.71v-7.5h1.65v.6c.62-.48,1.39-.75,2.16-.75,1.3,0,2.41.69,2.41,2.34v5.31h-1.71Z"/><path class="cls-3" d="m320.54,319.95c-.36.29-1,.63-1.92.63-2.19,0-3.33-1.65-3.33-3.54,0-2.02,1.32-3.81,3.24-3.81,1.11,0,1.74.42,2.07.69v-.54h1.59v7.35c0,1.92-1.14,3-3.33,3s-3.51-.93-3.51-2.55h1.71c.18.49.42,1.2,1.77,1.2,1.2,0,1.71-.6,1.71-1.5v-.93Zm-1.74-.72c1.09,0,1.8-.75,1.8-2.19,0-1.35-.67-2.16-1.8-2.16s-1.86.81-1.86,2.16c0,1.44.76,2.19,1.86,2.19Z"/><path class="cls-3" d="m327.14,315.78c0-3.22,2-5.25,4.53-5.25s4.56,2.03,4.56,5.25-2.03,5.25-4.56,5.25-4.53-2.03-4.53-5.25Zm7.21,0c0-2.17-1.11-3.46-2.68-3.46s-2.67,1.29-2.67,3.46,1.09,3.46,2.67,3.46,2.68-1.29,2.68-3.46Z"/><path class="cls-3" d="m339.81,310.68v2.7h1.05v1.65h-1.05v3.87c0,.45.3.57.6.57.27,0,.45-.06.56-.12v1.5c-.14.04-.5.18-1.19.18-1.14,0-1.62-.69-1.62-1.41v-4.59h-.9v-1.65h.9v-2.7h1.65Z"/><path class="cls-3" d="m346.77,320.88v-4.95c0-.84-.57-1.29-1.3-1.29-1.21,0-1.5,1.29-1.5,2.19v4.05h-1.65v-10.2h1.59v3.3c.27-.27.96-.75,2.16-.75,1.3,0,2.42.69,2.42,2.34v5.31h-1.71Z"/><path class="cls-3" d="m353.33,313.23c2.1,0,3.41,1.5,3.51,4.29h-5.32c.13,1.3.92,1.86,1.92,1.86,1.15,0,1.51-.72,1.67-1.05h1.65c-.09,1.02-1.05,2.7-3.3,2.7s-3.6-1.8-3.6-3.84,1.38-3.96,3.48-3.96Zm-1.69,2.79h3.43c-.11-.92-.72-1.44-1.68-1.44-.79,0-1.49.43-1.75,1.44Z"/><path class="cls-3" d="m361.67,314.85c-1.09,0-1.74.45-1.74,2.27v3.76h-1.71v-7.5h1.65v.84c.42-.51.93-.99,1.89-.99.45,0,.87.09,1.2.24l-.09,1.65c-.35-.15-.63-.27-1.2-.27Z"/><path class="cls-3" d="m366.48,314.5c-.87,0-1.17.39-1.17.78,0,1.26,4.44.33,4.44,3.24,0,1.41-1.02,2.5-3.09,2.5-2.68,0-3.21-1.65-3.21-2.55h1.71c.12.58.51,1.2,1.63,1.2.83,0,1.3-.32,1.3-.95,0-1.48-4.44-.38-4.44-3.22,0-1.17.78-2.28,2.97-2.28,2.37,0,3,1.56,3,2.31h-1.71c.03-.67-.54-1.03-1.44-1.03Z"/><path class="cls-3" d="m268.18,336.07l1.54-7.39h2.6l1.51,7.44,1.72-7.44h1.8l-2.47,10.2h-2.16l-1.74-8.04-1.71,8.04h-2.15l-2.5-10.2h1.88l1.68,7.39Z"/><path class="cls-3" d="m279.91,328.53v1.8h-1.71v-1.8h1.71Zm0,2.85v7.5h-1.71v-7.5h1.71Z"/><path class="cls-3" d="m283.66,328.68v2.7h1.05v1.65h-1.05v3.87c0,.45.3.57.6.57.27,0,.45-.06.55-.12v1.5c-.13.04-.5.18-1.18.18-1.14,0-1.62-.69-1.62-1.41v-4.59h-.9v-1.65h.9v-2.7h1.65Z"/><path class="cls-3" d="m290.62,338.88v-4.95c0-.84-.57-1.29-1.31-1.29-1.21,0-1.5,1.29-1.5,2.19v4.05h-1.65v-10.2h1.59v3.3c.27-.27.96-.75,2.16-.75,1.3,0,2.42.69,2.42,2.34v5.31h-1.71Z"/><path class="cls-3" d="m295.78,328.53v1.8h-1.71v-1.8h1.71Zm0,2.85v7.5h-1.71v-7.5h1.71Z"/><path class="cls-3" d="m302.1,338.88v-4.95c0-.71-.54-1.12-1.3-1.12-1.21,0-1.5,1.06-1.5,1.88v4.2h-1.71v-7.5h1.65v.6c.62-.48,1.39-.75,2.16-.75,1.3,0,2.41.69,2.41,2.34v5.31h-1.71Z"/><path class="cls-3" d="m309.24,328.68h4.23c2.22,0,3.27,1.1,3.27,2.91,0,1.15-.76,1.9-1.77,2.37.63.3.9.87,1,1.47l.22,1.28c.15.85.62,1.69,1.33,2.17h-2.35c-.54-.24-.74-.88-.87-1.83l-.17-1.15c-.12-.81-.45-1.39-1.35-1.39h-1.77v4.38h-1.78v-10.2Zm1.78,1.7v2.43h2.4c1.02,0,1.46-.44,1.46-1.21s-.53-1.21-1.41-1.21h-2.45Z"/><path class="cls-3" d="m321.51,331.23c2.25,0,3.6,1.93,3.6,3.96,0,1.89-1.2,3.84-3.6,3.84s-3.6-1.95-3.6-3.84c0-2.03,1.35-3.96,3.6-3.96Zm0,1.65c-1.19,0-1.95.9-1.95,2.25,0,1.44.79,2.25,1.95,2.25s1.95-.81,1.95-2.25c0-1.35-.77-2.25-1.95-2.25Z"/><path class="cls-3" d="m331,338.88v-4.95c0-.71-.51-1.12-1.25-1.12-1.21,0-1.44,1.21-1.44,2.03v4.05h-1.71v-7.5h1.65v.6c.27-.21.9-.75,2.1-.75.87,0,1.62.3,2.03.99.33-.33,1.06-.99,2.37-.99s2.36.69,2.36,2.34v5.31h-1.71v-4.95c0-.71-.51-1.12-1.25-1.12-1.21,0-1.44,1.21-1.44,2.03v4.05h-1.71Z"/><path class="cls-3" d="m345.79,337.32c.2,0,.39-.03.67-.09v1.65c-.52.08-.79.09-1.06.09-.92,0-1.35-.19-1.7-.78-.27.21-1.02.84-2.34.84-1.68,0-2.94-1.17-2.94-2.49,0-1.71,1.44-2.4,3.51-2.4h1.44v-.36c0-.81-.63-1.35-1.53-1.35s-1.41.46-1.41,1.35h-1.83c0-1.62,1.44-2.55,3.29-2.55,1.69,0,3.13.76,3.13,2.39v3.06c0,.45.3.65.76.65Zm-4.18.51c1.23,0,1.77-1.05,1.77-1.65v-.75c-2.61-.12-3.09.48-3.09,1.29,0,.6.51,1.11,1.32,1.11Z"/><path class="cls-3" d="m351.73,338.88v-4.95c0-.71-.54-1.12-1.3-1.12-1.21,0-1.5,1.06-1.5,1.88v4.2h-1.71v-7.5h1.65v.6c.62-.48,1.4-.75,2.16-.75,1.3,0,2.42.69,2.42,2.34v5.31h-1.71Z"/><path class="cls-3" d="m357.13,328.68v2.7h1.05v1.65h-1.05v3.87c0,.45.3.57.6.57.27,0,.45-.06.55-.12v1.5c-.13.04-.5.18-1.18.18-1.14,0-1.62-.69-1.62-1.41v-4.59h-.9v-1.65h.9v-2.7h1.65Z"/><path class="cls-3" d="m361.35,328.53v1.8h-1.71v-1.8h1.71Zm0,2.85v7.5h-1.71v-7.5h1.71Z"/><path class="cls-3" d="m366.36,331.23c2.61,0,3.21,2.28,3.42,3.3h-1.74c-.15-.93-.62-1.65-1.74-1.65-.97,0-1.8.75-1.8,2.25,0,1.59.92,2.25,1.92,2.25,1.14,0,1.5-.81,1.77-1.5h1.56c0,1.26-1.11,3.15-3.48,3.15-2.07,0-3.42-1.8-3.42-3.84,0-2.32,1.47-3.96,3.51-3.96Z"/><path class="cls-3" d="m274.89,346.68h4.23c2.22,0,3.27,1.1,3.27,2.91,0,1.15-.76,1.9-1.77,2.37.63.3.9.87,1,1.47l.22,1.28c.15.85.62,1.69,1.33,2.17h-2.35c-.54-.24-.74-.88-.87-1.83l-.17-1.15c-.12-.81-.45-1.39-1.35-1.39h-1.77v4.38h-1.78v-10.2Zm1.78,1.7v2.43h2.4c1.02,0,1.46-.44,1.46-1.21s-.53-1.21-1.41-1.21h-2.45Z"/><path class="cls-3" d="m286.96,349.23c2.1,0,3.41,1.5,3.51,4.29h-5.32c.13,1.3.92,1.86,1.92,1.86,1.15,0,1.51-.72,1.67-1.05h1.65c-.09,1.02-1.05,2.7-3.3,2.7s-3.6-1.8-3.6-3.84,1.38-3.96,3.48-3.96Zm-1.69,2.79h3.43c-.11-.92-.72-1.44-1.68-1.44-.79,0-1.49.43-1.75,1.44Z"/><path class="cls-3" d="m293.56,346.68v10.2h-1.71v-10.2h1.71Z"/><path class="cls-3" d="m302.31,355.32c.19,0,.39-.03.67-.09v1.65c-.53.08-.79.09-1.07.09-.92,0-1.35-.19-1.69-.78-.27.21-1.02.84-2.34.84-1.68,0-2.94-1.17-2.94-2.49,0-1.71,1.44-2.4,3.51-2.4h1.44v-.36c0-.81-.63-1.35-1.53-1.35s-1.41.46-1.41,1.35h-1.83c0-1.62,1.44-2.55,3.28-2.55,1.7,0,3.13.76,3.13,2.39v3.06c0,.45.3.65.77.65Zm-4.19.51c1.23,0,1.77-1.05,1.77-1.65v-.75c-2.61-.12-3.09.48-3.09,1.29,0,.6.51,1.11,1.32,1.11Z"/><path class="cls-3" d="m305.53,346.68v2.7h1.05v1.65h-1.05v3.87c0,.45.3.57.6.57.27,0,.45-.06.55-.12v1.5c-.13.04-.5.18-1.18.18-1.14,0-1.62-.69-1.62-1.41v-4.59h-.9v-1.65h.9v-2.7h1.65Z"/><path class="cls-3" d="m309.75,346.53v1.8h-1.71v-1.8h1.71Zm0,2.85v7.5h-1.71v-7.5h1.71Z"/><path class="cls-3" d="m314.85,349.23c2.25,0,3.6,1.93,3.6,3.96,0,1.89-1.2,3.84-3.6,3.84s-3.6-1.95-3.6-3.84c0-2.03,1.35-3.96,3.6-3.96Zm0,1.65c-1.19,0-1.95.9-1.95,2.25,0,1.44.79,2.25,1.95,2.25s1.95-.81,1.95-2.25c0-1.35-.77-2.25-1.95-2.25Z"/><path class="cls-3" d="m324.46,356.88v-4.95c0-.71-.54-1.12-1.3-1.12-1.21,0-1.5,1.06-1.5,1.88v4.2h-1.71v-7.5h1.65v.6c.62-.48,1.39-.75,2.16-.75,1.3,0,2.41.69,2.41,2.34v5.31h-1.71Z"/><path class="cls-3" d="m330.49,350.5c-.87,0-1.17.39-1.17.78,0,1.26,4.44.33,4.44,3.24,0,1.41-1.02,2.5-3.09,2.5-2.68,0-3.21-1.65-3.21-2.55h1.71c.12.58.51,1.2,1.64,1.2.82,0,1.3-.32,1.3-.95,0-1.48-4.44-.38-4.44-3.22,0-1.17.78-2.28,2.97-2.28,2.37,0,3,1.56,3,2.31h-1.71c.03-.67-.54-1.03-1.44-1.03Z"/><path class="cls-3" d="m339.57,356.88v-4.95c0-.84-.57-1.29-1.31-1.29-1.21,0-1.5,1.29-1.5,2.19v4.05h-1.65v-10.2h1.59v3.3c.27-.27.96-.75,2.16-.75,1.3,0,2.42.69,2.42,2.34v5.31h-1.71Z"/><path class="cls-3" d="m344.73,346.53v1.8h-1.71v-1.8h1.71Zm0,2.85v7.5h-1.71v-7.5h1.71Z"/><path class="cls-3" d="m348.12,349.38v.66c.33-.24.99-.81,2.07-.81,2.19,0,3.42,1.92,3.42,3.84,0,2.16-1.17,3.96-3.36,3.96-1.08,0-1.71-.45-2.07-.69v3.24h-1.65v-10.2h1.59Zm1.89,1.5c-1.12,0-1.89.75-1.89,2.25s.79,2.25,1.89,2.25,1.95-.66,1.95-2.25c0-1.5-.82-2.25-1.95-2.25Z"/><path class="cls-3" d="m357.69,350.5c-.87,0-1.17.39-1.17.78,0,1.26,4.44.33,4.44,3.24,0,1.41-1.02,2.5-3.09,2.5-2.68,0-3.21-1.65-3.21-2.55h1.71c.12.58.51,1.2,1.64,1.2.82,0,1.3-.32,1.3-.95,0-1.48-4.44-.38-4.44-3.22,0-1.17.78-2.28,2.97-2.28,2.37,0,3,1.56,3,2.31h-1.71c.03-.67-.54-1.03-1.44-1.03Z"/><path class="cls-3" d="m289.89,371.13c-.01-2.14.51-3.85,1.68-6.22h1.5c-1.09,2.25-1.67,4.29-1.67,6.24s.71,4.51,1.67,6.21h-1.5c-1-1.77-1.66-4.08-1.68-6.23Z"/><path class="cls-3" d="m296.94,372.07l1.54-7.39h2.59l1.51,7.44,1.73-7.44h1.8l-2.47,10.2h-2.16l-1.74-8.04-1.71,8.04h-2.14l-2.5-10.2h1.88l1.68,7.39Z"/><path class="cls-3" d="m313.61,373.32c.19,0,.39-.03.67-.09v1.65c-.53.08-.79.09-1.07.09-.92,0-1.35-.19-1.69-.78-.27.21-1.02.84-2.34.84-1.68,0-2.94-1.17-2.94-2.49,0-1.71,1.44-2.4,3.51-2.4h1.44v-.36c0-.81-.63-1.35-1.53-1.35s-1.41.46-1.41,1.35h-1.83c0-1.62,1.44-2.55,3.28-2.55,1.7,0,3.13.76,3.13,2.39v3.06c0,.45.3.65.77.65Zm-4.19.51c1.23,0,1.77-1.05,1.77-1.65v-.75c-2.61-.12-3.09.48-3.09,1.29,0,.6.51,1.11,1.32,1.11Z"/><path class="cls-3" d="m315.45,367.38l1.79,4.87,1.79-4.87h1.77l-2.79,7.5h-1.53l-2.79-7.5h1.77Z"/><path class="cls-3" d="m324.57,367.23c2.1,0,3.41,1.5,3.51,4.29h-5.32c.13,1.3.92,1.86,1.92,1.86,1.15,0,1.51-.72,1.67-1.05h1.65c-.09,1.02-1.05,2.7-3.3,2.7s-3.6-1.8-3.6-3.84,1.38-3.96,3.48-3.96Zm-1.69,2.79h3.43c-.11-.92-.72-1.44-1.68-1.44-.79,0-1.49.43-1.75,1.44Z"/><path class="cls-3" d="m333.14,373.38l3.39-3.01c1.14-1.01,1.84-1.64,1.84-2.62,0-.81-.56-1.56-1.71-1.56s-1.77.79-1.79,2.27h-1.8c-.15-2.48,1.48-3.92,3.72-3.92s3.41,1.43,3.41,3c0,1.68-.95,2.8-2.19,3.81l-2.16,1.74h4.4v1.8h-7.11v-1.5Z"/><path class="cls-3" d="m345.11,371.13c.02,2.15-.51,3.86-1.68,6.23h-1.5c1.09-2.25,1.67-4.29,1.67-6.24s-.71-4.52-1.67-6.21h1.5c1,1.77,1.67,4.08,1.68,6.22Z"/><path class="cls-3" d="m43.41,4.5c-.12-1.18-.4-2.7-2.58-2.7-1.6,0-2.36.8-2.36,1.88,0,3.28,7.58-.02,7.58,5.92,0,2.76-2.14,4.4-5.22,4.4-3.84,0-5.46-2.38-5.14-4.66h2.52c.1,1.54.3,2.86,2.7,2.86,1.96,0,2.64-.96,2.64-2,0-3.46-7.6-.26-7.6-6.2C35.95,1.72,37.85,0,40.77,0c3.7,0,5.24,1.92,5.04,4.5h-2.4Z"/><path class="cls-3" d="m50.21,0v2.4h-2.28V0h2.28Zm0,3.8v10h-2.28V3.8h2.28Z"/><path class="cls-3" d="m59.21,12.56c-.48.38-1.34.84-2.56.84-2.92,0-4.44-2.2-4.44-4.72,0-2.7,1.76-5.08,4.32-5.08,1.48,0,2.32.56,2.76.92v-.72h2.12v9.8c0,2.56-1.52,4-4.44,4s-4.68-1.24-4.68-3.4h2.28c.24.66.56,1.6,2.36,1.6,1.6,0,2.28-.8,2.28-2v-1.24Zm-2.32-.96c1.46,0,2.4-1,2.4-2.92,0-1.8-.9-2.88-2.4-2.88s-2.48,1.08-2.48,2.88c0,1.92,1.02,2.92,2.48,2.92Z"/><path class="cls-3" d="m69.83,13.8v-6.6c0-.94-.72-1.5-1.74-1.5-1.62,0-2,1.42-2,2.5v5.6h-2.28V3.8h2.2v.8c.82-.64,1.86-1,2.88-1,1.74,0,3.22.92,3.22,3.12v7.08h-2.28Z"/><path class="cls-3" d="m76.71,0v2.4h-2.28V0h2.28Zm0,3.8v10h-2.28V3.8h2.28Z"/><path class="cls-3" d="m79.51,6h-1.2v-2.2h1.2v-1.64c0-.96.64-2.16,2.16-2.16.92,0,1.4.1,1.58.12v2.2c-.14,0-.38-.04-.74-.04-.4,0-.8.16-.8.76v.76h1.4v2.2h-1.4v7.8h-2.2v-7.8ZM86.59,0v2.4h-2.28V0h2.28Zm0,3.8v10h-2.28V3.8h2.28Z"/><path class="cls-3" d="m93.27,3.6c3.48,0,4.28,3.04,4.56,4.4h-2.32c-.2-1.24-.82-2.2-2.32-2.2-1.3,0-2.4,1-2.4,3,0,2.12,1.22,3,2.56,3,1.52,0,2-1.08,2.36-2h2.08c0,1.68-1.48,4.2-4.64,4.2-2.76,0-4.56-2.4-4.56-5.12,0-3.1,1.96-5.28,4.68-5.28Z"/><path class="cls-3" d="m109.01,11.72c.26,0,.52-.04.9-.12v2.2c-.7.1-1.06.12-1.42.12-1.22,0-1.8-.26-2.26-1.04-.36.28-1.36,1.12-3.12,1.12-2.24,0-3.92-1.56-3.92-3.32,0-2.28,1.92-3.2,4.68-3.2h1.92v-.48c0-1.08-.84-1.8-2.04-1.8s-1.88.62-1.88,1.8h-2.44c0-2.16,1.92-3.4,4.38-3.4,2.26,0,4.18,1.02,4.18,3.18v4.08c0,.6.4.86,1.02.86Zm-5.58.68c1.64,0,2.36-1.4,2.36-2.2v-1c-3.48-.16-4.12.64-4.12,1.72,0,.8.68,1.48,1.76,1.48Z"/><path class="cls-3" d="m116.93,13.8v-6.6c0-.94-.72-1.5-1.74-1.5-1.62,0-2,1.42-2,2.5v5.6h-2.28V3.8h2.2v.8c.82-.64,1.86-1,2.88-1,1.74,0,3.22.92,3.22,3.12v7.08h-2.28Z"/><path class="cls-3" d="m124.13.2v3.6h1.4v2.2h-1.4v5.16c0,.6.4.76.8.76.36,0,.6-.08.74-.16v2c-.18.06-.66.24-1.58.24-1.52,0-2.16-.92-2.16-1.88v-6.12h-1.2v-2.2h1.2V.2h2.2Z"/><path class="cls-3" d="m136.15,3.6c3.48,0,4.28,3.04,4.56,4.4h-2.32c-.2-1.24-.82-2.2-2.32-2.2-1.3,0-2.4,1-2.4,3,0,2.12,1.22,3,2.56,3,1.52,0,2-1.08,2.36-2h2.08c0,1.68-1.48,4.2-4.64,4.2-2.76,0-4.56-2.4-4.56-5.12,0-3.1,1.96-5.28,4.68-5.28Z"/><path class="cls-3" d="m147.03,3.6c3,0,4.8,2.58,4.8,5.28,0,2.52-1.6,5.12-4.8,5.12s-4.8-2.6-4.8-5.12c0-2.7,1.8-5.28,4.8-5.28Zm0,2.2c-1.58,0-2.6,1.2-2.6,3,0,1.92,1.06,3,2.6,3s2.6-1.08,2.6-3c0-1.8-1.02-3-2.6-3Z"/><path class="cls-3" d="m158.43,5.76c-1.46,0-2.32.6-2.32,3.02v5.02h-2.28V3.8h2.2v1.12c.56-.68,1.24-1.32,2.52-1.32.6,0,1.16.12,1.6.32l-.12,2.2c-.46-.2-.84-.36-1.6-.36Z"/><path class="cls-3" d="m166.01,5.76c-1.46,0-2.32.6-2.32,3.02v5.02h-2.28V3.8h2.2v1.12c.56-.68,1.24-1.32,2.52-1.32.6,0,1.16.12,1.6.32l-.12,2.2c-.46-.2-.84-.36-1.6-.36Z"/><path class="cls-3" d="m172.73,3.6c2.8,0,4.54,2,4.68,5.72h-7.1c.18,1.74,1.22,2.48,2.56,2.48,1.54,0,2.02-.96,2.22-1.4h2.2c-.12,1.36-1.4,3.6-4.4,3.6s-4.8-2.4-4.8-5.12,1.84-5.28,4.64-5.28Zm-2.26,3.72h4.58c-.14-1.22-.96-1.92-2.24-1.92-1.06,0-1.98.58-2.34,1.92Z"/><path class="cls-3" d="m181.53.2v13.6h-2.28V.2h2.28Z"/><path class="cls-3" d="m193.19,11.72c.26,0,.52-.04.9-.12v2.2c-.7.1-1.06.12-1.42.12-1.22,0-1.8-.26-2.26-1.04-.36.28-1.36,1.12-3.12,1.12-2.24,0-3.92-1.56-3.92-3.32,0-2.28,1.92-3.2,4.68-3.2h1.92v-.48c0-1.08-.84-1.8-2.04-1.8s-1.88.62-1.88,1.8h-2.44c0-2.16,1.92-3.4,4.38-3.4,2.26,0,4.18,1.02,4.18,3.18v4.08c0,.6.4.86,1.02.86Zm-5.58.68c1.64,0,2.36-1.4,2.36-2.2v-1c-3.48-.16-4.12.64-4.12,1.72,0,.8.68,1.48,1.76,1.48Z"/><path class="cls-3" d="m197.49.2v3.6h1.4v2.2h-1.4v5.16c0,.6.4.76.8.76.36,0,.6-.08.74-.16v2c-.18.06-.66.24-1.58.24-1.52,0-2.16-.92-2.16-1.88v-6.12h-1.2v-2.2h1.2V.2h2.2Z"/><path class="cls-3" d="m203.11,0v2.4h-2.28V0h2.28Zm0,3.8v10h-2.28V3.8h2.28Z"/><path class="cls-3" d="m209.91,3.6c3,0,4.8,2.58,4.8,5.28,0,2.52-1.6,5.12-4.8,5.12s-4.8-2.6-4.8-5.12c0-2.7,1.8-5.28,4.8-5.28Zm0,2.2c-1.58,0-2.6,1.2-2.6,3,0,1.92,1.06,3,2.6,3s2.6-1.08,2.6-3c0-1.8-1.02-3-2.6-3Z"/><path class="cls-3" d="m222.73,13.8v-6.6c0-.94-.72-1.5-1.74-1.5-1.62,0-2,1.42-2,2.5v5.6h-2.28V3.8h2.2v.8c.82-.64,1.86-1,2.88-1,1.74,0,3.22.92,3.22,3.12v7.08h-2.28Z"/><path class="cls-3" d="m230.77,5.3c-1.16,0-1.56.52-1.56,1.04,0,1.68,5.92.44,5.92,4.32,0,1.88-1.36,3.34-4.12,3.34-3.58,0-4.28-2.2-4.28-3.4h2.28c.16.78.68,1.6,2.18,1.6,1.1,0,1.74-.42,1.74-1.26,0-1.98-5.92-.5-5.92-4.3,0-1.56,1.04-3.04,3.96-3.04,3.16,0,4,2.08,4,3.08h-2.28c.04-.9-.72-1.38-1.92-1.38Z"/><path class="cls-3" d="m243.61,0v2.4h-2.28V0h2.28Zm0,3.8v10h-2.28V3.8h2.28Z"/><path class="cls-3" d="m252.03,13.8v-6.6c0-.94-.72-1.5-1.74-1.5-1.62,0-2,1.42-2,2.5v5.6h-2.28V3.8h2.2v.8c.82-.64,1.86-1,2.88-1,1.74,0,3.22.92,3.22,3.12v7.08h-2.28Z"/><path class="cls-3" d="m267.63,12.56c-.48.38-1.34.84-2.56.84-2.92,0-4.44-2.2-4.44-4.72,0-2.7,1.76-5.08,4.32-5.08,1.48,0,2.32.56,2.76.92v-.72h2.12v9.8c0,2.56-1.52,4-4.44,4s-4.68-1.24-4.68-3.4h2.28c.24.66.56,1.6,2.36,1.6,1.6,0,2.28-.8,2.28-2v-1.24Zm-2.32-.96c1.46,0,2.4-1,2.4-2.92,0-1.8-.9-2.88-2.4-2.88s-2.48,1.08-2.48,2.88c0,1.92,1.02,2.92,2.48,2.92Z"/><path class="cls-3" d="m278.17,13.8v-6.6c0-1.12-.76-1.72-1.74-1.72-1.62,0-2,1.72-2,2.92v5.4h-2.2V.2h2.12v4.4c.36-.36,1.28-1,2.88-1,1.74,0,3.22.92,3.22,3.12v7.08h-2.28Z"/><path class="cls-3" d="m287.17,3.6c3,0,4.8,2.58,4.8,5.28,0,2.52-1.6,5.12-4.8,5.12s-4.8-2.6-4.8-5.12c0-2.7,1.8-5.28,4.8-5.28Zm0,2.2c-1.58,0-2.6,1.2-2.6,3,0,1.92,1.06,3,2.6,3s2.6-1.08,2.6-3c0-1.8-1.02-3-2.6-3Z"/><path class="cls-3" d="m297.41,5.3c-1.16,0-1.56.52-1.56,1.04,0,1.68,5.92.44,5.92,4.32,0,1.88-1.36,3.34-4.12,3.34-3.58,0-4.28-2.2-4.28-3.4h2.28c.16.78.68,1.6,2.18,1.6,1.1,0,1.74-.42,1.74-1.26,0-1.98-5.92-.5-5.92-4.3,0-1.56,1.04-3.04,3.96-3.04,3.16,0,4,2.08,4,3.08h-2.28c.04-.9-.72-1.38-1.92-1.38Z"/><path class="cls-3" d="m306.17.2v3.6h1.4v2.2h-1.4v5.16c0,.6.4.76.8.76.36,0,.6-.08.74-.16v2c-.18.06-.66.24-1.58.24-1.52,0-2.16-.92-2.16-1.88v-6.12h-1.2v-2.2h1.2V.2h2.2Z"/><path class="cls-3" d="m311.79,0v2.4h-2.28V0h2.28Zm0,3.8v10h-2.28V3.8h2.28Z"/><path class="cls-3" d="m320.21,13.8v-6.6c0-.94-.72-1.5-1.74-1.5-1.62,0-2,1.42-2,2.5v5.6h-2.28V3.8h2.2v.8c.82-.64,1.86-1,2.88-1,1.74,0,3.22.92,3.22,3.12v7.08h-2.28Z"/><path class="cls-3" d="m331.41,12.56c-.48.38-1.34.84-2.56.84-2.92,0-4.44-2.2-4.44-4.72,0-2.7,1.76-5.08,4.32-5.08,1.48,0,2.32.56,2.76.92v-.72h2.12v9.8c0,2.56-1.52,4-4.44,4s-4.68-1.24-4.68-3.4h2.28c.24.66.56,1.6,2.36,1.6,1.6,0,2.28-.8,2.28-2v-1.24Zm-2.32-.96c1.46,0,2.4-1,2.4-2.92,0-1.8-.9-2.88-2.4-2.88s-2.48,1.08-2.48,2.88c0,1.92,1.02,2.92,2.48,2.92Z"/><path class="cls-3" d="m67.89,24.2h2.2v4.32c.48-.32,1.32-.92,2.76-.92,2.92,0,4.48,2.4,4.48,5.28,0,2.56-1.64,5.12-4.56,5.12-1.44,0-2.32-.76-2.76-1.08v.88h-2.12v-13.6Zm4.64,5.6c-1.46,0-2.52,1-2.52,3s1.02,3,2.52,3,2.6-1,2.6-3c0-2.12-1.14-3-2.6-3Z"/><path class="cls-3" d="m83.47,27.6c2.8,0,4.54,2,4.68,5.72h-7.1c.18,1.74,1.22,2.48,2.56,2.48,1.54,0,2.02-.96,2.22-1.4h2.2c-.12,1.36-1.4,3.6-4.4,3.6s-4.8-2.4-4.8-5.12,1.84-5.28,4.64-5.28Zm-2.26,3.72h4.58c-.14-1.22-.96-1.92-2.24-1.92-1.06,0-1.98.58-2.34,1.92Z"/><path class="cls-3" d="m92.59,24.2v3.6h1.4v2.2h-1.4v5.16c0,.6.4.76.8.76.36,0,.6-.08.74-.16v2c-.18.06-.66.24-1.58.24-1.52,0-2.16-.92-2.16-1.88v-6.12h-1.2v-2.2h1.2v-3.6h2.2Z"/><path class="cls-3" d="m97.05,27.8l2.14,6.76,2.14-6.76h2.2l2.18,6.88,2.18-6.88h2.32l-3.36,10h-2.28l-2.12-6.56-2.08,6.56h-2.28l-3.36-10h2.32Z"/><path class="cls-3" d="m115.25,27.6c2.8,0,4.54,2,4.68,5.72h-7.1c.18,1.74,1.22,2.48,2.56,2.48,1.54,0,2.02-.96,2.22-1.4h2.2c-.12,1.36-1.4,3.6-4.4,3.6s-4.8-2.4-4.8-5.12,1.84-5.28,4.64-5.28Zm-2.26,3.72h4.58c-.14-1.22-.96-1.92-2.24-1.92-1.06,0-1.98.58-2.34,1.92Z"/><path class="cls-3" d="m125.91,27.6c2.8,0,4.54,2,4.68,5.72h-7.1c.18,1.74,1.22,2.48,2.56,2.48,1.54,0,2.02-.96,2.22-1.4h2.2c-.12,1.36-1.4,3.6-4.4,3.6s-4.8-2.4-4.8-5.12,1.84-5.28,4.64-5.28Zm-2.26,3.72h4.58c-.14-1.22-.96-1.92-2.24-1.92-1.06,0-1.98.58-2.34,1.92Z"/><path class="cls-3" d="m138.45,37.8v-6.6c0-.94-.72-1.5-1.74-1.5-1.62,0-2,1.42-2,2.5v5.6h-2.28v-10h2.2v.8c.82-.64,1.86-1,2.88-1,1.74,0,3.22.92,3.22,3.12v7.08h-2.28Z"/><path class="cls-3" d="m152.05,29.76c-1.46,0-2.32.6-2.32,3.02v5.02h-2.28v-10h2.2v1.12c.56-.68,1.24-1.32,2.52-1.32.6,0,1.16.12,1.6.32l-.12,2.2c-.46-.2-.84-.36-1.6-.36Z"/><path class="cls-3" d="m159.03,27.6c3,0,4.8,2.58,4.8,5.28,0,2.52-1.6,5.12-4.8,5.12s-4.8-2.6-4.8-5.12c0-2.7,1.8-5.28,4.8-5.28Zm0,2.2c-1.58,0-2.6,1.2-2.6,3,0,1.92,1.06,3,2.6,3s2.6-1.08,2.6-3c0-1.8-1.02-3-2.6-3Z"/><path class="cls-3" d="m171.69,37.8v-6.6c0-.94-.68-1.5-1.66-1.5-1.62,0-1.92,1.62-1.92,2.7v5.4h-2.28v-10h2.2v.8c.36-.28,1.2-1,2.8-1,1.16,0,2.16.4,2.7,1.32.44-.44,1.42-1.32,3.16-1.32s3.14.92,3.14,3.12v7.08h-2.28v-6.6c0-.94-.68-1.5-1.66-1.5-1.62,0-1.92,1.62-1.92,2.7v5.4h-2.28Z"/><path class="cls-3" d="m191.41,35.72c.26,0,.52-.04.9-.12v2.2c-.7.1-1.06.12-1.42.12-1.22,0-1.8-.26-2.26-1.04-.36.28-1.36,1.12-3.12,1.12-2.24,0-3.92-1.56-3.92-3.32,0-2.28,1.92-3.2,4.68-3.2h1.92v-.48c0-1.08-.84-1.8-2.04-1.8s-1.88.62-1.88,1.8h-2.44c0-2.16,1.92-3.4,4.38-3.4,2.26,0,4.18,1.02,4.18,3.18v4.08c0,.6.4.86,1.02.86Zm-5.58.68c1.64,0,2.36-1.4,2.36-2.2v-1c-3.48-.16-4.12.64-4.12,1.72,0,.8.68,1.48,1.76,1.48Z"/><path class="cls-3" d="m199.33,37.8v-6.6c0-.94-.72-1.5-1.74-1.5-1.62,0-2,1.42-2,2.5v5.6h-2.28v-10h2.2v.8c.82-.64,1.86-1,2.88-1,1.74,0,3.22.92,3.22,3.12v7.08h-2.28Z"/><path class="cls-3" d="m206.53,24.2v3.6h1.4v2.2h-1.4v5.16c0,.6.4.76.8.76.36,0,.6-.08.74-.16v2c-.18.06-.66.24-1.58.24-1.52,0-2.16-.92-2.16-1.88v-6.12h-1.2v-2.2h1.2v-3.6h2.2Z"/><path class="cls-3" d="m212.15,24v2.4h-2.28v-2.4h2.28Zm0,3.8v10h-2.28v-10h2.28Z"/><path class="cls-3" d="m218.83,27.6c3.48,0,4.28,3.04,4.56,4.4h-2.32c-.2-1.24-.82-2.2-2.32-2.2-1.3,0-2.4,1-2.4,3,0,2.12,1.22,3,2.56,3,1.52,0,2-1.08,2.36-2h2.08c0,1.68-1.48,4.2-4.64,4.2-2.76,0-4.56-2.4-4.56-5.12,0-3.1,1.96-5.28,4.68-5.28Z"/><path class="cls-3" d="m231.83,27.8v.88c.44-.32,1.32-1.08,2.76-1.08,2.92,0,4.56,2.56,4.56,5.12,0,2.88-1.56,5.28-4.48,5.28-1.44,0-2.28-.6-2.76-.92v4.32h-2.2v-13.6h2.12Zm2.52,2c-1.5,0-2.52,1-2.52,3s1.06,3,2.52,3,2.6-.88,2.6-3c0-2-1.1-3-2.6-3Z"/><path class="cls-3" d="m250.41,35.72c.26,0,.52-.04.9-.12v2.2c-.7.1-1.06.12-1.42.12-1.22,0-1.8-.26-2.26-1.04-.36.28-1.36,1.12-3.12,1.12-2.24,0-3.92-1.56-3.92-3.32,0-2.28,1.92-3.2,4.68-3.2h1.92v-.48c0-1.08-.84-1.8-2.04-1.8s-1.88.62-1.88,1.8h-2.44c0-2.16,1.92-3.4,4.38-3.4,2.26,0,4.18,1.02,4.18,3.18v4.08c0,.6.4.86,1.02.86Zm-5.58.68c1.64,0,2.36-1.4,2.36-2.2v-1c-3.48-.16-4.12.64-4.12,1.72,0,.8.68,1.48,1.76,1.48Z"/><path class="cls-3" d="m256.91,29.76c-1.46,0-2.32.6-2.32,3.02v5.02h-2.28v-10h2.2v1.12c.56-.68,1.24-1.32,2.52-1.32.6,0,1.16.12,1.6.32l-.12,2.2c-.46-.2-.84-.36-1.6-.36Z"/><path class="cls-3" d="m262.49,24.2v3.6h1.4v2.2h-1.4v5.16c0,.6.4.76.8.76.36,0,.6-.08.74-.16v2c-.18.06-.66.24-1.58.24-1.52,0-2.16-.92-2.16-1.88v-6.12h-1.2v-2.2h1.2v-3.6h2.2Z"/><path class="cls-3" d="m271.85,37.8v-6.6c0-.94-.72-1.5-1.74-1.5-1.62,0-2,1.42-2,2.5v5.6h-2.28v-10h2.2v.8c.82-.64,1.86-1,2.88-1,1.74,0,3.22.92,3.22,3.12v7.08h-2.28Z"/><path class="cls-3" d="m280.59,27.6c2.8,0,4.54,2,4.68,5.72h-7.1c.18,1.74,1.22,2.48,2.56,2.48,1.54,0,2.02-.96,2.22-1.4h2.2c-.12,1.36-1.4,3.6-4.4,3.6s-4.8-2.4-4.8-5.12,1.84-5.28,4.64-5.28Zm-2.26,3.72h4.58c-.14-1.22-.96-1.92-2.24-1.92-1.06,0-1.98.58-2.34,1.92Z"/><path class="cls-3" d="m291.71,29.76c-1.46,0-2.32.6-2.32,3.02v5.02h-2.28v-10h2.2v1.12c.56-.68,1.24-1.32,2.52-1.32.6,0,1.16.12,1.6.32l-.12,2.2c-.46-.2-.84-.36-1.6-.36Z"/><path class="cls-3" d="m298.13,29.3c-1.16,0-1.56.52-1.56,1.04,0,1.68,5.92.44,5.92,4.32,0,1.88-1.36,3.34-4.12,3.34-3.58,0-4.28-2.2-4.28-3.4h2.28c.16.78.68,1.6,2.18,1.6,1.1,0,1.74-.42,1.74-1.26,0-1.98-5.92-.5-5.92-4.3,0-1.56,1.04-3.04,3.96-3.04,3.16,0,4,2.08,4,3.08h-2.28c.04-.9-.72-1.38-1.92-1.38Z"/><rect class="cls-2" x="517.5" y="69.63" width="133.33" height="100"/><rect class="cls-1" x="517.5" y="181.63" width="133.33" height="100"/><path class="cls-3" d="m418.17,108.76c-.09-.89-.3-2.02-1.93-2.02-1.2,0-1.77.6-1.77,1.41,0,2.46,5.68-.01,5.68,4.44,0,2.07-1.6,3.3-3.91,3.3-2.88,0-4.1-1.78-3.86-3.49h1.89c.08,1.15.23,2.15,2.03,2.15,1.47,0,1.98-.72,1.98-1.5,0-2.6-5.7-.2-5.7-4.65,0-1.71,1.42-3,3.61-3,2.78,0,3.93,1.44,3.78,3.38h-1.8Z"/><path class="cls-3" d="m424.66,108.08c2.1,0,3.4,1.5,3.51,4.29h-5.33c.13,1.31.92,1.86,1.92,1.86,1.16,0,1.52-.72,1.67-1.05h1.65c-.09,1.02-1.05,2.7-3.3,2.7s-3.6-1.8-3.6-3.84,1.38-3.96,3.48-3.96Zm-1.7,2.79h3.43c-.1-.92-.72-1.44-1.68-1.44-.79,0-1.48.44-1.75,1.44Z"/><path class="cls-3" d="m431.26,105.53v10.2h-1.71v-10.2h1.71Z"/><path class="cls-3" d="m433.36,109.88h-.9v-1.65h.9v-1.23c0-.72.48-1.62,1.62-1.62.69,0,1.05.08,1.18.09v1.65c-.1,0-.29-.03-.55-.03-.3,0-.6.12-.6.57v.57h1.05v1.65h-1.05v5.85h-1.65v-5.85Z"/><path class="cls-3" d="m436.64,111.31h4.6v1.35h-4.6v-1.35Z"/><path class="cls-3" d="m442.87,105.53h6.24v1.69h-4.46v2.08h4.21v1.7h-4.21v3.03h4.46v1.69h-6.24v-10.2Z"/><path class="cls-3" d="m453.43,109.36c-.87,0-1.17.39-1.17.78,0,1.26,4.44.33,4.44,3.24,0,1.41-1.02,2.5-3.09,2.5-2.68,0-3.21-1.65-3.21-2.55h1.71c.12.58.51,1.2,1.63,1.2.83,0,1.3-.32,1.3-.95,0-1.48-4.44-.38-4.44-3.22,0-1.17.78-2.28,2.97-2.28,2.37,0,3,1.56,3,2.31h-1.71c.03-.67-.54-1.03-1.44-1.03Z"/><path class="cls-3" d="m460,105.53v2.7h1.05v1.65h-1.05v3.87c0,.45.3.57.6.57.27,0,.45-.06.56-.12v1.5c-.14.04-.5.18-1.19.18-1.14,0-1.62-.69-1.62-1.41v-4.59h-.9v-1.65h.9v-2.7h1.65Z"/><path class="cls-3" d="m465.61,108.08c2.1,0,3.4,1.5,3.51,4.29h-5.33c.13,1.31.92,1.86,1.92,1.86,1.16,0,1.52-.72,1.67-1.05h1.65c-.09,1.02-1.05,2.7-3.3,2.7s-3.6-1.8-3.6-3.84,1.38-3.96,3.48-3.96Zm-1.7,2.79h3.43c-.1-.92-.72-1.44-1.68-1.44-.79,0-1.48.44-1.75,1.44Z"/><path class="cls-3" d="m473.6,108.08c2.1,0,3.41,1.5,3.51,4.29h-5.32c.13,1.31.92,1.86,1.92,1.86,1.15,0,1.51-.72,1.67-1.05h1.65c-.09,1.02-1.05,2.7-3.3,2.7s-3.6-1.8-3.6-3.84,1.38-3.96,3.48-3.96Zm-1.69,2.79h3.43c-.11-.92-.72-1.44-1.68-1.44-.79,0-1.49.44-1.75,1.44Z"/><path class="cls-3" d="m482.89,115.73v-4.95c0-.71-.51-1.12-1.25-1.12-1.21,0-1.44,1.21-1.44,2.02v4.05h-1.71v-7.5h1.65v.6c.27-.21.9-.75,2.1-.75.87,0,1.62.3,2.03.99.33-.33,1.06-.99,2.37-.99s2.36.69,2.36,2.34v5.31h-1.71v-4.95c0-.71-.51-1.12-1.25-1.12-1.21,0-1.44,1.21-1.44,2.02v4.05h-1.71Z"/><path class="cls-3" d="m423.23,129.98c-.01-2.14.51-3.85,1.68-6.22h1.5c-1.09,2.25-1.67,4.29-1.67,6.24s.71,4.51,1.67,6.21h-1.5c-1-1.77-1.66-4.08-1.68-6.23Z"/><path class="cls-3" d="m430.28,130.93l1.54-7.4h2.59l1.51,7.44,1.73-7.44h1.8l-2.47,10.2h-2.16l-1.74-8.04-1.71,8.04h-2.14l-2.5-10.2h1.88l1.68,7.4Z"/><path class="cls-3" d="m446.94,132.17c.19,0,.39-.03.67-.09v1.65c-.53.08-.79.09-1.07.09-.92,0-1.35-.19-1.69-.78-.27.21-1.02.84-2.34.84-1.68,0-2.94-1.17-2.94-2.49,0-1.71,1.44-2.4,3.51-2.4h1.44v-.36c0-.81-.63-1.35-1.53-1.35s-1.41.46-1.41,1.35h-1.83c0-1.62,1.44-2.55,3.28-2.55,1.7,0,3.13.77,3.13,2.39v3.06c0,.45.3.65.77.65Zm-4.19.51c1.23,0,1.77-1.05,1.77-1.65v-.75c-2.61-.12-3.09.48-3.09,1.29,0,.6.51,1.11,1.32,1.11Z"/><path class="cls-3" d="m448.79,126.23l1.79,4.87,1.79-4.87h1.77l-2.79,7.5h-1.53l-2.79-7.5h1.77Z"/><path class="cls-3" d="m457.91,126.08c2.1,0,3.41,1.5,3.51,4.29h-5.32c.13,1.31.92,1.86,1.92,1.86,1.15,0,1.51-.72,1.67-1.05h1.65c-.09,1.02-1.05,2.7-3.3,2.7s-3.6-1.8-3.6-3.84,1.38-3.96,3.48-3.96Zm-1.69,2.79h3.43c-.11-.92-.72-1.44-1.68-1.44-.79,0-1.49.44-1.75,1.44Z"/><path class="cls-3" d="m466.7,132.28h2.82v-5.89h-2.38v-1.2c2.21-.15,2.62-.9,2.82-1.65h1.35v8.74h2.59v1.46h-7.2v-1.46Z"/><path class="cls-3" d="m478.44,129.98c.02,2.15-.51,3.85-1.68,6.23h-1.5c1.09-2.25,1.67-4.29,1.67-6.24s-.71-4.52-1.67-6.21h1.5c1,1.77,1.67,4.08,1.68,6.22Z"/><path class="cls-3" d="m670.12,101.32h4.2l-.04,5.41h-1.69c-.02-.23-.02-.44-.03-.65-.51.5-1.33.79-2.34.79-2.59,0-4.67-1.95-4.67-5.25s2.01-5.25,4.68-5.25c1.98,0,3.69.99,4,3.28h-2.1c-.11-.87-.86-1.5-2.01-1.5-1.65,0-2.71,1.29-2.71,3.46s1.17,3.46,3.03,3.46c1.29,0,1.92-.65,2.1-2.07h-2.42v-1.71Z"/><path class="cls-3" d="m680.61,106.73v-4.95c0-.84-.57-1.29-1.31-1.29-1.21,0-1.5,1.29-1.5,2.19v4.05h-1.65v-10.2h1.59v3.3c.27-.27.96-.75,2.16-.75,1.3,0,2.42.69,2.42,2.34v5.31h-1.71Z"/><path class="cls-3" d="m687.36,99.08c2.25,0,3.6,1.94,3.6,3.96,0,1.89-1.2,3.84-3.6,3.84s-3.6-1.95-3.6-3.84c0-2.02,1.35-3.96,3.6-3.96Zm0,1.65c-1.18,0-1.95.9-1.95,2.25,0,1.44.79,2.25,1.95,2.25s1.95-.81,1.95-2.25c0-1.35-.76-2.25-1.95-2.25Z"/><path class="cls-3" d="m695.04,100.36c-.87,0-1.17.39-1.17.78,0,1.26,4.44.33,4.44,3.24,0,1.41-1.02,2.5-3.09,2.5-2.68,0-3.21-1.65-3.21-2.55h1.71c.12.58.51,1.2,1.63,1.2.83,0,1.3-.31,1.3-.94,0-1.48-4.44-.38-4.44-3.22,0-1.17.78-2.28,2.97-2.28,2.37,0,3,1.56,3,2.31h-1.71c.03-.67-.54-1.03-1.44-1.03Z"/><path class="cls-3" d="m701.61,96.53v2.7h1.05v1.65h-1.05v3.87c0,.45.3.57.6.57.27,0,.45-.06.56-.12v1.5c-.14.04-.5.18-1.19.18-1.14,0-1.62-.69-1.62-1.41v-4.59h-.9v-1.65h.9v-2.7h1.65Z"/><path class="cls-3" d="m705.82,96.38v1.8h-1.71v-1.8h1.71Zm0,2.85v7.5h-1.71v-7.5h1.71Z"/><path class="cls-3" d="m712.14,106.73v-4.95c0-.71-.54-1.12-1.3-1.12-1.21,0-1.5,1.06-1.5,1.88v4.2h-1.71v-7.5h1.65v.6c.62-.48,1.39-.75,2.16-.75,1.3,0,2.41.69,2.41,2.34v5.31h-1.71Z"/><path class="cls-3" d="m720.54,105.8c-.36.29-1,.63-1.92.63-2.19,0-3.33-1.65-3.33-3.54,0-2.02,1.32-3.81,3.24-3.81,1.11,0,1.74.42,2.07.69v-.54h1.59v7.35c0,1.92-1.14,3-3.33,3s-3.51-.93-3.51-2.55h1.71c.18.5.42,1.2,1.77,1.2,1.2,0,1.71-.6,1.71-1.5v-.93Zm-1.74-.72c1.09,0,1.8-.75,1.8-2.19,0-1.35-.67-2.16-1.8-2.16s-1.86.81-1.86,2.16c0,1.44.76,2.19,1.86,2.19Z"/><path class="cls-3" d="m727.14,101.63c0-3.23,2-5.25,4.53-5.25s4.56,2.02,4.56,5.25-2.03,5.25-4.56,5.25-4.53-2.02-4.53-5.25Zm7.21,0c0-2.18-1.11-3.46-2.68-3.46s-2.67,1.29-2.67,3.46,1.09,3.46,2.67,3.46,2.68-1.29,2.68-3.46Z"/><path class="cls-3" d="m739.81,96.53v2.7h1.05v1.65h-1.05v3.87c0,.45.3.57.6.57.27,0,.45-.06.56-.12v1.5c-.14.04-.5.18-1.19.18-1.14,0-1.62-.69-1.62-1.41v-4.59h-.9v-1.65h.9v-2.7h1.65Z"/><path class="cls-3" d="m746.77,106.73v-4.95c0-.84-.57-1.29-1.3-1.29-1.21,0-1.5,1.29-1.5,2.19v4.05h-1.65v-10.2h1.59v3.3c.27-.27.96-.75,2.16-.75,1.3,0,2.42.69,2.42,2.34v5.31h-1.71Z"/><path class="cls-3" d="m753.33,99.08c2.1,0,3.41,1.5,3.51,4.29h-5.32c.13,1.31.92,1.86,1.92,1.86,1.15,0,1.51-.72,1.67-1.05h1.65c-.09,1.02-1.05,2.7-3.3,2.7s-3.6-1.8-3.6-3.84,1.38-3.96,3.48-3.96Zm-1.69,2.79h3.43c-.11-.92-.72-1.44-1.68-1.44-.79,0-1.49.44-1.75,1.44Z"/><path class="cls-3" d="m761.67,100.7c-1.09,0-1.74.45-1.74,2.27v3.76h-1.71v-7.5h1.65v.84c.42-.51.93-.99,1.89-.99.45,0,.87.09,1.2.24l-.09,1.65c-.35-.15-.63-.27-1.2-.27Z"/><path class="cls-3" d="m766.48,100.36c-.87,0-1.17.39-1.17.78,0,1.26,4.44.33,4.44,3.24,0,1.41-1.02,2.5-3.09,2.5-2.68,0-3.21-1.65-3.21-2.55h1.71c.12.58.51,1.2,1.63,1.2.83,0,1.3-.31,1.3-.94,0-1.48-4.44-.38-4.44-3.22,0-1.17.78-2.28,2.97-2.28,2.37,0,3,1.56,3,2.31h-1.71c.03-.67-.54-1.03-1.44-1.03Z"/><path class="cls-3" d="m661.39,121.93l1.54-7.4h2.6l1.51,7.44,1.72-7.44h1.8l-2.47,10.2h-2.16l-1.74-8.04-1.71,8.04h-2.15l-2.5-10.2h1.88l1.68,7.4Z"/><path class="cls-3" d="m673.12,114.38v1.8h-1.71v-1.8h1.71Zm0,2.85v7.5h-1.71v-7.5h1.71Z"/><path class="cls-3" d="m676.88,114.53v2.7h1.05v1.65h-1.05v3.87c0,.45.3.57.6.57.27,0,.45-.06.55-.12v1.5c-.13.04-.5.18-1.18.18-1.14,0-1.62-.69-1.62-1.41v-4.59h-.9v-1.65h.9v-2.7h1.65Z"/><path class="cls-3" d="m683.83,124.73v-4.95c0-.84-.57-1.29-1.31-1.29-1.21,0-1.5,1.29-1.5,2.19v4.05h-1.65v-10.2h1.59v3.3c.27-.27.96-.75,2.16-.75,1.3,0,2.42.69,2.42,2.34v5.31h-1.71Z"/><path class="cls-3" d="m688.99,114.38v1.8h-1.71v-1.8h1.71Zm0,2.85v7.5h-1.71v-7.5h1.71Z"/><path class="cls-3" d="m695.31,124.73v-4.95c0-.71-.54-1.12-1.3-1.12-1.21,0-1.5,1.06-1.5,1.88v4.2h-1.71v-7.5h1.65v.6c.62-.48,1.39-.75,2.16-.75,1.3,0,2.41.69,2.41,2.34v5.31h-1.71Z"/><path class="cls-3" d="m702.45,114.53h6.07v1.69h-4.29v2.08h3.88v1.7h-3.88v3.85c0,.36.02.66.09.87h-1.88v-10.2Z"/><path class="cls-3" d="m713.32,118.7c-1.09,0-1.74.45-1.74,2.27v3.76h-1.71v-7.5h1.65v.84c.42-.51.93-.99,1.89-.99.45,0,.87.09,1.2.24l-.09,1.65c-.34-.15-.63-.27-1.2-.27Z"/><path class="cls-3" d="m717.27,114.38v1.8h-1.71v-1.8h1.71Zm0,2.85v7.5h-1.71v-7.5h1.71Z"/><path class="cls-3" d="m722.17,117.08c2.1,0,3.4,1.5,3.51,4.29h-5.33c.13,1.31.92,1.86,1.92,1.86,1.16,0,1.52-.72,1.67-1.05h1.65c-.09,1.02-1.05,2.7-3.3,2.7s-3.6-1.8-3.6-3.84,1.38-3.96,3.48-3.96Zm-1.7,2.79h3.43c-.1-.92-.72-1.44-1.68-1.44-.79,0-1.48.44-1.75,1.44Z"/><path class="cls-3" d="m731.58,124.73v-4.95c0-.71-.54-1.12-1.3-1.12-1.21,0-1.5,1.06-1.5,1.88v4.2h-1.71v-7.5h1.65v.6c.62-.48,1.4-.75,2.16-.75,1.3,0,2.42.69,2.42,2.34v5.31h-1.71Z"/><path class="cls-3" d="m740.22,124.73v-.66c-.33.24-.99.81-2.07.81-2.19,0-3.42-1.92-3.42-3.84,0-2.16,1.17-3.96,3.36-3.96,1.08,0,1.71.45,2.07.69v-3.24h1.65v10.2h-1.59Zm-1.89-1.5c1.12,0,1.89-.75,1.89-2.25s-.79-2.25-1.89-2.25-1.95.66-1.95,2.25c0,1.5.83,2.25,1.95,2.25Z"/><path class="cls-3" d="m746.19,118.36c-.87,0-1.17.39-1.17.78,0,1.26,4.44.33,4.44,3.24,0,1.41-1.02,2.5-3.09,2.5-2.68,0-3.21-1.65-3.21-2.55h1.71c.12.58.51,1.2,1.63,1.2.83,0,1.3-.31,1.3-.94,0-1.48-4.44-.38-4.44-3.22,0-1.17.78-2.28,2.97-2.28,2.37,0,3,1.56,3,2.31h-1.71c.03-.67-.54-1.03-1.44-1.03Z"/><path class="cls-3" d="m755.26,124.73v-4.95c0-.84-.57-1.29-1.3-1.29-1.21,0-1.5,1.29-1.5,2.19v4.05h-1.65v-10.2h1.59v3.3c.27-.27.96-.75,2.16-.75,1.3,0,2.42.69,2.42,2.34v5.31h-1.71Z"/><path class="cls-3" d="m760.42,114.38v1.8h-1.71v-1.8h1.71Zm0,2.85v7.5h-1.71v-7.5h1.71Z"/><path class="cls-3" d="m763.81,117.23v.66c.33-.24.99-.81,2.07-.81,2.19,0,3.42,1.92,3.42,3.84,0,2.16-1.17,3.96-3.36,3.96-1.08,0-1.71-.45-2.07-.69v3.24h-1.65v-10.2h1.59Zm1.89,1.5c-1.12,0-1.89.75-1.89,2.25s.79,2.25,1.89,2.25,1.95-.66,1.95-2.25c0-1.5-.83-2.25-1.95-2.25Z"/><path class="cls-3" d="m773.38,118.36c-.87,0-1.17.39-1.17.78,0,1.26,4.44.33,4.44,3.24,0,1.41-1.02,2.5-3.09,2.5-2.68,0-3.21-1.65-3.21-2.55h1.71c.12.58.51,1.2,1.63,1.2.83,0,1.3-.31,1.3-.94,0-1.48-4.44-.38-4.44-3.22,0-1.17.78-2.28,2.97-2.28,2.37,0,3,1.56,3,2.31h-1.71c.03-.67-.54-1.03-1.44-1.03Z"/><path class="cls-3" d="m689.89,138.98c-.01-2.14.51-3.85,1.68-6.22h1.5c-1.09,2.25-1.67,4.29-1.67,6.24s.71,4.51,1.67,6.21h-1.5c-1-1.77-1.66-4.08-1.68-6.23Z"/><path class="cls-3" d="m696.94,139.93l1.54-7.4h2.59l1.51,7.44,1.73-7.44h1.8l-2.47,10.2h-2.16l-1.74-8.04-1.71,8.04h-2.14l-2.5-10.2h1.88l1.68,7.4Z"/><path class="cls-3" d="m713.61,141.17c.19,0,.39-.03.67-.09v1.65c-.53.08-.79.09-1.07.09-.92,0-1.35-.19-1.69-.78-.27.21-1.02.84-2.34.84-1.68,0-2.94-1.17-2.94-2.49,0-1.71,1.44-2.4,3.51-2.4h1.44v-.36c0-.81-.63-1.35-1.53-1.35s-1.41.46-1.41,1.35h-1.83c0-1.62,1.44-2.55,3.28-2.55,1.7,0,3.13.77,3.13,2.39v3.06c0,.45.3.65.77.65Zm-4.19.51c1.23,0,1.77-1.05,1.77-1.65v-.75c-2.61-.12-3.09.48-3.09,1.29,0,.6.51,1.11,1.32,1.11Z"/><path class="cls-3" d="m715.45,135.23l1.79,4.87,1.79-4.87h1.77l-2.79,7.5h-1.53l-2.79-7.5h1.77Z"/><path class="cls-3" d="m724.57,135.08c2.1,0,3.41,1.5,3.51,4.29h-5.32c.13,1.31.92,1.86,1.92,1.86,1.15,0,1.51-.72,1.67-1.05h1.65c-.09,1.02-1.05,2.7-3.3,2.7s-3.6-1.8-3.6-3.84,1.38-3.96,3.48-3.96Zm-1.69,2.79h3.43c-.11-.92-.72-1.44-1.68-1.44-.79,0-1.49.44-1.75,1.44Z"/><path class="cls-3" d="m733.14,141.23l3.39-3.01c1.14-1,1.84-1.64,1.84-2.62,0-.81-.56-1.56-1.71-1.56s-1.77.79-1.79,2.27h-1.8c-.15-2.48,1.48-3.92,3.72-3.92s3.41,1.42,3.41,3c0,1.68-.95,2.8-2.19,3.81l-2.16,1.74h4.4v1.8h-7.11v-1.5Z"/><path class="cls-3" d="m745.11,138.98c.02,2.15-.51,3.85-1.68,6.23h-1.5c1.09-2.25,1.67-4.29,1.67-6.24s-.71-4.52-1.67-6.21h1.5c1,1.77,1.67,4.08,1.68,6.22Z"/><path class="cls-3" d="m403.46,213.32h4.2l-.04,5.42h-1.69c-.02-.23-.02-.44-.03-.65-.51.5-1.33.79-2.34.79-2.59,0-4.67-1.95-4.67-5.25s2.01-5.25,4.68-5.25c1.98,0,3.69.99,4,3.28h-2.1c-.11-.87-.86-1.5-2.01-1.5-1.65,0-2.71,1.29-2.71,3.46s1.17,3.46,3.03,3.46c1.29,0,1.92-.65,2.1-2.07h-2.42v-1.71Z"/><path class="cls-3" d="m413.94,218.73v-4.95c0-.84-.57-1.29-1.31-1.29-1.21,0-1.5,1.29-1.5,2.19v4.05h-1.65v-10.2h1.59v3.3c.27-.27.96-.75,2.16-.75,1.3,0,2.42.69,2.42,2.34v5.31h-1.71Z"/><path class="cls-3" d="m420.69,211.08c2.25,0,3.6,1.94,3.6,3.96,0,1.89-1.2,3.84-3.6,3.84s-3.6-1.95-3.6-3.84c0-2.02,1.35-3.96,3.6-3.96Zm0,1.65c-1.18,0-1.95.9-1.95,2.25,0,1.44.79,2.25,1.95,2.25s1.95-.81,1.95-2.25c0-1.35-.76-2.25-1.95-2.25Z"/><path class="cls-3" d="m428.37,212.36c-.87,0-1.17.39-1.17.78,0,1.26,4.44.33,4.44,3.24,0,1.41-1.02,2.5-3.09,2.5-2.68,0-3.21-1.65-3.21-2.55h1.71c.12.58.51,1.2,1.63,1.2.83,0,1.3-.32,1.3-.95,0-1.48-4.44-.38-4.44-3.22,0-1.17.78-2.28,2.97-2.28,2.37,0,3,1.56,3,2.31h-1.71c.03-.67-.54-1.04-1.44-1.04Z"/><path class="cls-3" d="m434.94,208.53v2.7h1.05v1.65h-1.05v3.87c0,.45.3.57.6.57.27,0,.45-.06.56-.12v1.5c-.14.04-.5.18-1.19.18-1.14,0-1.62-.69-1.62-1.41v-4.59h-.9v-1.65h.9v-2.7h1.65Z"/><path class="cls-3" d="m439.16,208.38v1.8h-1.71v-1.8h1.71Zm0,2.85v7.5h-1.71v-7.5h1.71Z"/><path class="cls-3" d="m445.47,218.73v-4.95c0-.71-.54-1.12-1.3-1.12-1.21,0-1.5,1.07-1.5,1.88v4.2h-1.71v-7.5h1.65v.6c.62-.48,1.39-.75,2.16-.75,1.3,0,2.41.69,2.41,2.34v5.31h-1.71Z"/><path class="cls-3" d="m453.87,217.8c-.36.29-1,.63-1.92.63-2.19,0-3.33-1.65-3.33-3.54,0-2.03,1.32-3.81,3.24-3.81,1.11,0,1.74.42,2.07.69v-.54h1.59v7.35c0,1.92-1.14,3-3.33,3s-3.51-.93-3.51-2.55h1.71c.18.5.42,1.2,1.77,1.2,1.2,0,1.71-.6,1.71-1.5v-.93Zm-1.74-.72c1.09,0,1.8-.75,1.8-2.19,0-1.35-.67-2.16-1.8-2.16s-1.86.81-1.86,2.16c0,1.44.76,2.19,1.86,2.19Z"/><path class="cls-3" d="m460.47,213.63c0-3.23,2-5.25,4.53-5.25s4.56,2.02,4.56,5.25-2.03,5.25-4.56,5.25-4.53-2.02-4.53-5.25Zm7.21,0c0-2.18-1.11-3.46-2.68-3.46s-2.67,1.29-2.67,3.46,1.09,3.46,2.67,3.46,2.68-1.29,2.68-3.46Z"/><path class="cls-3" d="m473.15,208.53v2.7h1.05v1.65h-1.05v3.87c0,.45.3.57.6.57.27,0,.45-.06.56-.12v1.5c-.14.04-.5.18-1.19.18-1.14,0-1.62-.69-1.62-1.41v-4.59h-.9v-1.65h.9v-2.7h1.65Z"/><path class="cls-3" d="m480.11,218.73v-4.95c0-.84-.57-1.29-1.3-1.29-1.21,0-1.5,1.29-1.5,2.19v4.05h-1.65v-10.2h1.59v3.3c.27-.27.96-.75,2.16-.75,1.3,0,2.42.69,2.42,2.34v5.31h-1.71Z"/><path class="cls-3" d="m486.66,211.08c2.1,0,3.41,1.5,3.51,4.29h-5.32c.13,1.31.92,1.86,1.92,1.86,1.15,0,1.51-.72,1.67-1.05h1.65c-.09,1.02-1.05,2.7-3.3,2.7s-3.6-1.8-3.6-3.84,1.38-3.96,3.48-3.96Zm-1.69,2.79h3.43c-.11-.92-.72-1.44-1.68-1.44-.79,0-1.49.43-1.75,1.44Z"/><path class="cls-3" d="m495,212.7c-1.09,0-1.74.45-1.74,2.27v3.76h-1.71v-7.5h1.65v.84c.42-.51.93-.99,1.89-.99.45,0,.87.09,1.2.24l-.09,1.65c-.35-.15-.63-.27-1.2-.27Z"/><path class="cls-3" d="m499.82,212.36c-.87,0-1.17.39-1.17.78,0,1.26,4.44.33,4.44,3.24,0,1.41-1.02,2.5-3.09,2.5-2.68,0-3.21-1.65-3.21-2.55h1.71c.12.58.51,1.2,1.63,1.2.83,0,1.3-.32,1.3-.95,0-1.48-4.44-.38-4.44-3.22,0-1.17.78-2.28,2.97-2.28,2.37,0,3,1.56,3,2.31h-1.71c.03-.67-.54-1.04-1.44-1.04Z"/><path class="cls-3" d="m394.73,233.93l1.54-7.4h2.6l1.51,7.44,1.72-7.44h1.8l-2.47,10.2h-2.16l-1.74-8.04-1.71,8.04h-2.15l-2.5-10.2h1.88l1.68,7.4Z"/><path class="cls-3" d="m406.46,226.38v1.8h-1.71v-1.8h1.71Zm0,2.85v7.5h-1.71v-7.5h1.71Z"/><path class="cls-3" d="m410.21,226.53v2.7h1.05v1.65h-1.05v3.87c0,.45.3.57.6.57.27,0,.45-.06.55-.12v1.5c-.13.04-.5.18-1.18.18-1.14,0-1.62-.69-1.62-1.41v-4.59h-.9v-1.65h.9v-2.7h1.65Z"/><path class="cls-3" d="m417.17,236.73v-4.95c0-.84-.57-1.29-1.31-1.29-1.21,0-1.5,1.29-1.5,2.19v4.05h-1.65v-10.2h1.59v3.3c.27-.27.96-.75,2.16-.75,1.3,0,2.42.69,2.42,2.34v5.31h-1.71Z"/><path class="cls-3" d="m422.33,226.38v1.8h-1.71v-1.8h1.71Zm0,2.85v7.5h-1.71v-7.5h1.71Z"/><path class="cls-3" d="m428.64,236.73v-4.95c0-.71-.54-1.12-1.3-1.12-1.21,0-1.5,1.07-1.5,1.88v4.2h-1.71v-7.5h1.65v.6c.62-.48,1.39-.75,2.16-.75,1.3,0,2.41.69,2.41,2.34v5.31h-1.71Z"/><path class="cls-3" d="m435.78,226.53h6.07v1.7h-4.29v2.08h3.88v1.7h-3.88v3.85c0,.36.02.66.09.87h-1.88v-10.2Z"/><path class="cls-3" d="m446.66,230.7c-1.09,0-1.74.45-1.74,2.27v3.76h-1.71v-7.5h1.65v.84c.42-.51.93-.99,1.89-.99.45,0,.87.09,1.2.24l-.09,1.65c-.34-.15-.63-.27-1.2-.27Z"/><path class="cls-3" d="m450.6,226.38v1.8h-1.71v-1.8h1.71Zm0,2.85v7.5h-1.71v-7.5h1.71Z"/><path class="cls-3" d="m455.51,229.08c2.1,0,3.4,1.5,3.51,4.29h-5.33c.13,1.31.92,1.86,1.92,1.86,1.16,0,1.52-.72,1.67-1.05h1.65c-.09,1.02-1.05,2.7-3.3,2.7s-3.6-1.8-3.6-3.84,1.38-3.96,3.48-3.96Zm-1.7,2.79h3.43c-.1-.92-.72-1.44-1.68-1.44-.79,0-1.48.43-1.75,1.44Z"/><path class="cls-3" d="m464.91,236.73v-4.95c0-.71-.54-1.12-1.3-1.12-1.21,0-1.5,1.07-1.5,1.88v4.2h-1.71v-7.5h1.65v.6c.62-.48,1.4-.75,2.16-.75,1.3,0,2.42.69,2.42,2.34v5.31h-1.71Z"/><path class="cls-3" d="m473.55,236.73v-.66c-.33.24-.99.81-2.07.81-2.19,0-3.42-1.92-3.42-3.84,0-2.16,1.17-3.96,3.36-3.96,1.08,0,1.71.45,2.07.69v-3.24h1.65v10.2h-1.59Zm-1.89-1.5c1.12,0,1.89-.75,1.89-2.25s-.79-2.25-1.89-2.25-1.95.66-1.95,2.25c0,1.5.83,2.25,1.95,2.25Z"/><path class="cls-3" d="m479.52,230.36c-.87,0-1.17.39-1.17.78,0,1.26,4.44.33,4.44,3.24,0,1.41-1.02,2.5-3.09,2.5-2.68,0-3.21-1.65-3.21-2.55h1.71c.12.58.51,1.2,1.63,1.2.83,0,1.3-.32,1.3-.95,0-1.48-4.44-.38-4.44-3.22,0-1.17.78-2.28,2.97-2.28,2.37,0,3,1.56,3,2.31h-1.71c.03-.67-.54-1.04-1.44-1.04Z"/><path class="cls-3" d="m488.6,236.73v-4.95c0-.84-.57-1.29-1.3-1.29-1.21,0-1.5,1.29-1.5,2.19v4.05h-1.65v-10.2h1.59v3.3c.27-.27.96-.75,2.16-.75,1.3,0,2.42.69,2.42,2.34v5.31h-1.71Z"/><path class="cls-3" d="m493.76,226.38v1.8h-1.71v-1.8h1.71Zm0,2.85v7.5h-1.71v-7.5h1.71Z"/><path class="cls-3" d="m497.15,229.23v.66c.33-.24.99-.81,2.07-.81,2.19,0,3.42,1.92,3.42,3.84,0,2.16-1.17,3.96-3.36,3.96-1.08,0-1.71-.45-2.07-.69v3.24h-1.65v-10.2h1.59Zm1.89,1.5c-1.12,0-1.89.75-1.89,2.25s.79,2.25,1.89,2.25,1.95-.66,1.95-2.25c0-1.5-.83-2.25-1.95-2.25Z"/><path class="cls-3" d="m506.72,230.36c-.87,0-1.17.39-1.17.78,0,1.26,4.44.33,4.44,3.24,0,1.41-1.02,2.5-3.09,2.5-2.68,0-3.21-1.65-3.21-2.55h1.71c.12.58.51,1.2,1.63,1.2.83,0,1.3-.32,1.3-.95,0-1.48-4.44-.38-4.44-3.22,0-1.17.78-2.28,2.97-2.28,2.37,0,3,1.56,3,2.31h-1.71c.03-.67-.54-1.04-1.44-1.04Z"/><path class="cls-3" d="m423.23,250.98c-.01-2.14.51-3.85,1.68-6.22h1.5c-1.09,2.25-1.67,4.29-1.67,6.24s.71,4.51,1.67,6.21h-1.5c-1-1.77-1.66-4.08-1.68-6.22Z"/><path class="cls-3" d="m430.28,251.93l1.54-7.4h2.59l1.51,7.44,1.73-7.44h1.8l-2.47,10.2h-2.16l-1.74-8.04-1.71,8.04h-2.14l-2.5-10.2h1.88l1.68,7.4Z"/><path class="cls-3" d="m446.94,253.17c.19,0,.39-.03.67-.09v1.65c-.53.08-.79.09-1.07.09-.92,0-1.35-.2-1.69-.78-.27.21-1.02.84-2.34.84-1.68,0-2.94-1.17-2.94-2.49,0-1.71,1.44-2.4,3.51-2.4h1.44v-.36c0-.81-.63-1.35-1.53-1.35s-1.41.46-1.41,1.35h-1.83c0-1.62,1.44-2.55,3.28-2.55,1.7,0,3.13.77,3.13,2.39v3.06c0,.45.3.64.77.64Zm-4.19.51c1.23,0,1.77-1.05,1.77-1.65v-.75c-2.61-.12-3.09.48-3.09,1.29,0,.6.51,1.11,1.32,1.11Z"/><path class="cls-3" d="m448.79,247.23l1.79,4.88,1.79-4.88h1.77l-2.79,7.5h-1.53l-2.79-7.5h1.77Z"/><path class="cls-3" d="m457.91,247.08c2.1,0,3.41,1.5,3.51,4.29h-5.32c.13,1.31.92,1.86,1.92,1.86,1.15,0,1.51-.72,1.67-1.05h1.65c-.09,1.02-1.05,2.7-3.3,2.7s-3.6-1.8-3.6-3.84,1.38-3.96,3.48-3.96Zm-1.69,2.79h3.43c-.11-.92-.72-1.44-1.68-1.44-.79,0-1.49.43-1.75,1.44Z"/><path class="cls-3" d="m466.7,253.28h2.82v-5.89h-2.38v-1.2c2.21-.15,2.62-.9,2.82-1.65h1.35v8.75h2.59v1.46h-7.2v-1.46Z"/><path class="cls-3" d="m478.44,250.98c.02,2.14-.51,3.85-1.68,6.22h-1.5c1.09-2.25,1.67-4.29,1.67-6.24s-.71-4.52-1.67-6.21h1.5c1,1.77,1.67,4.08,1.68,6.22Z"/><path class="cls-3" d="m682.34,208.53h3.04c3.04,0,5.08,1.94,5.08,5.1s-2.04,5.1-5.08,5.1h-3.04v-10.2Zm6.27,5.1c0-2.27-1.2-3.41-3.33-3.41h-1.16v6.81h1.16c2.13,0,3.33-1.14,3.33-3.4Z"/><path class="cls-3" d="m695.21,211.08c2.1,0,3.4,1.5,3.51,4.29h-5.33c.13,1.31.92,1.86,1.92,1.86,1.16,0,1.52-.72,1.67-1.05h1.65c-.09,1.02-1.05,2.7-3.3,2.7s-3.6-1.8-3.6-3.84,1.38-3.96,3.48-3.96Zm-1.7,2.79h3.43c-.1-.92-.72-1.44-1.68-1.44-.79,0-1.48.43-1.75,1.44Z"/><path class="cls-3" d="m701.69,211.23v.66c.33-.24.99-.81,2.07-.81,2.19,0,3.42,1.92,3.42,3.84,0,2.16-1.17,3.96-3.36,3.96-1.08,0-1.71-.45-2.07-.69v3.24h-1.65v-10.2h1.59Zm1.89,1.5c-1.12,0-1.89.75-1.89,2.25s.79,2.25,1.89,2.25,1.95-.66,1.95-2.25c0-1.5-.83-2.25-1.95-2.25Z"/><path class="cls-3" d="m712.13,212.7c-1.09,0-1.74.45-1.74,2.27v3.76h-1.71v-7.5h1.65v.84c.42-.51.93-.99,1.89-.99.45,0,.87.09,1.2.24l-.09,1.65c-.34-.15-.63-.27-1.2-.27Z"/><path class="cls-3" d="m717.17,211.08c2.1,0,3.4,1.5,3.51,4.29h-5.33c.13,1.31.92,1.86,1.92,1.86,1.16,0,1.52-.72,1.67-1.05h1.65c-.09,1.02-1.05,2.7-3.3,2.7s-3.6-1.8-3.6-3.84,1.38-3.96,3.48-3.96Zm-1.7,2.79h3.43c-.1-.92-.72-1.44-1.68-1.44-.79,0-1.48.43-1.75,1.44Z"/><path class="cls-3" d="m724.64,212.36c-.87,0-1.17.39-1.17.78,0,1.26,4.44.33,4.44,3.24,0,1.41-1.02,2.5-3.09,2.5-2.68,0-3.21-1.65-3.21-2.55h1.71c.12.58.51,1.2,1.63,1.2.83,0,1.3-.32,1.3-.95,0-1.48-4.44-.38-4.44-3.22,0-1.17.78-2.28,2.97-2.28,2.37,0,3,1.56,3,2.31h-1.71c.03-.67-.54-1.04-1.44-1.04Z"/><path class="cls-3" d="m731.84,212.36c-.87,0-1.17.39-1.17.78,0,1.26,4.44.33,4.44,3.24,0,1.41-1.02,2.5-3.09,2.5-2.68,0-3.21-1.65-3.21-2.55h1.71c.12.58.51,1.2,1.64,1.2.82,0,1.3-.32,1.3-.95,0-1.48-4.44-.38-4.44-3.22,0-1.17.78-2.28,2.97-2.28,2.37,0,3,1.56,3,2.31h-1.71c.03-.67-.54-1.04-1.44-1.04Z"/><path class="cls-3" d="m738.17,208.38v1.8h-1.71v-1.8h1.71Zm0,2.85v7.5h-1.71v-7.5h1.71Z"/><path class="cls-3" d="m740.84,211.23l1.78,4.88,1.79-4.88h1.77l-2.79,7.5h-1.53l-2.79-7.5h1.77Z"/><path class="cls-3" d="m749.96,211.08c2.1,0,3.41,1.5,3.51,4.29h-5.32c.13,1.31.92,1.86,1.92,1.86,1.15,0,1.51-.72,1.67-1.05h1.65c-.09,1.02-1.05,2.7-3.3,2.7s-3.6-1.8-3.6-3.84,1.38-3.96,3.48-3.96Zm-1.69,2.79h3.43c-.11-.92-.72-1.44-1.68-1.44-.79,0-1.49.43-1.75,1.44Z"/><path class="cls-3" d="m662.48,228.33h-2.67v-1.8h7.14v1.8h-2.67v8.4h-1.8v-8.4Z"/><path class="cls-3" d="m669.65,229.08c2.1,0,3.4,1.5,3.51,4.29h-5.33c.13,1.31.92,1.86,1.92,1.86,1.16,0,1.52-.72,1.67-1.05h1.65c-.09,1.02-1.05,2.7-3.3,2.7s-3.6-1.8-3.6-3.84,1.38-3.96,3.48-3.96Zm-1.7,2.79h3.43c-.1-.92-.72-1.44-1.68-1.44-.79,0-1.48.43-1.75,1.44Z"/><path class="cls-3" d="m679.05,236.73v-4.95c0-.71-.54-1.12-1.3-1.12-1.21,0-1.5,1.07-1.5,1.88v4.2h-1.71v-7.5h1.65v.6c.62-.48,1.4-.75,2.16-.75,1.3,0,2.42.69,2.42,2.34v5.31h-1.71Z"/><path class="cls-3" d="m687.69,236.73v-.66c-.33.24-.99.81-2.07.81-2.19,0-3.42-1.92-3.42-3.84,0-2.16,1.17-3.96,3.36-3.96,1.08,0,1.71.45,2.07.69v-3.24h1.65v10.2h-1.59Zm-1.89-1.5c1.12,0,1.89-.75,1.89-2.25s-.79-2.25-1.89-2.25-1.95.66-1.95,2.25c0,1.5.83,2.25,1.95,2.25Z"/><path class="cls-3" d="m694.18,229.08c2.1,0,3.41,1.5,3.51,4.29h-5.32c.13,1.31.92,1.86,1.92,1.86,1.15,0,1.51-.72,1.67-1.05h1.65c-.09,1.02-1.05,2.7-3.3,2.7s-3.6-1.8-3.6-3.84,1.38-3.96,3.48-3.96Zm-1.69,2.79h3.43c-.11-.92-.72-1.44-1.68-1.44-.79,0-1.49.43-1.75,1.44Z"/><path class="cls-3" d="m703.59,236.73v-4.95c0-.71-.54-1.12-1.3-1.12-1.21,0-1.5,1.07-1.5,1.88v4.2h-1.71v-7.5h1.65v.6c.62-.48,1.39-.75,2.16-.75,1.3,0,2.41.69,2.41,2.34v5.31h-1.71Z"/><path class="cls-3" d="m710.25,229.08c2.61,0,3.21,2.28,3.42,3.3h-1.74c-.15-.93-.61-1.65-1.74-1.65-.98,0-1.8.75-1.8,2.25,0,1.59.92,2.25,1.92,2.25,1.14,0,1.5-.81,1.77-1.5h1.56c0,1.26-1.11,3.15-3.48,3.15-2.07,0-3.42-1.8-3.42-3.84,0-2.32,1.47-3.96,3.51-3.96Z"/><path class="cls-3" d="m716.82,226.38v1.8h-1.71v-1.8h1.71Zm0,2.85v7.5h-1.71v-7.5h1.71Z"/><path class="cls-3" d="m721.72,229.08c2.1,0,3.41,1.5,3.51,4.29h-5.32c.13,1.31.92,1.86,1.92,1.86,1.15,0,1.51-.72,1.67-1.05h1.65c-.09,1.02-1.05,2.7-3.3,2.7s-3.6-1.8-3.6-3.84,1.38-3.96,3.48-3.96Zm-1.69,2.79h3.43c-.11-.92-.72-1.44-1.68-1.44-.79,0-1.49.43-1.75,1.44Z"/><path class="cls-3" d="m729.19,230.36c-.87,0-1.17.39-1.17.78,0,1.26,4.44.33,4.44,3.24,0,1.41-1.02,2.5-3.09,2.5-2.68,0-3.21-1.65-3.21-2.55h1.71c.12.58.51,1.2,1.64,1.2.82,0,1.3-.32,1.3-.95,0-1.48-4.44-.38-4.44-3.22,0-1.17.78-2.28,2.97-2.28,2.37,0,3,1.56,3,2.31h-1.71c.03-.67-.54-1.04-1.44-1.04Z"/><path class="cls-3" d="m737.02,232.98c-.02-2.14.51-3.85,1.68-6.22h1.5c-1.09,2.25-1.67,4.29-1.67,6.24s.71,4.51,1.67,6.21h-1.5c-1-1.77-1.67-4.08-1.68-6.22Z"/><path class="cls-3" d="m744.07,233.93l1.54-7.4h2.6l1.51,7.44,1.72-7.44h1.8l-2.47,10.2h-2.16l-1.74-8.04-1.71,8.04h-2.15l-2.5-10.2h1.88l1.68,7.4Z"/><path class="cls-3" d="m760.74,235.17c.2,0,.39-.03.67-.09v1.65c-.52.08-.79.09-1.06.09-.92,0-1.35-.2-1.7-.78-.27.21-1.02.84-2.34.84-1.68,0-2.94-1.17-2.94-2.49,0-1.71,1.44-2.4,3.51-2.4h1.44v-.36c0-.81-.63-1.35-1.53-1.35s-1.41.46-1.41,1.35h-1.83c0-1.62,1.44-2.55,3.29-2.55,1.69,0,3.13.77,3.13,2.39v3.06c0,.45.3.64.76.64Zm-4.18.51c1.23,0,1.77-1.05,1.77-1.65v-.75c-2.61-.12-3.09.48-3.09,1.29,0,.6.51,1.11,1.32,1.11Z"/><path class="cls-3" d="m762.58,229.23l1.78,4.88,1.79-4.88h1.77l-2.79,7.5h-1.53l-2.79-7.5h1.77Z"/><path class="cls-3" d="m771.7,229.08c2.1,0,3.41,1.5,3.51,4.29h-5.32c.13,1.31.92,1.86,1.92,1.86,1.15,0,1.51-.72,1.67-1.05h1.65c-.09,1.02-1.05,2.7-3.3,2.7s-3.6-1.8-3.6-3.84,1.38-3.96,3.48-3.96Zm-1.69,2.79h3.43c-.11-.92-.72-1.44-1.68-1.44-.79,0-1.49.43-1.75,1.44Z"/><path class="cls-3" d="m711.75,253.23l3.39-3.01c1.14-1,1.84-1.64,1.84-2.62,0-.81-.56-1.56-1.71-1.56s-1.77.79-1.79,2.27h-1.8c-.15-2.48,1.48-3.92,3.72-3.92s3.41,1.42,3.41,3c0,1.68-.95,2.8-2.19,3.81l-2.16,1.74h4.4v1.8h-7.11v-1.5Z"/><path class="cls-3" d="m723.72,250.98c.02,2.14-.51,3.85-1.68,6.22h-1.5c1.09-2.25,1.67-4.29,1.67-6.24s-.71-4.52-1.67-6.21h1.5c1,1.77,1.67,4.08,1.68,6.22Z"/><path class="cls-3" d="m446.19,5.35c-.12-1.18-.4-2.7-2.58-2.7-1.6,0-2.36.8-2.36,1.88,0,3.28,7.58-.02,7.58,5.92,0,2.76-2.14,4.4-5.22,4.4-3.84,0-5.46-2.38-5.14-4.66h2.52c.1,1.54.3,2.86,2.7,2.86,1.96,0,2.64-.96,2.64-2,0-3.46-7.6-.26-7.6-6.2,0-2.28,1.9-4,4.82-4,3.7,0,5.24,1.92,5.04,4.5h-2.4Z"/><path class="cls-3" d="m452.99.85v2.4h-2.28V.85h2.28Zm0,3.8v10h-2.28V4.65h2.28Z"/><path class="cls-3" d="m461.99,13.41c-.48.38-1.34.84-2.56.84-2.92,0-4.44-2.2-4.44-4.72,0-2.7,1.76-5.08,4.32-5.08,1.48,0,2.32.56,2.76.92v-.72h2.12v9.8c0,2.56-1.52,4-4.44,4s-4.68-1.24-4.68-3.4h2.28c.24.66.56,1.6,2.36,1.6,1.6,0,2.28-.8,2.28-2v-1.24Zm-2.32-.96c1.46,0,2.4-1,2.4-2.92,0-1.8-.9-2.88-2.4-2.88s-2.48,1.08-2.48,2.88c0,1.92,1.02,2.92,2.48,2.92Z"/><path class="cls-3" d="m472.61,14.65v-6.6c0-.94-.72-1.5-1.74-1.5-1.62,0-2,1.42-2,2.5v5.6h-2.28V4.65h2.2v.8c.82-.64,1.86-1,2.88-1,1.74,0,3.22.92,3.22,3.12v7.08h-2.28Z"/><path class="cls-3" d="m479.49.85v2.4h-2.28V.85h2.28Zm0,3.8v10h-2.28V4.65h2.28Z"/><path class="cls-3" d="m482.29,6.85h-1.2v-2.2h1.2v-1.64c0-.96.64-2.16,2.16-2.16.92,0,1.4.1,1.58.12v2.2c-.14,0-.38-.04-.74-.04-.4,0-.8.16-.8.76v.76h1.4v2.2h-1.4v7.8h-2.2v-7.8Zm7.08-6v2.4h-2.28V.85h2.28Zm0,3.8v10h-2.28V4.65h2.28Z"/><path class="cls-3" d="m496.05,4.45c3.48,0,4.28,3.04,4.56,4.4h-2.32c-.2-1.24-.82-2.2-2.32-2.2-1.3,0-2.4,1-2.4,3,0,2.12,1.22,3,2.56,3,1.52,0,2-1.08,2.36-2h2.08c0,1.68-1.48,4.2-4.64,4.2-2.76,0-4.56-2.4-4.56-5.12,0-3.1,1.96-5.28,4.68-5.28Z"/><path class="cls-3" d="m511.79,12.57c.26,0,.52-.04.9-.12v2.2c-.7.1-1.06.12-1.42.12-1.22,0-1.8-.26-2.26-1.04-.36.28-1.36,1.12-3.12,1.12-2.24,0-3.92-1.56-3.92-3.32,0-2.28,1.92-3.2,4.68-3.2h1.92v-.48c0-1.08-.84-1.8-2.04-1.8s-1.88.62-1.88,1.8h-2.44c0-2.16,1.92-3.4,4.38-3.4,2.26,0,4.18,1.02,4.18,3.18v4.08c0,.6.4.86,1.02.86Zm-5.58.68c1.64,0,2.36-1.4,2.36-2.2v-1c-3.48-.16-4.12.64-4.12,1.72,0,.8.68,1.48,1.76,1.48Z"/><path class="cls-3" d="m519.71,14.65v-6.6c0-.94-.72-1.5-1.74-1.5-1.62,0-2,1.42-2,2.5v5.6h-2.28V4.65h2.2v.8c.82-.64,1.86-1,2.88-1,1.74,0,3.22.92,3.22,3.12v7.08h-2.28Z"/><path class="cls-3" d="m526.91,1.05v3.6h1.4v2.2h-1.4v5.16c0,.6.4.76.8.76.36,0,.6-.08.74-.16v2c-.18.06-.66.24-1.58.24-1.52,0-2.16-.92-2.16-1.88v-6.12h-1.2v-2.2h1.2V1.05h2.2Z"/><path class="cls-3" d="m538.93,4.45c3.48,0,4.28,3.04,4.56,4.4h-2.32c-.2-1.24-.82-2.2-2.32-2.2-1.3,0-2.4,1-2.4,3,0,2.12,1.22,3,2.56,3,1.52,0,2-1.08,2.36-2h2.08c0,1.68-1.48,4.2-4.64,4.2-2.76,0-4.56-2.4-4.56-5.12,0-3.1,1.96-5.28,4.68-5.28Z"/><path class="cls-3" d="m549.81,4.45c3,0,4.8,2.58,4.8,5.28,0,2.52-1.6,5.12-4.8,5.12s-4.8-2.6-4.8-5.12c0-2.7,1.8-5.28,4.8-5.28Zm0,2.2c-1.58,0-2.6,1.2-2.6,3,0,1.92,1.06,3,2.6,3s2.6-1.08,2.6-3c0-1.8-1.02-3-2.6-3Z"/><path class="cls-3" d="m561.21,6.61c-1.46,0-2.32.6-2.32,3.02v5.02h-2.28V4.65h2.2v1.12c.56-.68,1.24-1.32,2.52-1.32.6,0,1.16.12,1.6.32l-.12,2.2c-.46-.2-.84-.36-1.6-.36Z"/><path class="cls-3" d="m568.79,6.61c-1.46,0-2.32.6-2.32,3.02v5.02h-2.28V4.65h2.2v1.12c.56-.68,1.24-1.32,2.52-1.32.6,0,1.16.12,1.6.32l-.12,2.2c-.46-.2-.84-.36-1.6-.36Z"/><path class="cls-3" d="m575.51,4.45c2.8,0,4.54,2,4.68,5.72h-7.1c.18,1.74,1.22,2.48,2.56,2.48,1.54,0,2.02-.96,2.22-1.4h2.2c-.12,1.36-1.4,3.6-4.4,3.6s-4.8-2.4-4.8-5.12,1.84-5.28,4.64-5.28Zm-2.26,3.72h4.58c-.14-1.22-.96-1.92-2.24-1.92-1.06,0-1.98.58-2.34,1.92Z"/><path class="cls-3" d="m584.31,1.05v13.6h-2.28V1.05h2.28Z"/><path class="cls-3" d="m595.97,12.57c.26,0,.52-.04.9-.12v2.2c-.7.1-1.06.12-1.42.12-1.22,0-1.8-.26-2.26-1.04-.36.28-1.36,1.12-3.12,1.12-2.24,0-3.92-1.56-3.92-3.32,0-2.28,1.92-3.2,4.68-3.2h1.92v-.48c0-1.08-.84-1.8-2.04-1.8s-1.88.62-1.88,1.8h-2.44c0-2.16,1.92-3.4,4.38-3.4,2.26,0,4.18,1.02,4.18,3.18v4.08c0,.6.4.86,1.02.86Zm-5.58.68c1.64,0,2.36-1.4,2.36-2.2v-1c-3.48-.16-4.12.64-4.12,1.72,0,.8.68,1.48,1.76,1.48Z"/><path class="cls-3" d="m600.27,1.05v3.6h1.4v2.2h-1.4v5.16c0,.6.4.76.8.76.36,0,.6-.08.74-.16v2c-.18.06-.66.24-1.58.24-1.52,0-2.16-.92-2.16-1.88v-6.12h-1.2v-2.2h1.2V1.05h2.2Z"/><path class="cls-3" d="m605.89.85v2.4h-2.28V.85h2.28Zm0,3.8v10h-2.28V4.65h2.28Z"/><path class="cls-3" d="m612.69,4.45c3,0,4.8,2.58,4.8,5.28,0,2.52-1.6,5.12-4.8,5.12s-4.8-2.6-4.8-5.12c0-2.7,1.8-5.28,4.8-5.28Zm0,2.2c-1.58,0-2.6,1.2-2.6,3,0,1.92,1.06,3,2.6,3s2.6-1.08,2.6-3c0-1.8-1.02-3-2.6-3Z"/><path class="cls-3" d="m625.51,14.65v-6.6c0-.94-.72-1.5-1.74-1.5-1.62,0-2,1.42-2,2.5v5.6h-2.28V4.65h2.2v.8c.82-.64,1.86-1,2.88-1,1.74,0,3.22.92,3.22,3.12v7.08h-2.28Z"/><path class="cls-3" d="m633.55,6.15c-1.16,0-1.56.52-1.56,1.04,0,1.68,5.92.44,5.92,4.32,0,1.88-1.36,3.34-4.12,3.34-3.58,0-4.28-2.2-4.28-3.4h2.28c.16.78.68,1.6,2.18,1.6,1.1,0,1.74-.42,1.74-1.26,0-1.98-5.92-.5-5.92-4.3,0-1.56,1.04-3.04,3.96-3.04,3.16,0,4,2.08,4,3.08h-2.28c.04-.9-.72-1.38-1.92-1.38Z"/><path class="cls-3" d="m646.39.85v2.4h-2.28V.85h2.28Zm0,3.8v10h-2.28V4.65h2.28Z"/><path class="cls-3" d="m654.81,14.65v-6.6c0-.94-.72-1.5-1.74-1.5-1.62,0-2,1.42-2,2.5v5.6h-2.28V4.65h2.2v.8c.82-.64,1.86-1,2.88-1,1.74,0,3.22.92,3.22,3.12v7.08h-2.28Z"/><path class="cls-3" d="m670.41,13.41c-.48.38-1.34.84-2.56.84-2.92,0-4.44-2.2-4.44-4.72,0-2.7,1.76-5.08,4.32-5.08,1.48,0,2.32.56,2.76.92v-.72h2.12v9.8c0,2.56-1.52,4-4.44,4s-4.68-1.24-4.68-3.4h2.28c.24.66.56,1.6,2.36,1.6,1.6,0,2.28-.8,2.28-2v-1.24Zm-2.32-.96c1.46,0,2.4-1,2.4-2.92,0-1.8-.9-2.88-2.4-2.88s-2.48,1.08-2.48,2.88c0,1.92,1.02,2.92,2.48,2.92Z"/><path class="cls-3" d="m680.95,14.65v-6.6c0-1.12-.76-1.72-1.74-1.72-1.62,0-2,1.72-2,2.92v5.4h-2.2V1.05h2.12v4.4c.36-.36,1.28-1,2.88-1,1.74,0,3.22.92,3.22,3.12v7.08h-2.28Z"/><path class="cls-3" d="m689.95,4.45c3,0,4.8,2.58,4.8,5.28,0,2.52-1.6,5.12-4.8,5.12s-4.8-2.6-4.8-5.12c0-2.7,1.8-5.28,4.8-5.28Zm0,2.2c-1.58,0-2.6,1.2-2.6,3,0,1.92,1.06,3,2.6,3s2.6-1.08,2.6-3c0-1.8-1.02-3-2.6-3Z"/><path class="cls-3" d="m700.19,6.15c-1.16,0-1.56.52-1.56,1.04,0,1.68,5.92.44,5.92,4.32,0,1.88-1.36,3.34-4.12,3.34-3.58,0-4.28-2.2-4.28-3.4h2.28c.16.78.68,1.6,2.18,1.6,1.1,0,1.74-.42,1.74-1.26,0-1.98-5.92-.5-5.92-4.3,0-1.56,1.04-3.04,3.96-3.04,3.16,0,4,2.08,4,3.08h-2.28c.04-.9-.72-1.38-1.92-1.38Z"/><path class="cls-3" d="m708.95,1.05v3.6h1.4v2.2h-1.4v5.16c0,.6.4.76.8.76.36,0,.6-.08.74-.16v2c-.18.06-.66.24-1.58.24-1.52,0-2.16-.92-2.16-1.88v-6.12h-1.2v-2.2h1.2V1.05h2.2Z"/><path class="cls-3" d="m714.57.85v2.4h-2.28V.85h2.28Zm0,3.8v10h-2.28V4.65h2.28Z"/><path class="cls-3" d="m722.99,14.65v-6.6c0-.94-.72-1.5-1.74-1.5-1.62,0-2,1.42-2,2.5v5.6h-2.28V4.65h2.2v.8c.82-.64,1.86-1,2.88-1,1.74,0,3.22.92,3.22,3.12v7.08h-2.28Z"/><path class="cls-3" d="m734.19,13.41c-.48.38-1.34.84-2.56.84-2.92,0-4.44-2.2-4.44-4.72,0-2.7,1.76-5.08,4.32-5.08,1.48,0,2.32.56,2.76.92v-.72h2.12v9.8c0,2.56-1.52,4-4.44,4s-4.68-1.24-4.68-3.4h2.28c.24.66.56,1.6,2.36,1.6,1.6,0,2.28-.8,2.28-2v-1.24Zm-2.32-.96c1.46,0,2.4-1,2.4-2.92,0-1.8-.9-2.88-2.4-2.88s-2.48,1.08-2.48,2.88c0,1.92,1.02,2.92,2.48,2.92Z"/><path class="cls-3" d="m500.8,25.05h2.2v4.32c.48-.32,1.32-.92,2.76-.92,2.92,0,4.48,2.4,4.48,5.28,0,2.56-1.64,5.12-4.56,5.12-1.44,0-2.32-.76-2.76-1.08v.88h-2.12v-13.6Zm4.64,5.6c-1.46,0-2.52,1-2.52,3s1.02,3,2.52,3,2.6-1,2.6-3c0-2.12-1.14-3-2.6-3Z"/><path class="cls-3" d="m516.38,28.45c2.8,0,4.54,2,4.68,5.72h-7.1c.18,1.74,1.22,2.48,2.56,2.48,1.54,0,2.02-.96,2.22-1.4h2.2c-.12,1.36-1.4,3.6-4.4,3.6s-4.8-2.4-4.8-5.12,1.84-5.28,4.64-5.28Zm-2.26,3.72h4.58c-.14-1.22-.96-1.92-2.24-1.92-1.06,0-1.98.58-2.34,1.92Z"/><path class="cls-3" d="m525.5,25.05v3.6h1.4v2.2h-1.4v5.16c0,.6.4.76.8.76.36,0,.6-.08.74-.16v2c-.18.06-.66.24-1.58.24-1.52,0-2.16-.92-2.16-1.88v-6.12h-1.2v-2.2h1.2v-3.6h2.2Z"/><path class="cls-3" d="m529.96,28.65l2.14,6.76,2.14-6.76h2.2l2.18,6.88,2.18-6.88h2.32l-3.36,10h-2.28l-2.12-6.56-2.08,6.56h-2.28l-3.36-10h2.32Z"/><path class="cls-3" d="m548.16,28.45c2.8,0,4.54,2,4.68,5.72h-7.1c.18,1.74,1.22,2.48,2.56,2.48,1.54,0,2.02-.96,2.22-1.4h2.2c-.12,1.36-1.4,3.6-4.4,3.6s-4.8-2.4-4.8-5.12,1.84-5.28,4.64-5.28Zm-2.26,3.72h4.58c-.14-1.22-.96-1.92-2.24-1.92-1.06,0-1.98.58-2.34,1.92Z"/><path class="cls-3" d="m558.82,28.45c2.8,0,4.54,2,4.68,5.72h-7.1c.18,1.74,1.22,2.48,2.56,2.48,1.54,0,2.02-.96,2.22-1.4h2.2c-.12,1.36-1.4,3.6-4.4,3.6s-4.8-2.4-4.8-5.12,1.84-5.28,4.64-5.28Zm-2.26,3.72h4.58c-.14-1.22-.96-1.92-2.24-1.92-1.06,0-1.98.58-2.34,1.92Z"/><path class="cls-3" d="m571.36,38.65v-6.6c0-.94-.72-1.5-1.74-1.5-1.62,0-2,1.42-2,2.5v5.6h-2.28v-10h2.2v.8c.82-.64,1.86-1,2.88-1,1.74,0,3.22.92,3.22,3.12v7.08h-2.28Z"/><path class="cls-3" d="m580.76,30.85h-1.2v-2.2h1.2v-1.64c0-.96.64-2.16,2.16-2.16.92,0,1.4.1,1.58.12v2.2c-.14,0-.38-.04-.74-.04-.4,0-.8.16-.8.76v.76h1.4v2.2h-1.4v7.8h-2.2v-7.8Z"/><path class="cls-3" d="m590.7,30.61c-1.46,0-2.32.6-2.32,3.02v5.02h-2.28v-10h2.2v1.12c.56-.68,1.24-1.32,2.52-1.32.6,0,1.16.12,1.6.32l-.12,2.2c-.46-.2-.84-.36-1.6-.36Z"/><path class="cls-3" d="m595.96,24.85v2.4h-2.28v-2.4h2.28Zm0,3.8v10h-2.28v-10h2.28Z"/><path class="cls-3" d="m602.5,28.45c2.8,0,4.54,2,4.68,5.72h-7.1c.18,1.74,1.22,2.48,2.56,2.48,1.54,0,2.02-.96,2.22-1.4h2.2c-.12,1.36-1.4,3.6-4.4,3.6s-4.8-2.4-4.8-5.12,1.84-5.28,4.64-5.28Zm-2.26,3.72h4.58c-.14-1.22-.96-1.92-2.24-1.92-1.06,0-1.98.58-2.34,1.92Z"/><path class="cls-3" d="m615.04,38.65v-6.6c0-.94-.72-1.5-1.74-1.5-1.62,0-2,1.42-2,2.5v5.6h-2.28v-10h2.2v.8c.82-.64,1.86-1,2.88-1,1.74,0,3.22.92,3.22,3.12v7.08h-2.28Z"/><path class="cls-3" d="m626.56,38.65v-.88c-.44.32-1.32,1.08-2.76,1.08-2.92,0-4.56-2.56-4.56-5.12,0-2.88,1.56-5.28,4.48-5.28,1.44,0,2.28.6,2.76.92v-4.32h2.2v13.6h-2.12Zm-2.52-2c1.5,0,2.52-1,2.52-3s-1.06-3-2.52-3-2.6.88-2.6,3c0,2,1.1,3,2.6,3Z"/><path class="cls-3" d="m634.52,30.15c-1.16,0-1.56.52-1.56,1.04,0,1.68,5.92.44,5.92,4.32,0,1.88-1.36,3.34-4.12,3.34-3.58,0-4.28-2.2-4.28-3.4h2.28c.16.78.68,1.6,2.18,1.6,1.1,0,1.74-.42,1.74-1.26,0-1.98-5.92-.5-5.92-4.3,0-1.56,1.04-3.04,3.96-3.04,3.16,0,4,2.08,4,3.08h-2.28c.04-.9-.72-1.38-1.92-1.38Z"/><path class="cls-3" d="m646.62,38.65v-6.6c0-1.12-.76-1.72-1.74-1.72-1.62,0-2,1.72-2,2.92v5.4h-2.2v-13.6h2.12v4.4c.36-.36,1.28-1,2.88-1,1.74,0,3.22.92,3.22,3.12v7.08h-2.28Z"/><path class="cls-3" d="m653.5,24.85v2.4h-2.28v-2.4h2.28Zm0,3.8v10h-2.28v-10h2.28Z"/><path class="cls-3" d="m658.02,28.65v.88c.44-.32,1.32-1.08,2.76-1.08,2.92,0,4.56,2.56,4.56,5.12,0,2.88-1.56,5.28-4.48,5.28-1.44,0-2.28-.6-2.76-.92v4.32h-2.2v-13.6h2.12Zm2.52,2c-1.5,0-2.52,1-2.52,3s1.06,3,2.52,3,2.6-.88,2.6-3c0-2-1.1-3-2.6-3Z"/><path class="cls-3" d="m670.78,30.15c-1.16,0-1.56.52-1.56,1.04,0,1.68,5.92.44,5.92,4.32,0,1.88-1.36,3.34-4.12,3.34-3.58,0-4.28-2.2-4.28-3.4h2.28c.16.78.68,1.6,2.18,1.6,1.1,0,1.74-.42,1.74-1.26,0-1.98-5.92-.5-5.92-4.3,0-1.56,1.04-3.04,3.96-3.04,3.16,0,4,2.08,4,3.08h-2.28c.04-.9-.72-1.38-1.92-1.38Z"/><line class="cls-5" x1="386.24" x2="386.24" y2="392.78"/></svg>