<?xml version="1.0" encoding="UTF-8"?><svg id="Layer_1" xmlns="http://www.w3.org/2000/svg" viewBox="0 0 1200 700"><defs><style>.cls-1{letter-spacing:-.01em;}.cls-2{letter-spacing:-.02em;}.cls-3{letter-spacing:-.02em;}.cls-4{letter-spacing:-.02em;}.cls-5{letter-spacing:0em;}.cls-6{font-size:10px;}.cls-6,.cls-7,.cls-8{font-family:Karrik-Regular, Karrik;}.cls-6,.cls-9,.cls-10{opacity:.5;}.cls-11{letter-spacing:-.03em;}.cls-12{letter-spacing:-.03em;}.cls-13{fill:#605c6d;opacity:.81;}.cls-13,.cls-14,.cls-10,.cls-15{stroke-width:0px;}.cls-16{letter-spacing:-.12em;}.cls-7{font-size:11px;}.cls-14{opacity:.1;}.cls-14,.cls-10{fill:#c0b5da;}.cls-8{font-size:20px;}.cls-17{stroke-width:2px;}.cls-17,.cls-9,.cls-18{fill:none;stroke:#000;stroke-miterlimit:10;}.cls-9,.cls-18{stroke-width:.25px;}.cls-19{letter-spacing:0em;}.cls-20{letter-spacing:-.01em;}.cls-21{letter-spacing:-.02em;}.cls-15{fill:#403d49;}.cls-22{letter-spacing:0em;}</style></defs><rect class="cls-14" x="488.09" y="179.26" width="100" height="55.46"/><rect class="cls-14" x="487.96" y="234.95" width="100" height="55.62"/><rect class="cls-14" x="487.96" y="290.51" width="100" height="55.46"/><rect class="cls-15" x="487.98" y="345.97" width="100.22" height="55.74"/><line class="cls-18" x1="488.09" y1="623.84" x2="488.09" y2="123.84"/><text class="cls-7" transform="translate(511.23 148.6)"><tspan x="0" y="0">Dep</tspan><tspan class="cls-4" x="19.6" y="0">r</tspan><tspan x="23.55" y="0">essi</tspan><tspan class="cls-21" x="42.55" y="0">v</tspan><tspan x="47.6" y="0">e </tspan><tspan class="cls-16" x="-22.31" y="13.2">T</tspan><tspan x="-17.67" y="13.2">endencies (</tspan><tspan class="cls-2" x="37.29" y="13.2">W</tspan><tspan class="cls-12" x="46.32" y="13.2">a</tspan><tspan class="cls-21" x="52.13" y="13.2">v</tspan><tspan x="57.18" y="13.2">e 2)</tspan></text><rect class="cls-15" x="288.13" y="180.09" width="100.22" height="55.74"/><rect class="cls-14" x="388.35" y="180.28" width="100" height="55.33"/><rect class="cls-14" x="388.35" y="236.17" width="100" height="55.46"/><rect class="cls-14" x="288.24" y="291.38" width="100" height="55.46"/><rect class="cls-14" x="288.24" y="346.99" width="100" height="55.46"/><rect class="cls-14" x="388.35" y="346.99" width="100" height="55.46"/><rect class="cls-14" x="388.35" y="402.6" width="199.87" height="222.12"/><rect class="cls-14" x="288.24" y="457.99" width="100" height="110.73"/><rect class="cls-15" x="388.24" y="291.25" width="100.22" height="55.74"/><rect class="cls-15" x="288.13" y="402.46" width="100.22" height="55.74"/><rect class="cls-10" x="288.35" y="235.6" width="99.89" height="55.64"/><rect class="cls-10" x="288.35" y="568.99" width="99.89" height="55.73"/><rect class="cls-9" x="188.35" y="124.72" width="400" height="500"/><line class="cls-17" x1="588.35" y1="180.28" x2="188.35" y2="180.28"/><line class="cls-18" x1="588.35" y1="235.83" x2="188.35" y2="235.83"/><line class="cls-18" x1="588.35" y1="291.39" x2="188.35" y2="291.39"/><line class="cls-18" x1="588.35" y1="346.94" x2="188.35" y2="346.94"/><line class="cls-18" x1="588.35" y1="402.5" x2="188.35" y2="402.5"/><line class="cls-18" x1="588.35" y1="458.05" x2="188.35" y2="458.05"/><line class="cls-18" x1="588.35" y1="513.61" x2="188.35" y2="513.61"/><line class="cls-18" x1="588.35" y1="569.17" x2="188.35" y2="569.17"/><line class="cls-18" x1="288.35" y1="624.72" x2="288.35" y2="124.72"/><line class="cls-18" x1="388.35" y1="624.72" x2="388.35" y2="124.72"/><text class="cls-7" transform="translate(213.48 156.35)"><tspan x="0" y="0">P</tspan><tspan class="cls-4" x="6.13" y="0">r</tspan><tspan x="10.08" y="0">edictors</tspan></text><text class="cls-7" transform="translate(299.48 136.7)"><tspan x="0" y="0">Ghosting Others </tspan><tspan x="-.08" y="13.2">Within Romantic </tspan><tspan x="6.45" y="26.4">Rel</tspan><tspan class="cls-19" x="21.75" y="26.4">a</tspan><tspan x="27.78" y="26.4">tionships </tspan><tspan x="17.81" y="39.6">(</tspan><tspan class="cls-4" x="21.01" y="39.6">W</tspan><tspan class="cls-11" x="30.04" y="39.6">a</tspan><tspan class="cls-21" x="35.85" y="39.6">v</tspan><tspan x="40.9" y="39.6">e 2)</tspan></text><text class="cls-7" transform="translate(409.62 149.48)"><tspan x="0" y="0">Sel</tspan><tspan class="cls-19" x="14.9" y="0">f</tspan><tspan x="17.95" y="0">-Esteem </tspan><tspan x="7.76" y="13.2">(</tspan><tspan class="cls-4" x="10.96" y="13.2">W</tspan><tspan class="cls-11" x="19.99" y="13.2">a</tspan><tspan class="cls-21" x="25.8" y="13.2">v</tspan><tspan x="30.85" y="13.2">e 2)</tspan></text><text class="cls-7" transform="translate(199.7 191.81)"><tspan x="0" y="0">Ghosting Others </tspan><tspan x="-.08" y="13.2">Within Romantic </tspan><tspan x="6.45" y="26.4">Rel</tspan><tspan class="cls-19" x="21.75" y="26.4">a</tspan><tspan x="27.78" y="26.4">tionships </tspan><tspan x="17.81" y="39.6">(</tspan><tspan class="cls-4" x="21.01" y="39.6">W</tspan><tspan class="cls-11" x="30.04" y="39.6">a</tspan><tspan class="cls-21" x="35.85" y="39.6">v</tspan><tspan x="40.9" y="39.6">e 1)</tspan></text><text class="cls-7" transform="translate(200.52 254.26)"><tspan x="0" y="0">Communic</tspan><tspan class="cls-19" x="51.79" y="0">a</tspan><tspan x="57.82" y="0">tion </tspan><tspan x="15.83" y="13.2">O</tspan><tspan class="cls-21" x="23.58" y="13.2">v</tspan><tspan x="28.63" y="13.2">erload </tspan><tspan x="16.99" y="26.4">(</tspan><tspan class="cls-4" x="20.19" y="26.4">W</tspan><tspan class="cls-11" x="29.22" y="26.4">a</tspan><tspan class="cls-21" x="35.03" y="26.4">v</tspan><tspan x="40.08" y="26.4">e 1)</tspan></text><text class="cls-7" transform="translate(209.95 316.26)"><tspan x="0" y="0">Sel</tspan><tspan class="cls-19" x="14.9" y="0">f</tspan><tspan x="17.95" y="0">-Esteem </tspan><tspan x="7.76" y="13.2">(</tspan><tspan class="cls-4" x="10.96" y="13.2">W</tspan><tspan class="cls-11" x="19.99" y="13.2">a</tspan><tspan class="cls-21" x="25.8" y="13.2">v</tspan><tspan x="30.85" y="13.2">e 1)</tspan></text><text class="cls-7" transform="translate(211.55 371.86)"><tspan x="0" y="0">Dep</tspan><tspan class="cls-4" x="19.6" y="0">r</tspan><tspan x="23.55" y="0">essi</tspan><tspan class="cls-21" x="42.55" y="0">v</tspan><tspan x="47.6" y="0">e </tspan><tspan class="cls-16" x="-22.31" y="13.2">T</tspan><tspan x="-17.67" y="13.2">endencies (</tspan><tspan class="cls-2" x="37.29" y="13.2">W</tspan><tspan class="cls-12" x="46.32" y="13.2">a</tspan><tspan class="cls-21" x="52.13" y="13.2">v</tspan><tspan x="57.18" y="13.2">e 1)</tspan></text><text class="cls-7" transform="translate(229.16 433.88)"><tspan class="cls-22" x="0" y="0">A</tspan><tspan x="6.72" y="0">ge</tspan></text><text class="cls-7" transform="translate(220.61 489.46)"><tspan x="0" y="0">Gende</tspan><tspan class="cls-4" x="31.53" y="0">r</tspan></text><text class="cls-7" transform="translate(223.36 538.26)"><tspan x="0" y="0">L</tspan><tspan class="cls-19" x="5.76" y="0">o</tspan><tspan class="cls-21" x="11.81" y="0">w</tspan><tspan x="20.16" y="0">e</tspan><tspan class="cls-4" x="26.03" y="0">r</tspan><tspan x="29.97" y="0"> </tspan><tspan x="-9.04" y="13.2">Educ</tspan><tspan class="cls-19" x="15.15" y="13.2">a</tspan><tspan x="21.18" y="13.2">tion</tspan></text><text class="cls-7" transform="translate(222.46 594)"><tspan x="0" y="0">Highe</tspan><tspan class="cls-4" x="27.83" y="0">r</tspan><tspan x="31.78" y="0"> </tspan><tspan x="-8.14" y="13.2">Educ</tspan><tspan class="cls-19" x="16.05" y="13.2">a</tspan><tspan x="22.08" y="13.2">tion</tspan></text><text class="cls-8"><tspan x="164.44" y="81.18">Cor</tspan><tspan class="cls-3" x="196.86" y="81.18">r</tspan><tspan x="204.04" y="81.18">el</tspan><tspan class="cls-1" x="219.38" y="81.18">a</tspan><tspan x="230.34" y="81.18">tions in ghosting bet</tspan><tspan class="cls-20" x="403.9" y="81.18">w</tspan><tspan x="419.08" y="81.18">een </tspan><tspan class="cls-2" x="455.42" y="81.18">r</tspan><tspan x="462.6" y="81.18">omantic partners</tspan></text><rect class="cls-15" x="788.12" y="180.09" width="100.22" height="55.74"/><rect class="cls-14" x="888.34" y="180.28" width="100" height="55.33"/><rect class="cls-13" x="988.34" y="180.14" width="100" height="55.46"/><rect class="cls-14" x="888.34" y="236.17" width="100" height="55.46"/><rect class="cls-14" x="988.21" y="235.83" width="100" height="55.62"/><rect class="cls-10" x="788.23" y="291.38" width="100" height="55.46"/><rect class="cls-14" x="988.21" y="291.38" width="100" height="55.46"/><rect class="cls-14" x="788.23" y="346.99" width="100" height="55.46"/><rect class="cls-14" x="888.34" y="346.99" width="100" height="55.46"/><rect class="cls-14" x="888.34" y="402.6" width="199.87" height="222.12"/><rect class="cls-14" x="788.23" y="457.99" width="100" height="110.73"/><rect class="cls-15" x="888.23" y="291.25" width="100.22" height="55.74"/><rect class="cls-15" x="988.23" y="346.85" width="100.22" height="55.74"/><rect class="cls-14" x="788.12" y="402.46" width="100.22" height="55.74"/><rect class="cls-14" x="788.34" y="568.99" width="99.89" height="55.73"/><rect class="cls-9" x="688.34" y="124.72" width="400" height="500"/><line class="cls-18" x1="1088.34" y1="180.28" x2="688.34" y2="180.28"/><line class="cls-18" x1="1088.34" y1="235.83" x2="688.34" y2="235.83"/><line class="cls-18" x1="1088.34" y1="291.39" x2="688.34" y2="291.39"/><line class="cls-18" x1="1088.34" y1="346.94" x2="688.34" y2="346.94"/><line class="cls-18" x1="1088.34" y1="402.5" x2="688.34" y2="402.5"/><line class="cls-18" x1="1088.34" y1="458.05" x2="688.34" y2="458.05"/><line class="cls-18" x1="1088.34" y1="513.61" x2="688.34" y2="513.61"/><line class="cls-18" x1="1088.34" y1="569.17" x2="688.34" y2="569.17"/><line class="cls-18" x1="788.34" y1="624.72" x2="788.34" y2="124.72"/><line class="cls-18" x1="888.34" y1="624.72" x2="888.34" y2="124.72"/><line class="cls-18" x1="988.34" y1="624.72" x2="988.34" y2="124.72"/><text class="cls-7" transform="translate(713.48 156.35)"><tspan x="0" y="0">P</tspan><tspan class="cls-4" x="6.13" y="0">r</tspan><tspan x="10.08" y="0">edictors</tspan></text><text class="cls-7" transform="translate(799.47 143.3)"><tspan x="0" y="0">Ghosting Others </tspan><tspan x="-5.06" y="13.2">Within Friendships</tspan><tspan x="17.81" y="26.4">(</tspan><tspan class="cls-4" x="21.01" y="26.4">W</tspan><tspan class="cls-11" x="30.04" y="26.4">a</tspan><tspan class="cls-21" x="35.85" y="26.4">v</tspan><tspan x="40.9" y="26.4">e 2)</tspan></text><text class="cls-7" transform="translate(909.62 149.48)"><tspan x="0" y="0">Sel</tspan><tspan class="cls-19" x="14.9" y="0">f</tspan><tspan x="17.95" y="0">-Esteem </tspan><tspan x="7.76" y="13.2">(</tspan><tspan class="cls-4" x="10.96" y="13.2">W</tspan><tspan class="cls-11" x="19.99" y="13.2">a</tspan><tspan class="cls-21" x="25.8" y="13.2">v</tspan><tspan x="30.85" y="13.2">e 2)</tspan></text><text class="cls-7" transform="translate(1011.49 149.48)"><tspan x="0" y="0">Dep</tspan><tspan class="cls-4" x="19.6" y="0">r</tspan><tspan x="23.55" y="0">essi</tspan><tspan class="cls-21" x="42.55" y="0">v</tspan><tspan x="47.6" y="0">e </tspan><tspan class="cls-16" x="-22.31" y="13.2">T</tspan><tspan x="-17.67" y="13.2">endencies (</tspan><tspan class="cls-2" x="37.29" y="13.2">W</tspan><tspan class="cls-12" x="46.32" y="13.2">a</tspan><tspan class="cls-21" x="52.13" y="13.2">v</tspan><tspan x="57.18" y="13.2">e 2)</tspan></text><text class="cls-7" transform="translate(699.69 198.41)"><tspan x="0" y="0">Ghosting Others </tspan><tspan x="-5.06" y="13.2">Within Friendships</tspan><tspan x="17.81" y="26.4">(</tspan><tspan class="cls-4" x="21.01" y="26.4">W</tspan><tspan class="cls-11" x="30.04" y="26.4">a</tspan><tspan class="cls-21" x="35.85" y="26.4">v</tspan><tspan x="40.9" y="26.4">e 1)</tspan></text><text class="cls-7" transform="translate(700.51 254.26)"><tspan x="0" y="0">Communic</tspan><tspan class="cls-19" x="51.79" y="0">a</tspan><tspan x="57.82" y="0">tion </tspan><tspan x="15.83" y="13.2">O</tspan><tspan class="cls-21" x="23.58" y="13.2">v</tspan><tspan x="28.63" y="13.2">erload </tspan><tspan x="16.99" y="26.4">(</tspan><tspan class="cls-4" x="20.19" y="26.4">W</tspan><tspan class="cls-11" x="29.22" y="26.4">a</tspan><tspan class="cls-21" x="35.03" y="26.4">v</tspan><tspan x="40.08" y="26.4">e 1)</tspan></text><text class="cls-7" transform="translate(709.95 316.26)"><tspan x="0" y="0">Sel</tspan><tspan class="cls-19" x="14.9" y="0">f</tspan><tspan x="17.95" y="0">-Esteem </tspan><tspan x="7.76" y="13.2">(</tspan><tspan class="cls-4" x="10.96" y="13.2">W</tspan><tspan class="cls-11" x="19.99" y="13.2">a</tspan><tspan class="cls-21" x="25.8" y="13.2">v</tspan><tspan x="30.85" y="13.2">e 1)</tspan></text><text class="cls-7" transform="translate(711.54 371.86)"><tspan x="0" y="0">Dep</tspan><tspan class="cls-4" x="19.6" y="0">r</tspan><tspan x="23.55" y="0">essi</tspan><tspan class="cls-21" x="42.55" y="0">v</tspan><tspan x="47.6" y="0">e </tspan><tspan class="cls-16" x="-22.31" y="13.2">T</tspan><tspan x="-17.67" y="13.2">endencies (</tspan><tspan class="cls-2" x="37.29" y="13.2">W</tspan><tspan class="cls-12" x="46.32" y="13.2">a</tspan><tspan class="cls-21" x="52.13" y="13.2">v</tspan><tspan x="57.18" y="13.2">e 1)</tspan></text><text class="cls-7" transform="translate(729.16 433.88)"><tspan class="cls-22" x="0" y="0">A</tspan><tspan x="6.72" y="0">ge</tspan></text><text class="cls-7" transform="translate(720.6 489.46)"><tspan x="0" y="0">Gende</tspan><tspan class="cls-4" x="31.53" y="0">r</tspan></text><text class="cls-7" transform="translate(723.35 538.26)"><tspan x="0" y="0">L</tspan><tspan class="cls-19" x="5.76" y="0">o</tspan><tspan class="cls-21" x="11.81" y="0">w</tspan><tspan x="20.16" y="0">e</tspan><tspan class="cls-4" x="26.03" y="0">r</tspan><tspan x="29.97" y="0"> </tspan><tspan x="-9.04" y="13.2">Educ</tspan><tspan class="cls-19" x="15.15" y="13.2">a</tspan><tspan x="21.18" y="13.2">tion</tspan></text><text class="cls-7" transform="translate(722.45 594)"><tspan x="0" y="0">Highe</tspan><tspan class="cls-4" x="27.83" y="0">r</tspan><tspan x="31.78" y="0"> </tspan><tspan x="-8.14" y="13.2">Educ</tspan><tspan class="cls-19" x="16.05" y="13.2">a</tspan><tspan x="22.08" y="13.2">tion</tspan></text><text class="cls-8" transform="translate(694.56 81.18)"><tspan x="0" y="0">Cor</tspan><tspan class="cls-3" x="32.42" y="0">r</tspan><tspan x="39.6" y="0">el</tspan><tspan class="cls-1" x="54.94" y="0">a</tspan><tspan x="65.9" y="0">tions in ghosting bet</tspan><tspan class="cls-20" x="239.46" y="0">w</tspan><tspan x="254.64" y="0">een friendships</tspan></text><rect class="cls-14" x="788.12" y="236.17" width="100" height="55.46"/><rect class="cls-15" x="11.66" y="124.86" width="50.11" height="27.87"/><rect class="cls-10" x="12.01" y="194.34" width="49.94" height="27.82"/><rect class="cls-14" x="11.99" y="229.06" width="50" height="27.73"/><rect class="cls-13" x="11.93" y="159.58" width="50.11" height="27.87"/><text class="cls-7" transform="translate(63.99 142.53)"><tspan x="0" y="0">Ext</tspan><tspan class="cls-4" x="14.95" y="0">r</tspan><tspan x="18.9" y="0">emel</tspan><tspan class="cls-5" x="42.17" y="0">y</tspan><tspan x="47.33" y="0" xml:space="preserve"> significant</tspan></text><text class="cls-7" transform="translate(63.77 246.66)"><tspan x="0" y="0">Insignificant</tspan></text><text class="cls-7" transform="translate(63.99 177.26)"><tspan x="0" y="0">Highl</tspan><tspan class="cls-22" x="24.54" y="0">y</tspan><tspan x="29.7" y="0" xml:space="preserve"> significant</tspan></text><text class="cls-7" transform="translate(63.77 211.99)"><tspan x="0" y="0">Significant</tspan></text><text class="cls-6" transform="translate(187.98 640.39)"><tspan x="0" y="0">Data from the paper “Short-sighted ghosts. Psychological antecedents and consequences of ghosting others within emerging adults’ romantic relationships and friendships” by Michaela Forrai, Kevin Koban, </tspan><tspan x="0" y="12">and Jörg Matthes</tspan></text><line class="cls-17" x1="1088.09" y1="180.28" x2="688.09" y2="180.28"/></svg>